<svg xmlns="http://www.w3.org/2000/svg" width="195.598" height="145.744" viewBox="0 0 195.598 145.744">
  <g id="Forgot_password-rafiki" data-name="Forgot password-rafiki" transform="translate(0 -55)">
    <g id="freepik--background-complete--inject-32" transform="translate(0 55)">
      <rect id="Rectangle_184" data-name="Rectangle 184" width="195.598" height="0.098" transform="translate(0 128.077)" fill="#ebebeb"/>
      <rect id="Rectangle_185" data-name="Rectangle 185" width="9.96" height="0.098" transform="translate(113.529 130.741)" fill="#ebebeb"/>
      <rect id="Rectangle_186" data-name="Rectangle 186" width="23.601" height="0.098" transform="translate(154.565 132.858)" fill="#ebebeb"/>
      <rect id="Rectangle_187" data-name="Rectangle 187" width="24.383" height="0.098" transform="translate(87.025 130.788)" fill="#ebebeb"/>
      <rect id="Rectangle_188" data-name="Rectangle 188" width="5.101" height="0.098" transform="translate(66.112 133.714)" fill="#ebebeb"/>
      <rect id="Rectangle_189" data-name="Rectangle 189" width="23.229" height="0.098" transform="translate(76.17 133.714)" fill="#ebebeb"/>
      <rect id="Rectangle_190" data-name="Rectangle 190" width="15.041" height="0.098" transform="translate(20.522 132.064)" fill="#ebebeb"/>
      <path id="Path_781" data-name="Path 781" d="M115.976,165.63H40.44a2.234,2.234,0,0,1-2.23-2.234V57.214A2.234,2.234,0,0,1,40.44,55h75.536a2.234,2.234,0,0,1,2.234,2.234V163.4A2.234,2.234,0,0,1,115.976,165.63ZM40.44,55.078a2.136,2.136,0,0,0-2.132,2.136V163.4a2.136,2.136,0,0,0,2.132,2.136h75.536a2.14,2.14,0,0,0,2.136-2.136V57.214a2.14,2.14,0,0,0-2.136-2.136Z" transform="translate(-23.262 -55)" fill="#ebebeb"/>
      <path id="Path_782" data-name="Path 782" d="M332.274,165.63h-75.54A2.238,2.238,0,0,1,254.5,163.4V57.214A2.238,2.238,0,0,1,256.734,55h75.54a2.234,2.234,0,0,1,2.226,2.214V163.4A2.234,2.234,0,0,1,332.274,165.63ZM256.734,55.078a2.14,2.14,0,0,0-2.136,2.136V163.4a2.14,2.14,0,0,0,2.136,2.136h75.54a2.14,2.14,0,0,0,2.136-2.136V57.214a2.14,2.14,0,0,0-2.136-2.136Z" transform="translate(-154.941 -55)" fill="#ebebeb"/>
      <path id="Path_783" data-name="Path 783" d="M153.082,267.361H127.107L125.53,249.17h25.975Z" transform="translate(-76.423 -173.212)" fill="#e6e6e6"/>
      <path id="Path_784" data-name="Path 784" d="M156.522,267.361H130.547L128.97,249.17h25.975Z" transform="translate(-78.518 -173.212)" fill="#f0f0f0"/>
      <path id="Path_785" data-name="Path 785" d="M140.728,269.528l-.868-10.378h18.163l.868,10.378Z" transform="translate(-85.147 -179.287)" fill="#fff"/>
      <rect id="Rectangle_191" data-name="Rectangle 191" width="3.047" height="33.928" transform="translate(79.452 94.149)" fill="#e6e6e6"/>
      <rect id="Rectangle_192" data-name="Rectangle 192" width="2.116" height="33.928" transform="translate(81.345 94.149)" fill="#f0f0f0"/>
      <rect id="Rectangle_193" data-name="Rectangle 193" width="29.5" height="3.744" transform="translate(83.462 97.893) rotate(180)" fill="#f0f0f0"/>
      <rect id="Rectangle_194" data-name="Rectangle 194" width="3.047" height="30.185" transform="translate(51.955 97.893)" fill="#e6e6e6"/>
      <rect id="Rectangle_195" data-name="Rectangle 195" width="2.116" height="30.185" transform="translate(53.848 97.893)" fill="#f0f0f0"/>
      <rect id="Rectangle_196" data-name="Rectangle 196" width="3.047" height="30.185" transform="translate(30.263 97.893)" fill="#e6e6e6"/>
      <rect id="Rectangle_197" data-name="Rectangle 197" width="2.116" height="30.185" transform="translate(32.156 97.893)" fill="#f0f0f0"/>
      <rect id="Rectangle_198" data-name="Rectangle 198" width="3.047" height="30.185" transform="translate(60.166 97.893)" fill="#e6e6e6"/>
      <rect id="Rectangle_199" data-name="Rectangle 199" width="2.116" height="30.185" transform="translate(62.055 97.893)" fill="#f0f0f0"/>
      <rect id="Rectangle_200" data-name="Rectangle 200" width="23.699" height="3.744" transform="translate(30.263 94.149)" fill="#e6e6e6"/>
      <rect id="Rectangle_201" data-name="Rectangle 201" width="91.669" height="51.035" transform="translate(50.664 9.549)" fill="#fff"/>
      <rect id="Rectangle_202" data-name="Rectangle 202" width="96.242" height="51.035" transform="translate(51.125 9.549)" fill="#f5f5f5"/>
      <rect id="Rectangle_203" data-name="Rectangle 203" width="47.89" height="93.097" transform="translate(145.795 11.122) rotate(90)" fill="#d4dce1"/>
      <path id="Path_786" data-name="Path 786" d="M185.927,131.32,203.5,83.43H174.5L156.92,131.32Z" transform="translate(-95.534 -72.308)" fill="#fff"/>
      <path id="Path_787" data-name="Path 787" d="M268.383,131.32,285.96,83.43H264.076L246.5,131.32Z" transform="translate(-150.07 -72.308)" fill="#fff"/>
      <rect id="Rectangle_204" data-name="Rectangle 204" width="7.793" height="48.743" transform="translate(163.594 79.334)" fill="#e6e6e6"/>
      <path id="Path_788" data-name="Path 788" d="M429.528,376.562h2.05V372.81h-4.2Z" transform="translate(-260.191 -248.484)" fill="#fafafa"/>
      <rect id="Rectangle_205" data-name="Rectangle 205" width="7.793" height="48.743" transform="translate(91.747 79.334)" fill="#e6e6e6"/>
      <rect id="Rectangle_206" data-name="Rectangle 206" width="73.635" height="47.73" transform="translate(97.752 79.334)" fill="#fafafa"/>
      <path id="Path_789" data-name="Path 789" d="M324.3,276.191H253.45V262.71H324.3Zm-70.454-.391H323.9V263.1H253.841Z" transform="translate(-154.302 -181.455)" fill="#e6e6e6"/>
      <path id="Path_790" data-name="Path 790" d="M324.64,271.885H280.11c-2.066,0-4.057-1.667-5.477-4.577l-.133-.278h55.745l-.133.278C328.681,270.218,326.725,271.885,324.64,271.885Zm-49.5-4.475c1.322,2.594,3.13,4.072,4.968,4.072h44.53c1.846,0,3.646-1.479,4.968-4.072Z" transform="translate(-167.117 -184.085)" fill="#e6e6e6"/>
      <path id="Path_791" data-name="Path 791" d="M251.93,376.562h-2.05V372.81h4.2Z" transform="translate(-152.128 -248.484)" fill="#fafafa"/>
      <path id="Path_792" data-name="Path 792" d="M324.3,315.045H253.45V301.58H324.3Zm-70.454-.391H323.9V301.971H253.841Z" transform="translate(-154.302 -205.119)" fill="#e6e6e6"/>
      <path id="Path_793" data-name="Path 793" d="M324.64,310.749H280.11c-2.066,0-4.057-1.67-5.477-4.577l-.133-.282h55.745l-.133.282C328.681,309.063,326.725,310.749,324.64,310.749Zm-49.5-4.467c1.322,2.594,3.13,4.076,4.968,4.076h44.53c1.846,0,3.646-1.483,4.968-4.076Z" transform="translate(-167.117 -207.743)" fill="#e6e6e6"/>
      <path id="Path_794" data-name="Path 794" d="M324.3,353.921H253.45V340.44H324.3Zm-70.454-.391H323.9v-12.7H253.841Z" transform="translate(-154.302 -228.777)" fill="#e6e6e6"/>
      <path id="Path_795" data-name="Path 795" d="M324.64,349.615H280.11c-2.066,0-4.057-1.667-5.477-4.573l-.133-.282h55.745l-.133.282C328.681,347.948,326.725,349.615,324.64,349.615Zm-49.5-4.464c1.322,2.594,3.13,4.072,4.968,4.072h44.53c1.846,0,3.646-1.479,4.968-4.072Z" transform="translate(-167.117 -231.407)" fill="#e6e6e6"/>
      <path id="Path_796" data-name="Path 796" d="M106.076,274.28v.947h-.6l-.5,7.421H97.6l-.5-7.421H96.5v-.947Z" transform="translate(-58.75 -188.499)" fill="#e6e6e6"/>
      <path id="Path_797" data-name="Path 797" d="M77.978,213.914c-.6-4.42-6.568-5.68-14.138-5.844-7.2-.153-9.51-2.7-9.51-2.7a15.608,15.608,0,0,0,10.4,14.056C74.586,222.97,78.584,218.342,77.978,213.914Z" transform="translate(-33.076 -146.546)" fill="#e6e6e6"/>
      <path id="Path_798" data-name="Path 798" d="M105.353,244.8c.125-1.815,3.028-5.156,10.011-3.638,5.046,1.1,6.924-1.518,6.924-1.518a11.189,11.189,0,0,1-8.059,9.6C107.02,251.352,105.13,248,105.353,244.8Z" transform="translate(-64.129 -167.41)" fill="#e6e6e6"/>
      <path id="Path_799" data-name="Path 799" d="M106.363,246.774a.27.27,0,0,0,.207-.094c.5-.6.09-2.03-.481-4.014-.735-2.543-1.651-5.711-.876-8.008a32.212,32.212,0,0,1,1.5-3.552c1.1-2.316,2.042-4.3,1.252-6.408a.27.27,0,1,0-.5.192c.708,1.874-.149,3.689-1.236,5.989a33.477,33.477,0,0,0-1.526,3.607c-.825,2.457.113,5.715.868,8.329.446,1.565.908,3.13.591,3.521a.266.266,0,0,0,.031.391A.258.258,0,0,0,106.363,246.774Z" transform="translate(-63.546 -158.208)" fill="#e6e6e6"/>
    </g>
    <g id="freepik--Shadow--inject-32" transform="translate(21.95 191.887)">
      <ellipse id="freepik--path--inject-32" cx="75.849" cy="4.428" rx="75.849" ry="4.428" fill="#f5f5f5"/>
    </g>
    <g id="freepik--Login--inject-32" transform="translate(39.194 82.614)">
      <path id="Path_800" data-name="Path 800" d="M158.779,222.017H103.23l-3.04-89.337h55.55Z" transform="translate(-100.19 -129.906)" fill="#8000ff"/>
      <path id="Path_801" data-name="Path 801" d="M165.863,214.927h-55.55L107.27,125.59h55.55Z" transform="translate(-104.5 -125.59)" fill="#407bff"/>
      <path id="Path_802" data-name="Path 802" d="M165.863,214.927h-55.55L107.27,125.59h55.55Z" transform="translate(-104.5 -125.59)" fill="#8000ff" opacity="0.3"/>
      <ellipse id="Ellipse_23" data-name="Ellipse 23" cx="15.362" cy="15.894" rx="15.362" ry="15.894" transform="matrix(0.701, -0.713, 0.713, 0.701, 9.312, 25.432)" fill="#407bff"/>
      <path id="Path_803" data-name="Path 803" d="M173.314,171a12.519,12.519,0,0,1-1.35,6.142,12.358,12.358,0,0,1-11.11,6.752,13.4,13.4,0,0,1-11.564-6.752A13.1,13.1,0,0,1,147.522,171a12.377,12.377,0,0,1,12.456-12.909A13.441,13.441,0,0,1,173.314,171Z" transform="translate(-128.999 -145.376)" fill="#fff"/>
      <path id="Path_804" data-name="Path 804" d="M174.714,201.438a12.358,12.358,0,0,1-11.11,6.752,13.4,13.4,0,0,1-11.564-6.752A19.79,19.79,0,0,1,163.267,198,20.921,20.921,0,0,1,174.714,201.438Z" transform="translate(-131.757 -169.673)" fill="#407bff" opacity="0.6"/>
      <ellipse id="Ellipse_24" data-name="Ellipse 24" cx="5.649" cy="5.844" rx="5.649" ry="5.844" transform="matrix(0.701, -0.713, 0.713, 0.701, 23.139, 21.135)" fill="#407bff" opacity="0.6"/>
      <path id="Path_805" data-name="Path 805" d="M173,260.3H137.569l-.239-7.042h35.434Z" transform="translate(-122.801 -203.316)" fill="#fff"/>
      <path id="Path_806" data-name="Path 806" d="M174.1,292.472H138.659l-.239-7.042h35.438Z" transform="translate(-123.465 -222.901)" fill="#fff"/>
      <path id="Path_807" data-name="Path 807" d="M180.549,287.9l-8.54,1.174a.595.595,0,0,0-.516.7l1.123,5.723a.688.688,0,0,0,.759.536l8.54-1.174a.6.6,0,0,0,.512-.708l-1.119-5.723A.685.685,0,0,0,180.549,287.9Zm-2.453,5.8-1.565.207-.153-1.846a1.1,1.1,0,0,1-.638-.782.974.974,0,0,1,.845-1.174,1.119,1.119,0,0,1,1.236.872.958.958,0,0,1-.305.911Z" transform="translate(-143.593 -224.402)" fill="#407bff"/>
      <path id="Path_808" data-name="Path 808" d="M180.243,279.774h0a.61.61,0,0,1-.673-.473l-.11-.559a3.22,3.22,0,0,0-3.372-2.566,2.738,2.738,0,0,0-2.527,3.282l.125.645a.524.524,0,0,1-.458.626h0a.6.6,0,0,1-.673-.473l-.106-.544a3.853,3.853,0,0,1,3.13-4.6,4.381,4.381,0,0,1,5.007,3.392l.125.642a.524.524,0,0,1-.469.626Z" transform="translate(-144.132 -216.584)" fill="#407bff"/>
      <path id="Path_809" data-name="Path 809" d="M178.531,321.5H155.463l-.153-4.585h23.065Z" transform="translate(-133.747 -242.073)" fill="#407bff"/>
      <path id="Path_810" data-name="Path 810" d="M182.206,260.257a1.236,1.236,0,0,1-1.244,1.287,1.346,1.346,0,0,1-1.334-1.287,1.236,1.236,0,0,1,1.244-1.287A1.342,1.342,0,0,1,182.206,260.257Z" transform="translate(-148.552 -206.792)" fill="#263238"/>
      <path id="Path_811" data-name="Path 811" d="M167.992,260.257a1.232,1.232,0,0,1-1.244,1.287,1.342,1.342,0,0,1-1.33-1.287,1.236,1.236,0,0,1,1.244-1.287A1.338,1.338,0,0,1,167.992,260.257Z" transform="translate(-139.901 -206.792)" fill="#263238"/>
      <path id="Path_812" data-name="Path 812" d="M153.862,260.257a1.236,1.236,0,0,1-1.244,1.287,1.338,1.338,0,0,1-1.33-1.287,1.236,1.236,0,0,1,1.244-1.287A1.338,1.338,0,0,1,153.862,260.257Z" transform="translate(-131.298 -206.792)" fill="#263238"/>
      <path id="Path_813" data-name="Path 813" d="M196.383,260.275a1.236,1.236,0,0,1-1.244,1.287,1.338,1.338,0,0,1-1.33-1.287A1.232,1.232,0,0,1,195.057,259,1.338,1.338,0,0,1,196.383,260.275Z" transform="translate(-157.185 -206.81)" fill="#263238"/>
      <path id="Path_814" data-name="Path 814" d="M210.552,260.257a1.232,1.232,0,0,1-1.244,1.287,1.342,1.342,0,0,1-1.33-1.287,1.236,1.236,0,0,1,1.244-1.287A1.338,1.338,0,0,1,210.552,260.257Z" transform="translate(-165.811 -206.792)" fill="#263238"/>
    </g>
    <g id="freepik--Character--inject-32" transform="translate(108.095 83.381)">
      <path id="Path_815" data-name="Path 815" d="M328.352,174.28c.52.837.955,1.635,1.4,2.468s.849,1.67,1.244,2.527a36.135,36.135,0,0,1,2,5.371c.07.231.121.477.18.716l.086.364.043.18.051.3a5.351,5.351,0,0,1-.121,2.019,11.438,11.438,0,0,1-1.221,2.914,23.168,23.168,0,0,1-3.474,4.55l-1.647-1.244a43.572,43.572,0,0,0,2.2-4.694,9.724,9.724,0,0,0,.6-2.2,1.745,1.745,0,0,0-.031-.692l-.156-.477c-.063-.2-.121-.391-.2-.591a44.363,44.363,0,0,0-2.062-4.726c-.782-1.565-1.623-3.13-2.465-4.624Z" transform="translate(-305.823 -155.999)" fill="#ff8b7b"/>
      <path id="Path_816" data-name="Path 816" d="M328.439,224.43l-1.8.951,2.066,2.418a3.205,3.205,0,0,0,1.35-2.2Z" transform="translate(-306.955 -186.531)" fill="#ff8b7b"/>
      <path id="Path_817" data-name="Path 817" d="M320.47,228.35l2.21,1.756,2.269-.829-2.065-2.418Z" transform="translate(-303.199 -188.01)" fill="#ff8b7b"/>
      <path id="Path_818" data-name="Path 818" d="M300.329,140.854c-.043.219-.2.372-.336.344s-.223-.231-.18-.446.2-.391.34-.344S300.372,140.635,300.329,140.854Z" transform="translate(-290.615 -135.373)" fill="#263238"/>
      <path id="Path_819" data-name="Path 819" d="M298.5,142.52a7.925,7.925,0,0,1-1.416,1.651,1.287,1.287,0,0,0,1,.391Z" transform="translate(-288.959 -136.664)" fill="#ff5652"/>
      <path id="Path_820" data-name="Path 820" d="M298.9,158.146V155.58l3.4.391a3.2,3.2,0,0,1-1.956,2.856Z" transform="translate(-290.067 -144.615)" fill="#ff8b7b"/>
      <path id="Path_821" data-name="Path 821" d="M299.9,150.86l2.39.689.043,1.569-3.4-.411Z" transform="translate(-290.091 -141.741)" fill="#ff8b7b"/>
      <path id="Path_822" data-name="Path 822" d="M303.066,151.549l-2.39-.689-.466.892a3.806,3.806,0,0,0,2.206,3.317,3.74,3.74,0,0,0,.692-1.956Z" transform="translate(-290.865 -141.741)" opacity="0.2"/>
      <path id="Path_823" data-name="Path 823" d="M302.066,137.868a.133.133,0,0,0,.1-.219,1.3,1.3,0,0,0-1.111-.43.129.129,0,0,0-.106.149.133.133,0,0,0,.149.11h0a1.029,1.029,0,0,1,.876.348A.133.133,0,0,0,302.066,137.868Z" transform="translate(-291.312 -133.432)" fill="#263238"/>
      <path id="Path_824" data-name="Path 824" d="M307.173,151.68c-.391,2.015-.634,4.8.782,6.146,0,0-.548,2.042-4.3,2.042-4.111,0-1.976-1.792-1.976-1.792,1.71-.532,1.694-2.476,1.3-4.041Z" transform="translate(-291.42 -142.24)" fill="#ff8b7b"/>
      <path id="Path_825" data-name="Path 825" d="M308.936,166.466a2.747,2.747,0,0,0-.039-2.445c-.63-.466-3.333-.575-6.967.262a2.558,2.558,0,0,1-.45,2.418Z" transform="translate(-291.638 -149.535)" fill="#407bff"/>
      <path id="Path_826" data-name="Path 826" d="M350.6,407.332a.9.9,0,0,1-.689-.039.266.266,0,0,1-.063-.3.3.3,0,0,1,.168-.192c.372-.18,1.224.168,1.264.184a.062.062,0,0,1,.039.059.074.074,0,0,1-.035.063A3.843,3.843,0,0,1,350.6,407.332Zm-.45-.442a.327.327,0,0,0-.074.027.164.164,0,0,0-.1.11c-.035.117,0,.156.023.168.149.125.7,0,1.084-.145A2.147,2.147,0,0,0,350.147,406.89Z" transform="translate(-321.069 -297.527)" fill="#407bff"/>
      <path id="Path_827" data-name="Path 827" d="M351.927,405.95H351.9c-.313-.09-.978-.563-.986-.872a.215.215,0,0,1,.168-.211.336.336,0,0,1,.286.023c.368.188.6.947.61.982a.062.062,0,0,1,0,.063A.055.055,0,0,1,351.927,405.95Zm-.782-.974h-.031c-.078.027-.078.067-.078.086,0,.184.446.556.782.7a1.629,1.629,0,0,0-.5-.782.227.227,0,0,0-.168-.008Z" transform="translate(-321.731 -296.369)" fill="#407bff"/>
      <path id="Path_828" data-name="Path 828" d="M298.535,408.387c-.352,0-.692-.051-.806-.207a.246.246,0,0,1,0-.286.325.325,0,0,1,.207-.153c.458-.125,1.42.423,1.459.446a.059.059,0,0,1,.031.067.063.063,0,0,1-.051.055A4.774,4.774,0,0,1,298.535,408.387Zm-.434-.536a.392.392,0,0,0-.125,0,.2.2,0,0,0-.129.09c-.047.082-.027.121,0,.145.129.18.822.184,1.334.109a2.978,2.978,0,0,0-1.08-.344Z" transform="translate(-289.326 -298.12)" fill="#407bff"/>
      <path id="Path_829" data-name="Path 829" d="M300.492,407.291h-.027c-.333-.149-.99-.743-.939-1.056,0-.074.063-.164.243-.18a.47.47,0,0,1,.36.11,1.869,1.869,0,0,1,.43,1.06.078.078,0,0,1-.027.059A.074.074,0,0,1,300.492,407.291Zm-.673-1.115h-.039c-.117,0-.125.055-.125.07-.031.188.415.657.755.861a1.514,1.514,0,0,0-.364-.849.344.344,0,0,0-.231-.082Z" transform="translate(-290.446 -297.103)" fill="#407bff"/>
      <path id="Path_830" data-name="Path 830" d="M305.014,399.143h-2.75l-.274-6.373h2.75Z" transform="translate(-291.948 -289.017)" fill="#ff8b7b"/>
      <path id="Path_831" data-name="Path 831" d="M352.961,396.564l-2.687.583-2.7-5.934,2.691-.583Z" transform="translate(-319.698 -287.714)" fill="#ff8b7b"/>
      <path id="Path_832" data-name="Path 832" d="M347.724,405.575l3.024-.653a.239.239,0,0,1,.266.133l1.048,2.277a.391.391,0,0,1-.29.563c-1.056.207-1.584.258-2.91.544-.818.18-2.664.63-3.795.872s-1.518-.841-1.076-1.041a7.66,7.66,0,0,0,3.333-2.437A.669.669,0,0,1,347.724,405.575Z" transform="translate(-317.411 -296.412)" fill="#263238"/>
      <path id="Path_833" data-name="Path 833" d="M292.406,408.24h3a.243.243,0,0,1,.235.188l.544,2.445a.391.391,0,0,1-.391.493c-1.084-.02-2.648-.082-4.01-.082-1.6,0-2.969.086-4.839.086-1.131,0-1.444-1.142-.97-1.248,2.152-.469,3.912-.52,5.77-1.667A1.28,1.28,0,0,1,292.406,408.24Z" transform="translate(-282.071 -298.435)" fill="#263238"/>
      <path id="Path_834" data-name="Path 834" d="M325.775,168.883c2.578.591,4.694,7.175,4.694,7.175L325.317,180a11.317,11.317,0,0,1-2.738-5.086C321.667,171.461,323.138,168.272,325.775,168.883Z" transform="translate(-304.318 -152.667)" fill="#407bff"/>
      <path id="Path_835" data-name="Path 835" d="M325.775,168.883c2.578.591,4.694,7.175,4.694,7.175L325.317,180a11.317,11.317,0,0,1-2.738-5.086C321.667,171.461,323.138,168.272,325.775,168.883Z" transform="translate(-304.318 -152.667)" fill="#1a6bbe" opacity="0.4"/>
      <path id="Path_836" data-name="Path 836" d="M284.215,170.855c-.642.692-1.283,1.31-1.956,1.956-.333.313-.669.626-1.013.927l-.52.458-.129.113-.223.18a3.131,3.131,0,0,1-.755.446,2.461,2.461,0,0,1-.955.2,2.347,2.347,0,0,1-.822-.145,2.311,2.311,0,0,1-.782-.5,2.348,2.348,0,0,1-.61-1.013,2.669,2.669,0,0,1-.113-.583,3.954,3.954,0,0,1,0-.7c.02-.188.043-.352.074-.5a9.687,9.687,0,0,1,.454-1.565,14,14,0,0,1,.606-1.416c.25-.5.489-.861.728-1.275a31.944,31.944,0,0,1,3.306-4.483,30.289,30.289,0,0,1,4.01-3.8l1.44,1.483c-1.009,1.354-2,2.8-2.922,4.233a45.875,45.875,0,0,0-2.5,4.4c-.168.368-.391.782-.5,1.08a10.478,10.478,0,0,0-.364,1.056,6.828,6.828,0,0,0-.223.986,1.556,1.556,0,0,0,0,.156v-.035a1.089,1.089,0,0,0-.051-.258,1.678,1.678,0,0,0-.45-.728,1.917,1.917,0,0,0-.645-.391,1.869,1.869,0,0,0-.657-.121,1.6,1.6,0,0,0-.63.121,1.436,1.436,0,0,0-.2.1l.149-.137.473-.43.935-.876c.618-.583,1.24-1.2,1.827-1.784Z" transform="translate(-276.321 -146.788)" fill="#ff8b7b"/>
      <path id="Path_837" data-name="Path 837" d="M323.742,181.36c1.4,1.385,1.858,3.912,1.956,6.1l-.227.176a11.317,11.317,0,0,1-2.738-5.086c-.051-.2-.1-.391-.133-.614Z" transform="translate(-304.496 -160.31)" opacity="0.2"/>
      <path id="Path_838" data-name="Path 838" d="M288.777,170.6c-.563,2.973-.915,9.08.716,21.168h14.732c.1-2.257-1.318-13.281.861-23.926a38.727,38.727,0,0,0-4.929-.622,54.661,54.661,0,0,0-6.259,0c-.688.063-1.369.164-1.956.27A3.912,3.912,0,0,0,288.777,170.6Z" transform="translate(-283.618 -151.647)" fill="#407bff"/>
      <path id="Path_839" data-name="Path 839" d="M288.777,170.6c-.563,2.973-.915,9.08.716,21.168h14.732c.1-2.257-1.318-13.281.861-23.926a38.727,38.727,0,0,0-4.929-.622,54.661,54.661,0,0,0-6.259,0c-.688.063-1.369.164-1.956.27A3.912,3.912,0,0,0,288.777,170.6Z" transform="translate(-283.618 -151.647)" fill="#1a6bbe" opacity="0.4"/>
      <path id="Path_840" data-name="Path 840" d="M291.035,186.278l-2.66-.638c-.082,1.612-.09,3.607.027,6.075C289.626,190.323,291.191,188.148,291.035,186.278Z" transform="translate(-283.622 -162.915)" opacity="0.2"/>
      <path id="Path_841" data-name="Path 841" d="M301.99,392.77l.141,3.286h2.754l-.141-3.286Z" transform="translate(-291.948 -289.017)" opacity="0.2"/>
      <path id="Path_842" data-name="Path 842" d="M350.261,390.63l-2.691.583,1.393,3.059,2.691-.583Z" transform="translate(-319.698 -287.714)" opacity="0.2"/>
      <path id="Path_843" data-name="Path 843" d="M307.181,136.816c-.7,2.637-.986,4.217-2.613,5.312a3.606,3.606,0,0,1-5.575-3.028c-.086-2.515,1.084-6.408,3.912-6.94a3.724,3.724,0,0,1,4.276,4.655Z" transform="translate(-290.121 -130.318)" fill="#ff8b7b"/>
      <path id="Path_844" data-name="Path 844" d="M303.513,138c-.133-.352-.739-3.079-.168-3.787s7.084-.2,8.047.751c1.6,1.565.489,2.973-1.26,4.784-1.314,1.361-1.365,2.895-2.03,3.13-1.174.391-2.965.023-3.325-1.217S303.513,138,303.513,138Z" transform="translate(-292.627 -131.407)" fill="#263238"/>
      <path id="Path_845" data-name="Path 845" d="M308.343,128.008c-2.3-.978-6.615.106-8.947-.458a3.591,3.591,0,0,0,2.977,3.662,30.772,30.772,0,0,0,5.868.544C310.8,131.638,310.3,128.841,308.343,128.008Z" transform="translate(-290.368 -127.55)" fill="#263238"/>
      <path id="Path_846" data-name="Path 846" d="M323.19,136.136a4.385,4.385,0,0,0,2.437-.466C326.057,136.711,323.691,137,323.19,136.136Z" transform="translate(-304.855 -132.493)" fill="#263238"/>
      <path id="Path_847" data-name="Path 847" d="M304.022,142.912a3.094,3.094,0,0,1-.782,1.827c-.6.661-1.228.246-1.334-.556-.094-.728.1-1.956.837-2.308S304.073,142.094,304.022,142.912Z" transform="translate(-291.884 -136.207)" fill="#ff8b7b"/>
      <path id="Path_848" data-name="Path 848" d="M304.69,230.128s3.13,21.027,4.839,28.905c1.874,8.626,11.943,37.164,11.943,37.164l4.925-1.068s-7.042-23.261-8.606-35.321c-1.213-9.263-3.6-29.688-3.6-29.688Z" transform="translate(-293.592 -189.995)" fill="#0f172a"/>
      <path id="Path_849" data-name="Path 849" d="M344.57,393.154c-.02,0,.919,1.784.919,1.784l5.539-1.2-.466-1.667Z" transform="translate(-317.871 -288.591)" fill="#263238"/>
      <path id="Path_850" data-name="Path 850" d="M308.474,249.244c3.611.708,3.227,14.173,2.793,21.1-1.041-4.9-2.566-14.318-3.607-21A1.232,1.232,0,0,1,308.474,249.244Z" transform="translate(-295.4 -201.62)" opacity="0.3"/>
      <path id="Path_851" data-name="Path 851" d="M291.029,230.116s-.391,20.573-.078,28.948c.313,8.728,3.36,37.3,3.36,37.3h4.663s.168-28.068.391-36.639c.227-9.342,1.354-29.629,1.354-29.629Z" transform="translate(-285.154 -189.983)" fill="#0f172a"/>
      <path id="Path_852" data-name="Path 852" d="M297.438,394.8c-.023,0,.262,1.932.262,1.932h5.668l.156-1.725Z" transform="translate(-289.176 -290.253)" fill="#263238"/>
      <path id="Path_853" data-name="Path 853" d="M289.018,172.124c1.318,3.556-6.431,7.746-6.431,7.746l-3.356-4.3s2.257-4.467,5-6.478C287.609,166.608,288.012,169.417,289.018,172.124Z" transform="translate(-278.092 -152.255)" fill="#407bff"/>
      <path id="Path_854" data-name="Path 854" d="M289.018,172.124c1.318,3.556-6.431,7.746-6.431,7.746l-3.356-4.3s2.257-4.467,5-6.478C287.609,166.608,288.012,169.417,289.018,172.124Z" transform="translate(-278.092 -152.255)" fill="#1a6bbe" opacity="0.4"/>
    </g>
    <g id="freepik--Thinking--inject-32" transform="translate(128.609 58.259)">
      <ellipse id="Ellipse_25" data-name="Ellipse 25" cx="14.118" cy="8.997" rx="14.118" ry="8.997" transform="translate(6.658 0)" fill="#8000ff"/>
      <path id="Path_855" data-name="Path 855" d="M362.729,85.579a3.955,3.955,0,0,1-3.885-3.282,4,4,0,0,1,3.016-4.507h0a3.935,3.935,0,0,1,4.233,1.768l9.064-1.87a1.416,1.416,0,0,1,1.659.974,1.365,1.365,0,0,1-1.045,1.686l-.235.047a.231.231,0,0,0-.164.121.246.246,0,0,0,0,.2l.16.415a.622.622,0,0,1-.243.755.743.743,0,0,0-.348.552.614.614,0,0,1-.473.544l-.184.039a.61.61,0,0,1-.649-.313.763.763,0,0,0-1.412.293.606.606,0,0,1-.469.54l-.184.039a.614.614,0,0,1-.649-.313.782.782,0,0,0-.544-.368.622.622,0,0,1-.548-.614v-.446a.243.243,0,0,0-.29-.227l-2.891.595a3.939,3.939,0,0,1-3.11,3.286A4.053,4.053,0,0,1,362.729,85.579Zm-.782-7.433a3.6,3.6,0,0,0-2.738,4.076,3.564,3.564,0,0,0,7.042-.2v-.141l3.188-.645a.634.634,0,0,1,.782.595v.446a.231.231,0,0,0,.188.223,1.138,1.138,0,0,1,.825.559.227.227,0,0,0,.231.125l.18-.039a.219.219,0,0,0,.164-.2,1.154,1.154,0,0,1,2.152-.454.223.223,0,0,0,.227.125l.188-.039a.219.219,0,0,0,.16-.2,1.134,1.134,0,0,1,.536-.841.239.239,0,0,0,.082-.282l-.16-.415a.63.63,0,0,1,.462-.845l.239-.051a.982.982,0,0,0,.747-1.2,1.021,1.021,0,0,0-1.2-.692l-9.318,1.936-.07-.121a3.521,3.521,0,0,0-3.881-1.7Zm.782,5.977a2.405,2.405,0,1,1,.509-.031h0a2.492,2.492,0,0,1-.5.039Zm0-4.62a2.345,2.345,0,0,0-.434.043,2.122,2.122,0,1,0,.884,4.151h0a2.116,2.116,0,0,0,.735-3.838,2.081,2.081,0,0,0-1.17-.348Z" transform="translate(-347.046 -72.052)" fill="#fff"/>
      <ellipse id="Ellipse_26" data-name="Ellipse 26" cx="4.64" cy="2.957" rx="4.64" ry="2.957" transform="translate(4.647 17.357)" fill="#8000ff" opacity="0.6"/>
      <ellipse id="Ellipse_27" data-name="Ellipse 27" cx="1.905" cy="1.213" rx="1.905" ry="1.213" transform="translate(0 22.06)" fill="#8000ff" opacity="0.3"/>
    </g>
  </g>
</svg>
