<svg xmlns="http://www.w3.org/2000/svg" width="208" height="154.985" viewBox="0 0 208 154.985">
  <g id="New_message-rafiki" data-name="New message-rafiki" transform="translate(0 -55)">
    <g id="freepik--background-complete--inject-45" transform="translate(0 55)">
      <rect id="Rectangle_207" data-name="Rectangle 207" width="208" height="0.104" transform="translate(0 136.198)" fill="#ebebeb"/>
      <rect id="Rectangle_208" data-name="Rectangle 208" width="13.778" height="0.104" transform="translate(43.489 139.031)" fill="#ebebeb"/>
      <rect id="Rectangle_209" data-name="Rectangle 209" width="16.952" height="0.104" transform="translate(71.194 142.842)" fill="#ebebeb"/>
      <rect id="Rectangle_210" data-name="Rectangle 210" width="21.249" height="0.104" transform="translate(21.823 141.54)" fill="#ebebeb"/>
      <rect id="Rectangle_211" data-name="Rectangle 211" width="38.746" height="0.104" transform="translate(148.412 139.73)" fill="#ebebeb"/>
      <rect id="Rectangle_212" data-name="Rectangle 212" width="2.633" height="0.104" transform="translate(142.076 139.73)" fill="#ebebeb"/>
      <rect id="Rectangle_213" data-name="Rectangle 213" width="17.568" height="0.104" transform="translate(115.319 141.486)" fill="#ebebeb"/>
      <path id="Path_862" data-name="Path 862" d="M120.907,172.645H40.581a2.375,2.375,0,0,1-2.371-2.375V57.355A2.375,2.375,0,0,1,40.581,55h80.325a2.375,2.375,0,0,1,2.375,2.375V170.269A2.375,2.375,0,0,1,120.907,172.645ZM40.581,55.083a2.271,2.271,0,0,0-2.267,2.271V170.269a2.271,2.271,0,0,0,2.267,2.271h80.325a2.276,2.276,0,0,0,2.271-2.271V57.355a2.276,2.276,0,0,0-2.271-2.271Z" transform="translate(-22.315 -55)" fill="#ebebeb"/>
      <path id="Path_863" data-name="Path 863" d="M337.2,172.645h-80.33a2.38,2.38,0,0,1-2.375-2.375V57.355A2.38,2.38,0,0,1,256.875,55H337.2a2.375,2.375,0,0,1,2.367,2.355V170.269A2.375,2.375,0,0,1,337.2,172.645ZM256.875,55.083a2.276,2.276,0,0,0-2.271,2.271V170.269a2.276,2.276,0,0,0,2.271,2.271H337.2a2.276,2.276,0,0,0,2.271-2.271V57.355a2.276,2.276,0,0,0-2.271-2.271Z" transform="translate(-148.628 -55)" fill="#ebebeb"/>
      <rect id="Rectangle_214" data-name="Rectangle 214" width="83.691" height="33.592" transform="translate(95.842 52.508) rotate(90)" fill="#f0f0f0"/>
      <rect id="Rectangle_215" data-name="Rectangle 215" width="24.636" height="29.902" transform="translate(93.995 54.608) rotate(90)" fill="#e6e6e6"/>
      <rect id="Rectangle_216" data-name="Rectangle 216" width="24.636" height="29.902" transform="translate(93.999 81.457) rotate(90)" fill="#e6e6e6"/>
      <rect id="Rectangle_217" data-name="Rectangle 217" width="24.636" height="29.902" transform="translate(93.999 108.301) rotate(90)" fill="#e6e6e6"/>
      <rect id="Rectangle_218" data-name="Rectangle 218" width="24.636" height="11.76" transform="translate(93.999 54.608) rotate(90)" fill="#e0e0e0"/>
      <rect id="Rectangle_219" data-name="Rectangle 219" width="24.636" height="11.76" transform="translate(93.995 81.453) rotate(90)" fill="#e0e0e0"/>
      <rect id="Rectangle_220" data-name="Rectangle 220" width="8.149" height="9.843" transform="translate(68.823 96.25)" fill="#fafafa"/>
      <rect id="Rectangle_221" data-name="Rectangle 221" width="3.44" height="9.843" transform="translate(68.823 106.088) rotate(180)" fill="#f0f0f0"/>
      <rect id="Rectangle_222" data-name="Rectangle 222" width="8.149" height="9.843" transform="translate(81.985 96.25)" fill="#fafafa"/>
      <rect id="Rectangle_223" data-name="Rectangle 223" width="3.44" height="9.843" transform="translate(81.989 106.088) rotate(180)" fill="#f0f0f0"/>
      <rect id="Rectangle_224" data-name="Rectangle 224" width="8.149" height="9.843" transform="translate(75.55 86.407)" fill="#fafafa"/>
      <rect id="Rectangle_225" data-name="Rectangle 225" width="3.44" height="9.843" transform="translate(75.55 96.25) rotate(180)" fill="#f0f0f0"/>
      <rect id="Rectangle_226" data-name="Rectangle 226" width="24.636" height="11.76" transform="translate(93.999 108.301) rotate(90)" fill="#e0e0e0"/>
      <rect id="Rectangle_227" data-name="Rectangle 227" width="83.691" height="9.123" transform="translate(62.25 52.508) rotate(90)" fill="#f5f5f5"/>
      <rect id="Rectangle_228" data-name="Rectangle 228" width="24.282" height="21.083" transform="translate(67.687 111.854)" fill="#f0f0f0"/>
      <rect id="Rectangle_229" data-name="Rectangle 229" width="3.594" height="21.083" transform="translate(67.692 132.933) rotate(180)" fill="#e0e0e0"/>
      <rect id="Rectangle_230" data-name="Rectangle 230" width="24.282" height="21.083" transform="translate(67.687 58.161)" fill="#f0f0f0"/>
      <rect id="Rectangle_231" data-name="Rectangle 231" width="3.594" height="21.083" transform="translate(67.692 79.24) rotate(180)" fill="#e0e0e0"/>
      <rect id="Rectangle_232" data-name="Rectangle 232" width="122.608" height="57.874" transform="translate(177.216 13.591) rotate(90)" fill="#fafafa"/>
      <rect id="Rectangle_233" data-name="Rectangle 233" width="122.608" height="0.216" transform="translate(119.342 13.591) rotate(90)" fill="#f0f0f0"/>
      <rect id="Rectangle_234" data-name="Rectangle 234" width="47.241" height="118.585" transform="translate(123.527 17.613)" fill="#e6e6e6"/>
      <rect id="Rectangle_235" data-name="Rectangle 235" width="48.589" height="118.585" transform="translate(124.708 17.613)" fill="#f0f0f0"/>
      <path id="Path_864" data-name="Path 864" d="M408.07,242.24v1.493l1.493-1.493Z" transform="translate(-238.313 -164.348)" fill="#e0e0e0"/>
      <rect id="Rectangle_236" data-name="Rectangle 236" width="111.5" height="41.508" transform="translate(169.757 21.158) rotate(90)" fill="#fafafa"/>
      <path id="Path_865" data-name="Path 865" d="M387.908,240.78a1.148,1.148,0,0,0,0,2.3h7.272v-2.3Z" transform="translate(-225.868 -163.496)" fill="#f5f5f5"/>
      <path id="Path_866" data-name="Path 866" d="M330.18,217.36l12.667-111.5h8.532l-12.667,111.5Z" transform="translate(-192.825 -84.702)" fill="#fff"/>
      <path id="Path_867" data-name="Path 867" d="M355.1,217.36l12.667-111.5H371.1l-12.667,111.5Z" transform="translate(-207.378 -84.702)" fill="#fff"/>
      <rect id="Rectangle_237" data-name="Rectangle 237" width="111.5" height="0.449" transform="translate(169.757 21.154) rotate(90)" fill="#e6e6e6"/>
      <path id="Path_868" data-name="Path 868" d="M398.9,239.406h-7.268a1.152,1.152,0,0,1-1.148-1.148h0a1.152,1.152,0,0,1,1.148-1.148H398.9a1.148,1.148,0,0,1,1.148,1.148h0A1.148,1.148,0,0,1,398.9,239.406Z" transform="translate(-228.04 -161.352)" fill="#ebebeb"/>
      <rect id="Rectangle_238" data-name="Rectangle 238" width="20.421" height="32.485" transform="translate(26.612 27.81)" fill="#e0e0e0"/>
      <rect id="Rectangle_239" data-name="Rectangle 239" width="21.112" height="32.485" transform="translate(27.148 27.81)" fill="#f5f5f5"/>
      <rect id="Rectangle_240" data-name="Rectangle 240" width="27.747" height="17.576" transform="translate(28.92 57.924) rotate(-90)" fill="#fff"/>
      <rect id="Rectangle_241" data-name="Rectangle 241" width="20.421" height="32.485" transform="translate(55.444 12.135)" fill="#e0e0e0"/>
      <rect id="Rectangle_242" data-name="Rectangle 242" width="21.112" height="32.485" transform="translate(55.985 12.135)" fill="#f5f5f5"/>
      <rect id="Rectangle_243" data-name="Rectangle 243" width="27.747" height="17.576" transform="translate(57.753 42.253) rotate(-90)" fill="#fff"/>
    </g>
    <g id="freepik--Shadow--inject-45" transform="translate(23.342 200.567)">
      <ellipse id="freepik--path--inject-45" cx="80.658" cy="4.709" rx="80.658" ry="4.709" fill="#f5f5f5"/>
    </g>
    <g id="freepik--Character--inject-45" transform="translate(43.076 81.376)">
      <path id="Path_869" data-name="Path 869" d="M158.677,125.23c.894,1.186,1,2.642.042,4.992-.416.965-.957,1.909-2.163.291s-2.242-4.576-.416-4.838S158.677,125.23,158.677,125.23Z" transform="translate(-133.683 -122.39)" fill="#263238"/>
      <path id="Path_870" data-name="Path 870" d="M162.7,396.839h3.091l.133-7.159h-3.091Z" transform="translate(-138.093 -276.829)" fill="#ffc3bd"/>
      <path id="Path_871" data-name="Path 871" d="M107.54,384.434l3,.761,3.1-6.594-3-.761Z" transform="translate(-105.879 -269.914)" fill="#ffc3bd"/>
      <path id="Path_872" data-name="Path 872" d="M108.6,393.181l-3.291-1.111a.262.262,0,0,0-.312.117l-1.394,2.425a.466.466,0,0,0,.262.67c1.156.37,1.735.491,3.182.982.89.3,3.424,1.364,4.655,1.78s1.768-.753,1.3-1.036a11.711,11.711,0,0,1-3.989-3.482.774.774,0,0,0-.416-.345Z" transform="translate(-103.548 -278.216)" fill="#263238"/>
      <path id="Path_873" data-name="Path 873" d="M164.174,406h-3.353a.262.262,0,0,0-.258.208l-.574,2.762a.466.466,0,0,0,.462.549c1.215,0,2.974-.092,4.5-.092,1.793,0,2.167.1,4.264.1,1.269,0,1.589-1.281,1.057-1.4-2.434-.528-3.232-.587-5.354-1.872A1.464,1.464,0,0,0,164.174,406Z" transform="translate(-136.506 -286.359)" fill="#263238"/>
      <path id="Path_874" data-name="Path 874" d="M168.13,170.012l4.218-1.352s4.36,10.092,5.824,10.72c1.988.832,3.544,2.251,6.094,2.5a4.493,4.493,0,0,1,.857,2.138c-3.424,1.29-8.7-.079-10.15-1.423C171.649,179.538,168.13,170.012,168.13,170.012Z" transform="translate(-141.264 -147.753)" fill="#ffc3bd"/>
      <path id="Path_875" data-name="Path 875" d="M165.494,163.5c-1.186,2.7,3.578,11.29,3.578,11.29l6.3-2.912a39,39,0,0,0-3.124-7.555C170.27,160.864,166.8,160.527,165.494,163.5Z" transform="translate(-139.614 -143.559)" fill="#407bff"/>
      <path id="Path_876" data-name="Path 876" d="M165.494,163.5c-1.186,2.7,3.578,11.29,3.578,11.29l6.3-2.912a39,39,0,0,0-3.124-7.555C170.27,160.864,166.8,160.527,165.494,163.5Z" transform="translate(-139.614 -143.559)" fill="#1a6bbe" opacity="0.5"/>
      <path id="Path_877" data-name="Path 877" d="M205.66,198.688l2.38-1.248,1.211,3.5a6.482,6.482,0,0,1-3,.071Z" transform="translate(-163.181 -164.56)" fill="#ffc3bd"/>
      <path id="Path_878" data-name="Path 878" d="M213.751,195.33l.761,2.991-1.922,1.4-1.211-3.5Z" transform="translate(-166.522 -163.328)" fill="#ffc3bd"/>
      <path id="Path_879" data-name="Path 879" d="M166.012,389.69l-.067,3.69h-3.1l.071-3.69Z" transform="translate(-138.18 -276.834)" opacity="0.2"/>
      <path id="Path_880" data-name="Path 880" d="M112.737,377.84l3,.761-1.6,3.4-3-.761Z" transform="translate(-107.982 -269.914)" opacity="0.2"/>
      <path id="Path_881" data-name="Path 881" d="M151.158,160.764s3.877,10.62.832,28H135.467c-.179-2.538,1.115-16.2-1.627-28.159a42.479,42.479,0,0,1,5.516-.7,60.868,60.868,0,0,1,7.026,0A31.679,31.679,0,0,1,151.158,160.764Z" transform="translate(-121.239 -142.582)" fill="#407bff"/>
      <path id="Path_882" data-name="Path 882" d="M151.158,160.764s3.877,10.62.832,28H135.467c-.179-2.538,1.115-16.2-1.627-28.159a42.479,42.479,0,0,1,5.516-.7,60.868,60.868,0,0,1,7.026,0A31.679,31.679,0,0,1,151.158,160.764Z" transform="translate(-121.239 -142.582)" fill="#1a6bbe" opacity="0.5"/>
      <path id="Path_883" data-name="Path 883" d="M137.867,166.272c.32,1.968-.183,6.656-1.926,12.114a79.2,79.2,0,0,0-1.481-13.878v-.025C135.546,164.375,137.555,164.425,137.867,166.272Z" transform="translate(-121.601 -145.294)" opacity="0.2"/>
      <path id="Path_884" data-name="Path 884" d="M147.857,144.25c.5,2.263.786,5.063-.757,6.573,0,0,.965,2.292,5.167,2.292,3.84,0,1.86-2.292,1.86-2.292-2.533-.6-2.5-3.719-2.08-5.475Z" transform="translate(-128.982 -133.497)" fill="#ffc3bd"/>
      <path id="Path_885" data-name="Path 885" d="M151.256,161.052a4.41,4.41,0,0,0-.753,2.172s-5.308-1.855-5.129-4.576c0,0,.736-.445,1.2-.807C146.576,157.844,146.8,159.987,151.256,161.052Z" transform="translate(-127.972 -141.434)" fill="#fff"/>
      <path id="Path_886" data-name="Path 886" d="M159.52,161.758a8.321,8.321,0,0,1,1.082,2.009,4.045,4.045,0,0,0,1.564-4.3,9.094,9.094,0,0,0-1.36-.416S161.163,161.18,159.52,161.758Z" transform="translate(-136.236 -142.141)" fill="#fff"/>
      <path id="Path_887" data-name="Path 887" d="M153.119,145.348a6.777,6.777,0,0,0,.1,3.711,4.01,4.01,0,0,1-1.132-.345,6.081,6.081,0,0,1-2.933-3.291c-.067-.416-.141-.79-.229-1.173Z" transform="translate(-130.051 -133.497)" opacity="0.2"/>
      <path id="Path_888" data-name="Path 888" d="M164.091,139.511a2.812,2.812,0,0,1-1.631,1.477c-.961.324-1.51-.537-1.3-1.485.187-.832.911-2.047,1.9-1.959a1.344,1.344,0,0,1,1.032,1.968Z" transform="translate(-137.167 -129.578)" fill="#ffc3bd"/>
      <path id="Path_889" data-name="Path 889" d="M164.091,139.511a2.812,2.812,0,0,1-1.631,1.477c-.961.324-1.51-.537-1.3-1.485.187-.832.911-2.047,1.9-1.959a1.344,1.344,0,0,1,1.032,1.968Z" transform="translate(-137.167 -129.578)" opacity="0.2"/>
      <path id="Path_890" data-name="Path 890" d="M145.414,129.505c.566,3.041.745,4.851,2.463,6.261a3.981,3.981,0,0,0,6.485-2.8c.308-2.82-.666-7.322-3.773-8.233a4.093,4.093,0,0,0-5.175,4.776Z" transform="translate(-127.945 -121.997)" fill="#ffc3bd"/>
      <path id="Path_891" data-name="Path 891" d="M144.19,127.7c.7,1.306.333,2.159-.632,4.484-.416.965-1.073,1.993-2.163.291-1.028-1.606-2.6-4.576-1.248-4.9A10.6,10.6,0,0,1,144.19,127.7Z" transform="translate(-124.617 -123.669)" fill="#263238"/>
      <path id="Path_892" data-name="Path 892" d="M143.009,123.285a1.962,1.962,0,0,0,2.475-.811c1,.441,2.309.5,2.733-.067.832,0,1.722.15,2.122-1.04a2.224,2.224,0,0,0-1.4-2.862c-.029.266-.707.612-1.344.171a2.126,2.126,0,0,0-2.3.141c-1.36-.354-2.321-.549-3.1.345-1.294-.27-2.87.9-2.654,1.922-1.015,1.248-.033,2.284,1.007,2.463C140.746,124.059,142.734,123.814,143.009,123.285Z" transform="translate(-124.313 -118.403)" fill="#263238"/>
      <path id="Path_893" data-name="Path 893" d="M142.79,141.844a2.958,2.958,0,0,0,1.951,1.1c1.011.116,1.335-.832.9-1.714-.391-.795-1.389-1.805-2.33-1.518A1.306,1.306,0,0,0,142.79,141.844Z" transform="translate(-126.266 -130.817)" fill="#ffc3bd"/>
      <path id="Path_894" data-name="Path 894" d="M151.37,229.42s.329,3.885.745,9.152c.478,5.97,1.065,13.728,1.414,19.623v.083c.067,1.119.125,2.172.171,3.132.47,9.63,1.435,37.656,1.435,37.656h5.233s2.633-28.6,2.746-38.4c.1-9.427-.886-31.246-.886-31.246Z" transform="translate(-131.476 -183.237)" fill="#0f172a"/>
      <path id="Path_895" data-name="Path 895" d="M159.494,392.7c-.021,0,.042,1.71.042,1.71h6.036l.208-1.922Z" transform="translate(-136.218 -278.47)" fill="#407bff"/>
      <path id="Path_896" data-name="Path 896" d="M153.16,245.352c.478,5.97,1.065,13.728,1.414,19.623v.083c1.281-5.6,1.8-12.563,1.618-24.028Z" transform="translate(-132.521 -190.017)" opacity="0.2"/>
      <path id="Path_897" data-name="Path 897" d="M131.562,229.42s-2.912,22.331-4.638,31.2C125.052,270.309,114.377,295,114.377,295l-5.487-1.394s7.817-22.518,8.786-32.111c1.048-10.4,3.22-32.057,3.22-32.057Z" transform="translate(-106.668 -183.237)" fill="#0f172a"/>
      <path id="Path_898" data-name="Path 898" d="M108.8,380.21c-.021,0-.624,1.473-.624,1.473l6.028,1.535.94-1.635Z" transform="translate(-106.253 -271.298)" fill="#407bff"/>
      <path id="Path_905" data-name="Path 905" d="M123.536,172.83l3.981,2.134s-4.534,9.822-3.944,11.282c.8,1.988,2.08,6.381,3.453,8.545a4.43,4.43,0,0,1-1.2,1.918c-3.174-1.955-6.827-8.624-6.893-10.566C118.785,181.716,123.536,172.83,123.536,172.83Z" transform="translate(-112.532 -150.188)" fill="#ffc3bd"/>
      <path id="Path_906" data-name="Path 906" d="M125.4,161.65c-2.912.416-6.015,10.558-6.015,10.558l6.24,3.469a72.973,72.973,0,0,0,3.831-8.4C130.745,163.53,128.52,161.192,125.4,161.65Z" transform="translate(-112.794 -143.626)" fill="#407bff"/>
      <path id="Path_907" data-name="Path 907" d="M125.4,161.65c-2.912.416-6.015,10.558-6.015,10.558l6.24,3.469a72.973,72.973,0,0,0,3.831-8.4C130.745,163.53,128.52,161.192,125.4,161.65Z" transform="translate(-112.794 -143.626)" fill="#1a6bbe" opacity="0.5"/>
      <path id="Path_908" data-name="Path 908" d="M116.559,395.889a.919.919,0,0,0,.607.042.441.441,0,0,0,.262-.324.241.241,0,0,0-.058-.237c-.27-.275-1.4,0-1.527,0a.071.071,0,0,0-.054.058.079.079,0,0,0,.037.075,3.532,3.532,0,0,0,.732.387Zm.624-.462a.146.146,0,0,1,.083.046.091.091,0,0,1,0,.1.3.3,0,0,1-.175.225,1.489,1.489,0,0,1-1.057-.3A2.787,2.787,0,0,1,117.183,395.427Z" transform="translate(-110.697 -280.08)" fill="#407bff"/>
      <path id="Path_909" data-name="Path 909" d="M115.833,394.307h.037c.354-.067,1.14-.512,1.181-.865a.245.245,0,0,0-.162-.258.416.416,0,0,0-.324,0c-.416.166-.761.994-.778,1.028a.079.079,0,0,0,0,.075.066.066,0,0,0,.046.021Zm.965-1h.029c.087.042.083.087.079.108,0,.2-.549.57-.919.695.112-.237.358-.7.632-.807a.266.266,0,0,1,.179,0Z" transform="translate(-110.69 -278.856)" fill="#407bff"/>
      <path id="Path_910" data-name="Path 910" d="M171.734,406.221a1.161,1.161,0,0,0,.745-.187.416.416,0,0,0,.129-.358.245.245,0,0,0-.125-.2c-.383-.208-1.61.416-1.747.5a.071.071,0,0,0-.037.075.075.075,0,0,0,.058.062A5.573,5.573,0,0,0,171.734,406.221Zm.541-.637a.312.312,0,0,1,.137.025.1.1,0,0,1,.05.079.27.27,0,0,1-.083.237,2,2,0,0,1-1.381.083A3.97,3.97,0,0,1,172.275,405.585Z" transform="translate(-142.763 -286.032)" fill="#407bff"/>
      <path id="Path_911" data-name="Path 911" d="M170.786,405.1h.05c.37-.171,1.09-.832,1.028-1.186,0-.083-.079-.187-.279-.2a.5.5,0,0,0-.416.125,2,2,0,0,0-.449,1.19.071.071,0,0,0,.029.067A.1.1,0,0,0,170.786,405.1Zm.724-1.248h.042c.133,0,.141.062.146.079.037.212-.449.736-.832.965a1.664,1.664,0,0,1,.383-.953.387.387,0,0,1,.262-.1Z" transform="translate(-142.776 -285.02)" fill="#407bff"/>
      <path id="Path_912" data-name="Path 912" d="M134.489,224.66l2.912.3-2.026,2.937s-2.554-.345-2.675-2.367Z" transform="translate(-120.573 -180.457)" fill="#ffc3bd"/>
      <path id="Path_913" data-name="Path 913" d="M142.877,226.516l-1.964,2.567-1.714-.765,2.026-2.937Z" transform="translate(-124.369 -180.877)" fill="#ffc3bd"/>
    </g>
    <g id="freepik--Message--inject-45" transform="translate(88.084 61.34)">
      <path id="Path_914" data-name="Path 914" d="M298.623,217.746l2.912,33.729c.233,2.746-1.444,5.154-3.744,5.35l-64.006,5.491c-2.288.2-4.356-1.889-4.576-4.63L226.3,223.953a5.667,5.667,0,0,1,.146-1.889,4.238,4.238,0,0,1,3.586-3.457l64.006-5.5a4.291,4.291,0,0,1,4.123,2.791A5.774,5.774,0,0,1,298.623,217.746Z" transform="translate(-220.228 -153.67)" fill="#407bff"/>
      <path id="Path_915" data-name="Path 915" d="M298.623,217.746l2.912,33.729c.233,2.746-1.444,5.154-3.744,5.35l-64.006,5.491c-2.288.2-4.356-1.889-4.576-4.63L226.3,223.953a5.667,5.667,0,0,1,.146-1.889,4.238,4.238,0,0,1,3.586-3.457l64.006-5.5a4.291,4.291,0,0,1,4.123,2.791A5.774,5.774,0,0,1,298.623,217.746Z" transform="translate(-220.228 -153.67)" fill="#8000ff" opacity="0.1"/>
      <rect id="Rectangle_244" data-name="Rectangle 244" width="0.458" height="1.531" transform="translate(85.539 84.015) rotate(-6.89)" fill="#407bff"/>
      <rect id="Rectangle_245" data-name="Rectangle 245" width="0.458" height="5.703" transform="translate(84.654 76.678) rotate(-6.89)" fill="#407bff"/>
      <path id="Path_916" data-name="Path 916" d="M302.885,203.274l4.185,34.595c.337,2.812-1.3,5.35-3.648,5.633l-65.641,7.941c-2.346.283-4.547-1.789-4.888-4.605l-4.185-34.59a5.965,5.965,0,0,1,.083-1.951,4.407,4.407,0,0,1,3.565-3.686L298,198.673a4.4,4.4,0,0,1,4.343,2.725A5.952,5.952,0,0,1,302.885,203.274Z" transform="translate(-221.623 -145.23)" fill="#8000ff"/>
      <path id="Path_917" data-name="Path 917" d="M302.536,201.4l-29.773,20.047a11,11,0,0,1-10.067,1.219L229,210.3a4.407,4.407,0,0,1,3.565-3.686l65.641-7.937A4.39,4.39,0,0,1,302.536,201.4Z" transform="translate(-221.82 -145.23)" opacity="0.1"/>
      <path id="Path_918" data-name="Path 918" d="M305.445,189.7l-8.553,5.757-2.8,1.889-7.313,4.925a10.957,10.957,0,0,1-9.822,1.306l-.262-.087-4.1-1.506-9.235-3.39-4.318-1.585-4.892-1.8-.354-8.649L253,167.347l37.577-1.527L304.9,176.673l.15,3.69Z" transform="translate(-235.836 -126.059)" fill="#407bff"/>
      <path id="Path_919" data-name="Path 919" d="M305.445,189.7l-8.553,5.757-2.8,1.889-7.313,4.925a10.957,10.957,0,0,1-9.822,1.306l-.262-.087-4.1-1.506-9.235-3.39-4.318-1.585-4.892-1.8-.354-8.649L253,167.347l37.577-1.527L304.9,176.673l.15,3.69Z" transform="translate(-235.836 -126.059)" fill="#fafafa" opacity="0.7"/>
      <g id="Group_14165" data-name="Group 14165" transform="translate(21.79 52.686)" opacity="0.9">
        <path id="Path_920" data-name="Path 920" d="M306.643,198.64l-41.6,1.689a.89.89,0,0,1-.924-.832h0a.89.89,0,0,1,.832-.919l41.6-1.689a.89.89,0,0,1,.923.832h0A.886.886,0,0,1,306.643,198.64Z" transform="translate(-264.119 -196.888)" fill="#fff"/>
        <path id="Path_921" data-name="Path 921" d="M307.173,211.925l-41.6,1.689a.89.89,0,0,1-.924-.832h0a.894.894,0,0,1,.832-.924l41.6-1.689A.894.894,0,0,1,308,211h0A.9.9,0,0,1,307.173,211.925Z" transform="translate(-264.428 -204.644)" fill="#fff"/>
        <path id="Path_922" data-name="Path 922" d="M307.713,225.21l-41.6,1.689a.89.89,0,0,1-.924-.832h0a.886.886,0,0,1,.832-.919l41.6-1.689a.886.886,0,0,1,.919.832h0A.886.886,0,0,1,307.713,225.21Z" transform="translate(-264.743 -212.405)" fill="#fff"/>
        <path id="Path_923" data-name="Path 923" d="M305.372,237.07l-2.8,1.889-30.734,1.248-4.318-1.585a.453.453,0,0,1,.108,0Z" transform="translate(-266.105 -220.354)" fill="#fff"/>
        <path id="Path_924" data-name="Path 924" d="M313.036,252.429v.033a.89.89,0,0,1-.832.89l-7.7.312-.262-.087-4.1-1.506,11.993-.491a.89.89,0,0,1,.9.849Z" transform="translate(-285.155 -228.828)" fill="#fff"/>
      </g>
      <path id="Path_925" data-name="Path 925" d="M357.693,176.673l-9.951-.428L343.37,165.82Z" transform="translate(-288.612 -126.059)" fill="#263238" opacity="0.1"/>
      <path id="Path_926" data-name="Path 926" d="M357.693,176.673l-9.655-1.652-4.668-9.2Z" transform="translate(-288.612 -126.059)" fill="#8000ff"/>
      <path id="Path_928" data-name="Path 928" d="M384.19,80.64c-1.93,2.117-4.551,2.875-5.853,1.664s-.795-3.865,1.132-5.982,4.551-2.875,5.857-1.689S386.12,78.523,384.19,80.64Z" transform="translate(-308.611 -72.478)" fill="#fff" opacity="0.1"/>
      <path id="Path_929" data-name="Path 929" d="M379.534,108.36c-.254-.632-.187-1.248.15-1.389s.832.266,1.069.9.187,1.248-.15,1.385S379.788,108.988,379.534,108.36Z" transform="translate(-309.642 -91.674)" fill="#fff" opacity="0.1"/>
      <rect id="Rectangle_246" data-name="Rectangle 246" width="1.273" height="0.395" rx="0.198" transform="translate(76.923 26.716)" fill="#263238"/>
      <circle id="Ellipse_29" data-name="Ellipse 29" cx="6.194" cy="6.194" r="6.194" transform="translate(70.39 56.461) rotate(-42.56)" fill="#d93a3a"/>
      <path id="Path_936" data-name="Path 936" d="M400.005,199.67v6.24h-1.722v-4.085a5.334,5.334,0,0,1-.811.516,6.629,6.629,0,0,1-.982.374v-1.394a4.13,4.13,0,0,0,1.352-.674,2.787,2.787,0,0,0,.753-.969Z" transform="translate(-319.634 -145.827)" fill="#fff"/>
    </g>
  </g>
</svg>
