<svg xmlns="http://www.w3.org/2000/svg" width="227.463" height="220.771" viewBox="0 0 227.463 220.771">
  <g id="Payment_Information-pana" data-name="Payment Information-pana" transform="translate(-37.733 -38.396)">
    <g id="freepik--background-complete--inject-11" transform="translate(43.825 38.396)">
      <path id="Path_1235" data-name="Path 1235" d="M277.907,298.939c-8.1-5.621-9.964-16.1-9.673-25.523.047-1.558-.13-3.231.613-4.613s2.488-2.333,3.9-1.673c1.169.545,1.683,1.9,2.343,3.023a9.2,9.2,0,0,0,3.7,3.517,3.506,3.506,0,0,0,3.231.281c1.351-.753,1.507-2.629,1.491-4.192l-.078-8.748a14.545,14.545,0,0,1,.457-4.675,4.864,4.864,0,0,1,3.039-3.288,2.927,2.927,0,0,1,3.636,1.964,14.281,14.281,0,0,1,.052,1.948,1.677,1.677,0,0,0,.966,1.558c.618.192,1.252-.265,1.719-.722a21.153,21.153,0,0,0,3.714-5.647,29.26,29.26,0,0,1,3.465-5.829,8.428,8.428,0,0,1,5.714-3.236,5.074,5.074,0,0,1,5.195,3.439c.566,2.2-.707,4.447-2.1,6.234a34.952,34.952,0,0,1-7.247,6.951,2.893,2.893,0,0,0-1.216,1.309c-.332,1.039.655,2.078,1.688,2.421a18.133,18.133,0,0,0,3.636.4,3.529,3.529,0,0,1,3.008,1.823c.644,1.595-.686,3.278-2,4.379a29.871,29.871,0,0,1-8.831,5.138,10.03,10.03,0,0,0-3.283,1.61,2.891,2.891,0,0,0-.919,3.314,2.959,2.959,0,0,0,3.21,1.226A21.042,21.042,0,0,0,300.759,280c2.146-.816,4.925-.675,6.307,1.179a4.951,4.951,0,0,1,.52,4.374,11.429,11.429,0,0,1-2.359,3.875,30.13,30.13,0,0,1-12.821,9.065c-4.982,1.746-9.6,2.223-14.546.426" transform="translate(-154.569 -136.746)" fill="#f5f5f5"/>
      <path id="Path_1236" data-name="Path 1236" d="M291.53,294.259a140.29,140.29,0,0,1,5.517-15.112l1.652-3.886c.545-1.273,1.086-2.535,1.688-3.74a70.82,70.82,0,0,1,3.855-6.717c1.335-2.078,2.675-3.995,3.943-5.782s2.488-3.429,3.662-4.878a55.834,55.834,0,0,1,6.036-6.426c.769-.7,1.387-1.221,1.808-1.558l.478-.395.171-.125a1.268,1.268,0,0,1-.151.145l-.462.416c-.41.364-1.013.9-1.766,1.616a58.013,58.013,0,0,0-5.927,6.457c-1.158,1.449-2.364,3.117-3.636,4.888s-2.6,3.714-3.917,5.787a71.72,71.72,0,0,0-3.839,6.7c-.6,1.195-1.133,2.452-1.678,3.725l-1.647,3.886a143.473,143.473,0,0,0-5.527,15.065" transform="translate(-165.776 -137.978)" fill="#e0e0e0"/>
      <path id="Path_1237" data-name="Path 1237" d="M306.578,279.526a3.081,3.081,0,0,1-.156-.665c-.083-.436-.182-1.065-.3-1.844-.229-1.559-.462-3.714-.717-6.1s-.52-4.535-.774-6.083c-.12-.774-.229-1.4-.307-1.834a3.221,3.221,0,0,1-.088-.681,3.014,3.014,0,0,1,.2.655c.114.426.249,1.039.4,1.823.3,1.558.6,3.7.857,6.088s.462,4.478.634,6.1c.078.738.151,1.356.2,1.849A3.22,3.22,0,0,1,306.578,279.526Z" transform="translate(-171.883 -145.993)" fill="#e0e0e0"/>
      <path id="Path_1238" data-name="Path 1238" d="M328.839,288.053a5.225,5.225,0,0,1-.8.1c-.52.047-1.262.109-2.182.218-1.844.208-4.379.577-7.153,1.112s-5.273,1.127-7.065,1.61c-.894.234-1.616.442-2.114.582a4.123,4.123,0,0,1-.784.2,3.985,3.985,0,0,1,.748-.3c.493-.177,1.205-.416,2.078-.675,1.782-.519,4.275-1.164,7.06-1.7a71.446,71.446,0,0,1,7.19-1.039c.925-.083,1.678-.119,2.2-.13a4.033,4.033,0,0,1,.826.031Z" transform="translate(-174.046 -158.339)" fill="#e0e0e0"/>
      <path id="Path_1239" data-name="Path 1239" d="M282.563,314.778a1.606,1.606,0,0,1-.135-.244l-.348-.727c-.3-.629-.707-1.558-1.195-2.707-.977-2.3-2.223-5.522-3.559-9.1s-2.551-6.805-3.475-9.122c-.457-1.127-.831-2.052-1.107-2.743l-.3-.748a1,1,0,0,1-.083-.27,1.175,1.175,0,0,1,.14.249l.343.722c.3.634.706,1.558,1.195,2.712.977,2.3,2.229,5.522,3.559,9.1s2.551,6.8,3.475,9.122l1.112,2.743q.171.442.3.748A1.069,1.069,0,0,1,282.563,314.778Z" transform="translate(-156.565 -158.871)" fill="#e0e0e0"/>
      <path id="Path_1240" data-name="Path 1240" d="M318.7,321.78a.987.987,0,0,1-.265.109l-.774.26-2.862.94c-2.41.79-5.714,1.922-9.4,3.174s-7,2.359-9.434,3.117c-1.216.374-2.2.665-2.888.852l-.795.208a.874.874,0,0,1-.281.052,1.457,1.457,0,0,1,.265-.109l.774-.26,2.862-.94c2.416-.79,5.714-1.917,9.4-3.174s7.008-2.358,9.439-3.117c1.216-.374,2.2-.665,2.888-.847l.79-.213A.893.893,0,0,1,318.7,321.78Z" transform="translate(-166.002 -174.564)" fill="#e0e0e0"/>
      <path id="Path_1241" data-name="Path 1241" d="M51.844,93.638s-4.805,1.314-.67,11.678A129.774,129.774,0,0,0,58.348,120.9s.681,2.379-1.283,2.556-6.166-.894-7.247,1.392c-1.122,2.369.447,4.852,3.875,7.221s10.743,7.824,11.429,8.312,1.236,1.621-.083,1.953-10.992.447-10.665,5.034,10.956,9.611,12.109,10.182,1.387,1.107,1.231,1.751-3.413.379-6.161.519-5.912.795-5.5,3.429,6.426,8.634,22.1,11.647l7.356.925,4.592-5.86c9.065-13.143,9.148-21.642,7.595-23.808s-4.26-.405-6.322,1.418-4.192,4.3-4.759,3.948-.769-.9-.348-2.114,4.478-12.25,1.5-15.751-9.959,3.2-11.133,3.891-1.558-.519-1.434-1.34,1.517-9.839,2.3-13.928.161-6.961-2.3-7.865c-2.374-.873-4.613,2.836-6.14,4.088s-2.733-.888-2.733-.888a128.785,128.785,0,0,0-5.813-16.146c-4.322-10.286-8.764-7.792-8.764-7.792" transform="translate(-49.459 -64.83)" fill="#ebebeb"/>
      <path id="Path_1242" data-name="Path 1242" d="M91.322,186.412c-3.117-7.569-8.5-21.112-13.159-32.728s-8.894-22.073-12-29.679l-3.683-8.977-1-2.442-.255-.634a2.331,2.331,0,0,1-.078-.223s.036.073.1.213.161.358.275.629c.244.561.592,1.377,1.039,2.426.9,2.078,2.182,5.164,3.751,8.951,3.143,7.564,7.4,18.058,12.057,29.658s10,25.159,13.1,32.728" transform="translate(-55.077 -73.633)" fill="#e0e0e0"/>
      <path id="Path_1243" data-name="Path 1243" d="M61.33,157.29a2.166,2.166,0,0,1,.519.187c.317.135.769.348,1.325.608,1.112.519,2.629,1.3,4.291,2.182l4.239,2.27c.52.27.945.519,1.288.681a2.362,2.362,0,0,1,.468.265,2.167,2.167,0,0,1-.52-.187c-.317-.135-.769-.343-1.325-.613-1.107-.519-2.6-1.33-4.275-2.213l-4.255-2.234-1.294-.675A3.012,3.012,0,0,1,61.33,157.29Z" transform="translate(-55.163 -95.525)" fill="#e0e0e0"/>
      <path id="Path_1244" data-name="Path 1244" d="M85.7,155.262c-.057,0,1.392-3.226,3.242-7.143s3.387-7.075,3.444-7.049-1.392,3.226-3.236,7.148S85.756,155.294,85.7,155.262Z" transform="translate(-66.872 -87.731)" fill="#e0e0e0"/>
      <path id="Path_1245" data-name="Path 1245" d="M97.93,193.359a2.489,2.489,0,0,1,.343-.431l.987-1.112c.826-.945,1.969-2.249,3.174-3.74s2.26-2.868,3.008-3.87l.894-1.195a2.307,2.307,0,0,1,.348-.421,2.468,2.468,0,0,1-.275.473c-.187.3-.473.722-.831,1.236-.717,1.039-1.751,2.436-2.961,3.922s-2.374,2.784-3.236,3.7c-.436.457-.79.821-1.039,1.065A2.6,2.6,0,0,1,97.93,193.359Z" transform="translate(-72.75 -107.682)" fill="#e0e0e0"/>
      <path id="Path_1246" data-name="Path 1246" d="M73.68,198.12a2.119,2.119,0,0,1,.519.057l1.356.234c1.143.208,2.717.519,4.452.862s3.309.675,4.447.925l1.34.306a2.078,2.078,0,0,1,.483.145,2.14,2.14,0,0,1-.519-.057l-1.356-.234c-1.143-.208-2.717-.52-4.452-.862s-3.309-.675-4.442-.925l-1.345-.307A2.078,2.078,0,0,1,73.68,198.12Z" transform="translate(-61.098 -115.144)" fill="#e0e0e0"/>
      <path id="Path_1247" data-name="Path 1247" d="M80.56,230.32a3.793,3.793,0,0,1,.644.078l1.74.3c1.465.26,3.486.629,5.714,1.039s4.249.826,5.714,1.127l1.725.364a3.493,3.493,0,0,1,.623.166,3.222,3.222,0,0,1-.639-.078l-1.74-.291c-1.465-.26-3.486-.634-5.714-1.039s-4.249-.826-5.714-1.122l-1.725-.369A3.149,3.149,0,0,1,80.56,230.32Z" transform="translate(-64.403 -130.617)" fill="#e0e0e0"/>
      <path id="Path_1248" data-name="Path 1248" d="M111,222.994a4.235,4.235,0,0,1,.421-.551l1.195-1.46c1.039-1.231,2.4-2.94,3.881-4.868s2.779-3.709,3.709-5l1.1-1.533a3.848,3.848,0,0,1,.426-.551,4.405,4.405,0,0,1-.353.6c-.239.374-.592.914-1.039,1.558-.894,1.32-2.171,3.117-3.636,5.049s-2.894,3.636-3.938,4.831c-.519.6-.951,1.086-1.252,1.413a4.037,4.037,0,0,1-.514.509Z" transform="translate(-79.03 -120.387)" fill="#e0e0e0"/>
      <rect id="Rectangle_969" data-name="Rectangle 969" width="39.393" height="41.061" transform="translate(153.38 54.035)" fill="#e0e0e0"/>
      <rect id="Rectangle_970" data-name="Rectangle 970" width="39.393" height="41.061" transform="translate(150.715 54.035)" fill="#fafafa"/>
      <path id="Path_1249" data-name="Path 1249" d="M378.969,183.467H339.55V142.38h39.419Zm-39.393,0h39.367v-41.04H339.576Z" transform="translate(-188.85 -88.361)" fill="#e0e0e0"/>
      <rect id="Rectangle_971" data-name="Rectangle 971" width="28.801" height="30.021" transform="translate(156.009 59.552)" fill="#fafafa"/>
      <path id="Path_1250" data-name="Path 1250" d="M344.907,211.21a4.675,4.675,0,0,1-.712.826c-.457.483-1.107,1.143-1.829,1.855s-1.392,1.351-1.886,1.8a4.291,4.291,0,0,1-.831.691,4.791,4.791,0,0,1,.707-.821c.462-.483,1.112-1.143,1.834-1.86s1.4-1.351,1.886-1.8a4.484,4.484,0,0,1,.831-.691Z" transform="translate(-188.898 -121.434)" fill="#e0e0e0"/>
      <path id="Path_1251" data-name="Path 1251" d="M405.21,211.07a4.4,4.4,0,0,1,.826.712c.483.457,1.143,1.1,1.855,1.829s1.351,1.392,1.8,1.881a4.676,4.676,0,0,1,.691.831,4.721,4.721,0,0,1-.821-.707c-.483-.457-1.143-1.107-1.86-1.834s-1.351-1.392-1.8-1.886a4.576,4.576,0,0,1-.691-.826Z" transform="translate(-220.4 -121.367)" fill="#e0e0e0"/>
      <path id="Path_1252" data-name="Path 1252" d="M405.06,148.4a4.218,4.218,0,0,1,.712-.826c.457-.488,1.107-1.143,1.829-1.86s1.392-1.345,1.881-1.8a4.915,4.915,0,0,1,.831-.7,4.413,4.413,0,0,1-.706.826c-.457.483-1.107,1.143-1.834,1.86s-1.392,1.351-1.886,1.8a4.577,4.577,0,0,1-.826.691Z" transform="translate(-220.328 -88.765)" fill="#e0e0e0"/>
      <path id="Path_1253" data-name="Path 1253" d="M344.815,148.486a4.457,4.457,0,0,1-.842-.691c-.488-.462-1.143-1.107-1.86-1.829s-1.346-1.392-1.8-1.886a4.472,4.472,0,0,1-.7-.831,4.676,4.676,0,0,1,.826.706c.483.462,1.143,1.112,1.86,1.834s1.351,1.4,1.8,1.886A4.482,4.482,0,0,1,344.815,148.486Z" transform="translate(-188.884 -88.779)" fill="#e0e0e0"/>
      <path id="Path_1254" data-name="Path 1254" d="M378.382,182.878a.6.6,0,0,1,0-.145V180.7c0-1.423,0-3.491-.031-6.12,0-5.257-.031-12.748-.057-21.72l.114.114H349.685l.094-.13v30.021l-.109-.109,20.78.057,5.844.031h2.078a.6.6,0,0,1-.13,0H376.33l-5.813.031-20.868.057h-.109V152.67H378.5v.171c0,9-.042,16.515-.057,21.793,0,2.6,0,4.675-.026,6.094v2.005A1.069,1.069,0,0,1,378.382,182.878Z" transform="translate(-193.65 -93.305)" fill="#e0e0e0"/>
      <rect id="Rectangle_972" data-name="Rectangle 972" width="9.611" height="9.611" transform="translate(165.604 69.76)" fill="#ebebeb"/>
      <rect id="Rectangle_973" data-name="Rectangle 973" width="3.953" height="19.663" transform="matrix(1, -0.005, 0.005, 1, 182.867, 7.362)" fill="#e0e0e0"/>
      <rect id="Rectangle_974" data-name="Rectangle 974" width="10.234" height="10.857" transform="matrix(1, -0.005, 0.005, 1, 148.638, 7.443)" fill="#ebebeb"/>
      <rect id="Rectangle_975" data-name="Rectangle 975" width="10.234" height="10.857" transform="matrix(1, -0.005, 0.005, 1, 158.82, 7.383)" fill="#f5f5f5"/>
      <path id="Path_1255" data-name="Path 1255" d="M335.518,58.211c6.8.057,13.621,0,20.421-.094a.109.109,0,0,0,0-.218q-10.2-.052-20.416.125a.094.094,0,0,0,0,.187Z" transform="translate(-186.871 -47.762)" fill="#e0e0e0"/>
      <rect id="Rectangle_976" data-name="Rectangle 976" width="18.593" height="8.847" transform="matrix(1, -0.005, 0.005, 1, 142.255, 18.164)" fill="#ebebeb"/>
      <rect id="Rectangle_977" data-name="Rectangle 977" width="18.593" height="8.847" transform="matrix(1, -0.005, 0.005, 1, 160.758, 18.064)" fill="#f5f5f5"/>
      <path id="Path_1256" data-name="Path 1256" d="M323.224,77.708c12.354.14,24.749,0,37.1-.182a.109.109,0,0,0,0-.218c-12.354-.068-24.749-.057-37.1.213a.094.094,0,0,0,0,.187Z" transform="translate(-180.96 -57.076)" fill="#e0e0e0"/>
      <rect id="Rectangle_978" data-name="Rectangle 978" width="72.033" height="3.169" transform="translate(135.312 27.016)" fill="#e0e0e0"/>
      <rect id="Rectangle_979" data-name="Rectangle 979" width="2.925" height="10.816" transform="translate(147.105 28.543)" fill="#e0e0e0"/>
      <rect id="Rectangle_980" data-name="Rectangle 980" width="2.925" height="10.816" transform="translate(190.758 28.543)" fill="#e0e0e0"/>
      <rect id="Rectangle_981" data-name="Rectangle 981" width="3.953" height="27.045" transform="matrix(1, -0.005, 0.005, 1, 186.723, 0.021)" fill="#ebebeb"/>
      <rect id="Rectangle_982" data-name="Rectangle 982" width="6.14" height="21.917" transform="matrix(1, -0.005, 0.005, 1, 190.709, 5.07)" fill="#f5f5f5"/>
      <path id="Path_1257" data-name="Path 1257" d="M422.63,56.144a43.258,43.258,0,0,1-6.14,0,45.415,45.415,0,0,1,6.14,0Z" transform="translate(-225.82 -46.874)" fill="#e0e0e0"/>
      <path id="Path_1258" data-name="Path 1258" d="M422.63,54.369a45.413,45.413,0,0,1-6.14,0,43.259,43.259,0,0,1,6.14,0Z" transform="translate(-225.821 -46.019)" fill="#e0e0e0"/>
      <path id="Path_1259" data-name="Path 1259" d="M422.63,83.9a43.26,43.26,0,0,1-6.14,0,45.413,45.413,0,0,1,6.14,0Z" transform="translate(-225.82 -60.213)" fill="#e0e0e0"/>
      <path id="Path_1260" data-name="Path 1260" d="M422.63,82.084a43.259,43.259,0,0,1-6.14,0,45.414,45.414,0,0,1,6.14,0Z" transform="translate(-225.82 -59.338)" fill="#e0e0e0"/>
      <path id="Path_1261" data-name="Path 1261" d="M422.489,69.176c-.057,0-.109-2.208-.109-4.935s.052-4.94.109-4.94.1,2.213.1,4.94S422.546,69.176,422.489,69.176Z" transform="translate(-228.651 -48.44)" fill="#e0e0e0"/>
      <rect id="Rectangle_983" data-name="Rectangle 983" width="6.686" height="16.541" transform="translate(196.877 10.428)" fill="#ebebeb"/>
      <path id="Path_1262" data-name="Path 1262" d="M412.665,46.258a1.138,1.138,0,1,1-1.133-1.138,1.138,1.138,0,0,1,1.133,1.138Z" transform="translate(-222.889 -41.627)" fill="#e0e0e0"/>
      <rect id="Rectangle_984" data-name="Rectangle 984" width="0.701" height="16.089" transform="translate(188.29 7.753)" fill="#e0e0e0"/>
    </g>
    <g id="freepik--Floor--inject-11" transform="translate(45.97 258.886)">
      <path id="Path_1263" data-name="Path 1263" d="M272.816,462.965c0,.073-49.082.135-109.613.135s-109.613-.062-109.613-.135,49.071-.135,109.613-.135S272.816,462.887,272.816,462.965Z" transform="translate(-53.59 -462.83)" fill="#263238"/>
    </g>
    <g id="freepik--Screen--inject-11" transform="translate(77.524 42.336)">
      <path id="Path_1264" data-name="Path 1264" d="M194.538,46.285h-13.46a3.34,3.34,0,0,0-3.268,3.418v2.442a3.346,3.346,0,0,1-3.273,3.413H148.309a3.346,3.346,0,0,1-3.268-3.418V49.7a3.346,3.346,0,0,0-3.268-3.418H125.259a10.587,10.587,0,0,0-10.592,10.551L114.63,226.7a10.587,10.587,0,0,0,10.582,10.6l69.279.042a10.587,10.587,0,0,0,10.592-10.587l.036-169.874A10.592,10.592,0,0,0,194.538,46.285Z" transform="translate(-114.474 -46.124)" fill="#fff"/>
      <path id="Path_1265" data-name="Path 1265" d="M194.394,46.141h.358a7.606,7.606,0,0,1,1.075.083A9.948,9.948,0,0,1,199.8,47.6a10.161,10.161,0,0,1,2.416,1.958,10.572,10.572,0,0,1,2.016,3.19,10.961,10.961,0,0,1,.795,4.3v4.992c0,14.109,0,34.525.036,59.742s0,55.264,0,88.615v15.86a11.377,11.377,0,0,1-.41,3.231,10.582,10.582,0,0,1-1.351,2.982,11.4,11.4,0,0,1-2.208,2.452,10.728,10.728,0,0,1-6.114,2.374c-2.218.062-4.426,0-6.655.026H125.873a11.169,11.169,0,0,1-6.894-1.9,10.873,10.873,0,0,1-4.2-5.8,11.824,11.824,0,0,1-.442-3.585V56.858c0-.426.042-.857.062-1.283a6.117,6.117,0,0,1,.218-1.262,10.712,10.712,0,0,1,10.93-8.322H141.39a3.408,3.408,0,0,1,2.078.582,3.5,3.5,0,0,1,1.294,1.7,5.766,5.766,0,0,1,.218,2.078v1.039a7.15,7.15,0,0,0,.036,1.008,3.325,3.325,0,0,0,.79,1.771,3.117,3.117,0,0,0,1.6,1.034,3.688,3.688,0,0,0,.956.093h4.8l13.985.042h7.595a3.117,3.117,0,0,0,1.3-.457,3.361,3.361,0,0,0,1.5-2.14,6.233,6.233,0,0,0,.083-1.283V50.178a7,7,0,0,1,.057-1.236,3.5,3.5,0,0,1,.379-1.132,3.325,3.325,0,0,1,1.688-1.5,5.356,5.356,0,0,1,2.078-.223h0a5.2,5.2,0,0,0-2.078.223,3.268,3.268,0,0,0-1.636,1.455,3.5,3.5,0,0,0-.384,1.107,7.207,7.207,0,0,0-.052,1.216v1.356a5.907,5.907,0,0,1-.031,1.3,3.486,3.486,0,0,1-1.533,2.213,3.268,3.268,0,0,1-1.351.478c-.488.042-.961,0-1.455,0H148.367a3.849,3.849,0,0,1-1-.1A3.278,3.278,0,0,1,145.66,54.3a3.522,3.522,0,0,1-.836-1.865,7.7,7.7,0,0,1-.036-1.039V50.354a5.522,5.522,0,0,0-.208-2.031,3.288,3.288,0,0,0-1.226-1.605,3.216,3.216,0,0,0-1.979-.551H125.53a10.5,10.5,0,0,0-10.644,8.156c-.1.4-.135.821-.208,1.231a7.82,7.82,0,0,0-.057,1.262V226.005a11.315,11.315,0,0,0,.431,3.5,10.535,10.535,0,0,0,4.078,5.636,10.878,10.878,0,0,0,6.753,1.855h62.484c2.223,0,4.452.036,6.639-.031a10.39,10.39,0,0,0,5.953-2.307,11.024,11.024,0,0,0,2.145-2.384,10.333,10.333,0,0,0,1.32-2.9,10.941,10.941,0,0,0,.395-3.153v-15.87c0-33.351.036-63.378.052-88.615s.047-45.643.057-59.742V56.994a10.873,10.873,0,0,0-.779-4.249,10.679,10.679,0,0,0-8.327-6.468,8.11,8.11,0,0,0-1.07-.1Z" transform="translate(-114.329 -45.981)" fill="#263238"/>
      <path id="Path_1266" data-name="Path 1266" d="M265.118,83.645c0,.047-1.745.094-3.907.114s-3.912,0-3.912-.052,1.751-.094,3.912-.114S265.118,83.6,265.118,83.645Z" transform="translate(-183.028 -64.05)" fill="#263238"/>
      <path id="Path_1267" data-name="Path 1267" d="M265.158,87.5c0,.047-1.751.1-3.912.114s-3.907,0-3.907-.052,1.745-.094,3.907-.114S265.158,87.449,265.158,87.5Z" transform="translate(-183.047 -65.9)" fill="#263238"/>
      <path id="Path_1268" data-name="Path 1268" d="M265.188,91.345c0,.047-1.751.1-3.912.114s-3.907,0-3.907-.052,1.745-.094,3.907-.114S265.188,91.3,265.188,91.345Z" transform="translate(-183.061 -67.75)" fill="#263238"/>
      <path id="Path_1269" data-name="Path 1269" d="M135.5,89.848h.613l1.668-.036-.047.047V87.947a.639.639,0,0,1,.561-.519h.795a.644.644,0,0,1,.551.644v1.766l-.078-.078h2.078l-.078.078V86.576a.665.665,0,0,0-.3-.519l-.919-.909-.888-.878-.431-.421a.982.982,0,0,0-.436-.327.556.556,0,0,0-.483.094c-.125.109-.26.26-.39.384l-.758.7c-.473.494-.966.945-1.33,1.371a1.486,1.486,0,0,0-.1.784v2.977a1.471,1.471,0,0,1,0-.255V88.82c0-.3,0-.743-.026-1.2V86.446a.852.852,0,0,1,.114-.442c.39-.478.852-.9,1.335-1.408l.748-.769c.135-.13.244-.26.405-.4a.717.717,0,0,1,.613-.119,1.133,1.133,0,0,1,.52.358l.431.426.894.873.92.9a1.621,1.621,0,0,1,.239.255.727.727,0,0,1,.109.358V89.89h-2.239V88.046a.519.519,0,0,0-.426-.52H138.4a.52.52,0,0,0-.452.41V89.89h-2.182A.686.686,0,0,1,135.5,89.848Z" transform="translate(-124.502 -63.905)" fill="#263238"/>
      <path id="Path_1270" data-name="Path 1270" d="M202.182,111.273a7.226,7.226,0,1,1-2.1-5.14A7.226,7.226,0,0,1,202.182,111.273Z" transform="translate(-149.599 -73.859)" fill="#263238"/>
      <g id="Group_14320" data-name="Group 14320" transform="translate(38.199 33.045)" opacity="0.4">
        <path id="Path_1271" data-name="Path 1271" d="M197.242,109.735V115.3h-9.283s-.623-3.444,1.268-5.714Z" transform="translate(-187.861 -109.59)" fill="#455a64"/>
      </g>
      <path id="Path_1272" data-name="Path 1272" d="M196.086,113.728a1.808,1.808,0,1,1-.531-1.28A1.813,1.813,0,0,1,196.086,113.728Z" transform="translate(-151.872 -77.665)" fill="#263238"/>
      <path id="Path_1273" data-name="Path 1273" d="M204.543,120.766a2.213,2.213,0,1,1,2.213-2.213,2.213,2.213,0,0,1-2.213,2.213Zm0-3.636a1.392,1.392,0,1,1,0,.021Z" transform="translate(-156.614 -79.789)" fill="#ff725e"/>
      <path id="Path_1274" data-name="Path 1274" d="M196.19,115.12v5.907h8.54a6.909,6.909,0,0,0,1.366-5.907Z" transform="translate(-153.664 -79.203)" fill="#fff"/>
      <path id="Path_1275" data-name="Path 1275" d="M206.716,119.128a1.813,1.813,0,1,1-1.808-1.808A1.813,1.813,0,0,1,206.716,119.128Z" transform="translate(-156.979 -80.26)" fill="#263238"/>
      <rect id="Rectangle_985" data-name="Rectangle 985" width="45.663" height="13.948" rx="6.974" transform="translate(22.552 155.463)" fill="#8000ff"/>
      <path id="Path_1276" data-name="Path 1276" d="M179.315,355.916c0,.758-.551,1.221-1.46,1.221h-.961v1.127h-.374V354.69h1.335C178.764,354.69,179.315,355.147,179.315,355.916Zm-.374,0c0-.571-.379-.9-1.1-.9h-.951V356.8h.951C178.562,356.8,178.941,356.477,178.941,355.916Z" transform="translate(-144.212 -194.318)" fill="#fff"/>
      <path id="Path_1277" data-name="Path 1277" d="M185.1,357.389v1.668h-.348v-.421a1.008,1.008,0,0,1-.925.447c-.608,0-.982-.317-.982-.779s.265-.764,1.039-.764h.852v-.161c0-.462-.26-.712-.764-.712a1.371,1.371,0,0,0-.894.317l-.161-.27a1.683,1.683,0,0,1,1.091-.364.956.956,0,0,1,1.091,1.039Zm-.364.862v-.442H183.9c-.519,0-.691.2-.691.483s.249.519.681.519a.862.862,0,0,0,.852-.571Z" transform="translate(-147.254 -195.111)" fill="#fff"/>
      <path id="Path_1278" data-name="Path 1278" d="M190.658,356.4l-1.34,3.008c-.229.52-.519.7-.894.7a.92.92,0,0,1-.655-.244l.166-.275a.67.67,0,0,0,.494.208c.239,0,.4-.114.556-.452l.114-.26-1.21-2.681h.379l1.013,2.281,1.008-2.281Z" transform="translate(-149.618 -195.14)" fill="#fff"/>
      <path id="Path_1279" data-name="Path 1279" d="M197.855,357.723v.587H197.6v-.582a1.938,1.938,0,0,1-1.221-.462l.151-.3a1.72,1.72,0,0,0,1.07.431v-1.345c-.561-.135-1.133-.312-1.133-.982,0-.494.353-.914,1.133-.977v-.587h.255v.582a1.979,1.979,0,0,1,1.039.317l-.125.3a1.9,1.9,0,0,0-.914-.3v1.351c.582.14,1.19.3,1.19.987C199.045,357.25,198.671,357.676,197.855,357.723ZM197.6,355.7v-1.278c-.52.047-.758.317-.758.639s.343.53.758.639Zm1.07,1.07c0-.405-.374-.52-.816-.649V357.4C198.422,357.359,198.671,357.1,198.671,356.772Z" transform="translate(-153.755 -193.751)" fill="#fff"/>
      <path id="Path_1280" data-name="Path 1280" d="M204.607,357.216c0,.6-.436,1.039-1.3,1.039a1.854,1.854,0,0,1-1.288-.457l.177-.3a1.559,1.559,0,0,0,1.112.416c.592,0,.919-.275.919-.722s-.3-.707-.966-.707h-.255v-.27l.987-1.242h-1.829v-.327h2.3v.26l-1.013,1.273C204.2,356.245,204.607,356.645,204.607,357.216Z" transform="translate(-156.465 -194.299)" fill="#fff"/>
      <path id="Path_1281" data-name="Path 1281" d="M210.137,357.215c0,.608-.421,1.081-1.3,1.081a1.839,1.839,0,0,1-1.278-.457l.177-.3a1.527,1.527,0,0,0,1.1.416c.608,0,.93-.3.93-.732s-.286-.743-1.195-.743h-.779l.182-1.792h1.958v.327h-1.621l-.119,1.138h.457C209.731,356.155,210.137,356.581,210.137,357.215Z" transform="translate(-159.127 -194.318)" fill="#fff"/>
      <path id="Path_1282" data-name="Path 1282" d="M213.43,360.825a.265.265,0,0,1,.27-.275.275.275,0,0,1,.275.275.281.281,0,0,1-.275.28A.275.275,0,0,1,213.43,360.825Z" transform="translate(-161.948 -197.134)" fill="#fff"/>
      <path id="Path_1283" data-name="Path 1283" d="M215.39,356.448c0-1.138.6-1.818,1.429-1.818s1.429.681,1.429,1.818-.6,1.818-1.429,1.818S215.39,357.586,215.39,356.448Zm2.478,0c0-.956-.426-1.481-1.039-1.481s-1.039.52-1.039,1.481.431,1.481,1.039,1.481S217.868,357.42,217.868,356.448Z" transform="translate(-162.89 -194.289)" fill="#fff"/>
      <path id="Path_1284" data-name="Path 1284" d="M221.91,356.448c0-1.138.6-1.818,1.423-1.818s1.429.681,1.429,1.818-.6,1.818-1.429,1.818S221.91,357.586,221.91,356.448Zm2.473,0c0-.956-.426-1.481-1.039-1.481s-1.039.52-1.039,1.481.431,1.481,1.039,1.481S224.383,357.42,224.383,356.448Z" transform="translate(-166.023 -194.289)" fill="#fff"/>
      <path id="Path_1285" data-name="Path 1285" d="M207.062,230.225c0,.073-16.93.135-37.8.135s-37.809-.062-37.809-.135,16.925-.135,37.809-.135S207.062,230.152,207.062,230.225Z" transform="translate(-122.556 -134.447)" fill="#e0e0e0"/>
      <path id="Path_1286" data-name="Path 1286" d="M203.692,294.205c0,.078-16.93.135-37.8.135s-37.809-.057-37.809-.135,16.925-.135,37.809-.135S203.692,294.132,203.692,294.205Z" transform="translate(-120.937 -165.19)" fill="#263238"/>
      <path id="Path_1287" data-name="Path 1287" d="M203.692,329.505c0,.073-16.93.135-37.8.135s-37.809-.062-37.809-.135,16.925-.135,37.809-.135S203.692,329.427,203.692,329.505Z" transform="translate(-120.937 -182.152)" fill="#263238"/>
      <g id="Group_14324" data-name="Group 14324" transform="translate(-4.276 -5.106)">
        <path id="Path_1295" data-name="Path 1295" d="M183.075,320.806v1.279h-.923v-1.271a4.905,4.905,0,0,1-2.762-.932l.508-1.144a4.236,4.236,0,0,0,2.254.847v-2.245c-1.254-.3-2.592-.712-2.592-2.279,0-1.144.847-2.152,2.592-2.321V311.47h.923v1.3a4.711,4.711,0,0,1,2.279.686l-.458,1.135a4.728,4.728,0,0,0-1.822-.61v2.279c1.245.3,2.609.695,2.609,2.262C185.685,319.629,184.838,320.62,183.075,320.806Zm-.923-4.821v-2.008c-.847.127-1.144.534-1.144,1.025S181.5,315.791,182.152,315.986Zm2.093,2.6c0-.551-.5-.847-1.169-1v1.957C183.9,319.451,184.245,319.069,184.245,318.587Z" transform="translate(-145.592 -173.55)" fill="#263238"/>
        <path id="Path_1296" data-name="Path 1296" d="M193.3,318.589c0,1.33-1,2.474-3.118,2.474a4.982,4.982,0,0,1-2.957-.906l.627-1.144a3.677,3.677,0,0,0,2.313.779c1.042,0,1.694-.458,1.694-1.195s-.517-1.169-1.694-1.169h-.72v-1.034l1.788-2.126h-3.575V313.04h5.3v.974l-1.915,2.279a2.237,2.237,0,0,1,2.254,2.3Z" transform="translate(-146.789 -173.79)" fill="#263238"/>
        <path id="Path_1297" data-name="Path 1297" d="M201.063,318.538c0,1.389-1,2.542-3.118,2.542a4.973,4.973,0,0,1-2.965-.906l.618-1.144a3.736,3.736,0,0,0,2.321.779c1.051,0,1.694-.457,1.694-1.2s-.483-1.228-2.118-1.228H195.59L196,313.09h4.634v1.228h-3.389l-.169,1.822h.754C200.131,316.131,201.063,317.14,201.063,318.538Z" transform="translate(-147.973 -173.798)" fill="#263238"/>
        <path id="Path_1298" data-name="Path 1298" d="M203.1,321.2a.923.923,0,1,1,.923.923A.923.923,0,0,1,203.1,321.2Z" transform="translate(-149.214 -174.897)" fill="#263238"/>
        <path id="Path_1299" data-name="Path 1299" d="M206.23,317c0-2.592,1.423-4.058,3.3-4.058s3.3,1.466,3.3,4.058-1.415,4.05-3.3,4.05S206.23,319.591,206.23,317Zm5.083,0c0-1.906-.746-2.779-1.822-2.779s-1.813.847-1.813,2.779.737,2.779,1.813,2.779,1.855-.856,1.855-2.779Z" transform="translate(-149.692 -173.775)" fill="#263238"/>
        <path id="Path_1300" data-name="Path 1300" d="M215.17,317c0-2.592,1.423-4.058,3.287-4.058s3.3,1.466,3.3,4.058-1.423,4.05-3.3,4.05S215.17,319.591,215.17,317Zm5.083,0c0-1.906-.746-2.779-1.83-2.779s-1.8.847-1.8,2.779.737,2.779,1.8,2.779,1.864-.856,1.864-2.779Z" transform="translate(-151.058 -173.775)" fill="#263238"/>
      </g>
      <path id="Path_1301" data-name="Path 1301" d="M133.51,244.42V246.8a.3.3,0,0,0,.3.306h5.055a.3.3,0,0,0,.3-.306v-2.374" transform="translate(-123.546 -141.332)" fill="#263238"/>
      <path id="Path_1302" data-name="Path 1302" d="M133.508,242.435h5.574s0-.665-.478-.665h-4.675S133.466,241.812,133.508,242.435Z" transform="translate(-123.543 -140.059)" fill="#263238"/>
      <path id="Path_1303" data-name="Path 1303" d="M136.7,247.785c0,.229-.27.41-.608.41s-.613-.182-.613-.41.275-.405.613-.405S136.7,247.562,136.7,247.785Z" transform="translate(-124.492 -142.755)" fill="#263238"/>
      <path id="Path_1304" data-name="Path 1304" d="M149.44,245.208a1.039,1.039,0,0,1,1.07-1.039.971.971,0,0,1,.743.3l-.135.14a.784.784,0,0,0-.6-.249.857.857,0,1,0,0,1.714.8.8,0,0,0,.6-.244l.135.135a.977.977,0,0,1-.748.306,1.039,1.039,0,0,1-1.065-1.065Z" transform="translate(-131.2 -141.212)" fill="#263238"/>
      <path id="Path_1305" data-name="Path 1305" d="M154.733,245.747v.966h-.2v-.244a.556.556,0,0,1-.52.255c-.348,0-.561-.182-.561-.452s.151-.442.592-.442h.488v-.094a.379.379,0,0,0-.436-.41.79.79,0,0,0-.52.182l-.094-.156a.977.977,0,0,1,.623-.208.551.551,0,0,1,.629.6Zm-.208.519v-.255h-.483c-.3,0-.395.114-.395.275s.145.3.39.3a.52.52,0,0,0,.488-.338Z" transform="translate(-133.127 -141.678)" fill="#263238"/>
      <path id="Path_1306" data-name="Path 1306" d="M157.774,245.147v.2h-.052a.5.5,0,0,0-.52.571v.795H157v-1.558h.2v.307A.577.577,0,0,1,157.774,245.147Z" transform="translate(-134.833 -141.68)" fill="#263238"/>
      <path id="Path_1307" data-name="Path 1307" d="M160.527,243.94v2.2h-.2v-.312a.655.655,0,0,1-.592.322.79.79,0,0,1,0-1.558.665.665,0,0,1,.582.307v-.935Zm-.2,1.418a.566.566,0,1,0-.152.429.571.571,0,0,0,.152-.429Z" transform="translate(-135.83 -141.102)" fill="#263238"/>
      <path id="Path_1308" data-name="Path 1308" d="M162.089,274.034a3.116,3.116,0,0,0,.909-.2,2.535,2.535,0,0,0,1.558-1.984,5.892,5.892,0,0,0,.026-.919v-3.361c0-.831,0-1.735-.031-2.66a2.488,2.488,0,0,0-1.782-2.078,6.234,6.234,0,0,0-1.558-.093H130.047a2.436,2.436,0,0,0-1.948.977,2.348,2.348,0,0,0-.447,1.039,7.48,7.48,0,0,0-.047,1.143v5.72a2.374,2.374,0,0,0,.306,1.008,2.483,2.483,0,0,0,1.636,1.19,5.833,5.833,0,0,0,1.039.052h3.174l14.738.031,9.933.042h3.4a2.047,2.047,0,0,1,.239,0h-3.642l-9.933.047-14.738.026h-3.174a5.757,5.757,0,0,1-1.107-.052,2.727,2.727,0,0,1-1.813-1.32,2.6,2.6,0,0,1-.343-1.112v-5.74a7.22,7.22,0,0,1,.052-1.195,2.6,2.6,0,0,1,.494-1.127,2.727,2.727,0,0,1,2.166-1.081H161.2a6.1,6.1,0,0,1,1.626.109,2.649,2.649,0,0,1,1.9,2.223c.047.966,0,1.844,0,2.681v3.361a6.143,6.143,0,0,1-.042.935,2.6,2.6,0,0,1-.7,1.392,2.493,2.493,0,0,1-.961.629,2.568,2.568,0,0,1-.691.151Z" transform="translate(-120.571 -149.959)" fill="#263238"/>
      <path id="Path_1309" data-name="Path 1309" d="M238.776,274.034a3.184,3.184,0,0,0,.914-.2,2.53,2.53,0,0,0,.92-.629,2.488,2.488,0,0,0,.655-1.356,5.886,5.886,0,0,0,.026-.919v-3.361c0-.831,0-1.735-.031-2.66a2.488,2.488,0,0,0-1.782-2.078,6.233,6.233,0,0,0-1.558-.094H206.754a2.436,2.436,0,0,0-1.948.977,2.348,2.348,0,0,0-.447,1.039,7.483,7.483,0,0,0-.047,1.143v5.72a2.373,2.373,0,0,0,.306,1.008,2.483,2.483,0,0,0,1.636,1.19,5.83,5.83,0,0,0,1.039.052h3.179l14.733.031,9.933.042h3.4a2.04,2.04,0,0,1,.239,0h-3.642l-9.933.047-14.733.026h-3.179a5.754,5.754,0,0,1-1.107-.052,2.727,2.727,0,0,1-1.813-1.32,2.649,2.649,0,0,1-.343-1.112v-5.74a6.682,6.682,0,0,1,.047-1.195,2.68,2.68,0,0,1,.519-1.127,2.727,2.727,0,0,1,2.166-1.081h31.164a6.082,6.082,0,0,1,1.626.109,2.665,2.665,0,0,1,1.9,2.223c.042.966,0,1.844,0,2.681v3.361a6.141,6.141,0,0,1-.042.935,2.6,2.6,0,0,1-.7,1.392,2.493,2.493,0,0,1-.961.629,2.6,2.6,0,0,1-.686.151Z" transform="translate(-157.428 -149.959)" fill="#263238"/>
      <path id="Path_1310" data-name="Path 1310" d="M203.692,141.365c0,.078-16.93.135-37.8.135s-37.809-.057-37.809-.135,16.925-.135,37.809-.135S203.692,141.292,203.692,141.365Z" transform="translate(-120.937 -91.749)" fill="#263238"/>
      <path id="Path_1311" data-name="Path 1311" d="M129.933,186.638c0,.457-.327.732-.873.732h-.571v.655h-.229V185.89h.8C129.605,185.906,129.933,186.181,129.933,186.638Zm-.223,0c0-.343-.229-.519-.655-.519h-.566v1.039h.566C129.481,187.168,129.709,186.986,129.709,186.638Z" transform="translate(-121.023 -113.208)" fill="#263238"/>
      <path id="Path_1312" data-name="Path 1312" d="M133.385,187.526v.977h-.208v-.249a.6.6,0,0,1-.551.265c-.364,0-.587-.187-.587-.468s.161-.452.618-.452h.52v-.1c0-.275-.151-.421-.452-.421a.826.826,0,0,0-.519.187l-.1-.161a1.039,1.039,0,0,1,.655-.218.571.571,0,0,1,.623.639Zm-.218.52v-.265h-.519c-.312,0-.416.125-.416.286s.151.3.405.3a.52.52,0,0,0,.53-.327Z" transform="translate(-122.839 -113.686)" fill="#263238"/>
      <path id="Path_1313" data-name="Path 1313" d="M135.33,188.354l.1-.171a.961.961,0,0,0,.571.182c.306,0,.431-.1.431-.265,0-.416-1.039-.088-1.039-.722,0-.26.229-.457.639-.457a1.065,1.065,0,0,1,.566.151l-.094.171a.862.862,0,0,0-.473-.135c-.291,0-.421.114-.421.265,0,.431,1.039.109,1.039.722,0,.281-.244.457-.665.457A1.075,1.075,0,0,1,135.33,188.354Z" transform="translate(-124.42 -113.703)" fill="#263238"/>
      <path id="Path_1314" data-name="Path 1314" d="M138.2,188.354l.1-.171a.951.951,0,0,0,.571.182c.307,0,.431-.1.431-.265,0-.416-1.039-.088-1.039-.722,0-.26.229-.457.639-.457a1.065,1.065,0,0,1,.566.151l-.094.171a.862.862,0,0,0-.473-.135c-.291,0-.421.114-.421.265,0,.431,1.039.109,1.039.722,0,.281-.239.457-.66.457A1.075,1.075,0,0,1,138.2,188.354Z" transform="translate(-125.799 -113.703)" fill="#263238"/>
      <path id="Path_1315" data-name="Path 1315" d="M143.53,186.926l-.618,1.59h-.2l-.519-1.314-.52,1.314h-.208l-.6-1.605h.208l.519,1.366.52-1.366h.187l.52,1.366.519-1.366Z" transform="translate(-127.077 -113.698)" fill="#263238"/>
      <path id="Path_1316" data-name="Path 1316" d="M146.2,187.736a.816.816,0,1,1,.821.816.79.79,0,0,1-.821-.816Zm1.413,0a.6.6,0,1,0-.592.623.582.582,0,0,0,.592-.623Z" transform="translate(-129.643 -113.703)" fill="#263238"/>
      <path id="Path_1317" data-name="Path 1317" d="M151.02,186.915v.213h-.052a.519.519,0,0,0-.52.592v.795h-.218V186.91h.208v.317A.613.613,0,0,1,151.02,186.915Z" transform="translate(-131.58 -113.698)" fill="#263238"/>
      <path id="Path_1318" data-name="Path 1318" d="M153.772,185.656V187.9h-.208v-.317a.691.691,0,0,1-.618.332.816.816,0,1,1,0-1.631.7.7,0,0,1,.608.317v-.966Zm-.213,1.465a.6.6,0,1,0-.6.623.587.587,0,0,0,.6-.623Z" transform="translate(-132.493 -113.088)" fill="#263238"/>
      <path id="Path_1319" data-name="Path 1319" d="M201.735,167.837a3.744,3.744,0,0,0,.426-.068,1.844,1.844,0,0,0,1.039-.686,1.792,1.792,0,0,0,.343-.842c.036-.332,0-.717,0-1.122v-4.5a1.891,1.891,0,0,0-.623-1.616,1.787,1.787,0,0,0-.847-.405,8.176,8.176,0,0,0-1.039-.026H188.607l-59.295.042a1.714,1.714,0,0,0-1.558,1.039,2.353,2.353,0,0,0-.135,1v5.387a1.7,1.7,0,0,0,1.039,1.558,2.151,2.151,0,0,0,.971.145H150.57l26.66.026,17.969.047h4.888l-4.888.026-17.969.042-26.66.031H129.593a2.3,2.3,0,0,1-1.075-.166,1.979,1.979,0,0,1-1.184-1.782v-5.335a5.015,5.015,0,0,1,0-.551,2.114,2.114,0,0,1,.14-.561,2,2,0,0,1,1.834-1.21l59.295.042h12.421a7.685,7.685,0,0,1,1.039.036,1.922,1.922,0,0,1,.914.436,2.005,2.005,0,0,1,.649,1.714v4.5c0,.41,0,.779-.026,1.132a1.891,1.891,0,0,1-.369.868,1.844,1.844,0,0,1-1.039.675A1.6,1.6,0,0,1,201.735,167.837Z" transform="translate(-120.574 -99.956)" fill="#263238"/>
      <path id="Path_1320" data-name="Path 1320" d="M129.772,153.763v.2H128.26v-2.14h1.465v.2h-1.236v.758h1.1v.177h-1.1v.795Z" transform="translate(-121.023 -96.837)" fill="#263238"/>
      <path id="Path_1321" data-name="Path 1321" d="M134.778,153.485v.935h-.218v-.914c0-.338-.171-.52-.462-.52a.519.519,0,0,0-.52.577v.847h-.218V153.5c0-.338-.171-.519-.462-.519a.519.519,0,0,0-.519.577v.847h-.218v-1.605h.208v.291a.655.655,0,0,1,.587-.307.582.582,0,0,1,.571.338.7.7,0,0,1,.634-.338.608.608,0,0,1,.618.707Z" transform="translate(-122.897 -97.297)" fill="#263238"/>
      <path id="Path_1322" data-name="Path 1322" d="M139.415,153.431v1h-.208v-.255a.6.6,0,0,1-.551.27c-.364,0-.587-.192-.587-.468s.156-.457.618-.457h.52v-.088c0-.275-.156-.421-.452-.421a.826.826,0,0,0-.519.187l-.1-.161a1,1,0,0,1,.655-.218.571.571,0,0,1,.623.613Zm-.218.52v-.265h-.519c-.312,0-.41.125-.41.291s.151.3.405.3a.519.519,0,0,0,.525-.327Z" transform="translate(-125.737 -97.315)" fill="#263238"/>
      <path id="Path_1323" data-name="Path 1323" d="M141.69,151.716a.161.161,0,1,1,.161.156.156.156,0,0,1-.161-.156Zm.052.519h.218v1.605h-.218Z" transform="translate(-127.476 -96.708)" fill="#263238"/>
      <path id="Path_1324" data-name="Path 1324" d="M143.37,151.58h.213v2.265h-.213Z" transform="translate(-128.284 -96.722)" fill="#263238"/>
      <path id="Path_1325" data-name="Path 1325" d="M201.735,205.66a3.734,3.734,0,0,0,.426-.068,1.844,1.844,0,0,0,1.039-.686,1.792,1.792,0,0,0,.343-.842c.036-.332,0-.717,0-1.122v-4.5a1.886,1.886,0,0,0-.623-1.616,1.787,1.787,0,0,0-.847-.405,8.176,8.176,0,0,0-1.039-.026H188.607l-59.295.042a1.714,1.714,0,0,0-1.558,1.039,2.353,2.353,0,0,0-.135,1v5.33a1.7,1.7,0,0,0,1.039,1.558,2.151,2.151,0,0,0,.971.145H150.57l26.66.026,17.969.042,4.888.026H195.2l-17.969.042-26.66.031H129.593a2.3,2.3,0,0,1-1.075-.166,1.979,1.979,0,0,1-1.184-1.782v-5.335a5.014,5.014,0,0,1,0-.551,2.114,2.114,0,0,1,.14-.561,2,2,0,0,1,1.834-1.21l59.295.042h12.421a7.685,7.685,0,0,1,1.039.036,1.922,1.922,0,0,1,.914.436,2.005,2.005,0,0,1,.649,1.714v4.5c0,.41,0,.779-.026,1.132a1.891,1.891,0,0,1-.369.868,1.844,1.844,0,0,1-1.039.675A1.594,1.594,0,0,1,201.735,205.66Z" transform="translate(-120.574 -118.1)" fill="#263238"/>
      <path id="Path_1326" data-name="Path 1326" d="M138.4,204.768a.868.868,0,1,1-.868-.868A.868.868,0,0,1,138.4,204.768Z" transform="translate(-125.059 -121.862)" fill="#263238"/>
      <circle id="Ellipse_41" data-name="Ellipse 41" cx="0.868" cy="0.868" r="0.868" transform="translate(15.616 82.038)" fill="#263238"/>
      <circle id="Ellipse_42" data-name="Ellipse 42" cx="0.868" cy="0.868" r="0.868" transform="translate(19.611 82.038)" fill="#263238"/>
      <path id="Path_1327" data-name="Path 1327" d="M161.505,204.768a.868.868,0,1,1-.868-.868A.868.868,0,0,1,161.505,204.768Z" transform="translate(-136.164 -121.862)" fill="#263238"/>
      <path id="Path_1328" data-name="Path 1328" d="M169.2,204.768a.868.868,0,1,1-.868-.868A.868.868,0,0,1,169.2,204.768Z" transform="translate(-139.859 -121.862)" fill="#263238"/>
      <path id="Path_1329" data-name="Path 1329" d="M176.885,204.768a.868.868,0,1,1-.868-.868A.868.868,0,0,1,176.885,204.768Z" transform="translate(-143.554 -121.862)" fill="#263238"/>
      <path id="Path_1330" data-name="Path 1330" d="M184.575,204.768a.868.868,0,1,1-.868-.868.868.868,0,0,1,.868.868Z" transform="translate(-147.249 -121.862)" fill="#263238"/>
      <path id="Path_1331" data-name="Path 1331" d="M192.265,204.768a.868.868,0,1,1-.868-.868.868.868,0,0,1,.868.868Z" transform="translate(-150.944 -121.862)" fill="#263238"/>
      <circle id="Ellipse_43" data-name="Ellipse 43" cx="0.868" cy="0.868" r="0.868" transform="translate(43.581 82.038)" fill="#263238"/>
      <path id="Path_1332" data-name="Path 1332" d="M209.055,204.768a.868.868,0,1,1-.862-.868A.868.868,0,0,1,209.055,204.768Z" transform="translate(-159.012 -121.862)" fill="#263238"/>
      <path id="Path_1333" data-name="Path 1333" d="M201.735,245.891a3.733,3.733,0,0,0,.426-.068,1.844,1.844,0,0,0,1.039-.686,1.792,1.792,0,0,0,.343-.842c.036-.332,0-.717,0-1.122v-4.5a1.9,1.9,0,0,0-.623-1.621,1.787,1.787,0,0,0-.847-.405,9.309,9.309,0,0,0-1.039-.026H188.607l-59.29.094a1.714,1.714,0,0,0-1.558,1.039,2.353,2.353,0,0,0-.135,1v5.335a1.7,1.7,0,0,0,1.039,1.558,2.151,2.151,0,0,0,.971.145h20.941l26.66.026,17.969.047,4.888.026H195.2l-17.969.042-26.7.078H129.593a2.374,2.374,0,0,1-1.075-.171,1.969,1.969,0,0,1-1.184-1.782v-5.335a5.014,5.014,0,0,1,0-.551,2.114,2.114,0,0,1,.14-.561,2,2,0,0,1,1.834-1.205l59.295.036h12.421a7.69,7.69,0,0,1,1.039.036,1.886,1.886,0,0,1,.914.442,2,2,0,0,1,.649,1.714c0,.587,0,1.148,0,1.678v2.821c0,.41,0,.779-.026,1.132a1.891,1.891,0,0,1-.369.868,1.818,1.818,0,0,1-1.039.675A1.361,1.361,0,0,1,201.735,245.891Z" transform="translate(-120.574 -137.483)" fill="#263238"/>
      <path id="Path_1334" data-name="Path 1334" d="M182.867,245.533h-.519v.634h-.353v-.634H180.56v-.255l1.319-1.688h.395l-1.262,1.626H182v-.556h.343v.556h.519Z" transform="translate(-146.154 -140.934)" fill="#263238"/>
      <path id="Path_1335" data-name="Path 1335" d="M187.362,245.393c0,.447-.317.805-.977.805a1.47,1.47,0,0,1-.945-.317l.171-.291a1.127,1.127,0,0,0,.769.281c.39,0,.613-.182.613-.462s-.182-.473-.779-.473h-.587l.135-1.345h1.455v.322h-1.143l-.073.707h.291C187.061,244.619,187.362,244.935,187.362,245.393Z" transform="translate(-148.499 -140.934)" fill="#263238"/>
      <path id="Path_1336" data-name="Path 1336" d="M191.672,245.393c0,.447-.317.805-.977.805a1.47,1.47,0,0,1-.945-.317l.171-.291a1.127,1.127,0,0,0,.769.281c.39,0,.613-.182.613-.462s-.187-.473-.779-.473h-.587l.135-1.345h1.455v.322H190.4l-.073.707h.291C191.371,244.619,191.672,244.935,191.672,245.393Z" transform="translate(-150.57 -140.934)" fill="#263238"/>
      <path id="Path_1337" data-name="Path 1337" d="M195.982,245.393c0,.447-.317.805-.977.805a1.47,1.47,0,0,1-.945-.317l.171-.291a1.127,1.127,0,0,0,.769.281c.39,0,.613-.182.613-.462s-.182-.473-.779-.473h-.587l.135-1.345h1.455v.322h-1.143l-.073.707h.291C195.681,244.619,195.982,244.935,195.982,245.393Z" transform="translate(-152.641 -140.934)" fill="#263238"/>
      <path id="Path_1338" data-name="Path 1338" d="M200.81,244.854c0-.836.452-1.314,1.039-1.314s1.039.478,1.039,1.314-.452,1.32-1.039,1.32S200.81,245.7,200.81,244.854Zm1.735,0c0-.66-.281-.987-.681-.987s-.686.327-.686.987.281.992.686.992S202.545,245.514,202.545,244.854Z" transform="translate(-155.884 -140.91)" fill="#263238"/>
      <path id="Path_1339" data-name="Path 1339" d="M205.82,244.854c0-.836.447-1.314,1.039-1.314s1.039.478,1.039,1.314-.447,1.32-1.039,1.32S205.82,245.7,205.82,244.854Zm1.73,0c0-.66-.281-.987-.681-.987s-.686.327-.686.987.281.992.686.992.681-.332.681-.992Z" transform="translate(-158.291 -140.91)" fill="#263238"/>
      <path id="Path_1340" data-name="Path 1340" d="M210.82,244.854c0-.836.447-1.314,1.039-1.314s1.039.478,1.039,1.314-.447,1.32-1.039,1.32S210.82,245.7,210.82,244.854Zm1.735,0c0-.66-.281-.987-.681-.987s-.686.327-.686.987.281.992.686.992S212.555,245.514,212.555,244.854Z" transform="translate(-160.694 -140.91)" fill="#263238"/>
      <path id="Path_1341" data-name="Path 1341" d="M215.82,244.854c0-.836.452-1.314,1.039-1.314s1.039.478,1.039,1.314-.452,1.32-1.039,1.32S215.82,245.7,215.82,244.854Zm1.735,0c0-.66-.281-.987-.681-.987s-.686.327-.686.987.281.992.686.992S217.555,245.514,217.555,244.854Z" transform="translate(-163.096 -140.91)" fill="#263238"/>
      <path id="Path_1342" data-name="Path 1342" d="M224.857,243.59v.249l-1.039,2.327h-.39l1.039-2.255h-1.174v.457h-.353v-.779Z" transform="translate(-166.518 -140.934)" fill="#263238"/>
      <path id="Path_1343" data-name="Path 1343" d="M229.362,243.59v.249l-1.039,2.327h-.39l1.039-2.255h-1.179v.457h-.353v-.779Z" transform="translate(-168.68 -140.934)" fill="#263238"/>
      <path id="Path_1344" data-name="Path 1344" d="M233.863,243.59v.249l-1.039,2.327h-.39l1.039-2.255h-1.2v.457h-.353v-.779Z" transform="translate(-170.833 -140.934)" fill="#263238"/>
      <path id="Path_1345" data-name="Path 1345" d="M238.392,243.59v.249l-1.039,2.327h-.39L238,243.912h-1.179v.457h-.353v-.779Z" transform="translate(-173.019 -140.934)" fill="#263238"/>
      <path id="Path_1346" data-name="Path 1346" d="M245.245,245.317a.836.836,0,0,1-.914.816c-.691,0-1.081-.468-1.081-1.288a1.184,1.184,0,0,1,1.221-1.345,1.237,1.237,0,0,1,.639.151l-.14.286a.9.9,0,0,0-.494-.119c-.519,0-.857.327-.857.966a.563.563,0,0,0,0,.094.857.857,0,0,1,.738-.338.8.8,0,0,1,.888.779Zm-.358,0a.528.528,0,0,0-.587-.519.519.519,0,0,0-.592.519c0,.265.213.494.613.494a.519.519,0,0,0,.566-.457Z" transform="translate(-176.271 -140.889)" fill="#263238"/>
      <path id="Path_1347" data-name="Path 1347" d="M249.895,245.317a.836.836,0,0,1-.914.816c-.691,0-1.081-.468-1.081-1.288a1.184,1.184,0,0,1,1.216-1.345,1.247,1.247,0,0,1,.644.151l-.14.286a.9.9,0,0,0-.494-.119c-.52,0-.857.327-.857.966a.563.563,0,0,0,0,.094.857.857,0,0,1,.738-.338.8.8,0,0,1,.888.779Zm-.358,0a.528.528,0,0,0-.587-.519.519.519,0,0,0-.592.519c0,.265.213.494.608.494a.519.519,0,0,0,.571-.457Z" transform="translate(-178.506 -140.889)" fill="#263238"/>
      <path id="Path_1348" data-name="Path 1348" d="M254.545,245.317a.836.836,0,0,1-.914.816c-.691,0-1.081-.468-1.081-1.288a1.184,1.184,0,0,1,1.221-1.345,1.237,1.237,0,0,1,.639.151l-.14.286a.9.9,0,0,0-.519-.119c-.52,0-.857.327-.857.966a.566.566,0,0,0,0,.094.857.857,0,0,1,.738-.338.8.8,0,0,1,.914.779Zm-.358,0a.528.528,0,0,0-.587-.519.519.519,0,0,0-.592.519c0,.265.213.494.608.494a.519.519,0,0,0,.571-.457Z" transform="translate(-180.74 -140.889)" fill="#263238"/>
      <path id="Path_1349" data-name="Path 1349" d="M259.195,245.317a.836.836,0,0,1-.914.816c-.691,0-1.081-.468-1.081-1.288a1.184,1.184,0,0,1,1.216-1.345,1.247,1.247,0,0,1,.644.151l-.14.286a.9.9,0,0,0-.494-.119c-.52,0-.857.327-.857.966a.57.57,0,0,0,0,.094.857.857,0,0,1,.738-.338.8.8,0,0,1,.888.779Zm-.358,0a.528.528,0,0,0-.587-.519.519.519,0,0,0-.592.519c0,.265.213.494.608.494a.519.519,0,0,0,.571-.457Z" transform="translate(-182.974 -140.889)" fill="#263238"/>
      <path id="Path_1350" data-name="Path 1350" d="M135.631,166.041l-.945,2.145a.7.7,0,0,1-.7.52.717.717,0,0,1-.52-.182l.151-.265a.483.483,0,0,0,.348.145c.166,0,.275-.078.369-.3l.062-.135-.857-1.948h.364l.686,1.558.67-1.558Z" transform="translate(-123.527 -103.661)" fill="#263238"/>
      <path id="Path_1351" data-name="Path 1351" d="M138.089,166.941a1.039,1.039,0,1,1,1.039,1,.977.977,0,0,1-1.039-1Zm1.673,0a.66.66,0,1,0-.655.686.639.639,0,0,0,.655-.686Z" transform="translate(-125.746 -103.584)" fill="#263238"/>
      <path id="Path_1352" data-name="Path 1352" d="M145.009,166.06v1.948h-.332v-.291a.8.8,0,0,1-.665.317.769.769,0,0,1-.836-.852V166.06h.353v1.081c0,.384.192.577.52.577a.571.571,0,0,0,.592-.649V166.06Z" transform="translate(-128.188 -103.68)" fill="#263238"/>
      <path id="Path_1353" data-name="Path 1353" d="M149.339,166v.343h-.083a.577.577,0,0,0-.613.655v.971h-.353v-1.948h.338v.327a.748.748,0,0,1,.712-.348Z" transform="translate(-130.648 -103.647)" fill="#263238"/>
      <path id="Path_1354" data-name="Path 1354" d="M152.987,167.131H151.4a.665.665,0,0,0,.707.571.743.743,0,0,0,.566-.234l.192.229a.992.992,0,0,1-.769.317.977.977,0,0,1-1.039-1,.961.961,0,0,1,.982-1,.94.94,0,0,1,.961,1.008A.761.761,0,0,0,152.987,167.131Zm-1.584-.255h1.252a.629.629,0,0,0-1.252,0Z" transform="translate(-131.978 -103.66)" fill="#263238"/>
      <path id="Path_1355" data-name="Path 1355" d="M159.236,166.855v1.122h-.353V166.9c0-.384-.182-.571-.519-.571a.571.571,0,0,0-.582.649v1h-.353V166.9c0-.384-.182-.571-.52-.571a.571.571,0,0,0-.587.649v1H156v-1.948h.343v.291a.779.779,0,0,1,.7-.322.717.717,0,0,1,.675.364.883.883,0,0,1,.753-.364.748.748,0,0,1,.769.857Z" transform="translate(-134.352 -103.649)" fill="#263238"/>
      <path id="Path_1356" data-name="Path 1356" d="M165.174,166.807v1.174h-.332v-.255a.727.727,0,0,1-.639.281c-.442,0-.722-.239-.722-.577s.2-.571.784-.571h.556v-.068c0-.3-.171-.473-.52-.473a.977.977,0,0,0-.618.213l-.151-.265a1.273,1.273,0,0,1,.805-.255.727.727,0,0,1,.836.795Zm-.353.582v-.275h-.551c-.348,0-.447.135-.447.3s.161.317.431.317a.561.561,0,0,0,.566-.343Z" transform="translate(-137.947 -103.652)" fill="#263238"/>
      <path id="Path_1357" data-name="Path 1357" d="M168.16,164.684a.234.234,0,1,1,.232.234A.234.234,0,0,1,168.16,164.684Zm.062.6h.374v1.948h-.353Z" transform="translate(-140.195 -102.906)" fill="#263238"/>
      <path id="Path_1358" data-name="Path 1358" d="M170.54,164.56h.353v2.727h-.353Z" transform="translate(-141.339 -102.959)" fill="#263238"/>
      <path id="Path_1359" data-name="Path 1359" d="M175.916,166.421c0,.623-.239,1.008-.655,1.008a.421.421,0,0,1-.442-.353.784.784,0,0,1-.7.353.945.945,0,0,1,0-1.886.816.816,0,0,1,.675.312v-.3h.317v1.325c0,.192.1.265.213.265.213,0,.338-.265.338-.727a1.351,1.351,0,0,0-1.46-1.377,1.429,1.429,0,0,0,0,2.857,1.559,1.559,0,0,0,.707-.161l.083.234a1.844,1.844,0,0,1-.79.171,1.673,1.673,0,1,1,0-3.34,1.59,1.59,0,0,1,1.709,1.616Zm-1.107.042a.608.608,0,0,0-.629-.655.655.655,0,1,0,0,1.309.608.608,0,0,0,.629-.655Z" transform="translate(-142.252 -103.075)" fill="#263238"/>
      <path id="Path_1360" data-name="Path 1360" d="M182,167.131h-1.584a.665.665,0,0,0,.707.571.727.727,0,0,0,.561-.234l.2.229a.992.992,0,0,1-.769.317.977.977,0,0,1-1.039-1,.961.961,0,0,1,.982-1,.94.94,0,0,1,.961,1.008A.758.758,0,0,0,182,167.131Zm-1.584-.255h1.252a.629.629,0,0,0-1.252,0Z" transform="translate(-145.918 -103.66)" fill="#263238"/>
      <path id="Path_1361" data-name="Path 1361" d="M188.242,166.855v1.122h-.353V166.9c0-.384-.182-.571-.52-.571a.574.574,0,0,0-.582.649v1h-.353V166.9c0-.384-.187-.571-.519-.571a.571.571,0,0,0-.587.649v1H185v-1.948h.343v.291a.779.779,0,0,1,.7-.322.717.717,0,0,1,.675.364.883.883,0,0,1,.753-.364.748.748,0,0,1,.774.857Z" transform="translate(-148.287 -103.649)" fill="#263238"/>
      <path id="Path_1362" data-name="Path 1362" d="M194.184,166.807v1.174h-.332v-.255a.733.733,0,0,1-.644.281c-.442,0-.717-.239-.717-.577s.2-.571.784-.571h.556v-.068c0-.3-.171-.473-.52-.473a.977.977,0,0,0-.618.213l-.151-.265a1.273,1.273,0,0,1,.805-.255.727.727,0,0,1,.836.795Zm-.353.582v-.275h-.52c-.348,0-.447.135-.447.3s.161.317.431.317A.561.561,0,0,0,193.83,167.388Z" transform="translate(-151.886 -103.652)" fill="#263238"/>
      <path id="Path_1363" data-name="Path 1363" d="M197.17,164.684a.234.234,0,1,1,.232.234A.234.234,0,0,1,197.17,164.684Zm.062.6h.369v1.948h-.353Z" transform="translate(-154.135 -102.906)" fill="#263238"/>
      <path id="Path_1364" data-name="Path 1364" d="M199.55,164.56h.353v2.727h-.353Z" transform="translate(-155.279 -102.959)" fill="#263238"/>
      <path id="Path_1365" data-name="Path 1365" d="M201.49,169.139a.244.244,0,0,1,.249-.249.239.239,0,0,1,.244.249.244.244,0,0,1-.244.255.249.249,0,0,1-.249-.255Z" transform="translate(-156.211 -105.04)" fill="#263238"/>
      <path id="Path_1366" data-name="Path 1366" d="M203.27,167.016a.977.977,0,0,1,1.039-1,.873.873,0,0,1,.795.421l-.27.171a.608.608,0,0,0-.52-.281.686.686,0,0,0,0,1.371.608.608,0,0,0,.519-.281l.27.171a.883.883,0,0,1-.795.421.977.977,0,0,1-1.039-1Z" transform="translate(-157.066 -103.659)" fill="#263238"/>
      <path id="Path_1367" data-name="Path 1367" d="M207.529,166.941a1.039,1.039,0,1,1,1.039,1,.977.977,0,0,1-1.039-1Zm1.673,0a.66.66,0,1,0-.655.686.639.639,0,0,0,.655-.686Z" transform="translate(-159.112 -103.584)" fill="#263238"/>
      <path id="Path_1368" data-name="Path 1368" d="M215.868,166.862v1.122h-.353V166.9c0-.384-.187-.571-.52-.571a.571.571,0,0,0-.587.649v1h-.353V166.9c0-.384-.182-.571-.52-.571a.574.574,0,0,0-.582.649v1H212.6v-1.948h.338v.291a.8.8,0,0,1,.67-.312.727.727,0,0,1,.681.364.868.868,0,0,1,.748-.364.753.753,0,0,1,.831.847Z" transform="translate(-161.549 -103.656)" fill="#263238"/>
      <path id="Path_1369" data-name="Path 1369" d="M135.738,269.112v.27H134.18V267.2h1.558v.27h-1.231v.665h1.1v.265h-1.1v.706Z" transform="translate(-123.868 -152.278)" fill="#263238"/>
      <path id="Path_1370" data-name="Path 1370" d="M138.714,269.872l-.478-.634-.483.634h-.332l.649-.842-.618-.81h.332l.452.6.452-.6h.327l-.623.81.66.842Z" transform="translate(-125.425 -152.768)" fill="#263238"/>
      <path id="Path_1371" data-name="Path 1371" d="M142.779,269.031a.8.8,0,0,1-.831.847.706.706,0,0,1-.577-.27v.852h-.3v-2.255h.286v.265a.7.7,0,0,1,.592-.281.8.8,0,0,1,.831.842Zm-.3,0a.556.556,0,1,0-.556.582.519.519,0,0,0,.556-.582Z" transform="translate(-127.178 -152.753)" fill="#263238"/>
      <path id="Path_1372" data-name="Path 1372" d="M144.94,267.057a.2.2,0,1,1,.2.2.2.2,0,0,1-.2-.2Zm.052.52h.3v1.652h-.322Z" transform="translate(-129.038 -152.115)" fill="#263238"/>
      <path id="Path_1373" data-name="Path 1373" d="M147.488,268.187v.291h-.073a.519.519,0,0,0-.519.561v.821h-.3v-1.652h.286v.281A.623.623,0,0,1,147.488,268.187Z" transform="translate(-129.836 -152.751)" fill="#263238"/>
      <path id="Path_1374" data-name="Path 1374" d="M150.1,268.869v1h-.286v-.208a.608.608,0,0,1-.52.239c-.374,0-.613-.2-.613-.488s.171-.483.665-.483h.473v-.057c0-.255-.145-.4-.442-.4a.842.842,0,0,0-.52.177l-.125-.223a1.122,1.122,0,0,1,.686-.213A.594.594,0,0,1,150.1,268.869Zm-.3.494v-.223h-.462c-.3,0-.379.114-.379.255s.14.265.364.265A.473.473,0,0,0,149.8,269.363Z" transform="translate(-130.835 -152.763)" fill="#263238"/>
      <path id="Path_1375" data-name="Path 1375" d="M153.068,269.447a.582.582,0,0,1-.358.114.473.473,0,0,1-.52-.519v-.9h-.281v-.249h.281v-.358h.286v.358h.473v.249h-.473v.894a.239.239,0,0,0,.255.275.364.364,0,0,0,.234-.078Z" transform="translate(-132.387 -152.437)" fill="#263238"/>
      <path id="Path_1376" data-name="Path 1376" d="M154.62,267.057a.2.2,0,1,1,.2.2.2.2,0,0,1-.2-.2Zm.052.52h.3v1.652h-.3Z" transform="translate(-133.689 -152.115)" fill="#263238"/>
      <path id="Path_1377" data-name="Path 1377" d="M156,269a.862.862,0,1,1,.862.847A.821.821,0,0,1,156,269Zm1.413,0a.556.556,0,1,0-.556.556A.556.556,0,0,0,157.413,269Z" transform="translate(-134.352 -152.72)" fill="#263238"/>
      <path id="Path_1378" data-name="Path 1378" d="M161.558,268.906v.951h-.3v-.914c0-.327-.166-.483-.447-.483a.488.488,0,0,0-.519.545v.852H160V268.2h.291v.249a.706.706,0,0,1,.592-.265.639.639,0,0,1,.675.717Z" transform="translate(-136.274 -152.753)" fill="#263238"/>
      <path id="Path_1379" data-name="Path 1379" d="M165.51,267.2h.92a1.1,1.1,0,1,1,0,2.182h-.92Zm.9,1.912a.821.821,0,1,0,0-1.642h-.587v1.642Z" transform="translate(-138.922 -152.274)" fill="#263238"/>
      <path id="Path_1380" data-name="Path 1380" d="M171.468,268.869v1h-.286v-.208a.608.608,0,0,1-.52.239c-.374,0-.613-.2-.613-.488s.171-.483.665-.483h.473v-.057c0-.255-.145-.4-.442-.4a.842.842,0,0,0-.52.177l-.125-.223a1.122,1.122,0,0,1,.686-.213A.594.594,0,0,1,171.468,268.869Zm-.3.494v-.223h-.457c-.3,0-.384.114-.384.255s.14.265.369.265a.467.467,0,0,0,.473-.3Z" transform="translate(-141.104 -152.763)" fill="#263238"/>
      <path id="Path_1381" data-name="Path 1381" d="M174.8,268.22l-.8,1.818c-.145.348-.338.457-.587.457a.629.629,0,0,1-.426-.151l.13-.229a.416.416,0,0,0,.3.125c.14,0,.234-.068.312-.255l.052-.12-.727-1.647h.312l.577,1.32.571-1.32Z" transform="translate(-142.516 -152.768)" fill="#263238"/>
      <path id="Path_1382" data-name="Path 1382" d="M209.94,269.03a.826.826,0,0,1,.873-.842.738.738,0,0,1,.67.353l-.223.145a.52.52,0,0,0-.452-.234.582.582,0,0,0,0,1.158.52.52,0,0,0,.452-.234l.223.14a.727.727,0,0,1-.67.358.826.826,0,0,1-.873-.847Z" transform="translate(-160.271 -152.753)" fill="#263238"/>
      <path id="Path_1383" data-name="Path 1383" d="M214.691,268.22l-.722,1.652h-.306l-.722-1.652h.312l.566,1.325.582-1.325Z" transform="translate(-161.713 -152.768)" fill="#263238"/>
      <path id="Path_1384" data-name="Path 1384" d="M217.881,268.22l-.727,1.652h-.3l-.722-1.652h.312l.566,1.325.577-1.325Z" transform="translate(-163.245 -152.768)" fill="#263238"/>
      <path id="Path_1385" data-name="Path 1385" d="M135.35,276.23v2.182h-.307v-1.907h-.494v-.275Z" transform="translate(-124.045 -156.617)" fill="#263238"/>
      <path id="Path_1386" data-name="Path 1386" d="M138.331,278.112v.27h-1.558v-.223l.888-.857c.229-.223.27-.358.27-.493,0-.229-.156-.364-.462-.364a.67.67,0,0,0-.556.239l-.213-.187a1,1,0,0,1,.795-.327c.457,0,.748.234.748.6a.878.878,0,0,1-.358.686l-.665.644Z" transform="translate(-125.079 -156.587)" fill="#263238"/>
      <path id="Path_1387" data-name="Path 1387" d="M142.274,275.38h.275l-1.039,2.935h-.27Z" transform="translate(-127.26 -156.209)" fill="#263238"/>
      <path id="Path_1388" data-name="Path 1388" d="M146.566,277.773c0,.364-.27.665-.826.665a1.226,1.226,0,0,1-.8-.265l.14-.244a1,1,0,0,0,.66.234c.327,0,.519-.151.519-.39s-.166-.379-.519-.379h-.171v-.218l.545-.67h-1.039v-.275h1.439v.213l-.608.706C146.343,277.186,146.566,277.435,146.566,277.773Z" transform="translate(-129.038 -156.617)" fill="#263238"/>
      <path id="Path_1389" data-name="Path 1389" d="M148.51,277.3c0-.706.379-1.112.888-1.112s.888.405.888,1.112-.379,1.117-.888,1.117S148.51,278.013,148.51,277.3Zm1.465,0c0-.556-.234-.836-.577-.836s-.577.281-.577.836.234.842.577.842S149.975,277.863,149.975,277.3Z" transform="translate(-130.753 -156.598)" fill="#263238"/>
      <path id="Path_1390" data-name="Path 1390" d="M210,277.3c0-.706.379-1.112.888-1.112s.888.405.888,1.112-.379,1.117-.888,1.117S210,278.013,210,277.3Zm1.465,0c0-.556-.239-.836-.577-.836s-.577.281-.577.836.208.868.566.868.577-.306.577-.868Z" transform="translate(-160.3 -156.598)" fill="#263238"/>
      <path id="Path_1391" data-name="Path 1391" d="M213.86,277.3c0-.706.379-1.112.888-1.112s.888.405.888,1.112-.379,1.117-.888,1.117S213.86,278.013,213.86,277.3Zm1.465,0c0-.556-.234-.836-.577-.836s-.577.281-.577.836.234.842.577.842.577-.28.577-.842Z" transform="translate(-162.155 -156.598)" fill="#263238"/>
      <path id="Path_1392" data-name="Path 1392" d="M217.74,277.3c0-.706.379-1.112.888-1.112s.888.405.888,1.112-.379,1.117-.888,1.117S217.74,278.013,217.74,277.3Zm1.465,0c0-.556-.234-.836-.577-.836s-.577.281-.577.836.234.842.577.842.577-.28.577-.842Z" transform="translate(-164.019 -156.598)" fill="#263238"/>
      <path id="Path_1393" data-name="Path 1393" d="M175.326,87.317c0,.852-.629,1.377-1.647,1.377h-.873V89.81h-.717V85.94h1.59C174.7,85.94,175.326,86.46,175.326,87.317Zm-.727,0c0-.488-.322-.769-.956-.769h-.836v1.558h.836C174.277,88.086,174.6,87.8,174.6,87.317Z" transform="translate(-142.084 -65.181)" fill="#263238"/>
      <path id="Path_1394" data-name="Path 1394" d="M181.325,88.911h-1.933l-.379.9h-.743l1.74-3.87h.717l1.745,3.87h-.758Zm-.234-.561-.732-1.694-.722,1.694Z" transform="translate(-145.053 -65.181)" fill="#263238"/>
      <path id="Path_1395" data-name="Path 1395" d="M187.979,88.444V89.81h-.717V88.454L185.74,85.94h.769l1.132,1.886,1.143-1.886h.727Z" transform="translate(-148.643 -65.181)" fill="#263238"/>
      <path id="Path_1396" data-name="Path 1396" d="M197.318,89.81V87.244l-1.273,2.125h-.322l-1.268-2.078v2.53h-.686V85.94h.592l1.533,2.566,1.512-2.566H198v3.87Z" transform="translate(-152.501 -65.181)" fill="#263238"/>
      <path id="Path_1397" data-name="Path 1397" d="M206.809,89.208v.6h-2.9V85.94h2.821v.6h-2.1v.987h1.87v.587h-1.87v1.07Z" transform="translate(-157.374 -65.181)" fill="#263238"/>
      <path id="Path_1398" data-name="Path 1398" d="M214.455,85.94v3.87h-.592l-2.135-2.6v2.6H211V85.94h.592l2.135,2.6v-2.6Z" transform="translate(-160.78 -65.181)" fill="#263238"/>
      <path id="Path_1399" data-name="Path 1399" d="M219.963,86.548H218.68V85.94h3.283v.608H220.68V89.81h-.717Z" transform="translate(-164.471 -65.181)" fill="#263238"/>
      <path id="Path_1400" data-name="Path 1400" d="M225.34,89.332l.249-.556a2.156,2.156,0,0,0,1.273.421c.6,0,.857-.213.857-.519,0-.836-2.3-.291-2.3-1.725,0-.623.519-1.153,1.558-1.153a2.478,2.478,0,0,1,1.288.338l-.229.561A2.166,2.166,0,0,0,227,86.392c-.6,0-.842.234-.842.519,0,.826,2.291.291,2.291,1.709,0,.618-.52,1.148-1.558,1.148a2.5,2.5,0,0,1-1.553-.436Z" transform="translate(-167.671 -65.114)" fill="#263238"/>
    </g>
    <g id="freepik--Character--inject-11" transform="translate(123.925 129.403)">
      <path id="Path_1401" data-name="Path 1401" d="M281.523,323.988s-5.075-4.733-6.021-5.018-8.405-.182-8.9.2-7.9,4.779-6.629,5.372S266.38,322,266.38,322l.883.088s-4.483,2.6-5.268,3.553.031,1.9.873,1.475,4.675-2.816,4.992-2.738-4.083,2.847-4.483,3.346c-.519.67-.13,1.922.717,1.527.52-.229,4.546-3.117,4.546-3.117a40.855,40.855,0,0,0-3.247,3.169c-.343.717.379,1.33,1.086.862.483-.317,2.54-2.478,3.19-2.9,0,0,.732-.078,1.844,1.039s9.444,4.857,9.444,4.857Z" transform="translate(-230.644 -264.143)" fill="#ffbe9d"/>
      <path id="Path_1402" data-name="Path 1402" d="M288.246,327.142a1.687,1.687,0,0,1-1.839.7c-.691-.125-1.33-.478-2.016-.649-2.047-.519-4.265.634-6.281,0-.286-.088-.6-.281-.582-.577s.327-.416.582-.52l6.592-2.338" transform="translate(-239.149 -266.523)" fill="#ffbe9d"/>
      <path id="Path_1403" data-name="Path 1403" d="M284.526,323.82a2.877,2.877,0,0,0-.743.182c-.462.14-1.138.353-1.964.629l-2.894.982-.836.291c-.26.114-.644.145-.883.566a.592.592,0,0,0,.125.649,1.273,1.273,0,0,0,.488.3,4.587,4.587,0,0,0,1.013.192,26.621,26.621,0,0,0,3.756-.327,5.349,5.349,0,0,1,1.558.1c.478.114.914.306,1.335.442a2.473,2.473,0,0,0,2.078-.052c.447-.281.52-.6.488-.6a1.911,1.911,0,0,1-.561.457,2.379,2.379,0,0,1-1.917-.073,13.968,13.968,0,0,0-1.351-.52,5.5,5.5,0,0,0-1.673-.145,31.006,31.006,0,0,1-3.7.3,4,4,0,0,1-.919-.166c-.275-.088-.468-.281-.384-.416a1.431,1.431,0,0,1,.649-.364l.831-.3,2.868-1.065c.816-.306,1.475-.561,1.922-.748A3.029,3.029,0,0,0,284.526,323.82Z" transform="translate(-238.972 -266.552)" fill="#eb996e"/>
      <path id="Path_1404" data-name="Path 1404" d="M260.15,327.237a4.041,4.041,0,0,0,1.6-.156,8.857,8.857,0,0,0,1.657-.556c.582-.3,1.205-.644,1.865-1.008l1.4-.784-.094.026a22.553,22.553,0,0,0,3.829-.234,23.082,23.082,0,0,0-3.834-.145h-.047l-.047.026-1.392.758-1.829,1.039a12.053,12.053,0,0,1-1.558.618A14.4,14.4,0,0,0,260.15,327.237Z" transform="translate(-230.799 -266.821)" fill="#eb996e"/>
      <path id="Path_1405" data-name="Path 1405" d="M356.791,298.67l-34.162,14.213H301.59v6.785l27.6,4.083,24.759-15.429Z" transform="translate(-250.711 -254.467)" fill="#8000ff"/>
      <g id="Group_14321" data-name="Group 14321" transform="translate(50.879 44.203)" opacity="0.3">
        <path id="Path_1406" data-name="Path 1406" d="M356.791,298.67l-34.162,14.213H301.59v6.785l27.6,4.083,24.759-15.429Z" transform="translate(-301.59 -298.67)"/>
      </g>
      <path id="Path_1407" data-name="Path 1407" d="M358.713,330.6a.758.758,0,0,1-.379-.239,2.078,2.078,0,0,1-.52-1.1,12.052,12.052,0,0,1-.052-1.777,8.618,8.618,0,0,0-.3-2.1,9.154,9.154,0,0,0-1.766-3.423c-.634-.774-1.138-1.148-1.1-1.19a1.621,1.621,0,0,1,.369.244,6.749,6.749,0,0,1,.878.821,8.425,8.425,0,0,1,1.881,3.475,8.2,8.2,0,0,1,.286,2.177,14.073,14.073,0,0,0,0,1.751,2.13,2.13,0,0,0,.421,1.039C358.588,330.5,358.723,330.578,358.713,330.6Z" transform="translate(-276.181 -265.086)" fill="#fafafa"/>
      <path id="Path_1408" data-name="Path 1408" d="M381.024,319.567a4.12,4.12,0,0,1-1.21-.519,11.122,11.122,0,0,1-2.525-1.969,11.317,11.317,0,0,1-1.87-2.6,4.182,4.182,0,0,1-.488-1.231,17.752,17.752,0,0,0,2.556,3.636,17.974,17.974,0,0,0,3.538,2.681Z" transform="translate(-285.951 -261.473)" fill="#fafafa"/>
      <path id="Path_1409" data-name="Path 1409" d="M344.181,336.062a3.268,3.268,0,0,0,.478-1.4,4.042,4.042,0,0,0-.213-1.558,9.282,9.282,0,0,0-.878-1.787,13.16,13.16,0,0,1-.94-1.813,4.561,4.561,0,0,1-.327-1.652,2.825,2.825,0,0,1,.234-1.112c.114-.244.218-.353.229-.343a3.731,3.731,0,0,0-.27,1.455,4.675,4.675,0,0,0,.369,1.558,14.479,14.479,0,0,0,.94,1.771,8.9,8.9,0,0,1,.883,1.844,4.062,4.062,0,0,1,.166,1.678,2.546,2.546,0,0,1-.384,1.07A.93.93,0,0,1,344.181,336.062Z" transform="translate(-270.272 -267.791)" fill="#fafafa"/>
      <path id="Path_1410" data-name="Path 1410" d="M320.94,332.456a5.787,5.787,0,0,1-.618-3.117,5.714,5.714,0,0,1,.862-3.039,10.25,10.25,0,0,0-.244,6.135Z" transform="translate(-259.702 -267.744)" fill="#fafafa"/>
      <path id="Path_1411" data-name="Path 1411" d="M257.088,414.09l-8.535,11.242s-14.3-4.9-16.073-2.977l21.2,17.335,14.026-16.972Z" transform="translate(-217.503 -309.927)" fill="#455a64"/>
      <path id="Path_1412" data-name="Path 1412" d="M275.751,443.887a1.112,1.112,0,0,1-.208,1.475,1.075,1.075,0,0,1-1.465-.192,1.179,1.179,0,0,1,.229-1.558,1.117,1.117,0,0,1,1.5.369" transform="translate(-237.397 -324.041)" fill="#e0e0e0"/>
      <path id="Path_1413" data-name="Path 1413" d="M253.68,446.9l1.392-1.688-20.878-16.037s-1.278-.358-1.714.39Z" transform="translate(-217.503 -317.132)" fill="#e0e0e0"/>
      <path id="Path_1414" data-name="Path 1414" d="M262.912,434.979c-.078.109.4.577.639,1.33s.151,1.4.281,1.439.462-.686.161-1.59S262.954,434.855,262.912,434.979Z" transform="translate(-232.122 -319.954)" fill="#263238"/>
      <path id="Path_1415" data-name="Path 1415" d="M257.178,433.24c-.109.083.2.623.192,1.351s-.286,1.273-.177,1.351.649-.452.639-1.351S257.261,433.147,257.178,433.24Z" transform="translate(-229.359 -319.124)" fill="#263238"/>
      <path id="Path_1416" data-name="Path 1416" d="M250.564,434.129c.073.1.639-.3.836-1.086s-.1-1.4-.213-1.356-.062.6-.234,1.242S250.471,434.036,250.564,434.129Z" transform="translate(-226.184 -318.382)" fill="#263238"/>
      <path id="Path_1417" data-name="Path 1417" d="M267.219,430.425c-.036.13.556.374,1.107.894s.862,1.075.987,1.039,0-.774-.67-1.371S267.234,430.3,267.219,430.425Z" transform="translate(-234.194 -317.753)" fill="#263238"/>
      <path id="Path_1418" data-name="Path 1418" d="M270.576,425.928c-.036.042.322.442,1.065.862a6.051,6.051,0,0,0,1.392.566,6.323,6.323,0,0,0,.873.177,1.73,1.73,0,0,0,.519,0,.577.577,0,0,0,.52-.519.727.727,0,0,0-.26-.608,1.657,1.657,0,0,0-.442-.27,4.946,4.946,0,0,0-.867-.291,4.723,4.723,0,0,0-1.507-.161,2.265,2.265,0,0,0-1.33.353c0,.073.519-.057,1.335,0a5.44,5.44,0,0,1,1.382.239,4.923,4.923,0,0,1,.764.312c.27.125.462.275.442.426,0,.052,0,.073-.119.1a1.4,1.4,0,0,1-.384,0,6.512,6.512,0,0,1-.826-.14,7.272,7.272,0,0,1-1.345-.447,10.107,10.107,0,0,0-1.21-.6Z" transform="translate(-235.791 -315.495)" fill="#263238"/>
      <path id="Path_1419" data-name="Path 1419" d="M270.451,422.8c0,.047.519-.156,1.117-.795a4.572,4.572,0,0,0,.805-1.283,4.335,4.335,0,0,0,.255-.868,1.127,1.127,0,0,0-.239-1.086.634.634,0,0,0-.686-.068,1.72,1.72,0,0,0-.426.3,2.967,2.967,0,0,0-.582.712,3.148,3.148,0,0,0-.447,1.47,1.79,1.79,0,0,0,.333,1.335,11.653,11.653,0,0,1,0-1.3,3.117,3.117,0,0,1,.483-1.273,2.665,2.665,0,0,1,.52-.6c.218-.2.452-.312.519-.218a.764.764,0,0,1,.088.649,4.5,4.5,0,0,1-.208.79,4.822,4.822,0,0,1-.66,1.226C270.835,422.461,270.4,422.741,270.451,422.8Z" transform="translate(-235.65 -312.111)" fill="#263238"/>
      <path id="Path_1420" data-name="Path 1420" d="M229.521,411.77,220.274,423.2s-14.707-5.559-16.624-3.636l21.5,18.7,15.133-17.2Z" transform="translate(-203.65 -308.813)" fill="#455a64"/>
      <path id="Path_1421" data-name="Path 1421" d="M248.179,442.672a1.169,1.169,0,0,1-.265,1.558,1.117,1.117,0,0,1-1.517-.249,1.231,1.231,0,0,1,.286-1.621,1.164,1.164,0,0,1,1.558.436" transform="translate(-224.101 -323.444)" fill="#e0e0e0"/>
      <path id="Path_1422" data-name="Path 1422" d="M225.131,445.067l1.507-1.709L205.453,426s-1.32-.416-1.8.353Z" transform="translate(-203.65 -315.595)" fill="#e0e0e0"/>
      <path id="Path_1423" data-name="Path 1423" d="M235.16,432.977c-.088.109.395.613.618,1.4s.114,1.47.244,1.512.519-.7.218-1.647S235.222,432.837,235.16,432.977Z" transform="translate(-218.786 -318.991)" fill="#263238"/>
      <path id="Path_1424" data-name="Path 1424" d="M229.176,430.987c-.109.083.187.66.161,1.413s-.338,1.314-.229,1.4.691-.447.712-1.387S229.27,430.873,229.176,430.987Z" transform="translate(-215.872 -318.04)" fill="#263238"/>
      <path id="Path_1425" data-name="Path 1425" d="M222.264,431.667c.073.109.675-.291.909-1.1s-.062-1.465-.182-1.418-.083.623-.286,1.283S222.165,431.574,222.264,431.667Z" transform="translate(-212.586 -317.162)" fill="#263238"/>
      <path id="Path_1426" data-name="Path 1426" d="M239.778,428.346c-.042.135.566.41,1.127.966s.857,1.148.987,1.107,0-.805-.649-1.455S239.8,428.221,239.778,428.346Z" transform="translate(-221.009 -316.755)" fill="#263238"/>
      <path id="Path_1427" data-name="Path 1427" d="M243.382,423.8c-.036.042.322.468,1.081.935a6.592,6.592,0,0,0,1.429.634,5.9,5.9,0,0,0,.9.208,1.641,1.641,0,0,0,.519.031.6.6,0,0,0,.52-.52.779.779,0,0,0-.249-.644,2.229,2.229,0,0,0-.452-.3,5.8,5.8,0,0,0-.873-.353,5.2,5.2,0,0,0-1.558-.213,2.378,2.378,0,0,0-1.392.327c.021.052.545-.042,1.382,0a5.835,5.835,0,0,1,1.434.3,5.75,5.75,0,0,1,.784.348c.281.14.473.306.442.457,0,.057,0,.078-.125.1a1.6,1.6,0,0,1-.4,0,6.669,6.669,0,0,1-.852-.171,7.913,7.913,0,0,1-1.392-.52A9.7,9.7,0,0,0,243.382,423.8Z" transform="translate(-222.706 -314.487)" fill="#263238"/>
      <path id="Path_1428" data-name="Path 1428" d="M243.3,420.574a2.373,2.373,0,0,0,1.19-.79,4.6,4.6,0,0,0,.878-1.309,4.2,4.2,0,0,0,.3-.894,1.158,1.158,0,0,0-.213-1.138.66.66,0,0,0-.712-.094,2.078,2.078,0,0,0-.452.3,3.191,3.191,0,0,0-.634.727,3.346,3.346,0,0,0-.519,1.512c-.062.925.265,1.429.307,1.4a10.789,10.789,0,0,1,.036-1.361,3.2,3.2,0,0,1,.519-1.3,2.935,2.935,0,0,1,.561-.608c.234-.2.478-.306.545-.213a.842.842,0,0,1,.068.686,4.5,4.5,0,0,1-.244.816,5.064,5.064,0,0,1-.727,1.252C243.709,420.216,243.257,420.512,243.3,420.574Z" transform="translate(-222.618 -310.983)" fill="#263238"/>
      <path id="Path_1429" data-name="Path 1429" d="M365.322,221.342c2.078-1.558,5.273-.286,7.522-1.6,1.361-.8,2.078-2.353,3.117-3.533a7.943,7.943,0,0,1,6.6-2.6c2.338.317,3.995.945,5.039,3.065,1.449-1.668,5.262-.447,7.055,1.392s2.333,4.2,2.566,6.753a33.851,33.851,0,0,1-1.361,13.117c-.114.374-.348.826-.738.79-.27-.031-.447-.291-.577-.52a28.379,28.379,0,0,1-2.161-6.566,17.048,17.048,0,0,0-2.675-6.338,6.7,6.7,0,0,0-5.974-2.831,7.333,7.333,0,0,0-4.281,2.6c-1.127,1.273-1.995,2.764-3.023,4.13a9.439,9.439,0,0,1-3.844,3.278,4.476,4.476,0,0,1-4.774-.743c-1.195-1.216-1.148-3.559.312-4.442a3.356,3.356,0,0,1-2.79-5.964Z" transform="translate(-280.681 -213.581)" fill="#263238"/>
      <path id="Path_1430" data-name="Path 1430" d="M392.9,259.385l-1.4-4.738s-6.551.966-8.566-5.262c-.971-3.008-2.473-9.351-3.766-15.128a12.192,12.192,0,0,1,8.312-14.312l.6-.187c6.618-1.636,11.709,3.075,13.164,9.735l7.2,25.4a8.078,8.078,0,0,1-5.517,9.964h0a8.088,8.088,0,0,1-10.031-5.475Z" transform="translate(-287.845 -216.392)" fill="#ffbe9d"/>
      <path id="Path_1431" data-name="Path 1431" d="M403.17,282.737a15.216,15.216,0,0,0,7.429-4.847s-.519,5.1-6.946,6.468Z" transform="translate(-299.521 -244.482)" fill="#eb996e"/>
      <path id="Path_1440" data-name="Path 1440" d="M423.68,247.257c.088-.083,3.9-2.6,5.086,1.714s-3.387,4.618-3.429,4.494S423.68,247.257,423.68,247.257Z" transform="translate(-309.376 -229.376)" fill="#ffbe9d"/>
      <path id="Path_1441" data-name="Path 1441" d="M428.026,252.725a1.341,1.341,0,0,0,.234.052.764.764,0,0,0,.566-.14,1.945,1.945,0,0,0,.4-1.907,2.6,2.6,0,0,0-.519-1.039.888.888,0,0,0-.722-.421.4.4,0,0,0-.39.327v.229c0,.016-.109-.047-.125-.234a.519.519,0,0,1,.094-.317.618.618,0,0,1,.384-.229,1.091,1.091,0,0,1,.971.457,2.634,2.634,0,0,1,.592,1.127,2.01,2.01,0,0,1-.582,2.166.842.842,0,0,1-.722.078C428.062,252.824,428.01,252.736,428.026,252.725Z" transform="translate(-311.197 -230.621)" fill="#eb996e"/>
      <path id="Path_1442" data-name="Path 1442" d="M375.976,232.622a9.465,9.465,0,0,0,7.46-4.281c1.117-1.761,1.72-3.979,3.439-5.159a5.325,5.325,0,0,1,4.047-.67A10.192,10.192,0,0,1,394.7,224.3c-.218,3.548,1.688,6.847,3.533,9.87a1.787,1.787,0,0,0,.805.831c.629.234,1.288-.306,1.584-.9a5.475,5.475,0,0,0,.3-3.117,18.359,18.359,0,0,0-2.187-6.92,12.525,12.525,0,0,0-5.164-5.023,11.876,11.876,0,0,0-8.883-.519,14.587,14.587,0,0,0-7.179,5.392,8.546,8.546,0,0,0-1.688,3.839" transform="translate(-286.379 -215.656)" fill="#263238"/>
      <path id="Path_1443" data-name="Path 1443" d="M364,225.708a.972.972,0,0,0,.151.358,1.787,1.787,0,0,0,.873.7,2.816,2.816,0,0,0,1.761.042,4.931,4.931,0,0,0,1.039-.395,2.4,2.4,0,0,0,.935-.842,1.59,1.59,0,0,0,.161-1.377,1.377,1.377,0,0,0-1.247-.805,1.72,1.72,0,0,0-.8.14,1.486,1.486,0,0,0-.634.556,2.036,2.036,0,0,0-.171,1.688,2.374,2.374,0,0,0,1.158,1.361,3.6,3.6,0,0,0,1.823.4A5.875,5.875,0,0,0,372.577,226a16.894,16.894,0,0,0,2.6-2.883,21.877,21.877,0,0,1,2.3-2.717,6.712,6.712,0,0,1,2.717-1.626,6.364,6.364,0,0,1,2.758-.135,7.907,7.907,0,0,1,3.636,1.7c.374.3.644.561.826.738a2.8,2.8,0,0,0,.275.27s0-.031-.057-.078a2.753,2.753,0,0,1-.187-.223,8.676,8.676,0,0,0-.805-.774,7.844,7.844,0,0,0-3.662-1.787,6.462,6.462,0,0,0-2.836.114,6.857,6.857,0,0,0-2.805,1.652A21.643,21.643,0,0,0,375,222.986a17,17,0,0,1-2.54,2.847,5.714,5.714,0,0,1-3.4,1.481,3.356,3.356,0,0,1-1.709-.369,2.146,2.146,0,0,1-1.065-1.236,1.824,1.824,0,0,1,.14-1.522,1.346,1.346,0,0,1,1.257-.618,1.216,1.216,0,0,1,1.1.691,1.413,1.413,0,0,1-.135,1.226,2.244,2.244,0,0,1-.868.8,4.561,4.561,0,0,1-1,.395,2.774,2.774,0,0,1-1.7,0,1.844,1.844,0,0,1-.862-.639,3.2,3.2,0,0,1-.218-.333Z" transform="translate(-280.699 -215.885)" fill="#455a64"/>
      <path id="Path_1444" data-name="Path 1444" d="M419.367,226.626a6.542,6.542,0,0,1-1.2.743,3.74,3.74,0,0,1-1.475.3,6.458,6.458,0,0,1-1.844-.275,5.237,5.237,0,0,1-2.691-1.953,10.527,10.527,0,0,1-.7-1.236,1.329,1.329,0,0,0,.094.379,4.633,4.633,0,0,0,.473.945,5.107,5.107,0,0,0,2.758,2.078,6.156,6.156,0,0,0,1.912.27,3.787,3.787,0,0,0,1.559-.358,3.558,3.558,0,0,0,.878-.6A1.118,1.118,0,0,0,419.367,226.626Z" transform="translate(-303.504 -218.684)" fill="#455a64"/>
      <path id="Path_1445" data-name="Path 1445" d="M420.607,232.734c0-.036-.483.229-1.3.431a6.135,6.135,0,0,1-6.005-1.751c-.582-.613-.831-1.086-.868-1.065a1.133,1.133,0,0,0,.156.343,5.163,5.163,0,0,0,.592.831,6.073,6.073,0,0,0,2.821,1.8,5.979,5.979,0,0,0,3.346,0,5.25,5.25,0,0,0,.951-.379,1.242,1.242,0,0,0,.312-.213Z" transform="translate(-303.97 -221.638)" fill="#455a64"/>
      <path id="Path_1446" data-name="Path 1446" d="M410.6,253.494a.125.125,0,0,0,.1-.135.119.119,0,0,0-.125-.109.125.125,0,0,0-.1.135.114.114,0,0,0,.125.109Z" transform="translate(-303.033 -232.642)" fill="#eb996e"/>
      <path id="Path_1447" data-name="Path 1447" d="M406.822,253.745a.14.14,0,0,0-.031-.275.142.142,0,0,0,.031.275Z" transform="translate(-301.214 -232.748)" fill="#eb996e"/>
      <path id="Path_1448" data-name="Path 1448" d="M404.405,254.358c.057,0,.094-.1.078-.2s-.083-.171-.14-.161-.1.1-.078.2S404.343,254.368,404.405,254.358Z" transform="translate(-300.044 -233.002)" fill="#eb996e"/>
      <path id="Path_1449" data-name="Path 1449" d="M409.548,256.339a.088.088,0,0,0,.083-.1c-.01-.036-.068-.052-.125-.036s-.1.062-.088.1A.1.1,0,0,0,409.548,256.339Z" transform="translate(-302.523 -234.059)" fill="#eb996e"/>
      <path id="Path_1450" data-name="Path 1450" d="M406.062,256.5a.125.125,0,0,0,.083-.151.119.119,0,0,0-.135-.1.129.129,0,0,0,.052.249Z" transform="translate(-300.844 -234.083)" fill="#eb996e"/>
      <path id="Path_1451" data-name="Path 1451" d="M388.571,259.709a.119.119,0,0,0,.1-.135.125.125,0,1,0-.125.135Z" transform="translate(-292.434 -235.626)" fill="#eb996e"/>
      <path id="Path_1452" data-name="Path 1452" d="M386.1,260.2a.145.145,0,1,0-.135-.114A.13.13,0,0,0,386.1,260.2Z" transform="translate(-291.253 -235.843)" fill="#eb996e"/>
      <path id="Path_1453" data-name="Path 1453" d="M390.739,259.161a.1.1,0,1,0-.119-.083.1.1,0,0,0,.119.083Z" transform="translate(-293.491 -235.39)" fill="#eb996e"/>
      <path id="Path_1454" data-name="Path 1454" d="M389.727,262.058a.12.12,0,0,0,.125-.114.114.114,0,1,0-.223-.026.119.119,0,0,0,.1.14Z" transform="translate(-293.013 -236.749)" fill="#eb996e"/>
      <path id="Path_1455" data-name="Path 1455" d="M387.487,262.373a.109.109,0,0,0,.047-.14.1.1,0,0,0-.145,0,.093.093,0,0,0-.042.135.1.1,0,0,0,.14.005Z" transform="translate(-291.911 -236.944)" fill="#eb996e"/>
      <path id="Path_1456" data-name="Path 1456" d="M250.568,318.811l9.8,5.808,4.036,1.268-4.5-5.335-7.9-4.286a1.465,1.465,0,0,0-1.974.566h0A1.465,1.465,0,0,0,250.568,318.811Z" transform="translate(-225.845 -262.837)" fill="#263238"/>
      <path id="Path_1457" data-name="Path 1457" d="M290.957,330.083c-.405.047-13.268.675-13.616.031s-.426-2.514-2.946-2.909-5.138-.961-5.138-.961L262.5,322.81s-1.678.774.114,2.462a26.3,26.3,0,0,0,3.231,2.5c.629.431-.166.977-.166.977l-9.553-5.195a8.982,8.982,0,0,0,2.265,4.156L259.8,329.2a3.221,3.221,0,0,0,1.361,3.413c1.953,1.429,5.247,5.288,8.25,5.075s5.117-.239,5.117-.239l15.709,1.964Z" transform="translate(-228.867 -266.067)" fill="#ffbe9d"/>
      <path id="Path_1458" data-name="Path 1458" d="M290.822,329.958a.817.817,0,0,1,0,.151l-.026.457c-.026.426-.068,1.039-.119,1.813-.109,1.605-.27,3.938-.473,6.888v.083h-.083l-15.715-1.927h0l-4.359.213c-.379,0-.748.047-1.148.036a4.385,4.385,0,0,1-1.158-.213,8.5,8.5,0,0,1-2.125-1.07,37.963,37.963,0,0,1-3.766-3.091c-.312-.27-.634-.52-.966-.779a3.668,3.668,0,0,1-.888-.945,3.283,3.283,0,0,1-.431-2.556l.031.13-1.07-1.138a14.088,14.088,0,0,1-1.039-1.21,9.407,9.407,0,0,1-1.481-2.935c-.036-.14-.073-.27-.1-.416l-.052-.281.255.135,9.548,5.195h-.135a1.039,1.039,0,0,0,.312-.343.275.275,0,0,0-.057-.343c-.239-.192-.571-.405-.852-.6-.582-.41-1.148-.831-1.683-1.278a6.5,6.5,0,0,1-1.449-1.517,1.325,1.325,0,0,1-.156-1.07,1.454,1.454,0,0,1,.727-.795h.052l.057.031,6.753,3.439h-.031l4.92.919a3.7,3.7,0,0,1,2.151.956,3.117,3.117,0,0,1,.634.951c.156.343.244.706.379,1.039.042.1.047.083.135.119a1.61,1.61,0,0,0,.239.057c.171,0,.338.047.52.062.343.031.675.047,1.008.057.66.026,1.3.031,1.917.031,1.226,0,2.353,0,3.371-.042,2.036-.047,3.636-.1,4.722-.14l1.242-.047h.322l-.317.031-1.242.078c-1.086.057-2.686.14-4.722.2q-1.527.052-3.377.073H279.17c-.332,0-.67-.026-1.039-.057a3.528,3.528,0,0,1-.52-.057c-.088-.026-.177-.031-.27-.068a.374.374,0,0,1-.244-.213c-.145-.343-.234-.686-.384-1.039a2.93,2.93,0,0,0-.6-.894,3.5,3.5,0,0,0-2.047-.888l-4.956-.919h-.026l-6.753-3.429h.109a1.184,1.184,0,0,0-.6.644,1.081,1.081,0,0,0,.14.873,6.275,6.275,0,0,0,1.392,1.439c.52.442,1.091.857,1.668,1.257.3.218.571.379.888.634a.566.566,0,0,1,.161.3.582.582,0,0,1-.052.343,1.294,1.294,0,0,1-.405.447l-.062.047-.073-.042-9.553-5.195.2-.145a3.842,3.842,0,0,0,.094.39,9.106,9.106,0,0,0,1.439,2.852,13.192,13.192,0,0,0,1.039,1.184l1.07,1.133.052.052v.078a3.023,3.023,0,0,0,.41,2.333,3.512,3.512,0,0,0,.826.883c.327.255.665.519.977.79a37.582,37.582,0,0,0,3.74,3.075,8.141,8.141,0,0,0,2.052,1.039,4.2,4.2,0,0,0,1.1.2c.358,0,.748,0,1.122-.031l4.369-.2h0l15.709,2.005-.088.073c.239-2.925.431-5.242.561-6.837l.156-1.823.042-.473A1.156,1.156,0,0,1,290.822,329.958Z" transform="translate(-228.733 -265.942)" fill="#eb996e"/>
      <path id="Path_1459" data-name="Path 1459" d="M262.3,333.99a13.507,13.507,0,0,0,2.379,1.621,12.256,12.256,0,0,0,2.551,1.34,13.509,13.509,0,0,0-2.379-1.621A11.154,11.154,0,0,0,262.3,333.99Z" transform="translate(-231.83 -271.434)" fill="#eb996e"/>
      <path id="Path_1460" data-name="Path 1460" d="M267.042,373.694c-.462-.769,16.712,11.107,16.712,11.107l16.187-17.974,30.245,30.51,2.514-12.915,4.587-28.219-25.793-25.668s-4.286-4.192-10.79-.519C295.369,333.013,267.042,373.694,267.042,373.694Z" transform="translate(-234.106 -268.804)" fill="#263238"/>
      <path id="Path_1461" data-name="Path 1461" d="M238.5,379.107l30.759-39.6s8.187-7.74,16.774-5.377c5.112,1.4,34.188,29.783,34.188,29.783l9.044,3.668,13.8,23.678s-17.372,15.8-30.021,6.655c-11.855-8.577-32.728-35.731-32.728-35.731l-25.933,28.406Z" transform="translate(-220.396 -271.293)" fill="#263238"/>
      <path id="Path_1462" data-name="Path 1462" d="M315.007,412.069a1.22,1.22,0,0,1-.114-.1l-.322-.332c-.281-.291-.681-.738-1.195-1.314-1.039-1.153-2.494-2.847-4.3-4.966-3.61-4.249-8.582-10.2-14.141-16.93h.2l-2.468,2.784c-6.379,7.174-12.218,13.6-16.509,18.182-2.14,2.3-3.9,4.156-5.122,5.4l-1.423,1.439-.374.374-.135.119a1.805,1.805,0,0,1,.114-.14l.358-.39,1.382-1.475,5.06-5.46c4.255-4.629,10.073-11.076,16.447-18.245l2.473-2.784.1-.12.1.12c5.548,6.753,10.5,12.707,14.068,16.982,1.787,2.12,3.231,3.829,4.234,5.023.52.571.883,1.039,1.159,1.34l.3.348A1.413,1.413,0,0,1,315.007,412.069Z" transform="translate(-235.104 -297.444)" fill="#455a64"/>
      <path id="Path_1463" data-name="Path 1463" d="M406.729,421.008a2.738,2.738,0,0,1-.67-.26,8.856,8.856,0,0,1-1.668-1.039,9.579,9.579,0,0,1-2.727-11.787,8.669,8.669,0,0,1,1.039-1.673,3.584,3.584,0,0,1,.488-.519,15.365,15.365,0,0,0-1.351,2.286,9.683,9.683,0,0,0,2.67,11.564,14.847,14.847,0,0,0,2.218,1.429Z" transform="translate(-298.326 -305.91)" fill="#455a64"/>
      <path id="Path_1464" data-name="Path 1464" d="M363.439,361c.052-.057,3.735,3.564,8.229,8.078s8.094,8.218,8.042,8.27-3.74-3.564-8.234-8.083S363.382,361.062,363.439,361Z" transform="translate(-280.43 -284.417)" fill="#455a64"/>
      <path id="Path_1465" data-name="Path 1465" d="M380.348,299.592c-4.12-10.068-13.98-19.1-13.98-19.1s-18,10.79-18.608,11.174S326.846,306.5,326.846,306.5s-24.536.821-31.1.665l-2.9,12.785s30.9,3.813,34.951,2.8c2.078-.519,22.26-6.473,22.26-6.473s-.519,6.862-.826,9.87c-.519,4.9-3.522,11.948-3.522,11.948s11.948,12.6,13.793,19.159,9.912,9.611,13.725,9.455.914-2.743.914-2.743a76.154,76.154,0,0,0,7.792-22.286C383.927,329.629,384.468,309.654,380.348,299.592Z" transform="translate(-246.511 -245.731)" fill="#8000ff"/>
      <path id="Path_1466" data-name="Path 1466" d="M396.476,340.25a2.189,2.189,0,0,1-.374.156l-1.091.384c-.951.332-2.327.795-4.031,1.356-3.413,1.122-8.14,2.6-13.387,4.192s-10.021,2.945-13.507,3.9c-1.73.478-3.117.852-4.109,1.1l-1.122.275a1.927,1.927,0,0,1-.395.078,2.193,2.193,0,0,1,.379-.13l1.112-.322,4.083-1.19c3.449-1,8.208-2.395,13.455-3.969s9.979-3.044,13.408-4.12l4.057-1.273,1.1-.338a2.524,2.524,0,0,1,.421-.1Z" transform="translate(-278.037 -274.447)" fill="#263238"/>
      <path id="Path_1467" data-name="Path 1467" d="M435.086,313.286a6.031,6.031,0,0,1,.2-.826,16.942,16.942,0,0,0,.395-2.26,15.112,15.112,0,0,0-5.486-13.4,15.9,15.9,0,0,0-1.865-1.335,5.25,5.25,0,0,1-.717-.452.914.914,0,0,1,.2.083c.13.062.327.14.566.275a14.028,14.028,0,0,1,1.932,1.278,14.79,14.79,0,0,1,5.559,13.579,13.557,13.557,0,0,1-.488,2.265c-.073.26-.156.457-.2.592A.69.69,0,0,1,435.086,313.286Z" transform="translate(-311.265 -252.708)" fill="#263238"/>
      <path id="Path_1468" data-name="Path 1468" d="M416.753,410.333a1.86,1.86,0,0,1-.13-.26l-.332-.764c-.275-.665-.7-1.621-1.242-2.795s-1.226-2.54-2.036-4.042-1.761-3.117-2.826-4.769-2.166-3.174-3.195-4.53-2.01-2.546-2.857-3.517-1.558-1.751-2.042-2.275c-.223-.249-.41-.452-.561-.613a1.075,1.075,0,0,1-.182-.229,1.561,1.561,0,0,1,.223.192l.634.566c.519.52,1.242,1.262,2.078,2.223s1.86,2.14,2.914,3.486,2.146,2.883,3.221,4.54,2.01,3.288,2.821,4.795,1.475,2.9,1.99,4.083.919,2.156,1.169,2.831l.281.784a1.117,1.117,0,0,1,.073.291Z" transform="translate(-298.646 -296.689)" fill="#263238"/>
      <g id="Group_14322" data-name="Group 14322" transform="translate(104.402 91.331)" opacity="0.3">
        <path id="Path_1469" data-name="Path 1469" d="M422.148,407.37c-.623-1.558-2.036-2.623-3.346-3.668-5.262-4.192-9.735-9.268-14.182-14.312l11.491,16.676a17.829,17.829,0,0,0,1.4,3.907,3.045,3.045,0,0,0,3,1.5C422.142,411.11,422.766,408.928,422.148,407.37Z" transform="translate(-404.62 -389.39)"/>
      </g>
      <g id="Group_14323" data-name="Group 14323" transform="translate(103.332 65.357)" opacity="0.3">
        <path id="Path_1470" data-name="Path 1470" d="M402.581,345.208a16.154,16.154,0,0,0,10.327,1.2c3.418-.878,6.5-3.585,7.2-7.018l-17.548,4.9" transform="translate(-402.56 -339.39)"/>
      </g>
      <path id="Path_1471" data-name="Path 1471" d="M313.731,346.434a3.873,3.873,0,0,0,0-.582,2.6,2.6,0,0,0-.779-1.351,9.527,9.527,0,0,1-1.683-1.761,5.855,5.855,0,0,1-.7-2.909c0-1.039.094-2.078.057-2.956a5.459,5.459,0,0,0-.52-2.291,3.636,3.636,0,0,0-.982-1.242c-.3-.229-.494-.317-.483-.343a1.5,1.5,0,0,1,.545.26,3.407,3.407,0,0,1,1.086,1.236,5.481,5.481,0,0,1,.6,2.369c.052.919-.047,1.927-.036,2.961a5.818,5.818,0,0,0,.644,2.79,10.483,10.483,0,0,0,1.61,1.756,2.546,2.546,0,0,1,.743,1.465,1.366,1.366,0,0,1-.036.452C313.762,346.387,313.736,346.439,313.731,346.434Z" transform="translate(-254.098 -270.963)" fill="#fafafa"/>
      <path id="Path_1472" data-name="Path 1472" d="M337.288,330.5a.372.372,0,0,1,.13.161.769.769,0,0,1,0,.592,1.242,1.242,0,0,1-.66.665c-.332.161-.717.286-1.122.473a7.792,7.792,0,0,0-2.473,1.849,7.984,7.984,0,0,0-1.8,3.3,12.871,12.871,0,0,0-.208,3.808,8.567,8.567,0,0,1-.13,1.7,4.088,4.088,0,0,1-.551,1.392,2.91,2.91,0,0,1-1.678,1.32,1.991,1.991,0,0,1-.587.052c-.13,0-.2-.031-.2-.042a4.291,4.291,0,0,0,.758-.109,2.914,2.914,0,0,0,1.559-1.32,3.855,3.855,0,0,0,.519-1.335,8.915,8.915,0,0,0,.1-1.657,12.632,12.632,0,0,1,.2-3.881,7.98,7.98,0,0,1,1.881-3.4,7.792,7.792,0,0,1,2.6-1.86c.421-.182.816-.3,1.132-.431a1.169,1.169,0,0,0,.634-.566.743.743,0,0,0,.047-.519C337.355,330.562,337.278,330.505,337.288,330.5Z" transform="translate(-263.406 -269.762)" fill="#fafafa"/>
      <path id="Path_1473" data-name="Path 1473" d="M365.229,345.311a4.928,4.928,0,0,0,.353-.608,3.735,3.735,0,0,0,.348-1.849,4.862,4.862,0,0,0-.966-2.6,11.1,11.1,0,0,0-2.52-2.379c-1-.733-2.005-1.4-2.816-2.13a7.366,7.366,0,0,1-1.792-2.281,4.577,4.577,0,0,1-.488-1.891,2.873,2.873,0,0,1,.031-.519c0-.12.031-.182.042-.177s0,.255.031.707a4.821,4.821,0,0,0,.556,1.808,7.418,7.418,0,0,0,1.787,2.182c.805.706,1.8,1.361,2.81,2.078a11.019,11.019,0,0,1,2.561,2.452,4.93,4.93,0,0,1,.951,2.738,3.548,3.548,0,0,1-.442,1.9,2.285,2.285,0,0,1-.312.436C365.281,345.275,365.235,345.316,365.229,345.311Z" transform="translate(-277.503 -269.944)" fill="#fafafa"/>
      <path id="Path_1474" data-name="Path 1474" d="M395.3,330.406a4.581,4.581,0,0,0,.3-.93,4.78,4.78,0,0,0-.192-2.6,6.234,6.234,0,0,0-2.348-3.055,14.354,14.354,0,0,0-4.39-1.969c-1.325-.39-2.623-.712-3.808-1.127a12.134,12.134,0,0,1-3.117-1.559,7.5,7.5,0,0,1-1.907-1.938,5.148,5.148,0,0,1-.727-1.6l.052.026a3.79,3.79,0,0,1-.67.171,4.491,4.491,0,0,1,.644-.249h.042v.042a5.683,5.683,0,0,0,.774,1.558,7.606,7.606,0,0,0,1.9,1.844,12.145,12.145,0,0,0,3.06,1.475c1.169.4,2.462.717,3.8,1.112a14.156,14.156,0,0,1,4.457,2.031,6.312,6.312,0,0,1,2.384,3.19,4.712,4.712,0,0,1,.114,2.691,3.118,3.118,0,0,1-.27.686C395.379,330.344,395.306,330.411,395.3,330.406Z" transform="translate(-287.662 -262.592)" fill="#fafafa"/>
      <path id="Path_1475" data-name="Path 1475" d="M413.75,293.412a1.241,1.241,0,0,1,.3,0h.364l.519.052a7.574,7.574,0,0,1,2.977,1.075,8.114,8.114,0,0,1,3.117,3.481,9.652,9.652,0,0,1,.483,5.714c-.338,2.021-.951,3.87-1.3,5.585a13.394,13.394,0,0,0-.2,4.613,6.878,6.878,0,0,0,1.091,2.894c.431.6.758.868.732.888a4.156,4.156,0,0,1-.816-.826,6.649,6.649,0,0,1-1.195-2.925,13.2,13.2,0,0,1,.145-4.675c.343-1.74.94-3.59,1.278-5.585a9.554,9.554,0,0,0-.447-5.548,8,8,0,0,0-3-3.423,7.829,7.829,0,0,0-2.888-1.133l-.483-.078-.364-.026a1.74,1.74,0,0,1-.312-.083Z" transform="translate(-304.605 -251.936)" fill="#fafafa"/>
      <path id="Path_1476" data-name="Path 1476" d="M435.453,353.121a4.426,4.426,0,0,0-1.143-.784,5.351,5.351,0,0,0-3.7-.12,15.045,15.045,0,0,0-4.779,2.951,15.655,15.655,0,0,1-2.857,1.808,12.468,12.468,0,0,1-10.364.047,48.215,48.215,0,0,0-5.195-2.27,8.151,8.151,0,0,0-3.751-.317,7.518,7.518,0,0,0-1.34.4,3.73,3.73,0,0,1,1.32-.52,7.829,7.829,0,0,1,3.823.234,43.941,43.941,0,0,1,5.247,2.223,12.3,12.3,0,0,0,10.151-.057,15.364,15.364,0,0,0,2.821-1.771,15.219,15.219,0,0,1,4.878-2.935,5.418,5.418,0,0,1,3.8.208,4.858,4.858,0,0,1,.519.317c.135.114.255.2.338.291a1.952,1.952,0,0,1,.234.3Z" transform="translate(-299.113 -279.977)" fill="#fafafa"/>
      <path id="Path_1477" data-name="Path 1477" d="M450.275,334.63a.577.577,0,0,1,0,.166,1.557,1.557,0,0,1-.156.447,2.93,2.93,0,0,1-1.21,1.257,4.629,4.629,0,0,1-2.525.582,20.2,20.2,0,0,1-3.117-.488,15.09,15.09,0,0,0-5.626,0c-1.423.281-2.265.629-2.281.582a2.436,2.436,0,0,1,.582-.265,11.882,11.882,0,0,1,1.662-.52,14.187,14.187,0,0,1,5.714-.094,23.223,23.223,0,0,0,3.081.52,4.582,4.582,0,0,0,2.421-.52,3,3,0,0,0,1.21-1.138C450.2,334.848,450.238,334.619,450.275,334.63Z" transform="translate(-314.989 -271.746)" fill="#fafafa"/>
      <path id="Path_1478" data-name="Path 1478" d="M450.8,311.886c0,.047-.494,0-1.278.083a9.8,9.8,0,0,0-5.553,2.3,11.845,11.845,0,0,1-.956.847,3.638,3.638,0,0,1,.831-.992,8.763,8.763,0,0,1,2.623-1.688,8.67,8.67,0,0,1,3.044-.655A3.827,3.827,0,0,1,450.8,311.886Z" transform="translate(-318.664 -260.759)" fill="#fafafa"/>
      <path id="Path_1479" data-name="Path 1479" d="M438.865,290.2a2.67,2.67,0,0,1-.353.94,8.027,8.027,0,0,1-1.429,1.974,8.313,8.313,0,0,1-1.953,1.46,2.723,2.723,0,0,1-.94.364,15.511,15.511,0,0,0,2.7-2.016A15.294,15.294,0,0,0,438.865,290.2Z" transform="translate(-314.426 -250.397)" fill="#fafafa"/>
      <path id="Path_1480" data-name="Path 1480" d="M433.846,386.292a3.007,3.007,0,0,1-.083-.374,3.027,3.027,0,0,0-.083-.452c-.031-.171-.1-.384-.166-.608a9.672,9.672,0,0,0-1.881-3.481,10.234,10.234,0,0,0-4.831-3.236,8.831,8.831,0,0,0-3.434-.327,23,23,0,0,0-3.683.738,27.7,27.7,0,0,1-3.7.81,14.78,14.78,0,0,1-3.548.031,15.7,15.7,0,0,1-5.688-1.8,14.666,14.666,0,0,1-3.247-2.384,10.864,10.864,0,0,1-.753-.8,1.764,1.764,0,0,1-.234-.3,3.049,3.049,0,0,1,.275.265c.177.177.426.447.784.758a15.367,15.367,0,0,0,3.262,2.291,15.985,15.985,0,0,0,5.631,1.725,15.362,15.362,0,0,0,3.481-.047,29.285,29.285,0,0,0,3.673-.816,22.916,22.916,0,0,1,3.725-.738,9.132,9.132,0,0,1,3.533.353,10.39,10.39,0,0,1,4.909,3.351,9.476,9.476,0,0,1,1.834,3.579c.052.234.109.436.14.618s.042.327.057.462a1.739,1.739,0,0,1,.031.379Z" transform="translate(-299.204 -290.717)" fill="#fafafa"/>
      <path id="Path_1481" data-name="Path 1481" d="M402.62,393.657a2.842,2.842,0,0,1-1.039.145,7.232,7.232,0,0,1-2.556-.462,7.132,7.132,0,0,1-2.223-1.335,2.763,2.763,0,0,1-.7-.805,11.228,11.228,0,0,0,3.023,1.891,10.956,10.956,0,0,0,3.5.566Z" transform="translate(-296.124 -298.929)" fill="#fafafa"/>
      <path id="Path_1482" data-name="Path 1482" d="M436.225,415.032a1.223,1.223,0,0,1-.249.1,3.8,3.8,0,0,1-.753.166,5.486,5.486,0,0,1-2.79-.467,9.351,9.351,0,0,1-3.335-2.556c-1.039-1.205-1.938-2.7-3-4.156a15.746,15.746,0,0,0-1.694-2.005,10.184,10.184,0,0,0-1.938-1.475,11.174,11.174,0,0,0-3.875-1.408,13.179,13.179,0,0,0-3.823,0,.983.983,0,0,1,.26-.078,6.62,6.62,0,0,1,.758-.14,10.45,10.45,0,0,1,2.836,0,11.06,11.06,0,0,1,3.969,1.377,10.3,10.3,0,0,1,1.995,1.5,15.066,15.066,0,0,1,1.73,2.057c1.07,1.481,1.958,2.971,2.966,4.156a9.351,9.351,0,0,0,3.226,2.54,5.559,5.559,0,0,0,2.7.519C435.867,415.136,436.22,415,436.225,415.032Z" transform="translate(-305.095 -304.557)" fill="#fafafa"/>
      <path id="Path_1483" data-name="Path 1483" d="M436.28,439.4c-.047,0-.052-.468-.192-1.205a8.619,8.619,0,0,0-2.878-4.94c-.571-.488-.977-.727-.951-.769a3.522,3.522,0,0,1,1.07.618,7.683,7.683,0,0,1,2.946,5.06,3.319,3.319,0,0,1,.005,1.236Z" transform="translate(-313.498 -318.769)" fill="#fafafa"/>
    </g>
    <g id="freepik--Plant--inject-11" transform="translate(37.733 156.935)">
      <path id="Path_1484" data-name="Path 1484" d="M88.319,295.92a21.894,21.894,0,0,1,1.7-25.543c1.86-2.151,4.452-4.021,7.273-3.777s5.236,2.733,6.12,5.507a17.993,17.993,0,0,1,.057,8.639c-.727,4.01-1.943,8.109-4.722,11.091s-6.868,6.036-10.442,4.083" transform="translate(-60.444 -266.579)" fill="#ffdf00"/>
      <path id="Path_1485" data-name="Path 1485" d="M95.956,380.763a11.46,11.46,0,0,1,3.195-12.987,4.8,4.8,0,0,1,4.094-1.283,4.027,4.027,0,0,1,2.655,3.392,9.434,9.434,0,0,1-.753,4.452,11.27,11.27,0,0,1-3.439,5.288c-1.7,1.283-4.083,2.488-5.751,1.158" transform="translate(-65.313 -314.538)" fill="#ffdf00"/>
      <path id="Path_1486" data-name="Path 1486" d="M57.454,371.8A16.567,16.567,0,0,0,49.1,354.313c-1.912-.992-4.26-1.584-6.182-.618a5.831,5.831,0,0,0-2.764,5.59,13.682,13.682,0,0,0,2.379,6.094c1.636,2.6,3.636,5.159,6.431,6.473s6.52,2.322,8.488-.052" transform="translate(-38.889 -308.203)" fill="#ffdf00"/>
      <path id="Path_1487" data-name="Path 1487" d="M57.166,332.025c2.4-7.74-1.668-17.143-8.447-21.569-2.1-1.377-4.769-2.338-7.117-1.439s-3.792,3.6-3.865,6.172a16.025,16.025,0,0,0,2.052,7.372c1.59,3.231,3.636,6.426,6.717,8.286s8.094,3.709,10.66,1.179" transform="translate(-37.733 -286.802)" fill="#ffdf00"/>
      <path id="Path_1488" data-name="Path 1488" d="M68.414,396.649a1.943,1.943,0,0,1-.078-.374c-.042-.281-.094-.639-.161-1.081q-.047-.358-.109-.779c-.052-.286-.114-.592-.177-.919-.125-.665-.255-1.418-.473-2.234q-.145-.623-.312-1.294l-.405-1.382c-.26-.961-.639-1.953-1-3.013a58.7,58.7,0,0,0-2.987-6.624,58.318,58.318,0,0,0-3.865-6.156c-.686-.883-1.3-1.751-1.964-2.494l-.925-1.1-.9-.977c-.561-.629-1.117-1.158-1.6-1.626l-.67-.655-.587-.52-.81-.732a1.461,1.461,0,0,1-.27-.27,1.6,1.6,0,0,1,.312.223l.852.686.613.52.686.639a22.224,22.224,0,0,1,1.647,1.605l.919.961.951,1.1c.67.743,1.3,1.61,1.995,2.494a55.588,55.588,0,0,1,3.912,6.151,56.1,56.1,0,0,1,2.982,6.675c.353,1.07.722,2.078.971,3.044l.39,1.392c.1.452.2.888.3,1.3.2.826.317,1.584.426,2.255.052.327.1.639.151.925s.057.551.078.79c.042.442.078.805.1,1.091A1.9,1.9,0,0,1,68.414,396.649Z" transform="translate(-44.165 -313.592)" fill="#263238"/>
      <path id="Path_1489" data-name="Path 1489" d="M68.91,378.081a.587.587,0,0,1,0-.156,2.446,2.446,0,0,1,.031-.447c.042-.421.094-1,.161-1.72.036-.379.078-.79.125-1.242s.047-.951.073-1.486c.042-1.039.14-2.27.1-3.61v-2.1c0-.732-.078-1.486-.114-2.275-.052-1.558-.265-3.242-.457-5a78.263,78.263,0,0,0-2.374-11.257A77.886,77.886,0,0,0,62.3,338.049c-.8-1.558-1.533-3.117-2.343-4.442-.4-.681-.753-1.356-1.148-1.974l-1.138-1.766c-.7-1.143-1.444-2.1-2.078-2.971-.312-.431-.592-.842-.868-1.2l-.779-.977-1.07-1.356L52.6,323a.656.656,0,0,1-.083-.125.944.944,0,0,1,.109.1l.3.338,1.122,1.32.805.956c.281.358.571.764.894,1.19.629.862,1.387,1.813,2.078,2.951l1.164,1.766c.395.613.758,1.288,1.164,1.964.826,1.351,1.558,2.868,2.379,4.452a76.323,76.323,0,0,1,4.192,10.769A76.6,76.6,0,0,1,69.081,360c.182,1.766.384,3.444.426,5.023.031.79.1,1.558.1,2.286v2.109c0,1.345-.1,2.561-.156,3.636-.036.52-.057,1.039-.1,1.481L69.2,375.78c-.088.722-.166,1.3-.218,1.714-.026.182-.047.327-.062.447a.769.769,0,0,1-.005.14Z" transform="translate(-44.838 -293.632)" fill="#263238"/>
      <path id="Path_1490" data-name="Path 1490" d="M97.1,284.43a.289.289,0,0,1-.068.145l-.213.4-.852,1.527c-.182.332-.405.7-.618,1.107l-.67,1.345c-.239.488-.52,1-.774,1.558s-.519,1.153-.784,1.777-.566,1.268-.847,1.953-.519,1.413-.831,2.161l-.436,1.138c-.135.39-.27.79-.405,1.19l-.836,2.488c-1.039,3.434-2.078,7.273-2.92,11.32s-1.4,7.979-1.823,11.554-.639,6.805-.712,9.522c-.068,1.361-.083,2.6-.088,3.668s0,2.016,0,2.774v2.208a.519.519,0,0,1,0,.156.727.727,0,0,1,0-.156,4.065,4.065,0,0,0-.031-.452c0-.426-.052-1.013-.088-1.751s-.057-1.694-.057-2.779,0-2.312.036-3.673c.047-2.727.291-5.964.644-9.553a116.8,116.8,0,0,1,1.8-11.585,112.443,112.443,0,0,1,2.951-11.346c.3-.852.577-1.683.857-2.488l.41-1.195.447-1.138c.3-.743.577-1.465.852-2.156s.592-1.335.868-1.958.519-1.216.81-1.766l.8-1.558c.249-.478.478-.925.7-1.335s.452-.769.644-1.1l.909-1.5.244-.384a.766.766,0,0,1,.083-.12Z" transform="translate(-59.989 -275.156)" fill="#263238"/>
      <path id="Path_1491" data-name="Path 1491" d="M98.508,374.94a6.35,6.35,0,0,1-.519.94c-.369.582-.873,1.449-1.46,2.53s-1.242,2.405-1.9,3.9a47.061,47.061,0,0,0-1.839,4.972,52.646,52.646,0,0,0-1.283,5.143c-.3,1.605-.52,3.06-.634,4.291s-.2,2.223-.223,2.914a6.369,6.369,0,0,1-.088,1.07,6.681,6.681,0,0,1-.036-1.075,29.026,29.026,0,0,1,.119-2.935,42.824,42.824,0,0,1,.561-4.317,49.957,49.957,0,0,1,1.268-5.195,48.494,48.494,0,0,1,1.881-4.992,43.014,43.014,0,0,1,1.974-3.886c.618-1.075,1.153-1.927,1.558-2.494A6.788,6.788,0,0,1,98.508,374.94Z" transform="translate(-63.095 -318.647)" fill="#263238"/>
      <path id="Path_1492" data-name="Path 1492" d="M65.47,419.82H87.476L84.816,442.3h-16.6Z" transform="translate(-51.061 -340.212)" fill="#0f172a"/>
      <path id="Path_1493" data-name="Path 1493" d="M67.02,458.42l1.865,2.426H85.561l1.922-2.348Z" transform="translate(-51.805 -358.76)" fill="#263238"/>
      <path id="Path_1494" data-name="Path 1494" d="M87.31,432.4c0,.088-4.566.161-10.2.161s-10.2-.073-10.2-.161,4.566-.166,10.2-.166S87.31,432.3,87.31,432.4Z" transform="translate(-51.753 -346.175)" fill="#fafafa"/>
      <path id="Path_1495" data-name="Path 1495" d="M87.31,435.276c0,.088-4.566.161-10.2.161s-10.2-.073-10.2-.161,4.566-.166,10.2-.166S87.31,435.183,87.31,435.276Z" transform="translate(-51.753 -347.559)" fill="#fafafa"/>
      <path id="Path_1496" data-name="Path 1496" d="M87.444,438.066c0,.088-4.405.161-9.839.161s-9.844-.073-9.844-.161,4.405-.166,9.844-.166S87.444,437.952,87.444,438.066Z" transform="translate(-52.161 -348.9)" fill="#fafafa"/>
    </g>
  </g>
</svg>
