<svg xmlns="http://www.w3.org/2000/svg" width="158.384" height="104.423" viewBox="0 0 158.384 104.423">
  <g id="Group_14333" data-name="Group 14333" transform="translate(-106.577 -277.577)">
    <g id="GPS_navigator-cuate" data-name="GPS navigator-cuate" transform="translate(61.198 242.23)">
      <g id="freepik--background-complete--inject-263" transform="translate(49.042 38.726)">
        <path id="Path_1499" data-name="Path 1499" d="M175.02,44.541c-1.675,0-29.861.185-31.631.128-.128,0-.2-.19-.069-.252,1.116-.553,2.375-.442,3.541-.834a3.842,3.842,0,0,0,1.577-1.188,3.237,3.237,0,0,1,1.466-.95,3.088,3.088,0,0,1,1.6-.052,15.484,15.484,0,0,1,1.613.672,3.32,3.32,0,0,0,3.636-.979,8.015,8.015,0,0,1,2.665-2.047,3.539,3.539,0,0,1,2.824-.04c1.033.475,1.743,1.411,2.715,1.976,1.15.675,2.527.515,3.8.713s2.249,1.273,3.363,1.9a2.375,2.375,0,0,0,1.216.375,7.124,7.124,0,0,0,.741-.1,1.008,1.008,0,0,1,1,.285C175.139,44.211,175.124,44.541,175.02,44.541Z" transform="translate(-121.058 -38.726)" fill="#ebebeb"/>
        <path id="Path_1500" data-name="Path 1500" d="M625.436,63.046c-1.223,0-21.8.138-23.094.1-.093,0-.143-.14-.05-.185a19.2,19.2,0,0,1,2.587-.608,2.769,2.769,0,0,0,1.152-.867,2.354,2.354,0,0,1,1.069-.7,2.259,2.259,0,0,1,1.166-.038,10,10,0,0,1,1.188.489,2.423,2.423,0,0,0,2.655-.713,5.84,5.84,0,0,1,1.945-1.5A2.584,2.584,0,0,1,616.115,59c.746.342,1.271,1.036,1.983,1.444a7.592,7.592,0,0,0,2.772.523c.926.147,1.641.929,2.456,1.38a1.743,1.743,0,0,0,.888.276,5.267,5.267,0,0,0,.539-.078.743.743,0,0,1,.736.209C625.526,62.806,625.516,63.046,625.436,63.046Z" transform="translate(-471.028 -54.029)" fill="#ebebeb"/>
        <path id="Path_1501" data-name="Path 1501" d="M115.4,121.611c-1.223,0-21.8.135-23.094.093a.1.1,0,0,1-.05-.185,19.488,19.488,0,0,1,2.587-.608,2.727,2.727,0,0,0,1.15-.867,2.394,2.394,0,0,1,1.071-.7,2.259,2.259,0,0,1,1.166-.038,11.065,11.065,0,0,1,1.188.489,2.424,2.424,0,0,0,2.655-.713,5.839,5.839,0,0,1,1.945-1.5,2.594,2.594,0,0,1,2.062-.028A23.427,23.427,0,0,1,108.059,119a7.555,7.555,0,0,0,2.774.523c.929.147,1.641.931,2.456,1.38a1.743,1.743,0,0,0,.886.276,4.64,4.64,0,0,0,.542-.076.732.732,0,0,1,.717.207C115.489,121.369,115.479,121.611,115.4,121.611Z" transform="translate(-82.136 -98.682)" fill="#ebebeb"/>
        <path id="Path_1502" data-name="Path 1502" d="M73,223.9c-1.223,0-21.8.135-23.094.1-.093,0-.143-.14-.052-.185a19.241,19.241,0,0,1,2.589-.608,2.762,2.762,0,0,0,1.15-.867,2.4,2.4,0,0,1,1.071-.708,2.285,2.285,0,0,1,1.166-.036,11.068,11.068,0,0,1,1.188.489,2.424,2.424,0,0,0,2.655-.713,5.84,5.84,0,0,1,1.945-1.5,2.572,2.572,0,0,1,2.062-.029,23.4,23.4,0,0,1,1.981,1.442,7.606,7.606,0,0,0,2.774.525c.929.15,1.641.929,2.454,1.38a1.757,1.757,0,0,0,.888.276,5.224,5.224,0,0,0,.542-.078.739.739,0,0,1,.734.209C73.092,223.66,73.082,223.9,73,223.9Z" transform="translate(-49.81 -176.67)" fill="#ebebeb"/>
        <path id="Path_1503" data-name="Path 1503" d="M259.336,165.075c-.024.069-32.433,0-32.025,0,.188,0-.283-.28-.1-.368a9.129,9.129,0,0,1,3.359-.644,5.178,5.178,0,0,0,1.962-.475,5.11,5.11,0,0,0,1.425-1.387,6.088,6.088,0,0,1,5.534-2.1c2.3.361,4.121,2.116,6.43,2.439,1.387.195,2.7-.342,4.052-.532a4.969,4.969,0,0,1,3.045.553,5.746,5.746,0,0,0,2.233.724c.634.045,1.271-.026,1.9-.033a4.275,4.275,0,0,1,2.807,1.121C260.068,164.469,260.4,165.075,259.336,165.075Z" transform="translate(-185.042 -131.225)" fill="#ebebeb"/>
        <rect id="Rectangle_986" data-name="Rectangle 986" width="13.204" height="69.218" transform="translate(42.124 98.337) rotate(180)" fill="#ebebeb"/>
        <rect id="Rectangle_987" data-name="Rectangle 987" width="2.568" height="2.644" transform="translate(40.075 34.012) rotate(180)" fill="#fff"/>
        <rect id="Rectangle_988" data-name="Rectangle 988" width="2.568" height="2.644" transform="translate(36.79 34.012) rotate(180)" fill="#fff"/>
        <rect id="Rectangle_989" data-name="Rectangle 989" width="2.568" height="2.644" transform="translate(40.075 38.498) rotate(180)" fill="#fff"/>
        <rect id="Rectangle_990" data-name="Rectangle 990" width="2.568" height="2.644" transform="translate(36.79 38.498) rotate(180)" fill="#fff"/>
        <rect id="Rectangle_991" data-name="Rectangle 991" width="2.568" height="2.644" transform="translate(40.075 42.985) rotate(180)" fill="#fff"/>
        <rect id="Rectangle_992" data-name="Rectangle 992" width="2.568" height="2.644" transform="translate(36.79 42.985) rotate(180)" fill="#fff"/>
        <rect id="Rectangle_993" data-name="Rectangle 993" width="2.568" height="2.644" transform="translate(40.075 47.474) rotate(180)" fill="#fff"/>
        <rect id="Rectangle_994" data-name="Rectangle 994" width="2.568" height="2.644" transform="translate(36.79 47.474) rotate(180)" fill="#fff"/>
        <rect id="Rectangle_995" data-name="Rectangle 995" width="2.568" height="2.644" transform="translate(40.075 51.959) rotate(180)" fill="#fff"/>
        <rect id="Rectangle_996" data-name="Rectangle 996" width="2.568" height="2.644" transform="translate(36.79 51.959) rotate(180)" fill="#fff"/>
        <rect id="Rectangle_997" data-name="Rectangle 997" width="2.568" height="2.644" transform="translate(40.075 56.445) rotate(180)" fill="#fff"/>
        <rect id="Rectangle_998" data-name="Rectangle 998" width="2.568" height="2.644" transform="translate(36.79 56.445) rotate(180)" fill="#fff"/>
        <rect id="Rectangle_999" data-name="Rectangle 999" width="2.568" height="2.644" transform="translate(40.075 60.932) rotate(180)" fill="#fff"/>
        <rect id="Rectangle_1000" data-name="Rectangle 1000" width="2.568" height="2.644" transform="translate(36.79 60.932) rotate(180)" fill="#fff"/>
        <rect id="Rectangle_1001" data-name="Rectangle 1001" width="2.568" height="2.644" transform="translate(40.075 65.421) rotate(180)" fill="#fff"/>
        <rect id="Rectangle_1002" data-name="Rectangle 1002" width="2.568" height="2.644" transform="translate(36.79 65.421) rotate(180)" fill="#fff"/>
        <rect id="Rectangle_1003" data-name="Rectangle 1003" width="2.568" height="2.644" transform="translate(40.075 69.908) rotate(180)" fill="#fff"/>
        <rect id="Rectangle_1004" data-name="Rectangle 1004" width="2.568" height="2.644" transform="translate(36.79 69.908) rotate(180)" fill="#fff"/>
        <rect id="Rectangle_1005" data-name="Rectangle 1005" width="2.568" height="2.644" transform="translate(40.075 74.395) rotate(180)" fill="#fff"/>
        <rect id="Rectangle_1006" data-name="Rectangle 1006" width="2.568" height="2.644" transform="translate(36.79 74.395) rotate(180)" fill="#fff"/>
        <rect id="Rectangle_1007" data-name="Rectangle 1007" width="2.568" height="2.644" transform="translate(40.075 78.884) rotate(180)" fill="#fff"/>
        <rect id="Rectangle_1008" data-name="Rectangle 1008" width="2.568" height="2.644" transform="translate(36.79 78.884) rotate(180)" fill="#fff"/>
        <rect id="Rectangle_1009" data-name="Rectangle 1009" width="2.568" height="2.644" transform="translate(40.075 83.368) rotate(180)" fill="#fff"/>
        <rect id="Rectangle_1010" data-name="Rectangle 1010" width="2.568" height="2.644" transform="translate(36.79 83.368) rotate(180)" fill="#fff"/>
        <rect id="Rectangle_1011" data-name="Rectangle 1011" width="2.568" height="2.644" transform="translate(40.075 87.855) rotate(180)" fill="#fff"/>
        <rect id="Rectangle_1012" data-name="Rectangle 1012" width="2.568" height="2.644" transform="translate(36.79 87.855) rotate(180)" fill="#fff"/>
        <rect id="Rectangle_1013" data-name="Rectangle 1013" width="2.568" height="2.644" transform="translate(40.075 92.342) rotate(180)" fill="#fff"/>
        <rect id="Rectangle_1014" data-name="Rectangle 1014" width="2.568" height="2.644" transform="translate(30.968 89.701)" fill="#fff"/>
        <rect id="Rectangle_1015" data-name="Rectangle 1015" width="2.568" height="2.644" transform="translate(30.968 85.214)" fill="#fff"/>
        <rect id="Rectangle_1016" data-name="Rectangle 1016" width="2.568" height="2.644" transform="translate(30.968 80.727)" fill="#fff"/>
        <rect id="Rectangle_1017" data-name="Rectangle 1017" width="2.568" height="2.644" transform="translate(30.968 76.238)" fill="#fff"/>
        <rect id="Rectangle_1018" data-name="Rectangle 1018" width="2.568" height="2.644" transform="translate(30.968 71.751)" fill="#fff"/>
        <rect id="Rectangle_1019" data-name="Rectangle 1019" width="2.568" height="2.644" transform="translate(30.968 67.264)" fill="#fff"/>
        <rect id="Rectangle_1020" data-name="Rectangle 1020" width="2.568" height="2.644" transform="translate(30.968 62.778)" fill="#fff"/>
        <rect id="Rectangle_1021" data-name="Rectangle 1021" width="2.568" height="2.644" transform="translate(30.968 58.291)" fill="#fff"/>
        <rect id="Rectangle_1022" data-name="Rectangle 1022" width="2.568" height="2.644" transform="translate(30.968 53.804)" fill="#fff"/>
        <rect id="Rectangle_1023" data-name="Rectangle 1023" width="2.568" height="2.644" transform="translate(30.968 49.317)" fill="#fff"/>
        <rect id="Rectangle_1024" data-name="Rectangle 1024" width="2.568" height="2.644" transform="translate(30.968 44.828)" fill="#fff"/>
        <rect id="Rectangle_1025" data-name="Rectangle 1025" width="2.568" height="2.644" transform="translate(30.968 40.341)" fill="#fff"/>
        <rect id="Rectangle_1026" data-name="Rectangle 1026" width="2.568" height="2.644" transform="translate(30.968 35.855)" fill="#fff"/>
        <rect id="Rectangle_1027" data-name="Rectangle 1027" width="2.568" height="2.644" transform="translate(30.968 31.368)" fill="#fff"/>
        <rect id="Rectangle_1028" data-name="Rectangle 1028" width="2.568" height="2.644" transform="translate(36.79 92.342) rotate(180)" fill="#fff"/>
        <rect id="Rectangle_1029" data-name="Rectangle 1029" width="10.411" height="69.218" transform="translate(28.921 98.337) rotate(180)" fill="#dbdbdb"/>
        <rect id="Rectangle_1030" data-name="Rectangle 1030" width="2.119" height="2.644" transform="translate(19.581 89.701)" fill="#c7c7c7"/>
        <rect id="Rectangle_1031" data-name="Rectangle 1031" width="2.119" height="2.644" transform="translate(22.294 89.701)" fill="#c7c7c7"/>
        <rect id="Rectangle_1032" data-name="Rectangle 1032" width="2.119" height="2.644" transform="translate(19.581 85.214)" fill="#c7c7c7"/>
        <rect id="Rectangle_1033" data-name="Rectangle 1033" width="2.119" height="2.644" transform="translate(22.294 85.214)" fill="#c7c7c7"/>
        <rect id="Rectangle_1034" data-name="Rectangle 1034" width="2.119" height="2.644" transform="translate(19.581 80.727)" fill="#c7c7c7"/>
        <rect id="Rectangle_1035" data-name="Rectangle 1035" width="2.119" height="2.644" transform="translate(22.294 80.727)" fill="#c7c7c7"/>
        <rect id="Rectangle_1036" data-name="Rectangle 1036" width="2.119" height="2.644" transform="translate(19.581 76.238)" fill="#c7c7c7"/>
        <rect id="Rectangle_1037" data-name="Rectangle 1037" width="2.119" height="2.644" transform="translate(22.294 76.238)" fill="#c7c7c7"/>
        <rect id="Rectangle_1038" data-name="Rectangle 1038" width="2.119" height="2.644" transform="translate(19.581 71.751)" fill="#c7c7c7"/>
        <rect id="Rectangle_1039" data-name="Rectangle 1039" width="2.119" height="2.644" transform="translate(22.294 71.751)" fill="#c7c7c7"/>
        <rect id="Rectangle_1040" data-name="Rectangle 1040" width="2.119" height="2.644" transform="translate(19.581 67.264)" fill="#c7c7c7"/>
        <rect id="Rectangle_1041" data-name="Rectangle 1041" width="2.119" height="2.644" transform="translate(22.294 67.264)" fill="#c7c7c7"/>
        <rect id="Rectangle_1042" data-name="Rectangle 1042" width="2.119" height="2.644" transform="translate(19.581 62.778)" fill="#c7c7c7"/>
        <rect id="Rectangle_1043" data-name="Rectangle 1043" width="2.119" height="2.644" transform="translate(22.294 62.778)" fill="#c7c7c7"/>
        <rect id="Rectangle_1044" data-name="Rectangle 1044" width="2.119" height="2.644" transform="translate(19.581 58.291)" fill="#c7c7c7"/>
        <rect id="Rectangle_1045" data-name="Rectangle 1045" width="2.119" height="2.644" transform="translate(22.294 58.291)" fill="#c7c7c7"/>
        <rect id="Rectangle_1046" data-name="Rectangle 1046" width="2.119" height="2.644" transform="translate(19.581 53.804)" fill="#c7c7c7"/>
        <rect id="Rectangle_1047" data-name="Rectangle 1047" width="2.119" height="2.644" transform="translate(22.294 53.804)" fill="#c7c7c7"/>
        <rect id="Rectangle_1048" data-name="Rectangle 1048" width="2.119" height="2.644" transform="translate(19.581 49.317)" fill="#c7c7c7"/>
        <rect id="Rectangle_1049" data-name="Rectangle 1049" width="2.119" height="2.644" transform="translate(22.294 49.317)" fill="#c7c7c7"/>
        <rect id="Rectangle_1050" data-name="Rectangle 1050" width="2.119" height="2.644" transform="translate(19.581 44.828)" fill="#c7c7c7"/>
        <rect id="Rectangle_1051" data-name="Rectangle 1051" width="2.119" height="2.644" transform="translate(22.294 44.828)" fill="#c7c7c7"/>
        <rect id="Rectangle_1052" data-name="Rectangle 1052" width="2.119" height="2.644" transform="translate(19.581 40.341)" fill="#c7c7c7"/>
        <rect id="Rectangle_1053" data-name="Rectangle 1053" width="2.119" height="2.644" transform="translate(22.294 40.341)" fill="#c7c7c7"/>
        <rect id="Rectangle_1054" data-name="Rectangle 1054" width="2.119" height="2.644" transform="translate(19.581 35.855)" fill="#c7c7c7"/>
        <rect id="Rectangle_1055" data-name="Rectangle 1055" width="2.119" height="2.644" transform="translate(22.294 35.855)" fill="#c7c7c7"/>
        <rect id="Rectangle_1056" data-name="Rectangle 1056" width="2.119" height="2.644" transform="translate(19.581 31.368)" fill="#c7c7c7"/>
        <rect id="Rectangle_1057" data-name="Rectangle 1057" width="2.119" height="2.644" transform="translate(27.101 34.012) rotate(180)" fill="#c7c7c7"/>
        <rect id="Rectangle_1058" data-name="Rectangle 1058" width="2.119" height="2.644" transform="translate(27.101 38.498) rotate(180)" fill="#c7c7c7"/>
        <rect id="Rectangle_1059" data-name="Rectangle 1059" width="2.119" height="2.644" transform="translate(27.101 42.985) rotate(180)" fill="#c7c7c7"/>
        <rect id="Rectangle_1060" data-name="Rectangle 1060" width="2.119" height="2.644" transform="translate(27.101 47.474) rotate(180)" fill="#c7c7c7"/>
        <rect id="Rectangle_1061" data-name="Rectangle 1061" width="2.119" height="2.644" transform="translate(27.101 51.959) rotate(180)" fill="#c7c7c7"/>
        <rect id="Rectangle_1062" data-name="Rectangle 1062" width="2.119" height="2.644" transform="translate(27.101 56.445) rotate(180)" fill="#c7c7c7"/>
        <rect id="Rectangle_1063" data-name="Rectangle 1063" width="2.119" height="2.644" transform="translate(27.101 60.932) rotate(180)" fill="#c7c7c7"/>
        <rect id="Rectangle_1064" data-name="Rectangle 1064" width="2.119" height="2.644" transform="translate(27.101 65.421) rotate(180)" fill="#c7c7c7"/>
        <rect id="Rectangle_1065" data-name="Rectangle 1065" width="2.119" height="2.644" transform="translate(27.101 69.908) rotate(180)" fill="#c7c7c7"/>
        <rect id="Rectangle_1066" data-name="Rectangle 1066" width="2.119" height="2.644" transform="translate(27.101 74.395) rotate(180)" fill="#c7c7c7"/>
        <rect id="Rectangle_1067" data-name="Rectangle 1067" width="2.119" height="2.644" transform="translate(27.101 78.884) rotate(180)" fill="#c7c7c7"/>
        <rect id="Rectangle_1068" data-name="Rectangle 1068" width="2.119" height="2.644" transform="translate(27.101 83.368) rotate(180)" fill="#c7c7c7"/>
        <rect id="Rectangle_1069" data-name="Rectangle 1069" width="2.119" height="2.644" transform="translate(27.101 87.855) rotate(180)" fill="#c7c7c7"/>
        <rect id="Rectangle_1070" data-name="Rectangle 1070" width="2.119" height="2.644" transform="translate(27.101 92.342) rotate(180)" fill="#c7c7c7"/>
        <rect id="Rectangle_1071" data-name="Rectangle 1071" width="2.119" height="2.644" transform="translate(22.294 31.368)" fill="#c7c7c7"/>
        <rect id="Rectangle_1072" data-name="Rectangle 1072" width="13.064" height="49.544" transform="translate(68.271 98.337) rotate(180)" fill="#ebebeb"/>
        <rect id="Rectangle_1073" data-name="Rectangle 1073" width="11.206" height="3.285" transform="translate(66.413 48.792) rotate(180)" fill="#c7c7c7"/>
        <rect id="Rectangle_1074" data-name="Rectangle 1074" width="10.199" height="37.039" transform="translate(66.838 87.544) rotate(180)" fill="#dbdbdb"/>
        <rect id="Rectangle_1075" data-name="Rectangle 1075" width="10.199" height="0.876" transform="translate(66.838 54.918) rotate(180)" fill="#fff"/>
        <rect id="Rectangle_1076" data-name="Rectangle 1076" width="10.199" height="0.874" transform="translate(66.838 58.543) rotate(180)" fill="#fff"/>
        <rect id="Rectangle_1077" data-name="Rectangle 1077" width="10.199" height="0.874" transform="translate(66.838 62.167) rotate(180)" fill="#fff"/>
        <rect id="Rectangle_1078" data-name="Rectangle 1078" width="10.199" height="0.876" transform="translate(66.838 65.794) rotate(180)" fill="#fff"/>
        <rect id="Rectangle_1079" data-name="Rectangle 1079" width="10.199" height="0.874" transform="translate(66.838 69.419) rotate(180)" fill="#fff"/>
        <rect id="Rectangle_1080" data-name="Rectangle 1080" width="10.199" height="0.876" transform="translate(66.838 73.043) rotate(180)" fill="#fff"/>
        <rect id="Rectangle_1081" data-name="Rectangle 1081" width="10.199" height="0.874" transform="translate(66.838 76.67) rotate(180)" fill="#fff"/>
        <rect id="Rectangle_1082" data-name="Rectangle 1082" width="10.199" height="0.874" transform="translate(66.838 80.295) rotate(180)" fill="#fff"/>
        <rect id="Rectangle_1083" data-name="Rectangle 1083" width="10.199" height="0.876" transform="translate(66.838 83.919) rotate(180)" fill="#fff"/>
        <rect id="Rectangle_1084" data-name="Rectangle 1084" width="10.199" height="0.876" transform="translate(66.838 87.544) rotate(180)" fill="#fff"/>
        <rect id="Rectangle_1085" data-name="Rectangle 1085" width="8.183" height="49.544" transform="translate(55.207 98.337) rotate(180)" fill="#dbdbdb"/>
        <rect id="Rectangle_1086" data-name="Rectangle 1086" width="6.955" height="3.285" transform="translate(55.207 48.792) rotate(180)" fill="#a6a6a6"/>
        <rect id="Rectangle_1087" data-name="Rectangle 1087" width="6.292" height="37.039" transform="translate(54.076 87.544) rotate(180)" fill="#c7c7c7"/>
        <rect id="Rectangle_1088" data-name="Rectangle 1088" width="6.292" height="0.876" transform="translate(54.076 54.918) rotate(180)" fill="#fff"/>
        <rect id="Rectangle_1089" data-name="Rectangle 1089" width="6.292" height="0.874" transform="translate(54.076 58.543) rotate(180)" fill="#fff"/>
        <rect id="Rectangle_1090" data-name="Rectangle 1090" width="6.292" height="0.874" transform="translate(54.076 62.167) rotate(180)" fill="#fff"/>
        <rect id="Rectangle_1091" data-name="Rectangle 1091" width="6.292" height="0.876" transform="translate(54.076 65.794) rotate(180)" fill="#fff"/>
        <rect id="Rectangle_1092" data-name="Rectangle 1092" width="6.292" height="0.874" transform="translate(54.076 69.419) rotate(180)" fill="#fff"/>
        <rect id="Rectangle_1093" data-name="Rectangle 1093" width="6.292" height="0.876" transform="translate(54.076 73.043) rotate(180)" fill="#fff"/>
        <rect id="Rectangle_1094" data-name="Rectangle 1094" width="6.292" height="0.874" transform="translate(54.076 76.67) rotate(180)" fill="#fff"/>
        <rect id="Rectangle_1095" data-name="Rectangle 1095" width="6.292" height="0.874" transform="translate(54.076 80.295) rotate(180)" fill="#fff"/>
        <rect id="Rectangle_1096" data-name="Rectangle 1096" width="6.292" height="0.876" transform="translate(54.076 83.919) rotate(180)" fill="#fff"/>
        <rect id="Rectangle_1097" data-name="Rectangle 1097" width="6.292" height="0.876" transform="translate(54.076 87.544) rotate(180)" fill="#fff"/>
        <rect id="Rectangle_1098" data-name="Rectangle 1098" width="6.976" height="8.242" transform="translate(17.748 57.868) rotate(180)" fill="#dbdbdb"/>
        <rect id="Rectangle_1099" data-name="Rectangle 1099" width="4.425" height="8.544" transform="translate(10.772 58.17) rotate(180)" fill="#c7c7c7"/>
        <rect id="Rectangle_1100" data-name="Rectangle 1100" width="4.389" height="4.905" transform="translate(10.444 58.172) rotate(180)" fill="#dbdbdb"/>
        <rect id="Rectangle_1101" data-name="Rectangle 1101" width="2.739" height="4.905" transform="translate(6.052 58.172) rotate(180)" fill="#c7c7c7"/>
        <rect id="Rectangle_1102" data-name="Rectangle 1102" width="11.282" height="41.003" transform="translate(20.424 98.337) rotate(180)" fill="#ebebeb"/>
        <rect id="Rectangle_1103" data-name="Rectangle 1103" width="3.549" height="1.449" transform="translate(19.135 60.547) rotate(180)" fill="#fff"/>
        <rect id="Rectangle_1104" data-name="Rectangle 1104" width="3.549" height="1.449" transform="translate(14.598 60.547) rotate(180)" fill="#fff"/>
        <rect id="Rectangle_1105" data-name="Rectangle 1105" width="3.549" height="1.449" transform="translate(19.135 63.008) rotate(180)" fill="#fff"/>
        <rect id="Rectangle_1106" data-name="Rectangle 1106" width="3.549" height="1.449" transform="translate(14.598 63.008) rotate(180)" fill="#fff"/>
        <rect id="Rectangle_1107" data-name="Rectangle 1107" width="3.549" height="1.449" transform="translate(19.135 65.469) rotate(180)" fill="#fff"/>
        <rect id="Rectangle_1108" data-name="Rectangle 1108" width="3.549" height="1.449" transform="translate(14.598 65.469) rotate(180)" fill="#fff"/>
        <rect id="Rectangle_1109" data-name="Rectangle 1109" width="3.549" height="1.449" transform="translate(19.135 67.929) rotate(180)" fill="#fff"/>
        <rect id="Rectangle_1110" data-name="Rectangle 1110" width="3.549" height="1.449" transform="translate(14.598 67.929) rotate(180)" fill="#fff"/>
        <rect id="Rectangle_1111" data-name="Rectangle 1111" width="3.549" height="1.449" transform="translate(19.135 70.39) rotate(180)" fill="#fff"/>
        <rect id="Rectangle_1112" data-name="Rectangle 1112" width="3.549" height="1.449" transform="translate(14.598 70.39) rotate(180)" fill="#fff"/>
        <rect id="Rectangle_1113" data-name="Rectangle 1113" width="3.549" height="1.449" transform="translate(19.135 72.851) rotate(180)" fill="#fff"/>
        <rect id="Rectangle_1114" data-name="Rectangle 1114" width="3.549" height="1.449" transform="translate(14.598 72.851) rotate(180)" fill="#fff"/>
        <rect id="Rectangle_1115" data-name="Rectangle 1115" width="3.549" height="1.449" transform="translate(19.135 75.314) rotate(180)" fill="#fff"/>
        <rect id="Rectangle_1116" data-name="Rectangle 1116" width="3.549" height="1.449" transform="translate(14.598 75.314) rotate(180)" fill="#fff"/>
        <rect id="Rectangle_1117" data-name="Rectangle 1117" width="3.549" height="1.449" transform="translate(19.135 77.775) rotate(180)" fill="#fff"/>
        <rect id="Rectangle_1118" data-name="Rectangle 1118" width="3.549" height="1.449" transform="translate(14.598 77.775) rotate(180)" fill="#fff"/>
        <rect id="Rectangle_1119" data-name="Rectangle 1119" width="3.549" height="1.449" transform="translate(19.135 80.233) rotate(180)" fill="#fff"/>
        <rect id="Rectangle_1120" data-name="Rectangle 1120" width="3.549" height="1.449" transform="translate(14.598 80.233) rotate(180)" fill="#fff"/>
        <rect id="Rectangle_1121" data-name="Rectangle 1121" width="3.549" height="1.449" transform="translate(19.135 82.696) rotate(180)" fill="#fff"/>
        <rect id="Rectangle_1122" data-name="Rectangle 1122" width="3.549" height="1.449" transform="translate(14.598 82.696) rotate(180)" fill="#fff"/>
        <rect id="Rectangle_1123" data-name="Rectangle 1123" width="3.549" height="1.449" transform="translate(19.135 85.157) rotate(180)" fill="#fff"/>
        <rect id="Rectangle_1124" data-name="Rectangle 1124" width="3.549" height="1.449" transform="translate(14.598 85.157) rotate(180)" fill="#fff"/>
        <rect id="Rectangle_1125" data-name="Rectangle 1125" width="3.549" height="1.449" transform="translate(19.135 87.618) rotate(180)" fill="#fff"/>
        <rect id="Rectangle_1126" data-name="Rectangle 1126" width="3.549" height="1.449" transform="translate(14.598 87.618) rotate(180)" fill="#fff"/>
        <rect id="Rectangle_1127" data-name="Rectangle 1127" width="3.549" height="1.449" transform="translate(19.135 90.081) rotate(180)" fill="#fff"/>
        <rect id="Rectangle_1128" data-name="Rectangle 1128" width="3.549" height="1.449" transform="translate(14.598 90.081) rotate(180)" fill="#fff"/>
        <rect id="Rectangle_1129" data-name="Rectangle 1129" width="3.549" height="1.449" transform="translate(19.135 92.541) rotate(180)" fill="#fff"/>
        <rect id="Rectangle_1130" data-name="Rectangle 1130" width="3.549" height="1.449" transform="translate(14.598 92.541) rotate(180)" fill="#fff"/>
        <rect id="Rectangle_1131" data-name="Rectangle 1131" width="9.142" height="41.003" transform="translate(9.142 98.337) rotate(180)" fill="#c7c7c7"/>
        <rect id="Rectangle_1132" data-name="Rectangle 1132" width="2.912" height="1.449" transform="translate(0.917 91.09)" fill="#ebebeb"/>
        <rect id="Rectangle_1133" data-name="Rectangle 1133" width="2.912" height="1.449" transform="translate(4.644 91.09)" fill="#ebebeb"/>
        <rect id="Rectangle_1134" data-name="Rectangle 1134" width="2.912" height="1.449" transform="translate(0.917 88.629)" fill="#ebebeb"/>
        <rect id="Rectangle_1135" data-name="Rectangle 1135" width="2.912" height="1.449" transform="translate(4.644 88.629)" fill="#ebebeb"/>
        <rect id="Rectangle_1136" data-name="Rectangle 1136" width="2.912" height="1.449" transform="translate(0.917 86.169)" fill="#ebebeb"/>
        <rect id="Rectangle_1137" data-name="Rectangle 1137" width="2.912" height="1.449" transform="translate(4.644 86.169)" fill="#ebebeb"/>
        <rect id="Rectangle_1138" data-name="Rectangle 1138" width="2.912" height="1.449" transform="translate(0.917 83.708)" fill="#ebebeb"/>
        <rect id="Rectangle_1139" data-name="Rectangle 1139" width="2.912" height="1.449" transform="translate(4.644 83.708)" fill="#ebebeb"/>
        <rect id="Rectangle_1140" data-name="Rectangle 1140" width="2.912" height="1.449" transform="translate(0.917 81.247)" fill="#ebebeb"/>
        <rect id="Rectangle_1141" data-name="Rectangle 1141" width="2.912" height="1.449" transform="translate(4.644 81.247)" fill="#ebebeb"/>
        <rect id="Rectangle_1142" data-name="Rectangle 1142" width="2.912" height="1.449" transform="translate(0.917 78.786)" fill="#ebebeb"/>
        <rect id="Rectangle_1143" data-name="Rectangle 1143" width="2.912" height="1.449" transform="translate(4.644 78.786)" fill="#ebebeb"/>
        <rect id="Rectangle_1144" data-name="Rectangle 1144" width="2.912" height="1.449" transform="translate(0.917 76.323)" fill="#ebebeb"/>
        <rect id="Rectangle_1145" data-name="Rectangle 1145" width="2.912" height="1.449" transform="translate(4.644 76.323)" fill="#ebebeb"/>
        <rect id="Rectangle_1146" data-name="Rectangle 1146" width="2.912" height="1.449" transform="translate(0.917 73.863)" fill="#ebebeb"/>
        <rect id="Rectangle_1147" data-name="Rectangle 1147" width="2.912" height="1.449" transform="translate(4.644 73.863)" fill="#ebebeb"/>
        <rect id="Rectangle_1148" data-name="Rectangle 1148" width="2.912" height="1.449" transform="translate(0.917 71.402)" fill="#ebebeb"/>
        <rect id="Rectangle_1149" data-name="Rectangle 1149" width="2.912" height="1.449" transform="translate(4.644 71.402)" fill="#ebebeb"/>
        <rect id="Rectangle_1150" data-name="Rectangle 1150" width="2.912" height="1.449" transform="translate(0.917 68.941)" fill="#ebebeb"/>
        <rect id="Rectangle_1151" data-name="Rectangle 1151" width="2.912" height="1.449" transform="translate(4.644 68.941)" fill="#ebebeb"/>
        <rect id="Rectangle_1152" data-name="Rectangle 1152" width="2.912" height="1.449" transform="translate(0.917 66.481)" fill="#ebebeb"/>
        <rect id="Rectangle_1153" data-name="Rectangle 1153" width="2.912" height="1.449" transform="translate(4.644 66.481)" fill="#ebebeb"/>
        <rect id="Rectangle_1154" data-name="Rectangle 1154" width="2.912" height="1.449" transform="translate(0.917 64.017)" fill="#ebebeb"/>
        <rect id="Rectangle_1155" data-name="Rectangle 1155" width="2.912" height="1.449" transform="translate(4.644 64.017)" fill="#ebebeb"/>
        <rect id="Rectangle_1156" data-name="Rectangle 1156" width="2.912" height="1.449" transform="translate(0.917 61.557)" fill="#ebebeb"/>
        <rect id="Rectangle_1157" data-name="Rectangle 1157" width="2.912" height="1.449" transform="translate(4.644 61.557)" fill="#ebebeb"/>
        <rect id="Rectangle_1158" data-name="Rectangle 1158" width="2.912" height="1.449" transform="translate(0.917 59.096)" fill="#ebebeb"/>
        <rect id="Rectangle_1159" data-name="Rectangle 1159" width="2.912" height="1.449" transform="translate(4.644 59.096)" fill="#ebebeb"/>
        <rect id="Rectangle_1160" data-name="Rectangle 1160" width="13.308" height="26.719" transform="translate(84.576 98.337) rotate(180)" fill="#ebebeb"/>
        <rect id="Rectangle_1161" data-name="Rectangle 1161" width="2.354" height="1.637" transform="translate(82.484 75.568) rotate(180)" fill="#dbdbdb"/>
        <rect id="Rectangle_1162" data-name="Rectangle 1162" width="2.354" height="1.637" transform="translate(82.484 79.064) rotate(180)" fill="#dbdbdb"/>
        <rect id="Rectangle_1163" data-name="Rectangle 1163" width="2.354" height="1.637" transform="translate(82.484 82.561) rotate(180)" fill="#dbdbdb"/>
        <rect id="Rectangle_1164" data-name="Rectangle 1164" width="2.354" height="1.637" transform="translate(82.484 86.057) rotate(180)" fill="#dbdbdb"/>
        <rect id="Rectangle_1165" data-name="Rectangle 1165" width="2.354" height="1.637" transform="translate(82.484 89.553) rotate(180)" fill="#dbdbdb"/>
        <rect id="Rectangle_1166" data-name="Rectangle 1166" width="2.354" height="1.637" transform="translate(82.484 93.05) rotate(180)" fill="#dbdbdb"/>
        <rect id="Rectangle_1167" data-name="Rectangle 1167" width="2.354" height="1.637" transform="translate(82.484 96.546) rotate(180)" fill="#dbdbdb"/>
        <rect id="Rectangle_1168" data-name="Rectangle 1168" width="2.354" height="1.637" transform="translate(79.097 75.568) rotate(180)" fill="#dbdbdb"/>
        <rect id="Rectangle_1169" data-name="Rectangle 1169" width="2.354" height="1.637" transform="translate(79.097 79.064) rotate(180)" fill="#dbdbdb"/>
        <rect id="Rectangle_1170" data-name="Rectangle 1170" width="2.354" height="1.637" transform="translate(79.097 82.561) rotate(180)" fill="#dbdbdb"/>
        <rect id="Rectangle_1171" data-name="Rectangle 1171" width="2.354" height="1.637" transform="translate(79.097 86.057) rotate(180)" fill="#dbdbdb"/>
        <rect id="Rectangle_1172" data-name="Rectangle 1172" width="2.354" height="1.637" transform="translate(79.097 89.553) rotate(180)" fill="#dbdbdb"/>
        <rect id="Rectangle_1173" data-name="Rectangle 1173" width="2.354" height="1.637" transform="translate(79.097 93.05) rotate(180)" fill="#dbdbdb"/>
        <rect id="Rectangle_1174" data-name="Rectangle 1174" width="2.354" height="1.637" transform="translate(79.097 96.546) rotate(180)" fill="#dbdbdb"/>
        <rect id="Rectangle_1175" data-name="Rectangle 1175" width="2.354" height="1.637" transform="translate(75.717 75.568) rotate(180)" fill="#dbdbdb"/>
        <rect id="Rectangle_1176" data-name="Rectangle 1176" width="2.354" height="1.637" transform="translate(75.717 79.064) rotate(180)" fill="#dbdbdb"/>
        <rect id="Rectangle_1177" data-name="Rectangle 1177" width="2.354" height="1.637" transform="translate(75.717 82.561) rotate(180)" fill="#dbdbdb"/>
        <rect id="Rectangle_1178" data-name="Rectangle 1178" width="2.354" height="1.637" transform="translate(75.717 86.057) rotate(180)" fill="#dbdbdb"/>
        <rect id="Rectangle_1179" data-name="Rectangle 1179" width="2.354" height="1.637" transform="translate(75.717 89.553) rotate(180)" fill="#dbdbdb"/>
        <rect id="Rectangle_1180" data-name="Rectangle 1180" width="2.354" height="1.637" transform="translate(75.717 93.05) rotate(180)" fill="#dbdbdb"/>
        <rect id="Rectangle_1181" data-name="Rectangle 1181" width="2.354" height="1.637" transform="translate(75.717 96.546) rotate(180)" fill="#dbdbdb"/>
        <rect id="Rectangle_1182" data-name="Rectangle 1182" width="8.86" height="2.784" transform="translate(80.13 71.618) rotate(180)" fill="#dbdbdb"/>
        <rect id="Rectangle_1183" data-name="Rectangle 1183" width="5.617" height="1.724" transform="translate(76.885 68.834) rotate(180)" fill="#ebebeb"/>
        <rect id="Rectangle_1184" data-name="Rectangle 1184" width="9.337" height="26.719" transform="translate(71.27 98.337) rotate(180)" fill="#dbdbdb"/>
        <rect id="Rectangle_1185" data-name="Rectangle 1185" width="1.917" height="1.637" transform="translate(62.888 94.648)" fill="#c7c7c7"/>
        <rect id="Rectangle_1186" data-name="Rectangle 1186" width="1.917" height="1.637" transform="translate(62.888 91.152)" fill="#c7c7c7"/>
        <rect id="Rectangle_1187" data-name="Rectangle 1187" width="1.917" height="1.637" transform="translate(62.888 87.656)" fill="#c7c7c7"/>
        <rect id="Rectangle_1188" data-name="Rectangle 1188" width="1.917" height="1.637" transform="translate(62.888 84.159)" fill="#c7c7c7"/>
        <rect id="Rectangle_1189" data-name="Rectangle 1189" width="1.917" height="1.637" transform="translate(62.888 80.663)" fill="#c7c7c7"/>
        <rect id="Rectangle_1190" data-name="Rectangle 1190" width="1.917" height="1.637" transform="translate(62.888 77.167)" fill="#c7c7c7"/>
        <rect id="Rectangle_1191" data-name="Rectangle 1191" width="1.917" height="1.637" transform="translate(62.888 73.67)" fill="#c7c7c7"/>
        <rect id="Rectangle_1192" data-name="Rectangle 1192" width="1.917" height="1.637" transform="translate(65.646 94.648)" fill="#c7c7c7"/>
        <rect id="Rectangle_1193" data-name="Rectangle 1193" width="1.917" height="1.637" transform="translate(65.646 91.152)" fill="#c7c7c7"/>
        <rect id="Rectangle_1194" data-name="Rectangle 1194" width="1.917" height="1.637" transform="translate(65.646 87.656)" fill="#c7c7c7"/>
        <rect id="Rectangle_1195" data-name="Rectangle 1195" width="1.917" height="1.637" transform="translate(65.646 84.159)" fill="#c7c7c7"/>
        <rect id="Rectangle_1196" data-name="Rectangle 1196" width="1.917" height="1.637" transform="translate(65.646 80.663)" fill="#c7c7c7"/>
        <rect id="Rectangle_1197" data-name="Rectangle 1197" width="1.917" height="1.637" transform="translate(65.646 77.167)" fill="#c7c7c7"/>
        <rect id="Rectangle_1198" data-name="Rectangle 1198" width="1.917" height="1.637" transform="translate(65.646 73.67)" fill="#c7c7c7"/>
        <rect id="Rectangle_1199" data-name="Rectangle 1199" width="1.917" height="1.637" transform="translate(68.396 94.648)" fill="#c7c7c7"/>
        <rect id="Rectangle_1200" data-name="Rectangle 1200" width="1.917" height="1.637" transform="translate(68.396 91.152)" fill="#c7c7c7"/>
        <rect id="Rectangle_1201" data-name="Rectangle 1201" width="1.917" height="1.637" transform="translate(68.396 87.656)" fill="#c7c7c7"/>
        <rect id="Rectangle_1202" data-name="Rectangle 1202" width="1.917" height="1.637" transform="translate(68.396 84.159)" fill="#c7c7c7"/>
        <rect id="Rectangle_1203" data-name="Rectangle 1203" width="1.917" height="1.637" transform="translate(68.396 80.663)" fill="#c7c7c7"/>
        <rect id="Rectangle_1204" data-name="Rectangle 1204" width="1.917" height="1.637" transform="translate(68.396 77.167)" fill="#c7c7c7"/>
        <rect id="Rectangle_1205" data-name="Rectangle 1205" width="1.917" height="1.637" transform="translate(68.396 73.67)" fill="#c7c7c7"/>
        <rect id="Rectangle_1206" data-name="Rectangle 1206" width="7.921" height="2.784" transform="translate(71.268 71.618) rotate(180)" fill="#c7c7c7"/>
        <rect id="Rectangle_1207" data-name="Rectangle 1207" width="4.292" height="1.724" transform="translate(71.27 68.834) rotate(180)" fill="#dbdbdb"/>
      </g>
      <g id="freepik--Floor--inject-263" transform="translate(49.042 136.885)">
        <path id="Path_1504" data-name="Path 1504" d="M49.81,452.109l19.31-.059,19.308-.021,38.621-.038,38.621.038,19.308.021,19.31.059-19.31.057-19.308.021-38.621.04-38.621-.04-19.308-.021Z" transform="translate(-49.81 -451.99)" fill="#263238"/>
      </g>
      <g id="freepik--Trees--inject-263" transform="translate(48.802 102.577)">
        <path id="Path_1505" data-name="Path 1505" d="M57.091,322.146s5.368,11.921-3.394,11.931-3.088-12.33-3.088-12.33-2.028-.891.316-7.546,3.4-6.651,4.375-6.651c1.235,0,2.375,2.876,1.549,7.3C56.84,314.83,59.93,320.345,57.091,322.146Z" transform="translate(-48.802 -307.55)" fill="#37474f"/>
        <path id="Path_1506" data-name="Path 1506" d="M66.17,394.8,67,376.83l.862,17.968Z" transform="translate(-62.045 -360.375)" fill="#263238"/>
        <path id="Path_1507" data-name="Path 1507" d="M68.23,396.6l3.183-3.722-2.494,4.214Z" transform="translate(-63.616 -372.612)" fill="#263238"/>
        <path id="Path_1508" data-name="Path 1508" d="M70.95,358.573s-2.5-.99-4.48,2.463c-2.031,3.541.523,5.872,2.544,4.48,0,0,1.589,3.325,4.762,2.534a4.739,4.739,0,0,0,3.686-3.325s2.815.195,2.893-1.9-1.976-3.983-1.976-3.983-.126-5.225-3.537-5.192S70.95,358.573,70.95,358.573Z" transform="translate(-61.707 -342.7)" fill="#455a64"/>
        <path id="Path_1509" data-name="Path 1509" d="M97.57,402.471l.7-15.581L99,402.469Z" transform="translate(-85.987 -368.045)" fill="#263238"/>
        <path id="Path_1510" data-name="Path 1510" d="M92.595,397.518,90.4,393.15l2.556,3.686Z" transform="translate(-80.52 -372.818)" fill="#263238"/>
        <path id="Path_1511" data-name="Path 1511" d="M667.751,322.146s5.368,11.921-3.394,11.931-3.088-12.33-3.088-12.33-2.028-.891.316-7.546,3.4-6.651,4.375-6.651c1.235,0,2.387,2.876,1.551,7.3C667.5,314.83,670.59,320.345,667.751,322.146Z" transform="translate(-514.418 -307.55)" fill="#37474f"/>
        <path id="Path_1512" data-name="Path 1512" d="M676.84,394.8l.824-17.971.865,17.968Z" transform="translate(-527.668 -360.375)" fill="#263238"/>
        <path id="Path_1513" data-name="Path 1513" d="M678.9,396.6l3.18-3.722-2.494,4.214Z" transform="translate(-529.239 -372.612)" fill="#263238"/>
        <path id="Path_1514" data-name="Path 1514" d="M162.547,338.265s-4.679,10.451,3,10.451,2.684-10.812,2.684-10.812,1.777-.784-.292-6.61-2.988-5.824-3.843-5.824c-1.083,0-2.085,2.525-1.344,6.4C162.765,331.869,160.058,336.7,162.547,338.265Z" transform="translate(-134.453 -321.214)" fill="#37474f"/>
        <path id="Path_1515" data-name="Path 1515" d="M177.85,401.958l-.758-15.738-.722,15.74Z" transform="translate(-146.07 -367.534)" fill="#263238"/>
        <path id="Path_1516" data-name="Path 1516" d="M171.743,403.554,168.95,400.3l2.192,3.686Z" transform="translate(-140.412 -378.27)" fill="#263238"/>
        <path id="Path_1517" data-name="Path 1517" d="M611.154,358.634s-2.5-.99-4.48,2.463c-2.028,3.541.523,5.872,2.544,4.48,0,0,1.591,3.325,4.765,2.534a4.734,4.734,0,0,0,3.684-3.325s2.817.195,2.893-1.9-1.986-3.964-1.986-3.964-.126-5.225-3.537-5.192S611.154,358.634,611.154,358.634Z" transform="translate(-473.601 -342.761)" fill="#455a64"/>
        <path id="Path_1518" data-name="Path 1518" d="M637.78,402.471l.7-15.581.732,15.579Z" transform="translate(-497.886 -368.045)" fill="#263238"/>
        <path id="Path_1519" data-name="Path 1519" d="M632.8,397.5l-2.185-4.351,2.617,3.679Z" transform="translate(-492.419 -372.818)" fill="#263238"/>
      </g>
      <g id="freepik--Device--inject-263" transform="translate(101.881 42.724)">
        <path id="Path_1520" data-name="Path 1520" d="M373.91,58.439v62.247a2.876,2.876,0,0,1-2.876,2.876H275.149a2.879,2.879,0,0,1-2.879-2.876V58.439a2.879,2.879,0,0,1,2.879-2.879h95.885A2.879,2.879,0,0,1,373.91,58.439Z" transform="translate(-272.27 -55.56)" fill="#263238"/>
        <rect id="Rectangle_1208" data-name="Rectangle 1208" width="92.08" height="59.815" transform="translate(4.781 4.095)" fill="#fff"/>
        <path id="Path_1521" data-name="Path 1521" d="M492.921,240.747l17.933,0-.325-2.6H517.9l-.777-4.582-24.327.007Z" transform="translate(-440.42 -191.281)" fill="#ebebeb"/>
        <path id="Path_1522" data-name="Path 1522" d="M594.86,72.8l.451,2.026,14.04-.012-.679-2.014Z" transform="translate(-518.238 -68.705)" fill="#ebebeb"/>
        <path id="Path_1523" data-name="Path 1523" d="M605.311,89.551l-1.128-4.111-6.513,0,.914,4.109Z" transform="translate(-520.381 -78.343)" fill="#ebebeb"/>
        <path id="Path_1524" data-name="Path 1524" d="M641.07,140.652l1.791,6.634,7.472,0V136.5Z" transform="translate(-553.472 -117.275)" fill="#dbdbdb"/>
        <path id="Path_1525" data-name="Path 1525" d="M639.763,112.881l-9.164,4.138-2.729-10.152,9.819-.007Z" transform="translate(-543.408 -94.675)" fill="#ebebeb"/>
        <path id="Path_1526" data-name="Path 1526" d="M292.4,152.249v6.13l1.7,2.337,20.168-3.891.713-4.75L308.406,144l-10.187,2.119v.017C297.595,148.4,295.507,150.5,292.4,152.249Z" transform="translate(-287.619 -122.994)" fill="#ebebeb"/>
        <path id="Path_1527" data-name="Path 1527" d="M324.81,272.512h15.2l1.969-16.223-13.838-.009Z" transform="translate(-312.331 -208.605)" fill="#dbdbdb"/>
        <path id="Path_1528" data-name="Path 1528" d="M292.4,225.08v14.638h5.142l1.523-6.605Z" transform="translate(-287.619 -184.816)" fill="#ebebeb"/>
        <path id="Path_1529" data-name="Path 1529" d="M446.688,85.555,446.23,92.8l7.446,0,.012-7.249Z" transform="translate(-404.911 -78.427)" fill="#ebebeb"/>
        <path id="Path_1530" data-name="Path 1530" d="M381.06,86.911l12.914-2.7.938-11.415H383.544Z" transform="translate(-355.22 -68.705)" fill="#ebebeb"/>
        <path id="Path_1531" data-name="Path 1531" d="M470.83,74.847l1.613,0,0-2.045h-1.572Z" transform="translate(-423.668 -68.705)" fill="#ebebeb"/>
        <path id="Path_1532" data-name="Path 1532" d="M448.43,74.852l3.812,0,.067-2.047h-3.75Z" transform="translate(-406.588 -68.705)" fill="#ebebeb"/>
        <path id="Path_1533" data-name="Path 1533" d="M292.4,295.31v6.962h3.062l1.606-6.962Z" transform="translate(-287.619 -238.364)" fill="#ebebeb"/>
        <path id="Path_1534" data-name="Path 1534" d="M422.447,256.25l-15.831.029-1.066,10.38,16.826,0Z" transform="translate(-373.893 -208.582)" fill="#ebebeb"/>
        <path id="Path_1535" data-name="Path 1535" d="M403.03,309.767h7.995l.273-4.627h-7.793Z" transform="translate(-371.972 -245.86)" fill="#ebebeb"/>
        <path id="Path_1536" data-name="Path 1536" d="M453.152,308.237l.021-3.107-7.076,0-.147,3.1Z" transform="translate(-404.697 -245.852)" fill="#ebebeb"/>
        <path id="Path_1537" data-name="Path 1537" d="M445.65,322.211h7.263l0-.751h-7.23Z" transform="translate(-404.469 -258.303)" fill="#ebebeb"/>
        <path id="Path_1538" data-name="Path 1538" d="M325.065,205.63l-1.484,9.736-11.389,0-5.261-6.223Z" transform="translate(-298.698 -169.985)" fill="#dbdbdb"/>
        <path id="Path_1539" data-name="Path 1539" d="M292.4,128.78v9.292a7.177,7.177,0,0,0,2.85-3.563C295.925,132.286,294.789,130.269,292.4,128.78Z" transform="translate(-287.619 -111.389)" fill="#ebebeb"/>
        <path id="Path_1540" data-name="Path 1540" d="M658.67,72.8l.827,2.382,4.256,1.394V72.8Z" transform="translate(-566.892 -68.705)" fill="#ebebeb"/>
        <path id="Path_1541" data-name="Path 1541" d="M633.07,85.425l1.19,4.109,9.973-.007V87.166l-5.126-1.746Z" transform="translate(-547.373 -78.328)" fill="#ebebeb"/>
        <path id="Path_1542" data-name="Path 1542" d="M677.72,106.86l.558,1.551V106.86Z" transform="translate(-581.417 -94.675)" fill="#ebebeb"/>
        <path id="Path_1543" data-name="Path 1543" d="M494.01,305l.081,4.655h36.336l7.776-3.119V305Z" transform="translate(-441.342 -245.753)" fill="#ebebeb"/>
        <path id="Path_1544" data-name="Path 1544" d="M512.37,275.852l-.931-7.482-18.049,0,.126,7.482Z" transform="translate(-440.869 -217.823)" fill="#ebebeb"/>
        <path id="Path_1545" data-name="Path 1545" d="M565.99,153.34l-17.94.01,1.983,17.6,20.185-.007Z" transform="translate(-482.547 -130.115)" fill="#ebebeb"/>
        <path id="Path_1546" data-name="Path 1546" d="M504.926,211.76l-12.5,0,.062,3.705,12.8,0Z" transform="translate(-440.137 -174.659)" fill="#ebebeb"/>
        <path id="Path_1547" data-name="Path 1547" d="M616.632,238.132l-1.1-4.582-8.51,0,.857,4.579Z" transform="translate(-527.51 -191.274)" fill="#ebebeb"/>
        <path id="Path_1548" data-name="Path 1548" d="M585.6,258.055l1.119,7.48,6.843,0,.463,2.451,14.014,0V259.1l-3.2-1.055Z" transform="translate(-511.178 -209.954)" fill="#dbdbdb"/>
        <path id="Path_1549" data-name="Path 1549" d="M658.5,215.892l1.886,7.651,3.237,1.15v-8.8Z" transform="translate(-566.762 -177.808)" fill="#ebebeb"/>
        <path id="Path_1550" data-name="Path 1550" d="M649.83,186.462l1.667,6.185,5.515,0V186.46Z" transform="translate(-560.152 -155.369)" fill="#ebebeb"/>
        <path id="Path_1551" data-name="Path 1551" d="M410.168,205.6l-19.413,0-1.416,10.589,20.757,0Z" transform="translate(-361.533 -169.962)" fill="#ebebeb"/>
        <path id="Path_1552" data-name="Path 1552" d="M491.43,153.385l11.375,0,1.261,12.874-12.418,0Z" transform="translate(-439.375 -130.146)" fill="#dbdbdb"/>
        <path id="Path_1553" data-name="Path 1553" d="M490.86,123.28l29.828.088,1.437,5.976-31.146.014Z" transform="translate(-438.94 -107.195)" fill="#ebebeb"/>
        <path id="Path_1554" data-name="Path 1554" d="M396.714,178.37l18.591-.01-.033,5.195-19.251.007Z" transform="translate(-366.627 -149.192)" fill="#ebebeb"/>
        <path id="Path_1555" data-name="Path 1555" d="M377.6,139.755l-6.879-7.513,13.211-2.812-1,10.323Z" transform="translate(-347.336 -111.884)" fill="#ebebeb"/>
        <path id="Path_1556" data-name="Path 1556" d="M431.22,133.15l10.933,0,.083-12.375-3.494,0-6.632,1.534Z" transform="translate(-393.466 -105.281)" fill="#ebebeb"/>
        <path id="Path_1557" data-name="Path 1557" d="M489.52,72.8l.221,10.275,29.773-.017-.525-2.159-5.026,0-1.648-8.1Z" transform="translate(-437.919 -68.705)" fill="#ebebeb"/>
        <path id="Path_1558" data-name="Path 1558" d="M330.76,79.959l10.724,0,1.4-7.154H332.758Z" transform="translate(-316.867 -68.705)" fill="#ebebeb"/>
        <path id="Path_1559" data-name="Path 1559" d="M318.52,117.285l12.125-2.722,1.268-6.5-10.826.007Z" transform="translate(-307.535 -95.59)" fill="#ebebeb"/>
        <path id="Path_1560" data-name="Path 1560" d="M292.4,72.8V84.023a10.928,10.928,0,0,1,4.867,3.537l4.342-14.76Z" transform="translate(-287.619 -68.705)" fill="#ebebeb"/>
        <path id="Path_1561" data-name="Path 1561" d="M483.47,144.521h-1.9V104.9h32.6l-.722-3.378h15.27v1.9H515.8l.722,3.378H483.47Z" transform="translate(-431.857 -90.604)" fill="#ffdf00"/>
        <path id="Path_1562" data-name="Path 1562" d="M476.315,271.294l-4.187-1.734-4.187,1.734,4.188-6.214Z" transform="translate(-421.464 -215.315)" fill="#8000ff"/>
        <rect id="Rectangle_1210" data-name="Rectangle 1210" width="92.08" height="7.344" transform="translate(4.781 56.563)" fill="#fff"/>
        <rect id="Rectangle_1211" data-name="Rectangle 1211" width="7.344" height="7.344" transform="translate(4.781 56.563)" fill="#37474f"/>
        <rect id="Rectangle_1212" data-name="Rectangle 1212" width="7.344" height="7.344" transform="translate(88.065 52.392)" fill="#37474f"/>
        <path id="Path_1569" data-name="Path 1569" d="M334.069,299.247h-.328l-.066.176a.078.078,0,0,1-.071.047h-.026a.076.076,0,0,1-.043-.1l.3-.8a.076.076,0,0,1,.074-.048.071.071,0,0,1,.071.048l.3.8a.081.081,0,0,1-.045.1H334.2a.074.074,0,0,1-.069-.047Zm-.055-.15-.109-.29-.109.29Z" transform="translate(-318.979 -240.819)" fill="#37474f"/>
        <path id="Path_1570" data-name="Path 1570" d="M338.01,299.308a.074.074,0,0,1-.045.1h-.031a.1.1,0,0,1-.052-.014.166.166,0,0,1-.043-.048.367.367,0,0,1-.029-.164.1.1,0,0,0-.017-.057.131.131,0,0,0-.04-.04.238.238,0,0,0-.076-.031h-.161v.292a.076.076,0,1,1-.15,0v-.8a.074.074,0,0,1,.074-.074h.238a.29.29,0,0,1,.185.513.237.237,0,0,1,.048.05.254.254,0,0,1,.043.145.293.293,0,0,0,0,.081A.071.071,0,0,1,338.01,299.308Zm-.188-.544a.138.138,0,0,0-.14-.14h-.166v.28h.166a.14.14,0,0,0,.14-.138Z" transform="translate(-321.904 -240.774)" fill="#37474f"/>
        <path id="Path_1571" data-name="Path 1571" d="M341.572,299.308a.078.078,0,0,1-.048.1h-.031a.1.1,0,0,1-.055-.014.166.166,0,0,1-.043-.048.368.368,0,0,1-.029-.164.1.1,0,0,0-.017-.057.131.131,0,0,0-.04-.04.218.218,0,0,0-.076-.031h-.159v.292a.076.076,0,1,1-.15,0v-.8a.074.074,0,0,1,.074-.074h.238a.29.29,0,0,1,.185.513.237.237,0,0,1,.048.05.254.254,0,0,1,.043.145.441.441,0,0,0,0,.081A.081.081,0,0,1,341.572,299.308Zm-.19-.544a.138.138,0,0,0-.14-.14h-.166v.28h.166a.14.14,0,0,0,.14-.138Z" transform="translate(-324.618 -240.774)" fill="#37474f"/>
        <path id="Path_1572" data-name="Path 1572" d="M344.61,298.574a.074.074,0,0,1,.074-.074.076.076,0,0,1,.076.074v.8a.076.076,0,0,1-.076.076.074.074,0,0,1-.074-.076Z" transform="translate(-327.428 -240.797)" fill="#37474f"/>
        <path id="Path_1573" data-name="Path 1573" d="M346.44,299.484h0l-.359-.815a.071.071,0,0,1,.04-.1.074.074,0,0,1,.1.038l.264.627.264-.627a.075.075,0,0,1,.138.057l-.335.791h-.071Z" transform="translate(-328.545 -240.847)" fill="#37474f"/>
        <path id="Path_1574" data-name="Path 1574" d="M350.109,299.253h-.328l-.067.176a.076.076,0,0,1-.069.047h-.026a.076.076,0,0,1-.045-.1l.3-.8a.078.078,0,0,1,.143,0l.3.8a.076.076,0,0,1-.045.1h-.026a.076.076,0,0,1-.069-.047Zm-.055-.15-.109-.29-.109.29Z" transform="translate(-331.21 -240.825)" fill="#37474f"/>
        <path id="Path_1575" data-name="Path 1575" d="M353.49,299.407v-.8a.076.076,0,0,1,.15,0v.713h.368a.076.076,0,1,1,0,.152h-.444A.076.076,0,0,1,353.49,299.407Z" transform="translate(-334.199 -240.832)" fill="#37474f"/>
        <path id="Path_1576" data-name="Path 1576" d="M334.631,307.353v2.154a.2.2,0,0,1-.2.2.2.2,0,0,1-.2-.2v-1.8l-.145.083a.179.179,0,0,1-.1.031.2.2,0,0,1-.1-.378l.449-.268h.071a.042.042,0,0,1,.024,0h.04a.024.024,0,0,0,.017,0,.033.033,0,0,1,.021,0h.014c.012,0,.014.012.021.012l.014.012h.017l.014.014v.014l.017.017h0v.038a.126.126,0,0,0,0,.017v.026Z" transform="translate(-319.166 -247.409)" fill="#37474f"/>
        <path id="Path_1577" data-name="Path 1577" d="M340.7,308.16a.891.891,0,0,1,.268.644.914.914,0,0,1-.268.641.9.9,0,0,1-.641.266h0a.891.891,0,0,1-.637-.266.207.207,0,0,1,.292-.294.489.489,0,0,0,.7,0,.5.5,0,0,0,.145-.347.5.5,0,0,0-.846-.352.207.207,0,0,1-.292,0c-.014-.014-.026-.033-.04-.047s0-.012,0-.012a.019.019,0,0,0,0-.017v-.026h0a.289.289,0,0,1,0-.064l.112-.95a.209.209,0,0,1,.09-.145h.026a.206.206,0,0,1,.1-.021h1.081a.207.207,0,0,1,0,.413h-.9l-.043.363a.964.964,0,0,1,.238-.033A.893.893,0,0,1,340.7,308.16Z" transform="translate(-323.426 -247.407)" fill="#37474f"/>
        <path id="Path_1578" data-name="Path 1578" d="M349.273,309.55a.273.273,0,1,1-.273.273A.275.275,0,0,1,349.273,309.55Zm0,1.456a.278.278,0,0,1,.273.276.273.273,0,1,1-.273-.276Z" transform="translate(-330.775 -249.222)" fill="#37474f"/>
        <path id="Path_1579" data-name="Path 1579" d="M353.8,308.095a.893.893,0,0,1,.268.641.908.908,0,0,1-1.553.644.207.207,0,1,1,.285-.292.489.489,0,0,0,.349.142.5.5,0,0,0,.352-.142.5.5,0,0,0,.145-.352.475.475,0,0,0-.145-.349.492.492,0,0,0-.349-.145.192.192,0,0,1-.15-.066h0a.2.2,0,0,1,0-.292l.373-.38h-.594a.2.2,0,0,1-.2-.209.2.2,0,0,1,.2-.2h1.081a.2.2,0,0,1,.209.2.238.238,0,0,1-.026.1.251.251,0,0,1-.038.05l-.461.475a.881.881,0,0,1,.254.176Z" transform="translate(-333.392 -247.346)" fill="#37474f"/>
        <path id="Path_1580" data-name="Path 1580" d="M363.6,309.06a.2.2,0,0,1-.2.2h-.033v.273a.2.2,0,1,1-.4,0v-.278H361.8a.176.176,0,0,1-.124-.043.2.2,0,0,1-.033-.283L363,307.248h0l.012-.014a.042.042,0,0,0,.019-.012l.014-.012h.057a.024.024,0,0,0,.017,0h.062a.026.026,0,0,0,.019,0h.036l.019.014.017.012h.012l.014.014v.014a.076.076,0,0,1,.014.019v.014a.208.208,0,0,0,0,.021v.014a.036.036,0,0,1,0,.024v1.508h.038a.2.2,0,0,1,.247.195Zm-.644-1.1-.729.9h.729Z" transform="translate(-340.383 -247.438)" fill="#37474f"/>
        <path id="Path_1581" data-name="Path 1581" d="M372.208,313.352h-.221v.387a.1.1,0,0,1-.2,0V312.68a.1.1,0,0,1,.1-.1h.321a.382.382,0,1,1,0,.765Zm-.221-.2h.221a.183.183,0,1,0,0-.366h-.221Z" transform="translate(-348.152 -251.532)" fill="#37474f"/>
        <path id="Path_1582" data-name="Path 1582" d="M377.238,312.679v1.052a.1.1,0,0,1-.1.1.1.1,0,0,1-.1-.1v-.743l-.257.356a.1.1,0,0,1-.081.04h0a.1.1,0,0,1-.083-.04l-.259-.356v.751a.1.1,0,1,1-.2,0v-1.059a.1.1,0,0,1,.1-.1h0a.1.1,0,0,1,.078.04l.354.494.356-.494a.1.1,0,0,1,.081-.04h0a.1.1,0,0,1,.109.1Z" transform="translate(-351.484 -251.532)" fill="#37474f"/>
        <path id="Path_1583" data-name="Path 1583" d="M620.339,299.128a.069.069,0,0,1,.1-.012.432.432,0,0,0,.259.1.278.278,0,0,0,.169-.05.119.119,0,0,0,.059-.1.089.089,0,0,0-.012-.043.16.16,0,0,0-.04-.04.593.593,0,0,0-.185-.064h0a.777.777,0,0,1-.173-.052.285.285,0,0,1-.126-.1.227.227,0,0,1,.078-.309.4.4,0,0,1,.237-.071.523.523,0,0,1,.295.107.071.071,0,0,1,.019.1.069.069,0,0,1-.1.019.4.4,0,0,0-.219-.086.268.268,0,0,0-.152.045.107.107,0,0,0-.05.085.064.064,0,0,0,0,.038.167.167,0,0,0,.036.036.49.49,0,0,0,.169.059h0a.713.713,0,0,1,.188.057.313.313,0,0,1,.135.112.238.238,0,0,1,.031.114.266.266,0,0,1-.114.211.432.432,0,0,1-.252.076.591.591,0,0,1-.347-.135A.071.071,0,0,1,620.339,299.128Z" transform="translate(-537.653 -240.713)" fill="#37474f"/>
        <path id="Path_1584" data-name="Path 1584" d="M624.666,299.08h-.154v.292a.076.076,0,1,1-.152,0v-.8a.076.076,0,0,1,.076-.074h.238a.29.29,0,0,1,0,.58Zm-.166-.15h.166a.143.143,0,0,0,.14-.14.14.14,0,0,0-.14-.14h-.154Z" transform="translate(-540.731 -240.797)" fill="#37474f"/>
        <path id="Path_1585" data-name="Path 1585" d="M627.64,299.372v-.8a.074.074,0,0,1,.074-.074h.442a.076.076,0,0,1,0,.15h-.366v.238h.314a.076.076,0,0,1,0,.152h-.314v.238h.366a.076.076,0,0,1,0,.152h-.43a.074.074,0,0,1-.086-.057Z" transform="translate(-543.232 -240.797)" fill="#37474f"/>
        <path id="Path_1586" data-name="Path 1586" d="M631,299.372v-.8a.074.074,0,0,1,.076-.074h.442a.076.076,0,0,1,0,.15h-.366v.238h.323a.076.076,0,0,1,0,.152h-.314v.238h.366a.076.076,0,0,1,0,.152h-.442A.076.076,0,0,1,631,299.372Z" transform="translate(-545.794 -240.797)" fill="#37474f"/>
        <path id="Path_1587" data-name="Path 1587" d="M634.39,299.372v-.8a.074.074,0,0,1,.074-.074h.161a.475.475,0,0,1,0,.95h-.161a.076.076,0,0,1-.074-.078Zm.15-.076h.086a.323.323,0,0,0,0-.646h-.09Z" transform="translate(-548.379 -240.797)" fill="#37474f"/>
        <path id="Path_1588" data-name="Path 1588" d="M622.444,308.095a.9.9,0,0,1,.266.641.91.91,0,0,1-1.553.644.207.207,0,1,1,.295-.292.475.475,0,0,0,.347.142.5.5,0,0,0,.352-.142.489.489,0,0,0,.147-.352.475.475,0,0,0-.147-.349.487.487,0,0,0-.347-.145.185.185,0,0,1-.15-.066h0a.209.209,0,0,1,0-.292l.373-.38h-.591a.207.207,0,0,1-.207-.209.2.2,0,0,1,.207-.2H622.5a.2.2,0,0,1,.209.2.209.209,0,0,1-.026.1.236.236,0,0,1-.036.05l-.461.475A.881.881,0,0,1,622.444,308.095Z" transform="translate(-538.243 -247.346)" fill="#37474f"/>
        <path id="Path_1589" data-name="Path 1589" d="M632.148,309.054a.2.2,0,0,1-.207.2h-.036v.273a.2.2,0,0,1-.4,0v-.278h-1.154a.181.181,0,0,1-.126-.043.2.2,0,0,1-.033-.283l1.356-1.684h0v-.014c0-.014.017,0,.019-.012a.036.036,0,0,0,.014-.012.057.057,0,0,1,.021,0,.019.019,0,0,1,.017,0h.1a.029.029,0,0,0,.019,0h.036l.019.014.019.012h0a.015.015,0,0,1,.014.014c0,.014,0,0,0,.014l.014.019a.026.026,0,0,0,0,.014.045.045,0,0,1,0,.021v.014a.067.067,0,0,1,0,.024v1.508h.036a.2.2,0,0,1,.278.195Zm-.646-1.1-.729.9h.729Z" transform="translate(-545.142 -247.432)" fill="#37474f"/>
        <path id="Path_1590" data-name="Path 1590" d="M641.462,312.68v1.052a.1.1,0,0,1-.1.1.1.1,0,0,1-.1-.1v-.743l-.245.356a.1.1,0,0,1-.081.04h0a.1.1,0,0,1-.083-.04l-.254-.356v.751a.1.1,0,1,1-.2,0V312.68a.1.1,0,0,1,.1-.1h0a.1.1,0,0,1,.078.04l.354.494.356-.494a.1.1,0,0,1,.081-.04h0A.1.1,0,0,1,641.462,312.68Z" transform="translate(-552.962 -251.532)" fill="#37474f"/>
        <path id="Path_1591" data-name="Path 1591" d="M646.686,313.69V312.63a.1.1,0,1,1,.2,0v.428h.475v-.428a.1.1,0,1,1,.2,0v1.052a.1.1,0,0,1-.2,0v-.428h-.475v.428a.1.1,0,0,1-.2,0Z" transform="translate(-557.754 -251.483)" fill="#37474f"/>
        <path id="Path_1592" data-name="Path 1592" d="M651.49,282.392v-.8a.075.075,0,0,1,.15,0v.713h.366a.076.076,0,1,1,0,.15h-.442A.074.074,0,0,1,651.49,282.392Z" transform="translate(-561.417 -227.85)" fill="#fff"/>
        <path id="Path_1593" data-name="Path 1593" d="M654.76,281.594a.074.074,0,0,1,.076-.074.076.076,0,0,1,.076.074v.8a.076.076,0,0,1-.152,0Z" transform="translate(-563.911 -227.85)" fill="#fff"/>
        <path id="Path_1594" data-name="Path 1594" d="M657.282,281.593v.8a.076.076,0,0,1-.076.074.074.074,0,0,1-.074-.074v-.57l-.195.271a.076.076,0,0,1-.062.031h0a.071.071,0,0,1-.062-.031l-.195-.271v.57a.076.076,0,0,1-.15,0v-.8a.074.074,0,0,1,.074-.074h0a.071.071,0,0,1,.059.031l.268.373.271-.373a.069.069,0,0,1,.059-.031h0a.076.076,0,0,1,.081.074Z" transform="translate(-565.215 -227.849)" fill="#fff"/>
        <path id="Path_1595" data-name="Path 1595" d="M661.31,281.594a.074.074,0,0,1,.074-.074.076.076,0,0,1,.076.074v.8a.074.074,0,0,1-.076.074.071.071,0,0,1-.074-.074Z" transform="translate(-568.905 -227.85)" fill="#fff"/>
        <path id="Path_1596" data-name="Path 1596" d="M663.343,281.67h-.214v.713a.076.076,0,0,1-.15,0v-.713h-.216a.076.076,0,0,1-.074-.076.074.074,0,0,1,.074-.074h.577a.076.076,0,0,1,.076.074A.078.078,0,0,1,663.343,281.67Z" transform="translate(-569.957 -227.85)" fill="#fff"/>
        <path id="Path_1597" data-name="Path 1597" d="M650.737,292.091a.2.2,0,0,1-.2.2h-.038v.273a.2.2,0,1,1-.4,0v-.278h-1.154a.183.183,0,0,1-.124-.043.195.195,0,0,1-.033-.283l1.354-1.684h0l.012-.014.017-.012h.038a.012.012,0,0,1,.014,0h.154l.019.014h.017l.017.014v.014l.014.019v.014a.1.1,0,0,1,0,.021v.014a.031.031,0,0,1,0,.021V291.9h.038a.2.2,0,0,1,.261.195Zm-.644-1.1-.729.9h.729Z" transform="translate(-559.318 -234.506)" fill="#fff"/>
        <path id="Path_1598" data-name="Path 1598" d="M659.149,291.383a1.561,1.561,0,0,1,.249-.876.82.82,0,0,1,.679-.406.831.831,0,0,1,.679.406,1.689,1.689,0,0,1,0,1.75.841.841,0,0,1-.679.406.831.831,0,0,1-.679-.406,1.563,1.563,0,0,1-.249-.874Zm1.447,0a1.22,1.22,0,0,0-.176-.653.43.43,0,0,0-.342-.223.442.442,0,0,0-.347.223,1.221,1.221,0,0,0-.176.653,1.188,1.188,0,0,0,.176.646.444.444,0,0,0,.347.238.43.43,0,0,0,.342-.238A1.187,1.187,0,0,0,660.6,291.383Z" transform="translate(-567.257 -234.392)" fill="#fff"/>
        <path id="Path_1599" data-name="Path 1599" d="M303.04,305.269h-1.9v-.95h1.9a.812.812,0,1,0,0-1.622H302.4v-.95h.644a1.762,1.762,0,1,1,0,3.522Z" transform="translate(-294.283 -243.271)" fill="#fff"/>
        <path id="Path_1600" data-name="Path 1600" d="M302.612,300.556V297.67l-1.442,1.444Z" transform="translate(-294.306 -240.164)" fill="#fff"/>
        <rect id="Rectangle_1213" data-name="Rectangle 1213" width="3.888" height="3.888" transform="translate(91.521 28.809)" fill="#37474f"/>
        <rect id="Rectangle_1214" data-name="Rectangle 1214" width="0.382" height="2.228" transform="translate(93.274 29.64)" fill="#fff"/>
        <rect id="Rectangle_1215" data-name="Rectangle 1215" width="0.382" height="2.228" transform="translate(94.578 30.562) rotate(90)" fill="#fff"/>
        <rect id="Rectangle_1216" data-name="Rectangle 1216" width="3.888" height="3.888" transform="translate(91.521 35.305)" fill="#37474f"/>
        <rect id="Rectangle_1217" data-name="Rectangle 1217" width="0.382" height="2.228" transform="translate(94.581 37.058) rotate(90)" fill="#fff"/>
      </g>
      <g id="freepik--Lines--inject-263" transform="translate(49.412 128.307)">
        <path id="Path_1601" data-name="Path 1601" d="M69.05,428.987c.931-.048,1.86-.071,2.791-.09s1.86-.019,2.788-.029,1.86,0,2.791.029l1.394.033c.475.019.931.031,1.394.057-.475.029-.929.038-1.394.059l-1.394.033c-.931.019-1.86.017-2.791.026s-1.86,0-2.788-.026S69.988,429.037,69.05,428.987Z" transform="translate(-64.851 -425.78)" fill="#263238"/>
        <path id="Path_1602" data-name="Path 1602" d="M70.82,416c.713-.05,1.425-.071,2.138-.09s1.425-.026,2.138-.029,1.425,0,2.138.026l1.066.033c.354.021.713.033,1.066.059-.356.026-.713.038-1.066.057l-1.066.033c-.713.021-1.425.026-2.138.029s-1.425,0-2.138-.029S71.533,416.046,70.82,416Z" transform="translate(-66.2 -415.877)" fill="#263238"/>
        <path id="Path_1603" data-name="Path 1603" d="M51.37,422.537c.993-.05,1.983-.074,2.976-.093s1.983-.017,2.976-.026,1.983,0,2.974.026l1.487.033c.5.019.993.031,1.489.059-.5.026-.993.038-1.489.057l-1.487.033c-.99.019-1.983.019-2.974.026s-1.983,0-2.976-.026S52.363,422.585,51.37,422.537Z" transform="translate(-51.37 -420.862)" fill="#263238"/>
        <path id="Path_1604" data-name="Path 1604" d="M389.22,443.707c.931-.048,1.86-.071,2.791-.09s1.86-.019,2.788-.029,1.86,0,2.791.029l1.394.033c.475.019.931.031,1.394.057-.463.029-.929.038-1.394.059l-1.394.033c-.931.019-1.86.017-2.791.026s-1.86,0-2.788-.026S390.151,443.757,389.22,443.707Z" transform="translate(-308.974 -437.004)" fill="#263238"/>
        <path id="Path_1605" data-name="Path 1605" d="M374.31,436.817c.993-.05,1.986-.071,2.976-.09s1.983-.019,2.976-.029,1.983,0,2.974.029l1.487.033c.5.019.993.031,1.489.057-.5.026-.993.038-1.489.059l-1.487.033c-.99.017-1.983.017-2.974.026s-1.983,0-2.976-.029S375.3,436.867,374.31,436.817Z" transform="translate(-297.605 -431.75)" fill="#263238"/>
      </g>
      <g id="freepik--Car--inject-263" transform="translate(54.033 94.917)">
        <path id="Path_1606" data-name="Path 1606" d="M103.52,373.816h23.6s-2.584-11.026-11.8-11.026S103.924,371.353,103.52,373.816Z" transform="translate(-95.754 -342.009)" fill="#8000ff"/>
        <path id="Path_1607" data-name="Path 1607" d="M103.52,373.816h23.6s-2.584-11.026-11.8-11.026S103.924,371.353,103.52,373.816Z" transform="translate(-95.012 -342.009)" opacity="0.2"/>
        <path id="Path_1608" data-name="Path 1608" d="M391.89,378.826h23.6s-2.584-11.026-11.8-11.026S392.294,376.363,391.89,378.826Z" transform="translate(-315.63 -345.829)" fill="#8000ff"/>
        <path id="Path_1609" data-name="Path 1609" d="M391.89,378.826h23.6s-2.584-11.026-11.8-11.026S392.294,376.363,391.89,378.826Z" transform="translate(-315.63 -345.829)" opacity="0.2"/>
        <path id="Path_1610" data-name="Path 1610" d="M73.194,286.992c-.506.805-1.394,9.66-1.447,9.976s-.789,1.663-.8,1.924-.195,4.249-.09,4.513a10.946,10.946,0,0,0,.812,1.356,33.423,33.423,0,0,0,3.848,3.074c.373.038,3.836.064,3.9,0s.475-10.717,10.962-10.717,10.382,11.311,10.574,11.349,47.181,1.112,47.181,1.112c0-1.732.135-12.035,10.432-12.035a10.085,10.085,0,0,1,10.213,9.608c.048,1.7-.238,3.563-.143,3.563a10.208,10.208,0,0,0,1.551,0c.183-.078,2.375-1.523,2.556-1.575s1.446-.078,1.755-.154a20.327,20.327,0,0,0,2.518-2.055c.038-.078.1-.827.116-.891s2.209-2.75,2.311-3.047.143-2.75.143-3-3.99-6.717-4.924-7.43-7.553-3.021-9.5-3.37-12.589-1.936-12.976-2.209-18.567-10.688-21.731-11.465c-2.556-.62-32.151.238-33.7.311s-5.836.85-6.249.85-5.166-.024-5.449.1,0,1.266.361,1.473S74.071,285.6,73.194,286.992Z" transform="translate(-70.825 -275.298)" fill="#8000ff"/>
        <path id="Path_1611" data-name="Path 1611" d="M83.641,295.8a8.612,8.612,0,0,0,2.157.071c.195-.076,11.848-7.838,11.857-8.057a14.676,14.676,0,0,0-2.451-.071C94.937,287.76,83.427,295.607,83.641,295.8Z" transform="translate(-80.594 -284.778)" fill="#455a64"/>
        <path id="Path_1612" data-name="Path 1612" d="M138.23,291.789c.506,1.492,61.722,4.275,62.057,3.563.249-.537-5.225-4.933-7.786-6.366s-9.878-5.584-13.489-6.009a164.261,164.261,0,0,0-17.268-.259c-6.313.116-13.75.271-16.389,1.394C143.049,285.093,137.828,290.6,138.23,291.789Z" transform="translate(-122.203 -280.889)" fill="#263238"/>
        <path id="Path_1613" data-name="Path 1613" d="M145.478,293.2c.154.561,13.672,2.014,29.517,2.75s23.667.853,23.859.774a18.14,18.14,0,0,0-.812-4.648c-.271-.349-11.622-6.159-13.4-6.313s-11.4-.173-16.268-.1-14.99.66-16.714,1.356C150.141,287.63,145.321,292.635,145.478,293.2Z" transform="translate(-127.743 -283.167)" fill="#455a64"/>
        <g id="Group_14330" data-name="Group 14330" transform="translate(18.091 2.456)" opacity="0.1">
          <path id="Path_1614" data-name="Path 1614" d="M190.326,286l-9.073,9.076c-1.62-.143-3.116-.285-4.463-.423l8.415-8.415C187,286.131,188.787,286.05,190.326,286Z" transform="translate(-169.712 -285.914)" fill="#fff"/>
          <path id="Path_1615" data-name="Path 1615" d="M351.768,316.085l-.917.917c-.919,0-2.513-.031-4.791-.093l4.722-4.72a1.148,1.148,0,0,1,.2.143A19.455,19.455,0,0,1,351.768,316.085Z" transform="translate(-298.777 -305.884)" fill="#fff"/>
          <path id="Path_1616" data-name="Path 1616" d="M224,285.64l-9.648,9.65c-.774-.055-1.534-.109-2.275-.169l9.482-9.47C222.329,285.645,223.156,285.64,224,285.64Z" transform="translate(-196.62 -285.64)" fill="#fff"/>
          <path id="Path_1617" data-name="Path 1617" d="M320.714,300.817l-6.613,6.61-2.351-.088L319.085,300Q319.929,300.42,320.714,300.817Z" transform="translate(-272.616 -296.589)" fill="#fff"/>
          <path id="Path_1618" data-name="Path 1618" d="M177.168,287.43,169,295.6h0l-.622-.071,8.045-8.045Z" transform="translate(-163.299 -287.005)" fill="#fff"/>
          <path id="Path_1619" data-name="Path 1619" d="M334.129,305.715l-5.959,5.962-.67-.021,6.176-6.176Z" transform="translate(-284.625 -300.768)" fill="#fff"/>
          <path id="Path_1620" data-name="Path 1620" d="M286.5,288.6l-9.572,9.57-.665-.026L286,288.41C286.157,288.465,286.324,288.534,286.5,288.6Z" transform="translate(-245.556 -287.752)" fill="#fff"/>
          <path id="Path_1621" data-name="Path 1621" d="M154.382,290.05l-6.831,6.829a5.561,5.561,0,0,1-.561-.133l6.551-6.548C153.783,290.147,154.063,290.1,154.382,290.05Z" transform="translate(-146.99 -289.003)" fill="#fff"/>
        </g>
        <path id="Path_1622" data-name="Path 1622" d="M169.227,288.649c.064,0,.093.083.038.238-.318.879-2.8,5.855-3.416,7.016a.532.532,0,0,1-.349.238l4.366.475a.359.359,0,0,1-.216-.4c.045-.276,1.663-6.126,2.173-7.563a.606.606,0,0,1,.292-.306c.086,0-.746.014-1.534.1A12.284,12.284,0,0,0,169.227,288.649Z" transform="translate(-143.013 -285.25)" fill="#263238"/>
        <path id="Path_1623" data-name="Path 1623" d="M205.42,287.268s.081.045.083.2c.029,1.375.183,8.268.05,8.646-.017.05-.038.081-.064.09l.827.066a.394.394,0,0,1-.076-.207c-.093-1.166-.176-7.482-.162-8.65a.392.392,0,0,1,.078-.2Z" transform="translate(-173.451 -284.388)" fill="#263238"/>
        <path id="Path_1624" data-name="Path 1624" d="M261.561,285.961c.1.306.257,9.3.257,9.6s-.33.359-.33.359l5.116.238s-.333-.093-.39-.249-1.663-9.857-1.663-9.976.261-.238.261-.238H261.25a.551.551,0,0,1,.311.271Z" transform="translate(-216.02 -283.222)" fill="#263238"/>
        <path id="Path_1625" data-name="Path 1625" d="M76.633,329.84A5.208,5.208,0,0,0,74.5,331.7a8.257,8.257,0,0,0-.285,2.712,2.672,2.672,0,0,0,1.6,1.109,16.225,16.225,0,0,0,4.081-1.729,3,3,0,0,0,.154-2.337A6.465,6.465,0,0,0,76.633,329.84Z" transform="translate(-73.361 -316.881)" fill="#fff"/>
        <path id="Path_1626" data-name="Path 1626" d="M80.8,334.605a16.338,16.338,0,0,1-4.081,1.729,2.364,2.364,0,0,1-1.37-.829,2.1,2.1,0,0,0,1.261.406,19.69,19.69,0,0,0,3.679-1.648c.38-.347.394-1.663.344-1.9A12.392,12.392,0,0,0,78.68,330.9a6.518,6.518,0,0,1,2.275,1.366A3,3,0,0,1,80.8,334.605Z" transform="translate(-74.275 -317.693)" fill="#ebebeb"/>
        <path id="Path_1627" data-name="Path 1627" d="M73.093,378.658a2.463,2.463,0,0,0-.052,1.6,3.233,3.233,0,0,0,1.447,0,2.644,2.644,0,0,0,.7-1.425C75.148,378.494,73.3,378.451,73.093,378.658Z" transform="translate(-72.429 -354.012)" fill="#fff"/>
        <path id="Path_1628" data-name="Path 1628" d="M470.114,342.473c.556.9,4.648,2.5,6.176,2.75a22.2,22.2,0,0,0,4.494.192c.195-.176-1.425-2.4-2.247-2.943a20.32,20.32,0,0,0-6.256-1.879C471.012,340.653,469.553,341.561,470.114,342.473Z" transform="translate(-375.18 -325.084)" fill="#fff"/>
        <path id="Path_1629" data-name="Path 1629" d="M480.8,345.408a22.207,22.207,0,0,1-4.494-.192c-1.53-.252-5.622-1.85-6.176-2.753s.91-1.817,2.169-1.876a2.509,2.509,0,0,1,.295,0c-1.173.432-1.413,1.349-.7,1.872a19.752,19.752,0,0,0,3.917,2c.914.257,4.168.76,4.451.534a.572.572,0,0,0,.126-.475C480.7,344.983,480.876,345.344,480.8,345.408Z" transform="translate(-375.198 -325.076)" fill="#ebebeb"/>
        <g id="Group_14331" data-name="Group 14331" transform="translate(0.502 12.1)" opacity="0.5">
          <path id="Path_1630" data-name="Path 1630" d="M126.051,340.826a2.083,2.083,0,0,1-.6,1.475,2.116,2.116,0,1,1,0-2.95A2.083,2.083,0,0,1,126.051,340.826Zm0,0a2.067,2.067,0,0,0-.615-1.456,2.023,2.023,0,1,0,.012,2.912A2.066,2.066,0,0,0,126.051,340.826Z" transform="translate(-110.211 -335.748)"/>
          <path id="Path_1631" data-name="Path 1631" d="M96.7,355.673c-.211-.475-.4-.95-.591-1.413s-.366-.95-.549-1.425-.347-.95-.511-1.444-.325-.969-.475-1.461c.211.475.4.95.594,1.425s.366.95.549,1.425.347.95.511,1.444S96.553,355.172,96.7,355.673Z" transform="translate(-89.432 -344.303)"/>
          <path id="Path_1632" data-name="Path 1632" d="M72.94,374.059c1.017-.019,2.033-.017,3.05-.014l3.05.033,3.047.074c1.017.031,2.033.066,3.047.119-1.017.019-2.033.019-3.05.014l-3.05-.033-3.047-.071C74.971,374.147,73.954,374.114,72.94,374.059Z" transform="translate(-72.94 -362.689)"/>
          <path id="Path_1633" data-name="Path 1633" d="M275,332.47l.349,2.477.152,1.242c.021.207.045.413.062.625s0,.416,0,.625l-.045,5-.043,2.5-.019,1.252v.625l-.048.625-.195,2.487-.214,2.5.126-2.5.145-2.5.036-.622v-.627l.012-1.249.026-2.5.086-4.988c0-.207.017-.418,0-.622s-.029-.413-.048-.622l-.126-1.242Z" transform="translate(-227.007 -330.99)"/>
          <path id="Path_1634" data-name="Path 1634" d="M224.574,328.855l.423,2.492.209,1.245.052.311a1.767,1.767,0,0,1,.038.316v.632c-.014,1.684-.057,3.366-.109,5.05-.012.42-.031.841-.052,1.264a4.641,4.641,0,0,1-.238,1.245c-.238.81-.494,1.61-.784,2.4a18.218,18.218,0,0,1-1.007,2.321l-.157.278c-.055.09-.116.178-.173.266a2.005,2.005,0,0,1-.192.257l-.1.126a.425.425,0,0,1-.185.055c-.425.045-.843.05-1.266.064-3.368.069-6.736.038-10.1.017s-6.736-.074-10.1-.135-6.734-.154-10.1-.278c-1.682-.069-3.363-.124-5.045-.276a3.88,3.88,0,0,1-.639-.1c-.119-.045-.19-.1-.29-.145s-.188-.09-.283-.133c-.38-.173-.774-.325-1.154-.515a4.452,4.452,0,0,1-1.062-.713,9.664,9.664,0,0,1-.765-1.019c-.95-1.392-1.855-2.812-2.76-4.23s-1.8-2.85-2.691-4.275-1.77-2.865-2.636-4.309l-.323-.544c-.026-.043-.05-.1-.076-.143l-.038-.071a.285.285,0,0,1-.012-.078l-.031-.314c-.036-.42-.069-.841-.083-1.261v-.316a1.962,1.962,0,0,1,.069-.311c.059-.2.126-.4.2-.6.14-.4.292-.791.449-1.188q-.238.587-.439,1.188c-.069.2-.135.4-.19.6a1.766,1.766,0,0,0-.066.306v.316c.019.42.055.838.1,1.257l.031.316a.427.427,0,0,0,.014.076l.036.066c.026.045.048.088.076.133l.325.542c.879,1.425,1.774,2.85,2.672,4.275,1.8,2.85,3.587,5.7,5.463,8.484a10.321,10.321,0,0,0,.751,1,4.378,4.378,0,0,0,1.036.684c.375.185.767.337,1.152.511.1.043.195.088.29.135a2.684,2.684,0,0,0,.273.138,4.019,4.019,0,0,0,.632.107c1.663.145,3.359.195,5.04.259,3.363.116,6.729.188,10.095.252s6.734.126,10.1.164,6.734.071,10.1.014c.418-.014.843-.019,1.254-.062a1.044,1.044,0,0,0,.119-.021l.1-.119a1.933,1.933,0,0,0,.188-.238c.057-.088.116-.171.171-.261l.154-.273a17.752,17.752,0,0,0,1.007-2.3q.439-1.188.789-2.394a4.471,4.471,0,0,0,.238-1.226l.059-1.259c.066-1.682.121-3.366.15-5.047v-.632a1.73,1.73,0,0,0-.033-.311l-.05-.311-.2-1.247Z" transform="translate(-149.112 -326.24)"/>
          <path id="Path_1635" data-name="Path 1635" d="M463.054,355.28a11.343,11.343,0,0,1-1.4,1c-.475.309-.974.6-1.461.9s-.988.577-1.489.855-1,.551-1.518.805c.475-.318.962-.62,1.449-.922l1.468-.888,1.48-.872.741-.432A7.159,7.159,0,0,0,463.054,355.28Z" transform="translate(-365.923 -348.382)"/>
          <path id="Path_1636" data-name="Path 1636" d="M183.48,376.01l6.56.171,6.558.2,13.116.4,13.113.458,6.558.23,6.556.257-6.558-.171-6.558-.2-13.118-.4-13.113-.458-6.558-.23Z" transform="translate(-157.225 -364.189)"/>
          <path id="Path_1637" data-name="Path 1637" d="M180.4,336.248l-.257.012h-.062c-.014,0-.017.012-.026.031a.994.994,0,0,0-.024.121,3.632,3.632,0,0,0,0,.508.843.843,0,0,0,.021.238.608.608,0,0,0,.029.109h.069c.164.014.337.019.506.026.682.021,1.366.043,2.047.055l1.024.029h.732a.308.308,0,0,0,.026-.064.74.74,0,0,1,.026-.116,2.9,2.9,0,0,0,.021-.5,2.158,2.158,0,0,0-.024-.249.316.316,0,0,0-.026-.1.278.278,0,0,0-.1-.026c-.333-.059-.677-.078-1.017-.112a9.312,9.312,0,0,1,1.028.026.28.28,0,0,1,.145.045.3.3,0,0,1,.062.143,1.974,1.974,0,0,1,.036.261,2.953,2.953,0,0,1,0,.523.9.9,0,0,1-.024.135.238.238,0,0,1-.093.157.078.078,0,0,1-.05.017h-.751l-1.026-.014c-.682-.026-1.366-.045-2.05-.1-.171-.014-.34-.026-.513-.05a.425.425,0,0,1-.078-.017.2.2,0,0,1-.043-.017.119.119,0,0,1-.031-.045.544.544,0,0,1-.033-.14,2.407,2.407,0,0,1,0-.261,3.411,3.411,0,0,1,.05-.515.835.835,0,0,1,.036-.126l.017-.033c0-.012.036-.021.043-.019h.062Z" transform="translate(-154.529 -333.826)"/>
          <path id="Path_1638" data-name="Path 1638" d="M286.007,338.988l-.257.014h-.064c-.014,0-.017.012-.026.031a.667.667,0,0,0-.021.124,3.264,3.264,0,0,0-.012.506,2.168,2.168,0,0,0,.014.264.35.35,0,0,0,.029.109h.069c.166.017.337.019.508.026.682.021,1.363.043,2.047.055l1.024.029h.729a.389.389,0,0,0,.029-.064.844.844,0,0,1,.024-.116,2.9,2.9,0,0,0,.021-.5,2.078,2.078,0,0,0-.021-.238.384.384,0,0,0-.029-.1c0-.012-.057-.021-.095-.029-.333-.059-.677-.078-1.017-.112a9.964,9.964,0,0,1,1.031.026.287.287,0,0,1,.145.045.316.316,0,0,1,.059.143,2.563,2.563,0,0,1,.038.261,3.227,3.227,0,0,1,0,.525.472.472,0,0,1-.021.135.238.238,0,0,1-.1.154.076.076,0,0,1-.05.017h-.751l-1.026-.014c-.684-.024-1.368-.045-2.05-.1-.173-.014-.342-.026-.515-.05a.275.275,0,0,1-.076-.017l-.043-.014a.193.193,0,0,1-.033-.045.474.474,0,0,1-.031-.14,2.458,2.458,0,0,1-.012-.261,3.388,3.388,0,0,1,.052-.515.639.639,0,0,1,.033-.128.119.119,0,0,1,.019-.033.045.045,0,0,1,.04-.017h.064Z" transform="translate(-235.035 -335.945)"/>
        </g>
        <circle id="Ellipse_44" data-name="Ellipse 44" cx="9.762" cy="9.762" r="9.762" transform="translate(8.211 40.463) rotate(-81.13)" fill="#263238"/>
        <circle id="Ellipse_45" data-name="Ellipse 45" cx="7.128" cy="7.128" r="7.128" transform="translate(11.178 38.206) rotate(-80.74)" fill="#dbdbdb"/>
        <circle id="Ellipse_46" data-name="Ellipse 46" cx="6.572" cy="6.572" r="6.572" transform="translate(12.789 25.752)" fill="#a6a6a6"/>
        <path id="Path_1639" data-name="Path 1639" d="M144.5,388.8h-2.062c.7-1.007-1.732-4.513-1.732-4.513l1.085-.363c.713,1.24,1.083,1.6,1.677,1.6s.95-.363,1.682-1.6l1.083.363S143.807,387.789,144.5,388.8Z" transform="translate(-124.111 -358.12)" fill="#dbdbdb"/>
        <path id="Path_1640" data-name="Path 1640" d="M129.708,395.233l-.637,1.962c-.743-.971-4.831.252-4.831.252V396.3c1.4-.3,1.86-.534,2.043-1.1s-.05-1.021-1-2.093l.682-.919S128.537,395.579,129.708,395.233Z" transform="translate(-111.553 -364.426)" fill="#dbdbdb"/>
        <path id="Path_1641" data-name="Path 1641" d="M131.827,414.1l1.663,1.214c-1.157.4-1.256,4.672-1.256,4.672l-1.083-.344c.143-1.425.064-1.933-.416-2.283s-.986-.268-2.3.309l-.663-.931S131.8,415.323,131.827,414.1Z" transform="translate(-114.244 -381.132)" fill="#dbdbdb"/>
        <path id="Path_1642" data-name="Path 1642" d="M152.78,415.314l1.663-1.214c.029,1.223,4.057,2.636,4.057,2.636l-.665.933c-1.313-.58-1.819-.66-2.3-.311s-.558.855-.416,2.283l-1.09.344S153.937,415.717,152.78,415.314Z" transform="translate(-133.314 -381.132)" fill="#dbdbdb"/>
        <path id="Path_1643" data-name="Path 1643" d="M158.047,397.19l-.637-1.957c1.171.352,3.76-3.043,3.76-3.043l.682.919c-.95,1.071-1.188,1.527-1.007,2.093s.641.8,2.045,1.1v1.142S158.79,396.216,158.047,397.19Z" transform="translate(-136.844 -364.426)" fill="#dbdbdb"/>
        <circle id="Ellipse_47" data-name="Ellipse 47" cx="1.907" cy="1.907" r="1.907" transform="translate(17.183 33.863) rotate(-81.11)" fill="#dbdbdb"/>
        <circle id="Ellipse_48" data-name="Ellipse 48" cx="9.762" cy="9.762" r="9.762" transform="translate(75.132 26.522) rotate(-20.13)" fill="#263238"/>
        <circle id="Ellipse_49" data-name="Ellipse 49" cx="7.128" cy="7.128" r="7.128" transform="matrix(0.17, -0.985, 0.985, 0.17, 79.421, 38.135)" fill="#dbdbdb"/>
        <circle id="Ellipse_50" data-name="Ellipse 50" cx="6.572" cy="6.572" r="6.572" transform="translate(81.086 25.752)" fill="#a6a6a6"/>
        <path id="Path_1644" data-name="Path 1644" d="M432.046,388.8h-2.064c.7-1.007-1.732-4.513-1.732-4.513l1.085-.363c.713,1.24,1.083,1.6,1.677,1.6s.95-.363,1.682-1.6l1.083.363S431.35,387.789,432.046,388.8Z" transform="translate(-343.354 -358.12)" fill="#dbdbdb"/>
        <path id="Path_1645" data-name="Path 1645" d="M417.22,395.233l-.637,1.962c-.743-.971-4.831.252-4.831.252l-.012-1.145c1.4-.3,1.86-.534,2.043-1.1s-.05-1.021-1-2.093l.682-.919S416.049,395.579,417.22,395.233Z" transform="translate(-330.766 -364.426)" fill="#dbdbdb"/>
        <path id="Path_1646" data-name="Path 1646" d="M419.362,414.1l1.663,1.214c-1.154.4-1.254,4.672-1.254,4.672l-1.093-.344c.145-1.425.066-1.933-.413-2.283s-.988-.268-2.3.309l-.663-.931S419.335,415.323,419.362,414.1Z" transform="translate(-333.48 -381.132)" fill="#dbdbdb"/>
        <path id="Path_1647" data-name="Path 1647" d="M440.33,415.314l1.663-1.214c.029,1.223,4.057,2.636,4.057,2.636l-.665.933c-1.314-.58-1.819-.66-2.3-.311s-.558.855-.416,2.283l-1.09.344S441.487,415.717,440.33,415.314Z" transform="translate(-352.565 -381.132)" fill="#dbdbdb"/>
        <path id="Path_1648" data-name="Path 1648" d="M445.627,397.19,445,395.233c1.171.352,3.76-3.043,3.76-3.043l.682.919c-.95,1.071-1.188,1.527-1.007,2.093s.641.8,2.045,1.1v1.142S446.368,396.216,445.627,397.19Z" transform="translate(-356.126 -364.426)" fill="#dbdbdb"/>
        <path id="Path_1649" data-name="Path 1649" d="M435.72,405.1a1.9,1.9,0,1,1-1.9-1.9A1.9,1.9,0,0,1,435.72,405.1Z" transform="translate(-346.152 -372.821)" fill="#dbdbdb"/>
        <path id="Path_1650" data-name="Path 1650" d="M359.936,316.488c-.356.356-.323,3.539-.064,3.8s3.8.492,4.078-1.484S360.492,315.939,359.936,316.488Z" transform="translate(-291.066 -306.583)" fill="#8000ff"/>
        <path id="Path_1651" data-name="Path 1651" d="M348.84,292.122h-2.881a174.987,174.987,0,0,0-17.769-9.829l1.705-.413c6.223,3.012,18.22,9.9,18.527,10.123A1.9,1.9,0,0,0,348.84,292.122Z" transform="translate(-267.06 -280.317)" fill="#455a64"/>
        <g id="Group_14332" data-name="Group 14332" transform="translate(7.766 0.888)" opacity="0.5">
          <path id="Path_1652" data-name="Path 1652" d="M103.52,364.013a12.657,12.657,0,0,1,2.188-2.689,13.849,13.849,0,0,1,2.812-2.045,13.645,13.645,0,0,1,6.712-1.663l.874.043.435.019c.145.017.29.04.435.059l.865.124c.285.059.568.135.85.2a10.754,10.754,0,0,1,3.2,1.373,11.218,11.218,0,0,1,2.591,2.318,15.406,15.406,0,0,1,1.831,2.945,16.4,16.4,0,0,0-1.919-2.872,11.044,11.044,0,0,0-2.6-2.221,12.58,12.58,0,0,0-6.565-1.739,13.984,13.984,0,0,0-3.413.368,13.429,13.429,0,0,0-3.214,1.209,13.644,13.644,0,0,0-2.819,1.974,13.028,13.028,0,0,0-2.266,2.594Z" transform="translate(-103.52 -338.951)" fill="#fff"/>
          <path id="Path_1653" data-name="Path 1653" d="M391.45,364.013a12.657,12.657,0,0,1,2.188-2.689,13.849,13.849,0,0,1,2.812-2.045,13.645,13.645,0,0,1,6.712-1.663l.874.043.435.019c.145.017.29.04.435.059l.865.124c.285.059.568.135.85.2a10.754,10.754,0,0,1,3.2,1.373,11.218,11.218,0,0,1,2.591,2.318,15.406,15.406,0,0,1,1.831,2.945,16.4,16.4,0,0,0-1.919-2.872,11.044,11.044,0,0,0-2.6-2.221,12.58,12.58,0,0,0-6.565-1.739,13.984,13.984,0,0,0-3.413.368,13.429,13.429,0,0,0-3.214,1.209,13.645,13.645,0,0,0-2.817,1.964,13.029,13.029,0,0,0-2.268,2.6Z" transform="translate(-323.061 -338.951)" fill="#fff"/>
          <path id="Path_1654" data-name="Path 1654" d="M109.47,287.9c1.52-1.188,3.064-2.356,4.617-3.5s3.123-2.275,4.75-3.347c.2-.131.411-.259.622-.382.1-.062.211-.121.323-.176a1.985,1.985,0,0,1,.356-.135c.475-.135.936-.254,1.406-.373.95-.238,1.879-.454,2.829-.637a16.466,16.466,0,0,1,2.893-.3c.967-.021,1.933-.019,2.9.026-.964,0-1.931.026-2.893.088a16.693,16.693,0,0,0-2.85.356c-.95.211-1.881.43-2.815.67-.475.119-.936.238-1.394.38a1.664,1.664,0,0,0-.321.124c-.1.052-.207.109-.309.171-.207.121-.409.252-.61.38-1.618,1.047-3.183,2.183-4.75,3.294Z" transform="translate(-108.057 -279.035)" fill="#fff"/>
        </g>
        <path id="Path_1655" data-name="Path 1655" d="M234.29,370.16c-7.477,1.71-7.586,10.18-7.586,11.734,0,0-46.986-1.071-47.181-1.112-.157-.033-.109-7.449-5.653-10.273a14.022,14.022,0,0,1,6.888,8.57c.131.475,6.974,1.188,18.669,1.565s21.852.138,23.795-.133S227.417,370.122,234.29,370.16Z" transform="translate(-149.395 -347.628)" opacity="0.1"/>
        <path id="Path_1656" data-name="Path 1656" d="M476.426,377.884c-.1.3-2.3,2.983-2.311,3.047s-.076.812-.116.893a20.5,20.5,0,0,1-2.518,2.052c-.309.078-1.575.1-1.755.154s-2.375,1.5-2.558,1.575a10.172,10.172,0,0,1-1.549,0c-.093,0,.192-1.867.143-3.563a10.254,10.254,0,0,0-5.442-8.5c1.926.411,5.14,3.04,6.437,5.753s.964,2.912,1.266,3.237,1.311-.333,1.774-.449,1.976-.154,2.558-.271.675-1.164,1.074-1.4A22.046,22.046,0,0,0,476.426,377.884Z" transform="translate(-367.807 -350.206)" opacity="0.1"/>
      </g>
    </g>
    <path id="_8725593_check_circle_icon" data-name="8725593_check_circle_icon" d="M21.985,12.668l-6.74,6.756-2.592-2.592a1.571,1.571,0,1,0-2.215,2.215l3.692,3.708a1.574,1.574,0,0,0,2.215,0L24.2,14.9a1.572,1.572,0,1,0-2.215-2.231ZM17.712,2A15.712,15.712,0,1,0,33.423,17.712,15.712,15.712,0,0,0,17.712,2Zm0,28.281A12.569,12.569,0,1,1,30.281,17.712,12.569,12.569,0,0,1,17.712,30.281Z" transform="translate(104.577 275.577)" fill="#8000ff"/>
  </g>
</svg>
