<svg xmlns="http://www.w3.org/2000/svg" width="32" height="28.786" viewBox="0 0 32 28.786">
  <path id="noun-chat-4137481" d="M135.573,88.278l-4.4-1.463a1.016,1.016,0,0,0-.754.057,11.483,11.483,0,0,1-7.279,1.051,11.339,11.339,0,0,1-6.3-3.485,14.6,14.6,0,0,0,2.114-.206,13.407,13.407,0,0,0,10.764-10.661,13.631,13.631,0,0,0-.8-7.747,11.442,11.442,0,0,1,6.5,16.066.968.968,0,0,0-.069.754l1.463,4.388a.983.983,0,0,1-1.245,1.245ZM127.735,73.2a11.436,11.436,0,0,1-16.409,7.988.961.961,0,0,0-.754-.057l-4.4,1.463a.986.986,0,0,1-1.245-1.245l1.463-4.388a.967.967,0,0,0-.069-.754,11.446,11.446,0,1,1,21.414-3Zm-9.5.331a1.019,1.019,0,0,0-1.017-1.017h-5.69a1.017,1.017,0,1,0,0,2.034h5.69A1.019,1.019,0,0,0,118.239,73.526ZM122.3,69.47a1.019,1.019,0,0,0-1.017-1.017h-9.747a1.017,1.017,0,1,0,0,2.034h9.747A1.019,1.019,0,0,0,122.3,69.47Z" transform="translate(-104.873 -59.543)" fill="#b1a8b9"/>
</svg>
