<svg xmlns="http://www.w3.org/2000/svg" width="45.822" height="19.303" viewBox="0 0 45.822 19.303">
  <path id="Shape_6" data-name="Shape 6" d="M34.6,18.821a4.746,4.746,0,0,1-2.344-2.708H12.047a4.718,4.718,0,0,1-2.82,2.914,4.417,4.417,0,0,1-3.542-.206,4.748,4.748,0,0,1-2.344-2.708H.847A.869.869,0,0,1,0,15.226V10.5A3.771,3.771,0,0,1,1.789,7.268a17.488,17.488,0,0,1,8.72-2.481L13.1,3.308A25.1,25.1,0,0,1,25.489,0h.9A24.6,24.6,0,0,1,37.022,2.4a25.844,25.844,0,0,1,2.923,1.62l5.15.77a.88.88,0,0,1,.727.878v6.453a3.086,3.086,0,0,1-1.873,2.9L41.486,16.05a.819.819,0,0,1-.315.063h-.212a4.72,4.72,0,0,1-2.82,2.914,4.416,4.416,0,0,1-3.542-.206ZM4.8,13.809a3.2,3.2,0,0,0,.43,2.326A2.937,2.937,0,0,0,7.1,17.462a2.831,2.831,0,0,0,2.222-.45,3.083,3.083,0,0,0,1.267-1.963,3.222,3.222,0,0,0,.06-.619A3.076,3.076,0,0,0,8.286,11.4a2.82,2.82,0,0,0-.592-.063A3,3,0,0,0,4.8,13.809Zm30.179-1.964a3.085,3.085,0,0,0-1.267,1.964,3.2,3.2,0,0,0,.43,2.326,2.937,2.937,0,0,0,1.875,1.326A2.967,2.967,0,0,0,39.5,15.048h0a3.272,3.272,0,0,0,.06-.62A3.076,3.076,0,0,0,37.2,11.4a2.828,2.828,0,0,0-2.222.45ZM12.345,14.339h12V6.554H10.738A15.827,15.827,0,0,0,2.63,8.808,1.97,1.97,0,0,0,1.694,10.5v3.843H3.044a4.765,4.765,0,0,1,4.651-4.78A4.765,4.765,0,0,1,12.345,14.339Zm13.7,0h5.917a4.772,4.772,0,0,1,4.65-4.78,4.456,4.456,0,0,1,.473.025c.036,0,.071.01.1.016l.065.011.082.012c.068.009.139.02.208.034.035.008.07.017.1.027l.071.02.071.018c.065.016.132.033.2.054.042.014.078.029.118.044l.076.029.062.023c.06.022.121.044.171.067s.085.04.128.063l.065.033.052.026c.055.027.111.055.16.081.066.036.121.073.187.118.032.022.064.042.1.061s.068.042.1.064c.047.033.091.068.133.1l.047.038.058.044c.039.029.08.06.12.1s.072.067.106.1l.062.061.042.039c.038.035.078.071.118.114s.055.062.083.094.047.055.069.079l.012.013c.043.046.087.093.134.152s.078.105.113.154l.028.04.044.061c.027.037.054.074.083.117.051.077.1.156.124.209.016.028.032.055.049.083s.042.07.062.108.048.1.07.147c.01.023.02.045.031.067l.03.061a1.623,1.623,0,0,1,.067.151c.015.04.029.082.043.123l.033.1.022.06c.019.052.038.106.055.162s.027.1.039.148c.007.027.013.055.02.081l.011.044c.017.063.034.128.047.189s.019.108.027.162c0,.025.007.05.011.075s.008.05.012.075c.009.055.018.111.024.169s.007.107.009.159c0,.029,0,.057,0,.083s0,.046.005.068,0,.017,0,.026l2.07-.871a1.328,1.328,0,0,0,.807-1.246V8.944H41.845V7.169h2.283V6.435l-4.6-.687a.814.814,0,0,1-.329-.126,24.093,24.093,0,0,0-2.348-1.349l-1.93,2.021a.833.833,0,0,1-.6.26H26.041Zm0-9.558h7.932l1.21-1.267a22.946,22.946,0,0,0-8.771-1.739h-.372Zm-11.979,0H24.346V1.813A23.545,23.545,0,0,0,14.062,4.78Zm4.957,4.168V7.171h3.218V8.948Z" fill="#d4dce1"/>
</svg>
