<svg xmlns="http://www.w3.org/2000/svg" width="30" height="30" viewBox="0 0 30 30">
  <g id="Group_14347" data-name="Group 14347" transform="translate(-168.248 -156)">
    <path id="Path_1764" data-name="Path 1764" d="M15,0A15,15,0,1,1,0,15,15,15,0,0,1,15,0Z" transform="translate(168.248 156)" fill="#8000ff"/>
    <path id="_8673512_ic_fluent_mail_edit_filled_icon" data-name="8673512_ic_fluent_mail_edit_filled_icon" d="M21.3,12.877l-7.73,7.73a3.517,3.517,0,0,0-.925,1.634l-.6,2.4a1.424,1.424,0,0,0,1.726,1.726l2.4-.6A3.516,3.516,0,0,0,17.8,24.84l7.73-7.73A2.993,2.993,0,0,0,21.3,12.877Z" transform="translate(164.103 152.103)" fill="#fff"/>
  </g>
</svg>
