<svg xmlns="http://www.w3.org/2000/svg" width="22.289" height="22" viewBox="0 0 22.289 22">
  <path id="_7787506_filter_funnel_sort_sorting_conversion_icon" data-name="7787506_filter_funnel_sort_sorting_conversion_icon" d="M40.926,22.5H24.32a2.818,2.818,0,0,0-2.129,4.684l5.465,6.387a2.839,2.839,0,0,1,.71,1.845v4.826a1.419,1.419,0,1,0,2.839,0V35.416a5.756,5.756,0,0,0-1.348-3.69l-5.467-6.387H40.924l-5.465,6.387a5.9,5.9,0,0,0-1.348,3.69v7.665a1.419,1.419,0,1,0,2.839,0V35.416a2.514,2.514,0,0,1,.71-1.845l5.465-6.387A2.875,2.875,0,0,0,40.926,22.5Z" transform="translate(-21.475 -22.5)" fill="#0f172a"/>
</svg>
