<svg xmlns="http://www.w3.org/2000/svg" width="35" height="22.184" viewBox="0 0 35 22.184">
  <g id="_380809_card_master_mastercard_icon" data-name="380809_card_master_mastercard_icon" transform="translate(-0.494)">
    <g id="Master_Card_1_">
      <g id="Master_Card">
        <circle id="Red_x5F_Circle" cx="11" cy="11" r="11" transform="translate(0.494)" fill="#f93232"/>
        <path id="Yellow_x5F_Circle" d="M23.092,0a11.021,11.021,0,0,0-6.633,2.218h-.022v.016a11.159,11.159,0,0,0-1.228,1.094h2.456a10.76,10.76,0,0,1,.948,1.109H14.252a11.016,11.016,0,0,0-.74,1.109h5.839a11.391,11.391,0,0,1,.575,1.109H12.947a10.906,10.906,0,0,0-.418,1.109h7.813c.115.362.206.733.286,1.109H12.24a11,11,0,0,0-.174,1.109h8.741a9.381,9.381,0,0,1,.067,1.109H12a11.09,11.09,0,0,0,.067,1.109h8.743c-.042.376-.1.745-.18,1.109H12.241a10.847,10.847,0,0,0,.289,1.109h7.813a10.906,10.906,0,0,1-.418,1.109H12.947a10.846,10.846,0,0,0,.565,1.109h5.839a10.85,10.85,0,0,1-.742,1.109H14.252a11.117,11.117,0,0,0,.956,1.109h2.457a11.146,11.146,0,0,1-1.228,1.094A11.087,11.087,0,1,0,23.092,0Z" transform="translate(1.31)" fill="#fed049"/>
      </g>
    </g>
  </g>
</svg>
