<svg xmlns="http://www.w3.org/2000/svg" xmlns:xlink="http://www.w3.org/1999/xlink" width="29.669" height="32.366" viewBox="0 0 29.669 32.366">
  <defs>
    <linearGradient id="linear-gradient" x1="0.013" y1="0.297" x2="0.911" y2="0.681" gradientUnits="objectBoundingBox">
      <stop offset="0" stop-color="#fff" stop-opacity="0.2"/>
      <stop offset="1" stop-color="#fff" stop-opacity="0"/>
    </linearGradient>
  </defs>
  <g id="_2993670_brand_brands_logo_logos_paypal_icon" data-name="2993670_brand_brands_logo_logos_paypal_icon" transform="translate(-1)">
    <path id="Path_1769" data-name="Path 1769" d="M21.509,5H11.394c-.764,0-1.734.331-2.012,1.906C9.349,7.1,6,28.784,6,29.274a1.318,1.318,0,0,0,1.348,1.349h7.418a.674.674,0,0,0,.665-.564l1.254-7.528h2.126A10.125,10.125,0,0,0,28.925,12.417,7.425,7.425,0,0,0,21.509,5Z" transform="translate(1.743 1.743)" fill="#009ada"/>
    <path id="Path_1770" data-name="Path 1770" d="M14.9,23.951H7.257a1.311,1.311,0,0,1-1.223-.779,1.3,1.3,0,0,0,1.3,1.116h7.418a.674.674,0,0,0,.665-.564l.006-.037A.665.665,0,0,1,14.9,23.951Z" transform="translate(1.755 8.077)" opacity="0.1"/>
    <path id="Path_1771" data-name="Path 1771" d="M16.051,20.321H13.982l-.058.337h2.127A10.125,10.125,0,0,0,26.164,10.544c0-.057-.007-.112-.009-.169A10.121,10.121,0,0,1,16.051,20.321Z" transform="translate(4.505 3.616)" opacity="0.1"/>
    <path id="Path_1772" data-name="Path 1772" d="M20.491,0H7.071a2.186,2.186,0,0,0-2,1.86C5.027,2.023,1,26.186,1,27.089a1.15,1.15,0,0,0,.273.9,1.43,1.43,0,0,0,1.077.328H8.124l1.431-9.44h6.956a11.475,11.475,0,0,0,11.461-11.5A7.458,7.458,0,0,0,20.491,0Z" transform="translate(0 0)" fill="#273691"/>
    <path id="Path_1773" data-name="Path 1773" d="M5.959.337H19.5A7.561,7.561,0,0,1,26.6,5.222,7.494,7.494,0,0,0,19.449,0H6.028a2.186,2.186,0,0,0-2,1.86c0,.008-.016.089-.036.205A2.158,2.158,0,0,1,5.959.337Z" transform="translate(1.042 0)" fill="#fff" opacity="0.2"/>
    <path id="Path_1774" data-name="Path 1774" d="M2.161,20.852a1.43,1.43,0,0,1-1.077-.328c-.02-.021-.029-.044-.047-.065a.887.887,0,0,0,.224.4,1.43,1.43,0,0,0,1.077.328H8.111l.051-.337Z" transform="translate(0.013 7.131)" opacity="0.1"/>
    <path id="Path_1775" data-name="Path 1775" d="M7.344,17.137H14.3A11.473,11.473,0,0,0,25.712,6.663,7.378,7.378,0,0,0,21.041,5H10.927c-.764,0-1.734.331-2.012,1.906Z" transform="translate(2.211 1.743)" opacity="0.2"/>
    <path id="Path_1776" data-name="Path 1776" d="M27.923,8.406c.029-.337.05-.677.049-1.021A7.458,7.458,0,0,0,20.491,0H7.071a2.186,2.186,0,0,0-2,1.86C5.027,2.023,1,26.186,1,27.089a1.15,1.15,0,0,0,.273.9,1.43,1.43,0,0,0,1.077.328H8.123c-.231,1.561-.378,2.595-.378,2.7a1.318,1.318,0,0,0,1.348,1.349h7.418a.674.674,0,0,0,.665-.564l1.254-7.528h2.126A10.125,10.125,0,0,0,30.669,14.16,7.4,7.4,0,0,0,27.923,8.406Z" fill="url(#linear-gradient)"/>
  </g>
</svg>
