<svg xmlns="http://www.w3.org/2000/svg" width="16.271" height="17.487" viewBox="0 0 16.271 17.487">
  <g id="_3844474_gear_setting_settings_wheel_icon" data-name="3844474_gear_setting_settings_wheel_icon" transform="translate(-2.975 -2)">
    <path id="XMLID_224_" d="M2.276-1A3.276,3.276,0,1,1-1,2.276,3.28,3.28,0,0,1,2.276-1Zm0,5.242A1.966,1.966,0,1,0,.31,2.276,1.968,1.968,0,0,0,2.276,4.242Z" transform="translate(8.833 8.467)" fill="#fff"/>
    <path id="XMLID_242_" d="M10.485,2h1.249a1.876,1.876,0,0,1,1.874,1.874v.38A1.255,1.255,0,0,0,14.86,5.5a1.231,1.231,0,0,0,.622-.17l.328-.19a1.876,1.876,0,0,1,.936-.251h0a1.879,1.879,0,0,1,1.623.937l.624,1.081a1.873,1.873,0,0,1-.686,2.559l-.328.19a1.249,1.249,0,0,0,0,2.163l.329.19a1.876,1.876,0,0,1,.686,2.559l-.625,1.082a1.873,1.873,0,0,1-2.559.686l-.329-.19a1.229,1.229,0,0,0-.621-.17,1.255,1.255,0,0,0-1.252,1.252v.38a1.876,1.876,0,0,1-1.874,1.874H10.485a1.876,1.876,0,0,1-1.874-1.874v-.38a1.231,1.231,0,0,0-.379-.9,1.275,1.275,0,0,0-.873-.354,1.23,1.23,0,0,0-.622.17l-.328.19a1.873,1.873,0,0,1-2.56-.686l-.624-1.081a1.876,1.876,0,0,1,.686-2.559l.328-.19a1.249,1.249,0,0,0,0-2.163l-.329-.19a1.876,1.876,0,0,1-.686-2.559L3.85,5.831a1.873,1.873,0,0,1,2.559-.686l.329.19a1.23,1.23,0,0,0,.621.17A1.255,1.255,0,0,0,8.611,4.253v-.38A1.876,1.876,0,0,1,10.485,2ZM14.86,6.754a2.5,2.5,0,0,1-2.5-2.5v-.38a.625.625,0,0,0-.625-.625H10.485a.625.625,0,0,0-.625.625v.38A2.494,2.494,0,0,1,6.113,6.417l-.329-.19a.616.616,0,0,0-.311-.084.627.627,0,0,0-.542.312L4.307,7.537a.625.625,0,0,0,.228.853l.329.19a2.5,2.5,0,0,1,0,4.327l-.328.19a.625.625,0,0,0-.229.853l.624,1.081a.627.627,0,0,0,.542.312.616.616,0,0,0,.312-.084l.328-.19a2.5,2.5,0,0,1,1.246-.338,2.535,2.535,0,0,1,1.737.7,2.469,2.469,0,0,1,.764,1.8v.38a.625.625,0,0,0,.625.625h1.249a.625.625,0,0,0,.625-.625v-.38a2.494,2.494,0,0,1,3.747-2.163l.329.19a.616.616,0,0,0,.311.084.627.627,0,0,0,.542-.312l.625-1.082a.624.624,0,0,0-.228-.853l-.329-.19a2.5,2.5,0,0,1,0-4.327l.328-.19a.624.624,0,0,0,.229-.853l-.625-1.082a.627.627,0,0,0-.542-.312.616.616,0,0,0-.312.084l-.328.19A2.5,2.5,0,0,1,14.86,6.754Z" transform="translate(0)" fill="#fff"/>
  </g>
</svg>
