<svg id="race-car" xmlns="http://www.w3.org/2000/svg" width="53" height="19.874" viewBox="0 0 53 19.874">
  <path id="Path_1766" data-name="Path 1766" d="M.826,31.594v-.5a4.787,4.787,0,0,1,4.007-4.739c.014,0,.026,0,.039,0s.022-.009.036-.01l7.126-.523a17.044,17.044,0,0,1,11.98-5c.266,0,.524.017.785.027.016,0,.027-.009.043-.009s.039.011.06.012a25.031,25.031,0,0,1,12.31,4.111H37.8l.491-.828h-.2a.827.827,0,0,1-.828-.828V20.828A.827.827,0,0,1,38.094,20h3.313a.827.827,0,0,1,.828.828v2.484a.827.827,0,0,1-.828.828H40.22l-.491.828h.846a.827.827,0,0,1,.828.828v7.948c0,.016-.008.028-.009.044a.8.8,0,0,1-.034.17.837.837,0,0,1-.045.142.746.746,0,0,1-.084.123.829.829,0,0,1-.112.134c-.012.01-.017.023-.028.033L38.61,36.379a17.594,17.594,0,0,1-.221.122.819.819,0,0,1-.3.06h-1.12a4.983,4.983,0,0,1-.985,1.658H52.172a.828.828,0,0,1,0,1.656H.828a.828.828,0,0,1,0-1.656h4.6a4.956,4.956,0,0,1-.985-1.658H.828A.827.827,0,0,1,0,35.732v-3.31A.828.828,0,0,1,.826,31.594Zm39.752-9.938H38.922v.828h1.656Zm-38.1,9.437v.569a.827.827,0,0,1-.328,1.588h-.5V34.9H4.149a4.969,4.969,0,0,1,9.938,0h13.24a4.969,4.969,0,0,1,9.938,0H37.8l1.945-1.558V26.625h-2.8c-.033,0-.061-.016-.094-.018a.856.856,0,0,1-.157-.032.746.746,0,0,1-.157-.072c-.026-.016-.055-.019-.081-.037a22.817,22.817,0,0,0-4.154-2.218l-7.132,3.135h0a.816.816,0,0,1-.312.066c-.006,0-.011,0-.017,0h0l-12.36,0-7.393.542A3.135,3.135,0,0,0,2.483,31.094Zm25.134,5.467H13.8a4.983,4.983,0,0,1-.985,1.658H28.6A4.969,4.969,0,0,1,27.616,36.561Zm2.436-13.13a21.527,21.527,0,0,0-4.382-.864v2.79ZM14.575,25.8l9.439,0V22.484A15.449,15.449,0,0,0,14.575,25.8Zm21.033,9.112A3.313,3.313,0,1,0,32.3,38.219,3.317,3.317,0,0,0,35.608,34.907Zm-23.178,0a3.313,3.313,0,1,0-3.313,3.312A3.317,3.317,0,0,0,12.43,34.907Z" transform="translate(0 -20)" fill="#fff"/>
  <path id="Path_1767" data-name="Path 1767" d="M2.484,33.453A2.484,2.484,0,1,1,0,35.938,2.487,2.487,0,0,1,2.484,33.453Zm0,3.313a.828.828,0,1,0-.828-.828A.828.828,0,0,0,2.484,36.766Zm23.178-3.312a2.484,2.484,0,1,1-2.484,2.484A2.487,2.487,0,0,1,25.662,33.453Zm0,3.313a.828.828,0,1,0-.828-.828A.828.828,0,0,0,25.662,36.766Zm18.22-.829a.828.828,0,0,1,0,1.656h-5.8a.828.828,0,0,1,0-1.656Zm1.656-1.655H36.429a.828.828,0,0,1,0-1.656h9.109a.828.828,0,0,1,0,1.656Zm-1.658-4.968a.828.828,0,0,1,0,1.656h-.823a.828.828,0,0,1,0-1.656Zm-2.488.828a.827.827,0,0,1-.828.828H36.426a.828.828,0,0,1,0-1.656h4.139A.827.827,0,0,1,41.393,30.142ZM40.573,26h4.965a.828.828,0,0,1,0,1.656H40.573a.828.828,0,1,1,0-1.656Z" transform="translate(6.633 -21.032)" fill="#fff"/>
</svg>
