<svg xmlns="http://www.w3.org/2000/svg" width="52" height="16.836" viewBox="0 0 52 16.836">
  <g id="_294654_visa_icon" data-name="294654_visa_icon" transform="translate(-25.009 -181.864)">
    <g id="形状_1_3_" transform="translate(29.554 181.864)">
      <g id="形状_1" transform="translate(0 0)">
        <g id="Group_14328" data-name="Group 14328">
          <path id="Path_1497" data-name="Path 1497" d="M81.773,182.155,79.126,198.42H83.36l2.647-16.265Zm-6.209,0-4.037,11.187-.478-2.409h0l-.105-.54a13.488,13.488,0,0,0-3.757-4.762,16.94,16.94,0,0,0-1.884-1.3l3.669,14.092h4.412l6.737-16.265Zm16.526,4.515c0-1.839,4.124-1.6,5.936-.6l.6-3.493a12.223,12.223,0,0,0-3.809-.709c-2.1,0-7.092.919-7.092,5.384,0,4.2,5.857,4.255,5.857,6.461s-5.253,1.812-6.986.42l-.63,3.651a11.861,11.861,0,0,0,4.78.919c2.889,0,7.249-1.5,7.249-5.568C98,188.9,92.089,188.509,92.089,186.671Zm17.279-4.515h-3.4a1.946,1.946,0,0,0-1.955,1.212L97.694,198.42h4.413l.883-2.416h5.383l.5,2.416h3.888Zm-5.157,10.511,2.225-6.087,1.252,6.087Z" transform="translate(-65.303 -181.864)" fill="#005bac" fill-rule="evenodd"/>
        </g>
      </g>
    </g>
    <g id="形状_1_2_" transform="translate(25.009 182.218)">
      <g id="形状_1_1_" transform="translate(0 0)">
        <g id="Group_14329" data-name="Group 14329">
          <path id="Path_1498" data-name="Path 1498" d="M33.933,186.475a1.836,1.836,0,0,0-2.046-1.468h-6.8l-.08.276a16.845,16.845,0,0,1,6.4,3.162,12.7,12.7,0,0,1,3.973,5.359Z" transform="translate(-25.009 -185.007)" fill="#f6ac1d" fill-rule="evenodd"/>
        </g>
      </g>
    </g>
  </g>
</svg>
