<svg xmlns="http://www.w3.org/2000/svg" width="24" height="17.143" viewBox="0 0 24 17.143">
  <path id="_134226_back_arrow_left_icon" data-name="134226_back_arrow_left_icon" d="M24.286,12.857H7.829l3.96-3.96a1.625,1.625,0,0,0,.5-1.183A1.734,1.734,0,0,0,10.571,6a1.617,1.617,0,0,0-1.183.5L2.567,13.318A1.643,1.643,0,0,0,2,14.571a1.554,1.554,0,0,0,.554,1.24l6.835,6.834a1.617,1.617,0,0,0,1.183.5,1.734,1.734,0,0,0,1.714-1.714,1.625,1.625,0,0,0-.5-1.183l-3.96-3.96H24.286a1.714,1.714,0,0,0,0-3.429Z" transform="translate(-2 -6)" fill="#0f172a"/>
</svg>
