<svg xmlns="http://www.w3.org/2000/svg" width="24" height="24" viewBox="0 0 24 24">
  <g id="vuesax_linear_calendar" data-name="vuesax/linear/calendar" transform="translate(-492 -188)">
    <g id="calendar">
      <path id="Vector" d="M0,3.75A.75.75,0,0,1-.75,3V0A.75.75,0,0,1,0-.75.75.75,0,0,1,.75,0V3A.75.75,0,0,1,0,3.75Z" transform="translate(500 190)" fill="#b0b0b0"/>
      <path id="Vector-2" data-name="Vector" d="M0,3.75A.75.75,0,0,1-.75,3V0A.75.75,0,0,1,0-.75.75.75,0,0,1,.75,0V3A.75.75,0,0,1,0,3.75Z" transform="translate(508 190)" fill="#b0b0b0"/>
      <path id="Vector-3" data-name="Vector" d="M17,.75H0A.75.75,0,0,1-.75,0,.75.75,0,0,1,0-.75H17a.75.75,0,0,1,.75.75A.75.75,0,0,1,17,.75Z" transform="translate(495.5 197.09)" fill="#b0b0b0"/>
      <path id="Vector-4" data-name="Vector" d="M5-.75h8A5.686,5.686,0,0,1,17.362.865,5.869,5.869,0,0,1,18.75,5v8.5a5.869,5.869,0,0,1-1.388,4.135A5.686,5.686,0,0,1,13,19.25H5A5.686,5.686,0,0,1,.638,17.635,5.869,5.869,0,0,1-.75,13.5V5A5.869,5.869,0,0,1,.638.865,5.686,5.686,0,0,1,5-.75Zm8,18.5a4.271,4.271,0,0,0,3.263-1.135A4.442,4.442,0,0,0,17.25,13.5V5a4.442,4.442,0,0,0-.987-3.115A4.271,4.271,0,0,0,13,.75H5A4.271,4.271,0,0,0,1.737,1.885,4.442,4.442,0,0,0,.75,5v8.5a4.442,4.442,0,0,0,.987,3.115A4.271,4.271,0,0,0,5,17.75Z" transform="translate(495 191.5)" fill="#b0b0b0"/>
      <path id="Vector-5" data-name="Vector" d="M0,0H24V24H0Z" transform="translate(492 188)" fill="none" opacity="0"/>
      <path id="Vector-6" data-name="Vector" d="M.5,1.5H.495a1,1,0,1,1,0-2H.5a1,1,0,0,1,0,2Z" transform="translate(507.2 201.2)" fill="#b0b0b0"/>
      <path id="Vector-7" data-name="Vector" d="M.5,1.5H.495a1,1,0,1,1,0-2H.5a1,1,0,0,1,0,2Z" transform="translate(507.2 204.2)" fill="#b0b0b0"/>
      <path id="Vector-8" data-name="Vector" d="M.5,1.5H.495a1,1,0,1,1,0-2H.5a1,1,0,0,1,0,2Z" transform="translate(503.501 201.2)" fill="#b0b0b0"/>
      <path id="Vector-9" data-name="Vector" d="M.5,1.5H.495a1,1,0,1,1,0-2H.5a1,1,0,0,1,0,2Z" transform="translate(503.501 204.2)" fill="#b0b0b0"/>
      <path id="Vector-10" data-name="Vector" d="M.5,1.5H.495a1,1,0,1,1,0-2H.5a1,1,0,0,1,0,2Z" transform="translate(499.8 201.2)" fill="#b0b0b0"/>
      <path id="Vector-11" data-name="Vector" d="M.5,1.5H.495a1,1,0,1,1,0-2H.5a1,1,0,0,1,0,2Z" transform="translate(499.8 204.2)" fill="#b0b0b0"/>
    </g>
  </g>
</svg>
