<svg xmlns="http://www.w3.org/2000/svg" width="24" height="24" viewBox="0 0 24 24">
  <g id="vuesax_bold_calendar" data-name="vuesax/bold/calendar" transform="translate(-492 -188)">
    <g id="calendar">
      <path id="Vector" d="M0,0H24V24H0Z" transform="translate(492 188)" fill="none" opacity="0"/>
      <path id="Vector-2" data-name="Vector" d="M13.711,2.31V.75a.75.75,0,0,0-1.5,0v1.5h-6.5V.75a.75.75,0,0,0-1.5,0V2.31A4.248,4.248,0,0,0,0,6.56a.5.5,0,0,0,.5.53h16.92a.5.5,0,0,0,.5-.53A4.248,4.248,0,0,0,13.711,2.31Z" transform="translate(495.039 189.25)" fill="#b0b0b0"/>
      <path id="Vector-3" data-name="Vector" d="M17,0H1A1,1,0,0,0,0,1V7.16c0,3,1.5,5,5,5h8c3.5,0,5-2,5-5V1A1,1,0,0,0,17,0ZM6.21,8.37a1.576,1.576,0,0,1-.15.12.757.757,0,0,1-.18.09.636.636,0,0,1-.18.06,1.355,1.355,0,0,1-.2.02,1,1,0,0,1-.38-.08,1.032,1.032,0,0,1-.33-.21,1.014,1.014,0,0,1,0-1.42,1.032,1.032,0,0,1,.33-.21.956.956,0,0,1,.58-.06.636.636,0,0,1,.18.06.757.757,0,0,1,.18.09l.15.12a1.014,1.014,0,0,1,0,1.42Zm0-3.5a1.014,1.014,0,0,1-1.42,0,1.014,1.014,0,0,1,0-1.42,1,1,0,0,1,1.09-.21.933.933,0,0,1,.33.21,1.014,1.014,0,0,1,0,1.42Zm3.5,3.5A1,1,0,0,1,8.29,6.95,1,1,0,0,1,9.71,8.37Zm0-3.5-.15.12a.757.757,0,0,1-.18.09.636.636,0,0,1-.18.06,1.355,1.355,0,0,1-.2.02.99.99,0,0,1-1-1,1.052,1.052,0,0,1,.29-.71.933.933,0,0,1,.33-.21,1,1,0,0,1,1.09.21,1.014,1.014,0,0,1,0,1.42Zm3.5,3.5a1,1,0,0,1-1.42-1.42,1,1,0,0,1,1.42,1.42Zm0-3.5-.15.12a.757.757,0,0,1-.18.09.636.636,0,0,1-.18.06,1.5,1.5,0,0,1-.2.02.99.99,0,0,1-1-1,1.052,1.052,0,0,1,.29-.71,1.032,1.032,0,0,1,.33-.21.956.956,0,0,1,.58-.06.636.636,0,0,1,.18.06.757.757,0,0,1,.18.09l.15.12a1.014,1.014,0,0,1,0,1.42Z" transform="translate(495 197.84)" fill="#b0b0b0"/>
    </g>
  </g>
</svg>
