<svg xmlns="http://www.w3.org/2000/svg" width="24" height="24" viewBox="0 0 24 24">
  <g id="vuesax_bold_card" data-name="vuesax/bold/card" transform="translate(-492 -508)">
    <g id="card">
      <path id="Vector" d="M20,4.15a1.2,1.2,0,0,1-1.2,1.2H1.2A1.2,1.2,0,0,1,0,4.15V4.14A4.135,4.135,0,0,1,4.14,0H15.85A4.153,4.153,0,0,1,20,4.15Z" transform="translate(494 511.4)" fill="#8000ff"/>
      <path id="Vector-2" data-name="Vector" d="M0,1.2V6.21a4.135,4.135,0,0,0,4.14,4.14H15.85A4.153,4.153,0,0,0,20,6.2v-5A1.2,1.2,0,0,0,18.8,0H1.2A1.2,1.2,0,0,0,0,1.2ZM6,7H4A.75.75,0,0,1,4,5.5H6A.75.75,0,0,1,6,7Zm6.5,0h-4a.75.75,0,0,1,0-1.5h4a.75.75,0,0,1,0,1.5Z" transform="translate(494 518.25)" fill="#8000ff"/>
      <path id="Vector-3" data-name="Vector" d="M0,0H24V24H0Z" transform="translate(492 508)" fill="none" opacity="0"/>
    </g>
  </g>
</svg>
