<svg xmlns="http://www.w3.org/2000/svg" width="24.097" height="24.064" viewBox="0 0 24.097 24.064">
  <path id="chat_1_" data-name="chat (1)" d="M9.225,12.828a1.2,1.2,0,1,0,1.2,1.2A1.2,1.2,0,0,0,9.225,12.828Zm4.813,0a1.2,1.2,0,1,0,1.2,1.2A1.2,1.2,0,0,0,14.037,12.828Zm4.813,0a1.2,1.2,0,1,0,1.2,1.2A1.2,1.2,0,0,0,18.85,12.828ZM14.037,2A12.031,12.031,0,0,0,2.006,14.031a11.9,11.9,0,0,0,2.719,7.616L2.319,24.054a1.173,1.173,0,0,0,.89,2.009H14.037A12.031,12.031,0,1,0,14.037,2Zm0,21.656H6.108l1.119-1.119a1.177,1.177,0,0,0,0-1.7,9.625,9.625,0,1,1,6.81,2.815Z" transform="translate(-1.972 -2)" fill="#0f172a"/>
</svg>
