<svg xmlns="http://www.w3.org/2000/svg" width="24" height="24" viewBox="0 0 24 24">
  <g id="vuesax_linear_clock" data-name="vuesax/linear/clock" transform="translate(-172 -188)">
    <g id="clock">
      <path id="Vector" d="M10-.75A10.75,10.75,0,1,1-.75,10,10.762,10.762,0,0,1,10-.75Zm0,20A9.25,9.25,0,1,0,.75,10,9.26,9.26,0,0,0,10,19.25Z" transform="translate(174 190)" fill="#b0b0b0"/>
      <path id="Vector-2" data-name="Vector" d="M4.079,8.42A.746.746,0,0,1,3.7,8.314L.6,6.464A2.958,2.958,0,0,1-.75,4.1V0A.75.75,0,0,1,0-.75.75.75,0,0,1,.75,0V4.1a1.476,1.476,0,0,0,.612,1.075l3.1,1.851A.75.75,0,0,1,4.079,8.42Z" transform="translate(183.63 195.51)" fill="#b0b0b0"/>
      <path id="Vector-3" data-name="Vector" d="M0,0H24V24H0Z" transform="translate(172 188)" fill="none" opacity="0"/>
    </g>
  </g>
</svg>
