<svg xmlns="http://www.w3.org/2000/svg" width="21" height="21" viewBox="0 0 21 21">
  <g id="_5546701_uae_asia_circle_country_flag_icon" data-name="5546701_uae_asia_circle_country_flag_icon" transform="translate(-14 -14)">
    <g id="Group_14156" data-name="Group 14156" transform="translate(19.88 14)">
      <path id="Path_777" data-name="Path 777" d="M56.511,20.993H42V15.071A10.311,10.311,0,0,1,46.62,14a10.5,10.5,0,0,1,9.093,5.25A10.088,10.088,0,0,1,56.511,20.993Z" transform="translate(-42 -14)" fill="#038a45"/>
      <path id="Path_778" data-name="Path 778" d="M57.12,50.807a10.173,10.173,0,0,1-.609,3.507H42V47.3H56.511A10.261,10.261,0,0,1,57.12,50.807Z" transform="translate(-42 -40.307)" fill="#fffffb"/>
      <path id="Path_779" data-name="Path 779" d="M56.511,80.7a10.088,10.088,0,0,1-.8,1.743,10.458,10.458,0,0,1-9.093,5.25A10.311,10.311,0,0,1,42,86.622V80.7Z" transform="translate(-42 -66.693)" fill="#020202"/>
    </g>
    <path id="Path_780" data-name="Path 780" d="M19.88,19.1V37.958a10.6,10.6,0,0,1-4.473-4.179A10.675,10.675,0,0,1,14,28.529a10.78,10.78,0,0,1,.588-3.507,10.088,10.088,0,0,1,.8-1.743A10.778,10.778,0,0,1,19.88,19.1Z" transform="translate(0 -4.029)" fill="#ec2025"/>
  </g>
</svg>
