<svg xmlns="http://www.w3.org/2000/svg" width="11.794" height="11.331" viewBox="0 0 11.794 11.331">
  <path id="_9004787_star_favorite_award_like_icon" data-name="9004787_star_favorite_award_like_icon" d="M7.435,12.082l1.877.986a1.143,1.143,0,0,0,1.656-1.207l-.358-2.088a1.142,1.142,0,0,1,.329-1.012l1.517-1.479a1.143,1.143,0,0,0-.633-1.95l-2.1-.3A1.144,1.144,0,0,1,8.868,4.4l-.94-1.9a1.143,1.143,0,0,0-2.05,0l-.938,1.9a1.144,1.144,0,0,1-.858.625l-2.1.3a1.143,1.143,0,0,0-.633,1.95L2.869,8.764A1.142,1.142,0,0,1,3.2,9.776l-.36,2.085A1.143,1.143,0,0,0,4.5,13.068l1.877-.986a1.145,1.145,0,0,1,1.062,0Z" transform="translate(-1.007 -1.868)" fill="#d4dce1"/>
</svg>
