<svg xmlns="http://www.w3.org/2000/svg" width="18.586" height="17.326" viewBox="0 0 18.586 17.326">
  <g id="_9035414_language_outline_icon" data-name="9035414_language_outline_icon" transform="translate(-47.28 -63.028)">
    <path id="Line_32" data-name="Line 32" d="M11.489.6H-.2A.8.8,0,0,1-1-.2.8.8,0,0,1-.2-1H11.489a.8.8,0,0,1,.8.8A.8.8,0,0,1,11.489.6Z" transform="translate(48.28 66.043)" fill="#d4dce1"/>
    <path id="Line_33" data-name="Line 33" d="M-.2,2.616a.8.8,0,0,1-.8-.8V-.2A.8.8,0,0,1-.2-1a.8.8,0,0,1,.8.8V1.816A.8.8,0,0,1-.2,2.616Z" transform="translate(54.125 64.028)" fill="#d4dce1"/>
    <path id="Path_1027" data-name="Path 1027" d="M279.666,233.777a.8.8,0,0,1-.736-.485l-3.2-7.46-3.2,7.46a.8.8,0,0,1-1.471-.63L275,223.485a.8.8,0,0,1,1.471,0l3.933,9.176a.8.8,0,0,1-.735,1.116Z" transform="translate(-214.6 -153.423)" fill="#d4dce1"/>
    <path id="Line_34" data-name="Line 34" d="M5.249.6H-.2A.8.8,0,0,1-1-.2.8.8,0,0,1-.2-1H5.249a.8.8,0,0,1,.8.8A.8.8,0,0,1,5.249.6Z" transform="translate(58.609 77.131)" fill="#d4dce1"/>
    <path id="Path_1028" data-name="Path 1028" d="M79.8,123.743a.8.8,0,0,1-.407-1.489,20.052,20.052,0,0,0,4.662-4.2,19.38,19.38,0,0,0,3.216-6.453.8.8,0,0,1,1.549.4,20.77,20.77,0,0,1-3.527,7.065,21.273,21.273,0,0,1-5.088,4.566A.8.8,0,0,1,79.8,123.743Z" transform="translate(-30.465 -46.011)" fill="#d4dce1"/>
    <path id="Path_1029" data-name="Path 1029" d="M133.043,183.155a.8.8,0,0,1-.488-.167,19.045,19.045,0,0,1-3.095-3.218,25.942,25.942,0,0,1-2.372-3.605.8.8,0,1,1,1.424-.731,24.882,24.882,0,0,0,2.216,3.359,17.8,17.8,0,0,0,2.805,2.928.8.8,0,0,1-.49,1.433Z" transform="translate(-76.499 -107.39)" fill="#d4dce1"/>
  </g>
</svg>
