<svg xmlns="http://www.w3.org/2000/svg" width="34.442" height="33.089" viewBox="0 0 34.442 33.089">
  <path id="_9004787_star_favorite_award_like_icon" data-name="9004787_star_favorite_award_like_icon" d="M19.778,31.695l5.482,2.879A3.338,3.338,0,0,0,30.1,31.05l-1.045-6.1A3.334,3.334,0,0,1,30.011,22l4.429-4.318a3.338,3.338,0,0,0-1.85-5.693l-6.122-.89A3.341,3.341,0,0,1,23.963,9.27L21.217,3.729a3.338,3.338,0,0,0-5.986,0L12.493,9.279a3.341,3.341,0,0,1-2.506,1.826L3.865,12a3.338,3.338,0,0,0-1.85,5.693l4.429,4.318a3.334,3.334,0,0,1,.96,2.955L6.352,31.05A3.338,3.338,0,0,0,11.2,34.573l5.482-2.879a3.344,3.344,0,0,1,3.1,0Z" transform="translate(-1.007 -1.868)" fill="#ffdf00"/>
</svg>
