<svg xmlns="http://www.w3.org/2000/svg" width="17.939" height="17.942" viewBox="0 0 17.939 17.942">
  <g id="_2703068_call_phone_contact_telephone_icon" data-name="2703068_call_phone_contact_telephone_icon" transform="translate(-1.003 -1)">
    <path id="Path_771" data-name="Path 771" d="M13.883,11.9a.753.753,0,0,0-.549.217l-1.1,1.1a.284.284,0,0,1-.165.032,6.082,6.082,0,0,1-3.192-1.97C7.135,9.548,6.752,8.109,6.935,7.927l1.1-1.1c.728-.728-.56-2.234-1.393-3.067-.378-.378-1.675-1.61-2.517-1.61a.753.753,0,0,0-.549.217L1.37,4.572c-.663.663-.427,1.95.7,3.825a29.766,29.766,0,0,0,4.343,5.342c2.7,2.7,6.268,5.416,8.172,5.416h0a1.35,1.35,0,0,0,1-.369l2.21-2.21c.728-.728-.56-2.234-1.393-3.066C16.023,13.132,14.725,11.9,13.883,11.9ZM14.8,18a.339.339,0,0,1-.206.042c-1.111,0-4.077-1.784-7.382-5.089A28.668,28.668,0,0,1,3.029,7.821c-1.039-1.726-.951-2.38-.87-2.46L4.226,3.295a6.105,6.105,0,0,1,1.631,1.25,6.112,6.112,0,0,1,1.25,1.631l-.962.962c-1.03,1.031.283,3.282,1.938,4.936,1.416,1.417,2.941,2.3,3.982,2.3a1.3,1.3,0,0,0,.954-.359l.962-.962a6.112,6.112,0,0,1,1.631,1.25,6.117,6.117,0,0,1,1.25,1.631Z" transform="translate(0 -0.214)" fill="#fff"/>
    <path id="Path_772" data-name="Path 772" d="M21.185,3.061A6.991,6.991,0,0,0,16.206,1h0a.61.61,0,1,0,0,1.22h0a5.815,5.815,0,0,1,5.819,5.82.61.61,0,1,0,1.22,0A6.991,6.991,0,0,0,21.185,3.061Z" transform="translate(-4.303 0)" fill="#fff"/>
    <path id="Path_773" data-name="Path 773" d="M15.216,5.186h0A4.207,4.207,0,0,1,19.428,9.4a.61.61,0,1,0,1.22,0,5.427,5.427,0,0,0-5.431-5.433h0a.61.61,0,0,0,0,1.22Z" transform="translate(-4.118 -0.553)" fill="#fff"/>
    <path id="Path_774" data-name="Path 774" d="M14.226,8.152h0a2.6,2.6,0,0,1,2.6,2.6.61.61,0,1,0,1.22,0,3.821,3.821,0,0,0-3.823-3.825h0a.61.61,0,0,0,0,1.22Z" transform="translate(-3.428 -1.612)" fill="#fff"/>
  </g>
</svg>
