<svg xmlns="http://www.w3.org/2000/svg" width="17.156" height="17.156" viewBox="0 0 17.156 17.156">
  <g id="_icons" transform="translate(0)">
    <g id="Group_14149" data-name="Group 14149" transform="translate(0)">
      <path id="Path_775" data-name="Path 775" d="M12.928,10.709h4.154L15.908,9.535a.894.894,0,0,1,1.264-1.264l2.709,2.709c.09.09.181.181.181.271a.989.989,0,0,1,0,.722c-.09.09-.09.181-.181.271l-2.709,2.709a.873.873,0,0,1-1.264,0,.873.873,0,0,1,0-1.264l1.174-1.174H12.928a.9.9,0,0,1,0-1.806Z" transform="translate(-12.025 -3.034)" fill="#fff"/>
      <path id="Path_776" data-name="Path 776" d="M4.49,17.392a7.14,7.14,0,0,0,3.385.858,6.672,6.672,0,1,0,0-13.343,7.14,7.14,0,0,0-3.385.858.986.986,0,0,1-1.354-.381.957.957,0,0,1,.387-1.334A9.758,9.758,0,0,1,7.876,3a8.579,8.579,0,1,1,0,17.156,8.729,8.729,0,0,1-4.352-1.144,1.047,1.047,0,0,1-.387-1.334A1.051,1.051,0,0,1,4.49,17.392Z" transform="translate(0.575 -3)" fill="#fff"/>
    </g>
  </g>
</svg>
