<svg xmlns="http://www.w3.org/2000/svg" width="41.773" height="20.009" viewBox="0 0 41.773 20.009">
  <g id="Layer_x0020_1" transform="translate(-7.59 -225.702)">
    <path id="Path_1768" data-name="Path 1768" d="M13,241.17H8.777a1.038,1.038,0,0,1-1.037-1.114,7.193,7.193,0,0,1,7.175-7.175h2.112v-2.718a1.038,1.038,0,0,1,.76-1l8.626-3.234a1.033,1.033,0,0,1,.721,1.936L19.1,230.877v2H30.662v-3.03a1.037,1.037,0,0,1,2.074,0v3.03h1.608v-4.948a1.037,1.037,0,0,1,2.074,0v4.948h2.061l2.8-3.345a1.035,1.035,0,0,1,1.368-.2l6.069,3.7a1.036,1.036,0,0,1,.5.883l0,6.215a1.037,1.037,0,0,1-1.037,1.037H43.954a4.316,4.316,0,0,1-1.477,2.318h3.834a1.037,1.037,0,0,1,0,2.074H10.641a1.037,1.037,0,0,1,0-2.074h3.835A4.311,4.311,0,0,1,13,241.17Zm24.063,2.318a4.314,4.314,0,0,1-1.477-2.318H21.369a4.314,4.314,0,0,1-1.477,2.318Zm6.893-4.391h3.185v-4.6l-4.845-2.95-2.5,2.989a1.036,1.036,0,0,1-.832.419H14.915a5.125,5.125,0,0,0-5.01,4.141H13a4.312,4.312,0,0,1,8.371,0H35.584a4.312,4.312,0,0,1,8.371,0Zm-26.77-1.2a2.237,2.237,0,1,0,2.237,2.237A2.237,2.237,0,0,0,17.184,237.9Zm22.585,0a2.237,2.237,0,1,0,2.237,2.237A2.237,2.237,0,0,0,39.769,237.9Z" fill="#fff" stroke="#8000ff" stroke-width="0.3"/>
  </g>
</svg>
