<svg xmlns="http://www.w3.org/2000/svg" width="42" height="42" viewBox="0 0 42 42">
  <g id="Group_14399" data-name="Group 14399" transform="translate(-286 -761)">
    <circle id="Ellipse_75" data-name="Ellipse 75" cx="21" cy="21" r="21" transform="translate(286 761)" fill="#8000ff"/>
    <g id="_8666611_send_icon" data-name="8666611_send_icon" transform="translate(293 771)">
      <path id="Line_33" data-name="Line 33" d="M.056,12.722a1.052,1.052,0,0,1-.746-.309,1.056,1.056,0,0,1,0-1.493L10.92-.691A1.056,1.056,0,1,1,12.413.8L.8,12.413A1.052,1.052,0,0,1,.056,12.722Z" transform="translate(11.5 2)" fill="#fff"/>
      <path id="Path_1027" data-name="Path 1027" d="M23.166,1a1.056,1.056,0,0,1,1,1.4L16.774,23.515a1.056,1.056,0,0,1-1.961.08l-4.057-9.129L1.627,10.409a1.056,1.056,0,0,1,.08-1.961L22.818,1.059A1.054,1.054,0,0,1,23.166,1ZM15.661,20.3,21.446,3.776,4.917,9.561,11.984,12.7a1.056,1.056,0,0,1,.536.536Z" transform="translate(0 0)" fill="#fff"/>
    </g>
  </g>
</svg>
