<svg xmlns="http://www.w3.org/2000/svg" width="40" height="40" viewBox="0 0 40 40">
  <g id="_icons" transform="translate(-3 -3)">
    <g id="Group_14149" data-name="Group 14149" transform="translate(3 3)">
      <path id="Path_775" data-name="Path 775" d="M28.817,14.317H19.132l2.737-2.737a2.084,2.084,0,1,0-2.948-2.948L12.6,14.949c-.211.211-.421.421-.421.632a2.307,2.307,0,0,0,0,1.685c.211.211.211.421.421.632l6.317,6.317a2.035,2.035,0,0,0,2.948,0,2.035,2.035,0,0,0,0-2.948l-2.737-2.737h9.686a1.989,1.989,0,0,0,2.106-2.106A1.989,1.989,0,0,0,28.817,14.317Z" transform="translate(9.077 3.577)" fill="#fff"/>
      <path id="Path_776" data-name="Path 776" d="M31.189,36.556a16.647,16.647,0,0,1-7.893,2,15.557,15.557,0,1,1,0-31.111,16.647,16.647,0,0,1,7.893,2,2.3,2.3,0,0,0,3.157-.889,2.232,2.232,0,0,0-.9-3.111A22.75,22.75,0,0,0,23.3,3a20,20,0,1,0,0,40,20.353,20.353,0,0,0,10.148-2.667,2.44,2.44,0,0,0,.9-3.111A2.45,2.45,0,0,0,31.189,36.556Z" transform="translate(-3 -3)" fill="#fff"/>
    </g>
  </g>
</svg>
