<svg xmlns="http://www.w3.org/2000/svg" width="19.331" height="19.331" viewBox="0 0 19.331 19.331">
  <g id="vuesax_bold_location" data-name="vuesax/bold/location" transform="translate(-428 -188)">
    <path id="Vector" d="M14.1,5.4A6.948,6.948,0,0,0,7.152,0H7.144A6.946,6.946,0,0,0,.2,5.389c-.942,4.156,1.6,7.676,3.906,9.891a4.367,4.367,0,0,0,6.081,0C12.493,13.065,15.038,9.553,14.1,5.4ZM7.152,9.432A2.537,2.537,0,1,1,9.69,6.895,2.537,2.537,0,0,1,7.152,9.432Z" transform="translate(430.513 189.41)" fill="#8000ff"/>
    <path id="Vector-2" data-name="Vector" d="M0,0H19.331V19.331H0Z" transform="translate(428 188)" fill="none" opacity="0"/>
    <path id="Vector-3" data-name="Vector" d="M0,0H19.331V19.331H0Z" transform="translate(447.331 207.331) rotate(180)" fill="none" opacity="0"/>
  </g>
</svg>
