<svg xmlns="http://www.w3.org/2000/svg" width="40" height="40.005" viewBox="0 0 40 40.005">
  <g id="_2703068_call_phone_contact_telephone_icon" data-name="2703068_call_phone_contact_telephone_icon" transform="translate(-1.003 -1)">
    <path id="Path_771" data-name="Path 771" d="M29.722,23.9a1.679,1.679,0,0,0-1.225.483l-2.462,2.463a.634.634,0,0,1-.368.071c-1.356,0-4.236-1.509-7.118-4.392-3.873-3.872-4.727-7.079-4.321-7.486l2.463-2.462c1.624-1.624-1.249-4.982-3.107-6.839-.843-.843-3.736-3.59-5.612-3.59a1.679,1.679,0,0,0-1.225.483L1.821,7.555C.343,9.033.87,11.9,3.39,16.085A66.37,66.37,0,0,0,13.075,28C19.086,34.007,27.051,40.073,31.3,40.073h0a3.01,3.01,0,0,0,2.219-.823l4.927-4.927c1.624-1.622-1.249-4.98-3.107-6.837C34.493,26.643,31.6,23.9,29.722,23.9ZM31.756,37.49a.756.756,0,0,1-.46.094c-2.478,0-9.09-3.977-16.461-11.348A63.923,63.923,0,0,1,5.521,14.8C3.2,10.952,3.4,9.5,3.581,9.315L8.189,4.708A13.613,13.613,0,0,1,11.825,7.5a13.628,13.628,0,0,1,2.787,3.637l-2.144,2.144c-2.3,2.3.63,7.317,4.321,11.006,3.157,3.159,6.559,5.121,8.878,5.121a2.9,2.9,0,0,0,2.128-.8l2.144-2.144a13.628,13.628,0,0,1,3.637,2.788,13.639,13.639,0,0,1,2.787,3.637Z" transform="translate(0 0.932)" fill="#fff"/>
    <path id="Path_772" data-name="Path 772" d="M28.059,5.595A15.588,15.588,0,0,0,16.959,1h0a1.36,1.36,0,1,0,0,2.721h0A12.965,12.965,0,0,1,29.933,16.7a1.36,1.36,0,0,0,2.721,0A15.589,15.589,0,0,0,28.059,5.595Z" transform="translate(8.35 0)" fill="#fff"/>
    <path id="Path_773" data-name="Path 773" d="M15.966,6.686h0a9.379,9.379,0,0,1,9.389,9.393,1.36,1.36,0,0,0,2.721,0A12.1,12.1,0,0,0,15.969,3.966h0a1.36,1.36,0,0,0,0,2.721Z" transform="translate(7.545 2.413)" fill="#fff"/>
    <path id="Path_774" data-name="Path 774" d="M14.976,9.652h0a5.8,5.8,0,0,1,5.8,5.808,1.36,1.36,0,1,0,2.721,0A8.521,8.521,0,0,0,14.98,6.932h0a1.36,1.36,0,0,0,0,2.721Z" transform="translate(7.867 3.7)" fill="#fff"/>
  </g>
</svg>
