<svg xmlns="http://www.w3.org/2000/svg" width="18.138" height="18.138" viewBox="0 0 18.138 18.138">
  <g id="vuesax_outline_location" data-name="vuesax/outline/location" transform="translate(-428 -188)">
    <g id="location" transform="translate(428 188)">
      <path id="Vector" d="M2.925,5.842A2.921,2.921,0,1,1,5.849,2.925,2.927,2.927,0,0,1,2.925,5.842Zm0-4.708A1.791,1.791,0,1,0,4.716,2.925,1.795,1.795,0,0,0,2.925,1.134Z" transform="translate(6.144 4.867)" fill="#8000ff"/>
      <path id="Vector-2" data-name="Vector" d="M7.086,16.256a4.512,4.512,0,0,1-3.121-1.262C1.736,12.847-.728,9.424.2,5.351A6.889,6.889,0,0,1,7.086,0h.008a6.888,6.888,0,0,1,6.885,5.358c.922,4.073-1.542,7.489-3.771,9.636A4.512,4.512,0,0,1,7.086,16.256Zm0-15.122A5.707,5.707,0,0,0,1.312,5.6C.5,9.159,2.733,12.228,4.759,14.17a3.345,3.345,0,0,0,4.663,0c2.018-1.942,4.255-5.01,3.454-8.57A5.728,5.728,0,0,0,7.086,1.134Z" transform="translate(1.983 0.945)" fill="#8000ff"/>
      <path id="Vector-3" data-name="Vector" d="M0,0H18.138V18.138H0Z" fill="none" opacity="0"/>
    </g>
  </g>
</svg>
