<svg xmlns="http://www.w3.org/2000/svg" width="33.318" height="19.707" viewBox="0 0 33.318 19.707">
  <path id="Shape_7" data-name="Shape 7" d="M220.726,279.6l0-.005-1.442-3.156a1.944,1.944,0,0,0-.452-3.836H201.586a.652.652,0,0,0-.512.248l-5.011,6.364h-5.345a3.251,3.251,0,0,0-3.254,3.241v4.019a3.251,3.251,0,0,0,3.254,3.241h.094a3.909,3.909,0,0,0,7.361,0H208.9a3.909,3.909,0,0,0,7.361,0h1.265a3.251,3.251,0,0,0,3.254-3.241s0-6.625,0-6.632A.652.652,0,0,0,220.726,279.6Zm-29.017.912-.781,1.945h-2.162a1.951,1.951,0,0,1,1.952-1.945Zm-1.121,7.9a1.955,1.955,0,0,1-1.711-1.291h1.934A3.86,3.86,0,0,0,190.588,288.413Zm1-2.588h-2.819v-2.074h2.6a.651.651,0,0,0,.6-.407l1.138-2.834h2.814l.485,4.523a3.9,3.9,0,0,0-4.824.793Zm2.907,5.186a2.593,2.593,0,1,1,2.6-2.593A2.6,2.6,0,0,1,194.493,291.011ZM215.251,273.9h3.579a.648.648,0,1,1,0,1.3h-3.579Zm-.177,2.593h2.8l1.244,2.723h-4.928ZM213.95,273.9v1.843l-1.125,3.473h-6.14l1.569-5.316Zm-12.047,0h5l-1.569,5.316h-7.611Zm-4.1,11.928-.57-5.316h7.931v5.316Zm10.875,2.593H198.4a3.858,3.858,0,0,0-.224-1.3H208.9A3.858,3.858,0,0,0,208.679,288.418Zm3.9,2.593a2.593,2.593,0,1,1,2.6-2.593A2.6,2.6,0,0,1,212.583,291.011Zm4.946-2.593h-1.041a3.857,3.857,0,0,0-.224-1.3h3.106A1.955,1.955,0,0,1,217.529,288.418Zm1.952-2.593h-1.3V283.88h1.3Zm0-3.241h-1.952a.65.65,0,0,0-.651.648v2.593h-1.388a3.907,3.907,0,0,0-5.814,0h-3.21v-5.316h13.015Z" transform="translate(-187.465 -272.601)" fill="#fff"/>
</svg>
