<svg xmlns="http://www.w3.org/2000/svg" width="38.309" height="20.705" viewBox="0 0 38.309 20.705">
  <path id="Union_3" data-name="Union 3" d="M5772.628-175.356h-10.446a3.6,3.6,0,0,1-3.58,3.2,3.6,3.6,0,0,1-3.578-3.2H5749.8a2.8,2.8,0,0,1-2.8-2.8v-2.7c0-.11,0-.219.012-.326a1.22,1.22,0,0,1-.012-.17,1.193,1.193,0,0,1,.119-.521,4.4,4.4,0,0,1,3.845-3.363l4.675-.467a.385.385,0,0,0,.2-.078l5.618-4.213a2.805,2.805,0,0,1,1.681-.56h4.667v-.4a1.2,1.2,0,0,1,1.2-1.2,1.2,1.2,0,0,1,1.2,1.2v.4h4.42a2.8,2.8,0,0,1,1.989.829l3.824,3.854a.4.4,0,0,0,.285.118h1.086a2.8,2.8,0,0,1,2.8,2.8v4.8a2.8,2.8,0,0,1-2.8,2.8h-2.022a3.6,3.6,0,0,1-3.58,3.2A3.6,3.6,0,0,1,5772.628-175.356Zm2.378-.4a1.2,1.2,0,0,0,1.2,1.2,1.2,1.2,0,0,0,1.2-1.2,1.2,1.2,0,0,0-1.2-1.2A1.2,1.2,0,0,0,5775.006-175.757Zm-17.6,0a1.2,1.2,0,0,0,1.2,1.2,1.2,1.2,0,0,0,1.2-1.2,1.2,1.2,0,0,0-1.2-1.2A1.2,1.2,0,0,0,5757.4-175.757Zm24.407-2a.4.4,0,0,0,.4-.4v-4.8a.4.4,0,0,0-.4-.4h-1.086a2.8,2.8,0,0,1-1.989-.827l-3.824-3.856a.4.4,0,0,0-.285-.118h-4.42v2.4h5.2a1.2,1.2,0,0,1,1.2,1.2,1.2,1.2,0,0,1-1.2,1.2h-13.6a1.2,1.2,0,0,1-1.2-1.2,1.2,1.2,0,0,1,1.2-1.2h6v-2.4h-4.667a.4.4,0,0,0-.241.08l-5.617,4.213a2.792,2.792,0,0,1-1.4.546l-4.676.469a1.988,1.988,0,0,0-.86.293h1.059a1.2,1.2,0,0,1,1.2,1.2,1.2,1.2,0,0,1-1.2,1.2h-2v2a.4.4,0,0,0,.4.4h5.808a3.6,3.6,0,0,1,2.994-1.6,3.6,3.6,0,0,1,3,1.6h11.615a3.6,3.6,0,0,1,2.994-1.6,3.6,3.6,0,0,1,2.995,1.6Z" transform="translate(-5746.65 192.51)" fill="#fff" stroke="#8000ff" stroke-width="0.7"/>
</svg>
