<svg xmlns="http://www.w3.org/2000/svg" width="28.458" height="28.458" viewBox="0 0 28.458 28.458">
  <path id="timer" d="M14.229,0A14.229,14.229,0,1,0,28.458,14.229,14.241,14.241,0,0,0,14.229,0Zm0,.889A13.34,13.34,0,1,1,.889,14.229,13.3,13.3,0,0,1,14.229.889Zm5,4.447L9.2,5.363a.861.861,0,0,0-.862.862.885.885,0,0,0,.862.889V10a2.728,2.728,0,0,0,1.7,2.473c.529.212,1.224.315,1.806.5a1.882,1.882,0,0,1,.695.361.567.567,0,0,1,.251.472v.695a.622.622,0,0,1-.25.5,2.438,2.438,0,0,1-.7.333c-.556.185-1.25.288-1.806.5A2.763,2.763,0,0,0,9.2,18.37V21.4a.861.861,0,1,0,0,1.723H19.232a.862.862,0,1,0,0-1.723h-.084V18.37a2.626,2.626,0,0,0-1.556-2.528c-.583-.213-1.25-.343-1.806-.528a1.965,1.965,0,0,1-.667-.333.57.57,0,0,1-.25-.473v-.722a.569.569,0,0,1,.25-.472,2.568,2.568,0,0,1,.667-.361c.556-.186,1.25-.317,1.806-.528a2.605,2.605,0,0,0,1.556-2.5V7.088h.084a.876.876,0,1,0,0-1.751Zm-9.31,4.5h8.587a.186.186,0,0,1,.167.166,1.527,1.527,0,0,1-.639,1.223,5.42,5.42,0,0,1-1.362.667c-.5.159-.994.285-1.418.445a1.586,1.586,0,0,0-.861.583c-.053.08-.2.107-.251.028a2.153,2.153,0,0,0-.944-.583c-.423-.158-.915-.285-1.418-.445a5.217,5.217,0,0,1-1.334-.667,1.5,1.5,0,0,1-.612-1.223c-.052-.106,0-.195.084-.195ZM14.229,13.4c.08,0,.111.031.111.11s-.032.14-.111.14a.136.136,0,0,1-.139-.139c-.027-.08.033-.112.139-.112Zm0,1.167c.08,0,.111.06.111.139s-.032.14-.111.14a.136.136,0,0,1-.139-.14C14.064,14.622,14.123,14.563,14.229,14.563Zm0,1.168c.08,0,.111.059.111.139s-.032.139-.111.139a.136.136,0,0,1-.139-.139c-.027-.053.033-.14.139-.14Zm0,1.194c.08,0,.111.086.111.14s-.032.139-.111.139a.136.136,0,0,1-.139-.14C14.064,16.984,14.123,16.925,14.229,16.925ZM14.2,17.7a.133.133,0,0,1,.139.084,1.954,1.954,0,0,0,.889.612c.423.185.914.342,1.418.527a5.018,5.018,0,0,1,1.362.639,1.58,1.58,0,0,1,.639,1.25.186.186,0,0,1-.167.167H9.95a.186.186,0,0,1-.167-.167,1.58,1.58,0,0,1,.639-1.25,5.205,5.205,0,0,1,1.334-.639q.715-.231,1.418-.5a1.771,1.771,0,0,0,.916-.639A.2.2,0,0,1,14.2,17.7Z" transform="translate(0 0)" fill="red"/>
</svg>
