<svg xmlns="http://www.w3.org/2000/svg" width="32" height="32" viewBox="0 0 32 32">
  <g id="vuesax_bold_calendar" data-name="vuesax/bold/calendar" transform="translate(-492 -188)">
    <g id="calendar" transform="translate(492 188)">
      <path id="Vector" d="M0,0H32V32H0Z" fill="none" opacity="0"/>
      <path id="Vector-2" data-name="Vector" d="M18.282,3.08V1a1,1,0,0,0-2,0V3H7.615V1a1,1,0,0,0-2,0V3.08C2.015,3.413.268,5.56,0,8.747a.67.67,0,0,0,.667.707h22.56a.661.661,0,0,0,.667-.707C23.628,5.56,21.882,3.413,18.282,3.08Z" transform="translate(4.052 1.667)" fill="#b1a8b9"/>
      <path id="Vector-3" data-name="Vector" d="M22.667,0H1.333A1.337,1.337,0,0,0,0,1.333V9.547c0,4,2,6.667,6.667,6.667H17.333C22,16.213,24,13.547,24,9.547V1.333A1.337,1.337,0,0,0,22.667,0ZM8.28,11.16a2.1,2.1,0,0,1-.2.16,1.01,1.01,0,0,1-.24.12.847.847,0,0,1-.24.08,1.807,1.807,0,0,1-.267.027,1.327,1.327,0,0,1-.507-.107,1.376,1.376,0,0,1-.44-.28,1.352,1.352,0,0,1,0-1.893,1.376,1.376,0,0,1,.44-.28,1.275,1.275,0,0,1,.773-.08.847.847,0,0,1,.24.08,1.01,1.01,0,0,1,.24.12l.2.16a1.352,1.352,0,0,1,0,1.893Zm0-4.667a1.352,1.352,0,0,1-1.893,0,1.352,1.352,0,0,1,0-1.893A1.332,1.332,0,0,1,7.84,4.32a1.245,1.245,0,0,1,.44.28,1.352,1.352,0,0,1,0,1.893Zm4.667,4.667a1.339,1.339,0,0,1-1.893-1.893,1.339,1.339,0,0,1,1.893,1.893Zm0-4.667-.2.16a1.01,1.01,0,0,1-.24.12.847.847,0,0,1-.24.08A1.807,1.807,0,0,1,12,6.88a1.32,1.32,0,0,1-1.333-1.333,1.4,1.4,0,0,1,.387-.947,1.245,1.245,0,0,1,.44-.28,1.332,1.332,0,0,1,1.453.28,1.352,1.352,0,0,1,0,1.893Zm4.667,4.667A1.339,1.339,0,0,1,15.72,9.267a1.339,1.339,0,0,1,1.893,1.893Zm0-4.667-.2.16a1.01,1.01,0,0,1-.24.12.847.847,0,0,1-.24.08,2,2,0,0,1-.267.027,1.32,1.32,0,0,1-1.333-1.333A1.4,1.4,0,0,1,15.72,4.6a1.376,1.376,0,0,1,.44-.28,1.275,1.275,0,0,1,.773-.08.847.847,0,0,1,.24.08,1.01,1.01,0,0,1,.24.12l.2.16a1.352,1.352,0,0,1,0,1.893Z" transform="translate(4 13.12)" fill="#b1a8b9"/>
    </g>
  </g>
</svg>
