<svg xmlns="http://www.w3.org/2000/svg" width="280.048" height="244.94" viewBox="0 0 280.048 244.94">
  <g id="Service_24_7-bro" data-name="Service 24_7-bro" transform="translate(-0.774 -37.154)">
    <g id="freepik--background-simple--inject-2" transform="translate(1.266 37.654)">
      <path id="Path_1675" data-name="Path 1675" d="M269.277,158.376c-2.737,23.2-13.33,50.172-34.488,62.565-31.962,18.724-29.265,47.526-91.676,60.028a127.986,127.986,0,0,1-27.66,2.611,106.055,106.055,0,0,1-13.576-1.109c-39.653-5.771-66.336-33.334-76.123-66.6-12.884-43.755,12.839-72.4,29.888-89.659s29.54-71.038,90.773-83.831a124.392,124.392,0,0,1,28.431-2.7c21.786.531,45.549,7.685,61.993,22.62,1.234,1.143,2.434,2.285,3.605,3.48C263.3,89.241,273.013,126.751,269.277,158.376Z" transform="translate(-22.266 -39.654)" fill="#ffbe9d" stroke="rgba(0,0,0,0)" stroke-miterlimit="10" stroke-width="1" opacity="0.05"/>
    </g>
    <g id="freepik--Plant--inject-2" transform="translate(213.592 162.76)">
      <line id="Line_36" data-name="Line 36" y1="64.479" transform="translate(28.646 30.361)" fill="none" stroke="#263238" stroke-linecap="round" stroke-linejoin="round" stroke-width="1"/>
      <line id="Line_37" data-name="Line 37" y1="31.974" transform="translate(23.418 62.866)" fill="none" stroke="#263238" stroke-linecap="round" stroke-linejoin="round" stroke-width="1"/>
      <path id="Path_1676" data-name="Path 1676" d="M419.343,297.544s-5.268-.6-7.428-4.771-2.365-14.93,5.839-26.854,12.507-12.05,13.936-2.32,1.223,23.86-2.137,29.214S419.343,297.544,419.343,297.544Z" transform="translate(-389.063 -256.612)" fill="#fff" stroke="#263238" stroke-linecap="round" stroke-linejoin="round" stroke-width="1"/>
      <path id="Path_1677" data-name="Path 1677" d="M429.14,282.7a32.123,32.123,0,0,1,3.48-8.319" transform="translate(-396.992 -264.228)" fill="none" stroke="#263238" stroke-linecap="round" stroke-linejoin="round" stroke-width="1"/>
      <path id="Path_1678" data-name="Path 1678" d="M422,312.392a153.433,153.433,0,0,1,3.428-19.472" transform="translate(-393.931 -272.175)" fill="none" stroke="#263238" stroke-linecap="round" stroke-linejoin="round" stroke-width="1"/>
      <path id="Path_1679" data-name="Path 1679" d="M429.016,346.031s-3.383-2.623-3.108-6.394,4.617-11.285,15.25-16.05,13.667-3.074,10.582,4.228-9.142,16.964-13.713,19.249S429.016,346.031,429.016,346.031Z" transform="translate(-395.6 -284.171)" fill="#fff" stroke="#263238" stroke-linecap="round" stroke-linejoin="round" stroke-width="1"/>
      <path id="Path_1680" data-name="Path 1680" d="M450.07,335.934a26.325,26.325,0,0,1,5.879-4.274" transform="translate(-405.963 -288.78)" fill="none" stroke="#263238" stroke-linecap="round" stroke-linejoin="round" stroke-width="1"/>
      <path id="Path_1681" data-name="Path 1681" d="M437.136,341.4a123.511,123.511,0,0,0-10.525,12s-2.725,3.668-3.531,10.953" transform="translate(-394.394 -292.955)" fill="none" stroke="#263238" stroke-linecap="round" stroke-linejoin="round" stroke-width="1"/>
      <path id="Path_1682" data-name="Path 1682" d="M426.643,392.078a4.791,4.791,0,0,1-1.8-3.7c.16-2.183,2.674-6.536,8.839-9.3s7.913-1.777,6.125,2.457-5.3,9.828-7.936,11.147S426.643,392.078,426.643,392.078Z" transform="translate(-395.146 -308.437)" fill="#fff" stroke="#263238" stroke-linecap="round" stroke-linejoin="round" stroke-width="1"/>
      <path id="Path_1683" data-name="Path 1683" d="M438.81,386.274a14.854,14.854,0,0,1,3.428-2.474" transform="translate(-401.137 -311.129)" fill="none" stroke="#263238" stroke-linecap="round" stroke-linejoin="round" stroke-width="1"/>
      <path id="Path_1684" data-name="Path 1684" d="M431.318,389.44a71.578,71.578,0,0,0-6.1,6.942,13.84,13.84,0,0,0-2.051,6.348" transform="translate(-394.433 -313.546)" fill="none" stroke="#263238" stroke-linecap="round" stroke-linejoin="round" stroke-width="1"/>
      <path id="Path_1685" data-name="Path 1685" d="M396.744,330.771s3.377-2.623,3.108-6.394-4.617-11.285-15.256-16.05-13.661-3.074-10.576,4.228,9.142,16.964,13.713,19.249S396.744,330.771,396.744,330.771Z" transform="translate(-372.875 -277.63)" fill="#fff" stroke="#263238" stroke-linecap="round" stroke-linejoin="round" stroke-width="1"/>
      <path id="Path_1686" data-name="Path 1686" d="M391.525,320.674a25.936,25.936,0,0,0-5.885-4.274" transform="translate(-378.346 -282.239)" fill="none" stroke="#263238" stroke-linecap="round" stroke-linejoin="round" stroke-width="1"/>
      <path id="Path_1687" data-name="Path 1687" d="M398.33,326.14a123.777,123.777,0,0,1,10.519,12s2.725,3.668,3.537,10.953" transform="translate(-383.786 -286.414)" fill="none" stroke="#263238" stroke-linecap="round" stroke-linejoin="round" stroke-width="1"/>
      <path id="Path_1688" data-name="Path 1688" d="M406.469,383.613s3.428.109,5.142-1.954,2.743-7.822-1.543-14.856-7.022-7.525-8.736-2.383-2.714,12.679-1,15.827S406.469,383.613,406.469,383.613Z" transform="translate(-384.263 -301.348)" fill="#fff" stroke="#263238" stroke-linecap="round" stroke-linejoin="round" stroke-width="1"/>
      <path id="Path_1689" data-name="Path 1689" d="M412.68,391.41c.051.7.086,1.406.1,2.1" transform="translate(-389.937 -314.391)" fill="none" stroke="#263238" stroke-linecap="round" stroke-linejoin="round" stroke-width="1"/>
      <path id="Path_1690" data-name="Path 1690" d="M408.08,366.41a79.99,79.99,0,0,1,2.48,12.644" transform="translate(-387.965 -303.675)" fill="none" stroke="#263238" stroke-linecap="round" stroke-linejoin="round" stroke-width="1"/>
    </g>
    <g id="freepik--Window--inject-2" transform="translate(14.764 41.966)">
      <path id="Path_1691" data-name="Path 1691" d="M24.89,206.612h79.083V45.2" transform="translate(-24.89 -45.2)" fill="none" stroke="#263238" stroke-linecap="round" stroke-linejoin="round" stroke-width="1"/>
      <path id="Path_1692" data-name="Path 1692" d="M250.853,206.612H171.77V45.2" transform="translate(-87.847 -45.2)" fill="none" stroke="#263238" stroke-linecap="round" stroke-linejoin="round" stroke-width="1"/>
      <path id="Path_1693" data-name="Path 1693" d="M228.26,206.612h79.083V45.2" transform="translate(-112.061 -45.2)" fill="none" stroke="#263238" stroke-linecap="round" stroke-linejoin="round" stroke-width="1"/>
      <line id="Line_38" data-name="Line 38" x1="27.643" y2="30.545" transform="translate(151.504 37.899)" fill="none" stroke="#263238" stroke-linecap="round" stroke-linejoin="round" stroke-width="1"/>
      <line id="Line_39" data-name="Line 39" x1="7.668" y2="8.473" transform="translate(156.144 61.531)" fill="none" stroke="#263238" stroke-linecap="round" stroke-linejoin="round" stroke-width="1"/>
      <line id="Line_40" data-name="Line 40" x1="14.93" y2="16.495" transform="translate(87.956 29.877)" fill="none" stroke="#263238" stroke-linecap="round" stroke-linejoin="round" stroke-width="1"/>
      <line id="Line_41" data-name="Line 41" y1="11.147" x2="10.09" transform="translate(106.92 14.713)" fill="none" stroke="#263238" stroke-linecap="round" stroke-linejoin="round" stroke-width="1"/>
      <line id="Line_42" data-name="Line 42" x1="9.685" y2="10.702" transform="translate(66.17 127.969)" fill="none" stroke="#263238" stroke-linecap="round" stroke-linejoin="round" stroke-width="1"/>
      <line id="Line_43" data-name="Line 43" x1="17.958" y2="19.844" transform="translate(54.669 113.702)" fill="none" stroke="#263238" stroke-linecap="round" stroke-linejoin="round" stroke-width="1"/>
    </g>
    <g id="freepik--Clock--inject-2" transform="translate(205.759 45.377)">
      <circle id="Ellipse_52" data-name="Ellipse 52" cx="28.626" cy="28.626" r="28.626" transform="translate(0 53.161) rotate(-68.21)" fill="none" stroke="#263238" stroke-linecap="round" stroke-linejoin="round" stroke-width="1"/>
      <circle id="Ellipse_53" data-name="Ellipse 53" cx="24.986" cy="24.986" r="24.986" transform="translate(12.229 12.227)" fill="none" stroke="#263238" stroke-linecap="round" stroke-linejoin="round" stroke-width="1"/>
      <circle id="Ellipse_54" data-name="Ellipse 54" cx="1.708" cy="1.708" r="1.708" transform="translate(35.507 35.505)" fill="none" stroke="#263238" stroke-linecap="round" stroke-linejoin="round" stroke-width="1"/>
      <line id="Line_44" data-name="Line 44" y2="8.393" transform="translate(37.215 38.922)" fill="none" stroke="#263238" stroke-linecap="round" stroke-linejoin="round" stroke-width="1"/>
      <line id="Line_45" data-name="Line 45" x1="20.375" transform="translate(15.132 37.213)" fill="none" stroke="#263238" stroke-linecap="round" stroke-linejoin="round" stroke-width="1"/>
    </g>
    <g id="freepik--speech-bubble--inject-2" transform="translate(25.05 68.839)">
      <path id="Path_1694" data-name="Path 1694" d="M130.813,177.685,121.4,163.069a42.424,42.424,0,1,0-4.805,6.348Z" transform="translate(-42.892 -94.844)" fill="#0f172a" stroke="#263238" stroke-linecap="round" stroke-linejoin="round" stroke-width="1"/>
      <path id="Path_1695" data-name="Path 1695" d="M132.416,171.52,122.994,156.9a42.39,42.39,0,1,0-4.8,6.348Z" transform="translate(-43.599 -92.234)" fill="#fff" stroke="#263238" stroke-linecap="round" stroke-linejoin="round" stroke-width="1"/>
      <path id="Path_1696" data-name="Path 1696" d="M66.588,156.359V152.4l6.491-9.976c.491-.737.954-1.457,1.394-2.148a12.7,12.7,0,0,0,1.074-2.114,6.1,6.1,0,0,0,.417-2.251,2.7,2.7,0,0,0-.469-1.743,1.571,1.571,0,0,0-1.274-.571,1.926,1.926,0,0,0-1.411.5,2.623,2.623,0,0,0-.686,1.343,8.616,8.616,0,0,0-.189,1.88v1.326H66.519v-1.44a11.365,11.365,0,0,1,.771-4.274,6.285,6.285,0,0,1,2.451-2.988,7.942,7.942,0,0,1,4.394-1.091,7.394,7.394,0,0,1,5.519,1.9,7.252,7.252,0,0,1,1.863,5.285,8.736,8.736,0,0,1-.52,3.057,13.919,13.919,0,0,1-1.377,2.731c-.571.886-1.177,1.806-1.828,2.771l-4.965,7.428h7.953v4.337Z" transform="translate(-53.019 -107.927)" fill="#0f172a" stroke="#0f172a" stroke-linecap="round" stroke-linejoin="round" stroke-width="1"/>
      <path id="Path_1697" data-name="Path 1697" d="M103.3,156.627v-6.085H94.94v-4.125l7.085-16.947h6.508v16.913h2.514v4.16h-2.514v6.085Zm-4.1-10.285h4.1V135.075Z" transform="translate(-65.202 -108.194)" fill="#0f172a" stroke="#0f172a" stroke-linecap="round" stroke-linejoin="round" stroke-width="1"/>
      <path id="Path_1698" data-name="Path 1698" d="M126.78,156.61l8.319-27.18h2.954L129.7,156.61Z" transform="translate(-78.849 -108.177)" fill="#0f172a" stroke="#0f172a" stroke-linecap="round" stroke-linejoin="round" stroke-width="1"/>
      <path id="Path_1699" data-name="Path 1699" d="M151.71,156.61l5.908-22.918H150.19V129.43h12.884v3.857l-5.891,23.323Z" transform="translate(-88.884 -108.177)" fill="#0f172a" stroke="#0f172a" stroke-linecap="round" stroke-linejoin="round" stroke-width="1"/>
      <path id="Path_1700" data-name="Path 1700" d="M73.244,196.689a3.531,3.531,0,0,1-1.9-.474,2.965,2.965,0,0,1-1.143-1.337,6.017,6.017,0,0,1-.469-2.011l1.143-.343a7.725,7.725,0,0,0,.314,1.571A2.285,2.285,0,0,0,71.9,195.2a1.988,1.988,0,0,0,1.337.411,2.074,2.074,0,0,0,1.457-.486,2.028,2.028,0,0,0,.52-1.548,2.857,2.857,0,0,0-.457-1.606,8.628,8.628,0,0,0-1.263-1.434l-2.468-2.377a4.571,4.571,0,0,1-.977-1.331,3.605,3.605,0,0,1-.309-1.5,2.857,2.857,0,0,1,.868-2.24,3.325,3.325,0,0,1,2.285-.783,4.428,4.428,0,0,1,1.343.194,2.485,2.485,0,0,1,1.028.617,3,3,0,0,1,.668,1.1,7.016,7.016,0,0,1,.331,1.646l-1.143.3a6.314,6.314,0,0,0-.286-1.52,1.891,1.891,0,0,0-.68-.96,2.125,2.125,0,0,0-1.274-.331,2.165,2.165,0,0,0-1.423.451,1.714,1.714,0,0,0-.571,1.406,2.451,2.451,0,0,0,.217,1.04,3.634,3.634,0,0,0,.834,1.023l2.48,2.343a8.918,8.918,0,0,1,1.446,1.714,3.96,3.96,0,0,1,.606,2.154,3.5,3.5,0,0,1-.411,1.771,2.571,2.571,0,0,1-1.143,1.068,3.822,3.822,0,0,1-1.674.366Z" transform="translate(-54.396 -130.841)" fill="#0f172a" stroke="#0f172a" stroke-linecap="round" stroke-linejoin="round" stroke-width="1"/>
      <path id="Path_1701" data-name="Path 1701" d="M84.6,196.627V182.56h5.085v1.023H85.937v5.279h3.057v.971H85.937v5.8h3.788v.994Z" transform="translate(-60.77 -130.951)" fill="#0f172a" stroke="#0f172a" stroke-linecap="round" stroke-linejoin="round" stroke-width="1"/>
      <path id="Path_1702" data-name="Path 1702" d="M96.73,196.623V182.556h3.177a4.285,4.285,0,0,1,2.074.423,2.44,2.44,0,0,1,1.086,1.234,5,5,0,0,1,.331,1.92,5.857,5.857,0,0,1-.177,1.474,2.817,2.817,0,0,1-.571,1.183,2.011,2.011,0,0,1-1.183.64l2.154,7.194h-1.286l-2.063-6.914H98.027v6.914Zm1.3-7.885h1.788a2.628,2.628,0,0,0,1.371-.3,1.6,1.6,0,0,0,.691-.868,4.165,4.165,0,0,0,.211-1.44,3.394,3.394,0,0,0-.451-1.948,2.065,2.065,0,0,0-1.788-.64H98.027Z" transform="translate(-65.969 -130.947)" fill="#0f172a" stroke="#0f172a" stroke-linecap="round" stroke-linejoin="round" stroke-width="1"/>
      <path id="Path_1703" data-name="Path 1703" d="M112.35,196.627V182.56h1.32v14.067Z" transform="translate(-72.664 -130.951)" fill="#0f172a" stroke="#0f172a" stroke-linecap="round" stroke-linejoin="round" stroke-width="1"/>
      <path id="Path_1704" data-name="Path 1704" d="M120.907,196.627l-3.3-14.067h1.268l2.657,11.679,2.5-11.65h1.228l-3.177,14.067Z" transform="translate(-74.919 -130.951)" fill="#0f172a" stroke="#0f172a" stroke-linecap="round" stroke-linejoin="round" stroke-width="1"/>
      <path id="Path_1705" data-name="Path 1705" d="M134,196.627V182.56h1.32v14.067Z" transform="translate(-81.944 -130.951)" fill="#0f172a" stroke="#0f172a" stroke-linecap="round" stroke-linejoin="round" stroke-width="1"/>
      <path id="Path_1706" data-name="Path 1706" d="M143.689,196.683a3.542,3.542,0,0,1-2.194-.571,2.988,2.988,0,0,1-1.068-1.588,7.708,7.708,0,0,1-.3-2.217V186.7a7.92,7.92,0,0,1,.3-2.285,2.891,2.891,0,0,1,1.086-1.543,3.685,3.685,0,0,1,2.171-.571,3.554,3.554,0,0,1,1.988.486,2.714,2.714,0,0,1,1.034,1.383,6.559,6.559,0,0,1,.314,2.126v.851h-1.257v-.811a7.429,7.429,0,0,0-.149-1.583,1.714,1.714,0,0,0-.6-1.023,2.085,2.085,0,0,0-1.337-.366,2.228,2.228,0,0,0-1.417.389,1.96,1.96,0,0,0-.64,1.1,7.467,7.467,0,0,0-.166,1.651V192.5a6.479,6.479,0,0,0,.2,1.714,1.846,1.846,0,0,0,.68,1.057,2.285,2.285,0,0,0,1.337.349,2.051,2.051,0,0,0,1.337-.383,1.851,1.851,0,0,0,.6-1.068,7.8,7.8,0,0,0,.149-1.606v-.92h1.251v.834a7.541,7.541,0,0,1-.291,2.188,2.731,2.731,0,0,1-1.006,1.48,3.388,3.388,0,0,1-2.028.543Z" transform="translate(-84.571 -130.835)" fill="#0f172a" stroke="#0f172a" stroke-linecap="round" stroke-linejoin="round" stroke-width="1"/>
      <path id="Path_1707" data-name="Path 1707" d="M155.78,196.627V182.56h5.091v1.023h-3.754v5.279h3.057v.971h-3.057v5.8h3.788v.994Z" transform="translate(-91.28 -130.951)" fill="#0f172a" stroke="#0f172a" stroke-linecap="round" stroke-linejoin="round" stroke-width="1"/>
    </g>
    <g id="freepik--Character--inject-2" transform="translate(91.396 109.328)">
      <path id="Path_1708" data-name="Path 1708" d="M320.286,320.17h30.608s-16.57,40.744-13.444,58.942H306.43S312.218,332.58,320.286,320.17Z" transform="translate(-222.199 -230.423)" fill="#263238" stroke="#263238" stroke-linecap="round" stroke-linejoin="round" stroke-width="1"/>
      <path id="Path_1709" data-name="Path 1709" d="M277.759,217.258s.3,5.514,10.57,8.73,20.689,0,26.511,4.571a12.265,12.265,0,0,1,3.674,15.17c-1.994,3.525-5.211,7.045,4.291,11.182s3.828,16.244-.154,20.689-10.856,6.588-18.541,5.057-16.7-20.072-26.506-29.883-11-27.906-4.748-33.094S277.759,217.258,277.759,217.258Z" transform="translate(-206.155 -185.996)" fill="#0f172a" stroke="#263238" stroke-linecap="round" stroke-linejoin="round" stroke-width="1"/>
      <path id="Path_1710" data-name="Path 1710" d="M280.1,182.741s4.228-1.846,5.314,1.714,1.406,13.341,1.406,13.341l-2.285-.543s.543-11.062-1.954-12.8-4.445,2.171-4.445,2.171Z" transform="translate(-210.068 -171.312)" fill="#a6a6a6" stroke="#263238" stroke-linecap="round" stroke-linejoin="round" stroke-width="1"/>
      <path id="Path_1711" data-name="Path 1711" d="M198.5,351.106l14.444-7.725s-1-15.158-.857-15.73,3.76-30.231,3.76-30.231l-9.908,29.374Z" transform="translate(-175.936 -220.672)" fill="#263238" stroke="#263238" stroke-linecap="round" stroke-linejoin="round" stroke-width="1"/>
      <path id="Path_1712" data-name="Path 1712" d="M261.756,265.668s14.284,7.782,16.2,8.571.788,10.713.788,17.2-9.713,61.251-9.713,61.251H197.1s12.153-18.632,12.479-23.495-1.783-8.753-2.108-13.45,6.645-33.385,7.776-34.853,6-5.182,6-5.182l17.175-15.044,7.942-1.783Z" transform="translate(-175.336 -204.153)" fill="#8000ff" stroke="#263238" stroke-linecap="round" stroke-linejoin="round" stroke-width="1"/>
      <line id="Line_46" data-name="Line 46" x1="2.4" y2="4.937" transform="translate(36.345 130.308)" fill="none" stroke="#263238" stroke-linecap="round" stroke-linejoin="round" stroke-width="1"/>
      <path id="Path_1713" data-name="Path 1713" d="M229.138,366.34s-3.565,2.428-1.783,3.725a8.817,8.817,0,0,1,2.594,4.051l-2.285,4.451" transform="translate(-188.091 -250.213)" fill="none" stroke="#263238" stroke-linecap="round" stroke-linejoin="round" stroke-width="1"/>
      <path id="Path_1714" data-name="Path 1714" d="M260.24,387c.966.074,1.983.131,3.045.16" transform="translate(-202.4 -259.069)" fill="none" stroke="#263238" stroke-linecap="round" stroke-linejoin="round" stroke-width="1"/>
      <path id="Path_1715" data-name="Path 1715" d="M233.39,380s3.88,2.594,12.33,3.7" transform="translate(-190.891 -256.068)" fill="none" stroke="#263238" stroke-linecap="round" stroke-linejoin="round" stroke-width="1"/>
      <path id="Path_1716" data-name="Path 1716" d="M214.841,198.5a3.868,3.868,0,0,0-2.165,3.685c0,2.823,2.285,8.348,2.285,8.348l1.3-.429s-2.383-5.748-2.057-7.811a3.325,3.325,0,0,1,2.285-2.6l-.434-1.411Z" transform="translate(-182.01 -178.177)" fill="#a6a6a6" stroke="#263238" stroke-linecap="round" stroke-linejoin="round" stroke-width="1"/>
      <path id="Path_1717" data-name="Path 1717" d="M221.413,220.615c.571,2.857-.406,5.434-2.143,5.771s-3.588-1.714-4.137-4.571.406-5.439,2.143-5.771S220.865,217.763,221.413,220.615Z" transform="translate(-183 -185.776)" fill="#fff" stroke="#263238" stroke-linecap="round" stroke-linejoin="round" stroke-width="1"/>
      <path id="Path_1718" data-name="Path 1718" d="M228,218.463c1.08,3.645-.183,7.239-2.823,8s-5.657-1.537-6.742-5.182.183-7.239,2.823-8S226.923,214.818,228,218.463Z" transform="translate(-184.316 -184.545)" fill="#263238" stroke="#263238" stroke-linecap="round" stroke-linejoin="round" stroke-width="1"/>
      <path id="Path_1719" data-name="Path 1719" d="M246.508,244.45l2.565,8.342-8.433,10.627-1.406,8.211s-1.4,23.426-.6,27.037a27.827,27.827,0,0,1,.8,4.605s17.427-20.226,26.037-32.642,10.61-20.032,10.61-20.032l-8.411-4.571-4-18.627Z" transform="translate(-193.034 -190.659)" fill="#ffbe9d" stroke="#263238" stroke-linecap="round" stroke-linejoin="round" stroke-width="1"/>
      <path id="Path_1720" data-name="Path 1720" d="M265.58,243.11l-10.736,16.415-2.994-9.662Z" transform="translate(-198.804 -197.393)" fill="#263238" stroke="#263238" stroke-linecap="round" stroke-linejoin="round" stroke-width="1"/>
      <path id="Path_1721" data-name="Path 1721" d="M239.3,301.475l-.08.463s-1.4,23.426-.6,27.037a27.827,27.827,0,0,1,.8,4.605s17.427-20.226,26.037-32.642c.674-.971,1.3-1.914,1.9-2.828C256.583,301.8,245.59,301.864,239.3,301.475Z" transform="translate(-193.029 -220.968)" fill="#fff" stroke="#263238" stroke-linecap="round" stroke-linejoin="round" stroke-width="1"/>
      <path id="Path_1722" data-name="Path 1722" d="M225.821,165.744s-8.028,4.879-8.9,12.25,2.171,15.29,3.365,18.432,5.314,15.4,7.479,17.787,9.216,5.959,10.41,6.611,3.36.434,5.205-.868,9.433-10.513,10.627-12.684,1.406-6.942,1.406-6.942-.217-9.542-.646-15.718-.109-12.147-5.205-17.352S230.809,161.944,225.821,165.744Z" transform="translate(-183.768 -163.097)" fill="#ffbe9d" stroke="#263238" stroke-linecap="round" stroke-linejoin="round" stroke-width="1"/>
      <path id="Path_1723" data-name="Path 1723" d="M254.773,184.611c-.434-6.182-.109-12.147-5.205-17.352s-18.758-5.314-23.746-1.514c0,0-8.028,4.879-8.9,12.25a33.12,33.12,0,0,0,1.314,12.353c1.846-1.143,8.073-4.959,15.061-9.856a31.111,31.111,0,0,0,11.062-14.964s.971-.543.76.651-3.474,8.239-4.662,9.325l-1.194,1.08s.977-.217,5.422,5.1,6.936,7.485,8.239,8.136a7.085,7.085,0,0,0,2.154.417C255,188.285,254.893,186.319,254.773,184.611Z" transform="translate(-183.769 -163.097)" fill="#0f172a" stroke="#263238" stroke-linecap="round" stroke-linejoin="round" stroke-width="1"/>
      <ellipse id="Ellipse_55" data-name="Ellipse 55" cx="4.988" cy="6.885" rx="4.988" ry="6.885" transform="translate(67.965 24.005)" fill="#263238" stroke="#263238" stroke-linecap="round" stroke-linejoin="round" stroke-width="1"/>
      <ellipse id="Ellipse_56" data-name="Ellipse 56" cx="3.2" cy="5.257" rx="3.2" ry="5.257" transform="translate(71.867 24.445)" fill="#fff" stroke="#263238" stroke-linecap="round" stroke-linejoin="round" stroke-width="1"/>
      <path id="Path_1732" data-name="Path 1732" d="M222.49,230s.034,11.267,2.96,12.244,10.953-.977,10.953-.977" transform="translate(-186.219 -191.774)" fill="none" stroke="#263238" stroke-linecap="round" stroke-linejoin="round" stroke-width="2"/>
      <path id="Path_1733" data-name="Path 1733" d="M250.471,248.461c0,.868-1.068,1.571-2.388,1.571s-2.383-.7-2.383-1.571,1.068-1.571,2.383-1.571S250.471,247.593,250.471,248.461Z" transform="translate(-196.168 -199.013)" fill="#263238" stroke="#263238" stroke-linecap="round" stroke-linejoin="round" stroke-width="1"/>
      <path id="Path_1734" data-name="Path 1734" d="M243.781,272.75s-3.428,5.994-5.834,23.82-.811,21.386-.811,21.386l-3.428,2.108s-7.125-.811-4.7-17.661,3.777-19.609,3.777-19.609Z" transform="translate(-188.798 -210.098)" fill="#8000ff" stroke="#263238" stroke-linecap="round" stroke-linejoin="round" stroke-width="1"/>
      <path id="Path_1735" data-name="Path 1735" d="M266.991,262s-7.776,18.472-15.878,29.98S232,319.994,232,319.994s5.834-2.754,18.152-12,24.792-30.465,26.089-32.568a64.155,64.155,0,0,0,3.24-6.965Z" transform="translate(-190.296 -205.49)" fill="#8000ff" stroke="#263238" stroke-linecap="round" stroke-linejoin="round" stroke-width="1"/>
      <path id="Path_1736" data-name="Path 1736" d="M168.392,402.4a40.344,40.344,0,0,1-5.959,2.982c-3.645,1.491-4,1.228-2.817,2.485s7.291-.994,8.948-1.657,4.805-1.657,4.805-1.657a38.6,38.6,0,0,0,6.131,2.817,9.913,9.913,0,0,0,5.142-.331,5.17,5.17,0,0,0-1.823-4.142c-1.988-1.491-6.285-4.971-7.788-4.805S168.392,402.4,168.392,402.4Z" transform="translate(-159.01 -263.822)" fill="#ffbe9d" stroke="#263238" stroke-linecap="round" stroke-linejoin="round" stroke-width="1"/>
      <path id="Path_1737" data-name="Path 1737" d="M168.937,398.587a4.433,4.433,0,0,0-3.314.5c-1.326.994-2.817,4.142-2.983,4.971s.166,1.326,1.491.166,3.645-2.817,3.645-2.817l1.988-.663Z" transform="translate(-160.549 -263.982)" fill="#ffbe9d" stroke="#263238" stroke-linecap="round" stroke-linejoin="round" stroke-width="1"/>
      <path id="Path_1738" data-name="Path 1738" d="M176.85,395.589s-4-1.326-4.805-.166-3.645,7.788-2.817,8.285,1.988-.5,3.48-2.651,2.32-3.314,2.32-3.314l1.988-.331Z" transform="translate(-163.325 -262.475)" fill="#ffbe9d" stroke="#263238" stroke-linecap="round" stroke-linejoin="round" stroke-width="1"/>
      <path id="Path_1739" data-name="Path 1739" d="M185.7,396.247s-5.182-4.051-6.479-3.08-5.508,7.291-5.994,8.57,1.783.651,3.56-.971,3.891-3.428,3.891-3.428l4.051,2.108Z" transform="translate(-165.076 -261.648)" fill="#ffbe9d" stroke="#263238" stroke-linecap="round" stroke-linejoin="round" stroke-width="1"/>
      <path id="Path_1740" data-name="Path 1740" d="M205.656,400.89s-6.8-.326-9.559-1.3-8.268-3.08-9.885-2.92-7.782,6.159-9.079,7.456-1.143,1.646.131,1.806,4.405-1.965,5.868-3.1a16,16,0,0,1,2.914-1.783,36.4,36.4,0,0,0,3.891,4.7,12.522,12.522,0,0,0,6.965,2.428,22.856,22.856,0,0,0,2.754-.486l5.514-.16Z" transform="translate(-166.392 -263.212)" fill="#ffbe9d" stroke="#263238" stroke-linecap="round" stroke-linejoin="round" stroke-width="1"/>
      <path id="Path_1741" data-name="Path 1741" d="M274.059,304.229s-5.994,6.965-5.668,9.4.486,4.857.486,4.857L264.5,344.9s-3.725-1.783-3.725-.326v1.463L225.756,349.6l-.326,12.313,55.743.16s2.754-3.074,3.08-4.211,6.479-20.741,8.1-41.321.811-29.814,0-31.425-10.37-4.7-10.37-4.7" transform="translate(-187.479 -213.385)" fill="#8000ff" stroke="#263238" stroke-linecap="round" stroke-linejoin="round" stroke-width="1"/>
      <path id="Path_1742" data-name="Path 1742" d="M296.08,393s5.182,3.4,8.262,4.211" transform="translate(-217.762 -261.641)" fill="#fff" stroke="#263238" stroke-linecap="round" stroke-linejoin="round" stroke-width="1"/>
      <path id="Path_1743" data-name="Path 1743" d="M206.054,304.457l4-12.839a27.675,27.675,0,0,0,4.228-5.308c1.714-2.9,1.714-8.331,1.446-9.3s3.5-5.308,4.571-6.856,1.686-4.348.24-6.4-2.171,1.331-3.137,2.9-4.348,3.137-4.348,3.137l-3.571,2.9s-5.914,5.188-6.285,5.914a31.868,31.868,0,0,0-1.086,3.017l.486,7-3.137,12.187Z" transform="translate(-176.348 -205.968)" fill="#ffbe9d" stroke="#263238" stroke-linecap="round" stroke-linejoin="round" stroke-width="1"/>
      <path id="Path_1744" data-name="Path 1744" d="M212.73,262.806s2.9-4.571,3.742-6.034,2.171-7.239,3.017-6.856,1.714,2.285,1.451,4.828-3.263,8.325-3.263,8.325Z" transform="translate(-182.036 -200.303)" fill="#ffbe9d" stroke="#263238" stroke-linecap="round" stroke-linejoin="round" stroke-width="1"/>
      <path id="Path_1745" data-name="Path 1745" d="M200.48,300.218l2.537-8.57-1.1-13.759,3.377-6.514,9.29-1.206s5.674,3.017,6.159,3.017,0,1.326-1.086,1.566a8.718,8.718,0,0,1-3.143-.36l3.5,2.285s-.24,1.086-1.086,1.326a12.458,12.458,0,0,1-2.537.246s3.017,1.931,2.285,2.285a5.274,5.274,0,0,1-2.285.48h-2.285l-1.811-.24-2.777,1.086s1.931,4.948,1.811,7.365-3.137,4-3.137,4" transform="translate(-176.785 -208.992)" fill="#ffbe9d" stroke="#263238" stroke-linecap="round" stroke-linejoin="round" stroke-width="1"/>
      <path id="Path_1746" data-name="Path 1746" d="M220.516,276.381s-1.931-1.571-3.017-1.571-7.719,1.206-7.719,1.206" transform="translate(-180.771 -210.981)" fill="none" stroke="#263238" stroke-linecap="round" stroke-linejoin="round" stroke-width="1"/>
      <path id="Path_1747" data-name="Path 1747" d="M218.853,283.034s-3.137-1.714-4.1-1.714-8.571,1.931-8.571,1.931" transform="translate(-179.228 -213.771)" fill="none" stroke="#263238" stroke-linecap="round" stroke-linejoin="round" stroke-width="1"/>
      <path id="Path_1748" data-name="Path 1748" d="M188.952,318.05l9.8,6.6s-4.365,23.426-4.794,25.432-3.571,7.291-5.142,8.868-3.428,1.286-7.719.143-8-4.571-7.868-9.01S188.952,318.05,188.952,318.05Z" transform="translate(-165.102 -229.515)" fill="#8000ff" stroke="#263238" stroke-linecap="round" stroke-linejoin="round" stroke-width="1"/>
    </g>
    <g id="freepik--Device--inject-2" transform="translate(15.558 174.672)">
      <rect id="Rectangle_1228" data-name="Rectangle 1228" width="2.845" height="0.874" transform="translate(46.195 79.969)" fill="#fff" stroke="#263238" stroke-linecap="round" stroke-linejoin="round" stroke-width="1"/>
      <rect id="Rectangle_1229" data-name="Rectangle 1229" width="2.845" height="0.874" transform="translate(50.138 79.969)" fill="#fff" stroke="#263238" stroke-linecap="round" stroke-linejoin="round" stroke-width="1"/>
      <rect id="Rectangle_1230" data-name="Rectangle 1230" width="2.845" height="0.874" transform="translate(54.08 79.969)" fill="#fff" stroke="#263238" stroke-linecap="round" stroke-linejoin="round" stroke-width="1"/>
      <rect id="Rectangle_1231" data-name="Rectangle 1231" width="2.845" height="0.874" transform="translate(58.028 79.969)" fill="#fff" stroke="#263238" stroke-linecap="round" stroke-linejoin="round" stroke-width="1"/>
      <rect id="Rectangle_1232" data-name="Rectangle 1232" width="2.845" height="0.874" transform="translate(61.971 79.969)" fill="#fff" stroke="#263238" stroke-linecap="round" stroke-linejoin="round" stroke-width="1"/>
      <rect id="Rectangle_1233" data-name="Rectangle 1233" width="2.845" height="0.874" transform="translate(65.913 79.969)" fill="#fff" stroke="#263238" stroke-linecap="round" stroke-linejoin="round" stroke-width="1"/>
      <rect id="Rectangle_1234" data-name="Rectangle 1234" width="2.845" height="0.874" transform="translate(69.855 79.969)" fill="#fff" stroke="#263238" stroke-linecap="round" stroke-linejoin="round" stroke-width="1"/>
      <rect id="Rectangle_1235" data-name="Rectangle 1235" width="2.845" height="0.874" transform="translate(73.798 79.969)" fill="#fff" stroke="#263238" stroke-linecap="round" stroke-linejoin="round" stroke-width="1"/>
      <rect id="Rectangle_1236" data-name="Rectangle 1236" width="2.845" height="0.874" transform="translate(77.74 79.969)" fill="#fff" stroke="#263238" stroke-linecap="round" stroke-linejoin="round" stroke-width="1"/>
      <rect id="Rectangle_1237" data-name="Rectangle 1237" width="2.845" height="0.874" transform="translate(81.683 79.969)" fill="#fff" stroke="#263238" stroke-linecap="round" stroke-linejoin="round" stroke-width="1"/>
      <rect id="Rectangle_1238" data-name="Rectangle 1238" width="2.845" height="0.874" transform="translate(85.631 79.969)" fill="#fff" stroke="#263238" stroke-linecap="round" stroke-linejoin="round" stroke-width="1"/>
      <rect id="Rectangle_1239" data-name="Rectangle 1239" width="2.845" height="0.874" transform="translate(89.573 79.969)" fill="#fff" stroke="#263238" stroke-linecap="round" stroke-linejoin="round" stroke-width="1"/>
      <rect id="Rectangle_1240" data-name="Rectangle 1240" width="2.845" height="0.874" transform="translate(93.516 79.969)" fill="#fff" stroke="#263238" stroke-linecap="round" stroke-linejoin="round" stroke-width="1"/>
      <rect id="Rectangle_1241" data-name="Rectangle 1241" width="2.845" height="0.874" transform="translate(97.458 79.969)" fill="#fff" stroke="#263238" stroke-linecap="round" stroke-linejoin="round" stroke-width="1"/>
      <rect id="Rectangle_1242" data-name="Rectangle 1242" width="2.845" height="0.874" transform="translate(101.401 79.969)" fill="#fff" stroke="#263238" stroke-linecap="round" stroke-linejoin="round" stroke-width="1"/>
      <rect id="Rectangle_1243" data-name="Rectangle 1243" width="2.845" height="0.874" transform="translate(105.343 79.969)" fill="#fff" stroke="#263238" stroke-linecap="round" stroke-linejoin="round" stroke-width="1"/>
      <rect id="Rectangle_1244" data-name="Rectangle 1244" width="70.501" height="2.48" transform="translate(44.561 80.66)" fill="#fff" stroke="#263238" stroke-linecap="round" stroke-linejoin="round" stroke-width="1"/>
      <rect id="Rectangle_1245" data-name="Rectangle 1245" width="27.026" height="2.48" transform="translate(88.031 80.66)" fill="#fff" stroke="#263238" stroke-linecap="round" stroke-linejoin="round" stroke-width="1"/>
      <path id="Path_1749" data-name="Path 1749" d="M92.839,336.4H37.41L26.28,277.46H81.708Z" transform="translate(-26.28 -277.46)" fill="#263238" stroke="#fff" stroke-linecap="round" stroke-linejoin="round" stroke-width="1"/>
      <path id="Path_1750" data-name="Path 1750" d="M91.556,336.03H37.785L27.22,280.07H80.986Z" transform="translate(-26.683 -278.579)" fill="#263238" stroke="#fff" stroke-linecap="round" stroke-linejoin="round" stroke-width="1"/>
      <path id="Path_1751" data-name="Path 1751" d="M85.815,339H45.836L37.98,297.4H77.959Z" transform="translate(-31.295 -286.007)" fill="#263238" stroke="#fff" stroke-linecap="round" stroke-linejoin="round" stroke-width="1"/>
      <line id="Line_47" data-name="Line 47" x1="6.148" y1="9.902" transform="translate(0.537 1.491)" fill="none" stroke="#263238" stroke-linecap="round" stroke-linejoin="round" stroke-width="1"/>
      <line id="Line_48" data-name="Line 48" y1="9.902" x2="7.639" transform="translate(46.664 1.491)" fill="#263238" stroke="#fff" stroke-linecap="round" stroke-linejoin="round" stroke-width="1"/>
      <line id="Line_49" data-name="Line 49" x2="10.353" y2="4.457" transform="translate(54.52 52.994)" fill="#263238" stroke="#fff" stroke-linecap="round" stroke-linejoin="round" stroke-width="1"/>
      <line id="Line_50" data-name="Line 50" x1="3.44" y2="4.457" transform="translate(11.102 52.994)" fill="#fff" stroke="#263238" stroke-linecap="round" stroke-linejoin="round" stroke-width="1"/>
      <path id="Path_1752" data-name="Path 1752" d="M73.352,344.525h-9.1l5.794-5.165h9.1Z" transform="translate(-42.555 -303.992)" fill="#263238" stroke="#fff" stroke-linecap="round" stroke-linejoin="round" stroke-width="1"/>
      <rect id="Rectangle_1246" data-name="Rectangle 1246" width="33.299" height="3.308" transform="translate(27.694 80.037)" fill="#263238" stroke="#fff" stroke-linecap="round" stroke-linejoin="round" stroke-width="1"/>
      <path id="Path_1753" data-name="Path 1753" d="M84.522,413.81h-9.1L64.25,401.12h9.1Z" transform="translate(-42.555 -330.465)" fill="#263238" stroke="#fff" stroke-linecap="round" stroke-linejoin="round" stroke-width="1"/>
      <rect id="Rectangle_1247" data-name="Rectangle 1247" width="9.102" height="29.78" transform="translate(21.695 40.744)" fill="#263238" stroke="#fff" stroke-linecap="round" stroke-linejoin="round" stroke-width="1"/>
    </g>
    <g id="freepik--Table--inject-2" transform="translate(8.576 252.355)">
      <path id="Path_1754" data-name="Path 1754" d="M313.41,413.42a13.524,13.524,0,0,0,5.674,5.508" transform="translate(-142.371 -413.42)" fill="#fff" stroke="#263238" stroke-linecap="round" stroke-linejoin="round" stroke-width="1"/>
      <line id="Line_51" data-name="Line 51" x2="260.664" transform="translate(0 5.662)" fill="none" stroke="#263238" stroke-linecap="round" stroke-linejoin="round" stroke-width="1"/>
    </g>
  </g>
</svg>
