<svg xmlns="http://www.w3.org/2000/svg" width="218.65" height="174.213" viewBox="0 0 218.65 174.213">
  <g id="concept-of-data-privacy-and-policy" transform="translate(-263.051 0.006)">
    <path id="Path_1006" data-name="Path 1006" d="M415,185.686c4.547-2.152,76.982-1.133,65.46-53.889S395.339,85.319,377.408,48.649c-17.931-36.654-66.107-20.941-93.343,6.279C256.392,82.6,229.593,207.857,388.752,151.395c61.932-21.976,23.19,32.366,23.19,32.366" transform="translate(0 -22.761)" fill="#2a94f4" opacity="0.1"/>
    <path id="Path_1007" data-name="Path 1007" d="M698.48,9.381a19.579,19.579,0,0,0-20.973,11.037,39.626,39.626,0,0,0-2.719,8.2c-3.609,16.442-5.6,27.657-20.633,38.888s17.882,46.057,34.7,31.638,45.264,3.706,51.688-6.959c6.408-10.665-5.179-22.284.4-31.1S751.786,19.8,736.558,8.977C721.314-1.85,702.121-4.245,698.48,9.381Z" transform="translate(-324.6 0)" fill="#0f172a"/>
    <path id="Path_1008" data-name="Path 1008" d="M763.926,479.014s-36.444-3.3-29.227,83.245h79.377s7.509-81.449-29.243-83.245Z" transform="translate(-394.528 -401.487)" fill="#2a94f4"/>
    <path id="Path_1009" data-name="Path 1009" d="M922.62,323.7s-2.8,27.56-2.411,33.175,17.316,10.422,20.439,2.411c1.893-4.855-3.123-35.57-3.123-35.57h-14.9Z" transform="translate(-550.779 -271.321)" fill="#fcd2b1"/>
    <path id="Path_1010" data-name="Path 1010" d="M927.729,112.6s20.439,47.141-10.438,51.478c-7.978,1.117-19.5-7.7-21.3-14.112-1.586-5.615-4.272-1.311-6.328-6.1-2.8-6.538-.874-25.375,5.13-13.254,4.418,8.917,13.626-16.571,22.446-12.558s10.487-5.454,10.487-5.454Z" transform="translate(-524.153 -94.383)" fill="#ffe3ca"/>
    <path id="Path_1011" data-name="Path 1011" d="M500.456,595.347,471.472,503.8S448.25,514.481,434.3,523.527c0,0,8.528,23.4,14.856,36.217s9.6,16.96,20.1,22.333C479.774,587.45,500.456,595.347,500.456,595.347Z" transform="translate(-143.536 -422.275)" fill="#8000ff"/>
    <path id="Path_1012" data-name="Path 1012" d="M692.984,568.106,664,476.559s25.132-4.628,41.752-5.259c0,0,6.489,24.048,8.69,38.176,2.2,14.112,1.91,19.387-3.593,29.841C705.364,549.739,692.984,568.106,692.984,568.106Z" transform="translate(-336.063 -395.035)" fill="#8000ff"/>
    <path id="Path_1013" data-name="Path 1013" d="M459.3,541.314c2.363,6.36,8.82,23.32,13.788,33.385,5.971,12.1,8.8,15.811,18.643,20.86,8.108,4.143,22.624,9.92,28.4,12.17L493.43,523.4C490.565,524.743,471.987,533.466,459.3,541.314Z" transform="translate(-164.49 -438.703)" fill="#f9f3ed"/>
    <path id="Path_1014" data-name="Path 1014" d="M713.117,555.533c5.146-9.791,5.324-14.451,3.237-27.786-1.715-11.085-6.214-28.676-7.93-35.246-14.9.89-35.117,4.434-38.224,5l26.7,84.329C700.333,576.668,708.877,563.592,713.117,555.533Z" transform="translate(-341.26 -412.804)" fill="#f9f3ed"/>
    <path id="Path_1015" data-name="Path 1015" d="M474.3,552.046c2.8,7.428,8.577,22.446,13.141,31.67,5.729,11.6,8.237,15.083,17.769,19.97,7.4,3.787,20.213,8.949,26.718,11.506L506.617,535.2C503.7,536.559,486.6,544.619,474.3,552.046Z" transform="translate(-177.062 -448.594)" fill="#8000ff"/>
    <path id="Path_1016" data-name="Path 1016" d="M714.554,565.506c4.984-9.483,5.033-13.755,3.042-26.556-1.586-10.163-5.486-25.779-7.477-33.45-14.338,1-32.948,4.256-36.12,4.823L699.326,590.3C703.162,584.457,710.687,572.853,714.554,565.506Z" transform="translate(-344.445 -423.7)" fill="#8000ff"/>
    <path id="Path_1017" data-name="Path 1017" d="M1040.361,554.955l50.7,5.551a2.831,2.831,0,0,0,3.139-2.525l9.645-88.068a2.831,2.831,0,0,0-2.525-3.139l-53.533-5.874-9.969,90.9A2.879,2.879,0,0,0,1040.361,554.955Z" transform="translate(-649.376 -386.318)" fill="#d3d3d3"/>
    <path id="Path_1018" data-name="Path 1018" d="M1070.786,465.527l-1.894-.21-50.555-5.535-1.893-.21a3.945,3.945,0,0,0-4.353,3.5l-9.419,85.9a3.945,3.945,0,0,0,3.5,4.353l48.533,5.324a3.945,3.945,0,0,0,4.353-3.5l4.3-39.26,1.893.21a3.946,3.946,0,0,0,4.353-3.5l4.677-42.723A3.938,3.938,0,0,0,1070.786,465.527Z" transform="translate(-619.907 -385.184)" fill="#f7f7f7"/>
    <path id="Path_1019" data-name="Path 1019" d="M850.172,642.185V627.8a8.3,8.3,0,0,1,7.671-8.027H866.1c5.777,0,8.852,3.415,8.852,8.027v14.387h7.072V627.8c0-8.5-6.247-15.1-15.924-15.1h-8.253c-7.315,0-14.743,6.6-14.743,15.1v14.387Z" transform="translate(-486.18 -513.552)" fill="#cce9ff"/>
    <path id="Path_1020" data-name="Path 1020" d="M867.192,819.463c0,3.9-2.363,6.845-6.247,6.845H828.628c-3.9,0-7.428-2.945-7.428-6.845v-34.68c0-3.9,3.544-4.483,7.428-4.483h32.317c3.9,0,6.247.583,6.247,4.483v34.68Z" transform="translate(-467.824 -654.029)" fill="#0f172a"/>
    <path id="Path_1021" data-name="Path 1021" d="M942.168,860.72a5.94,5.94,0,0,0-5.891-6.02,5.847,5.847,0,0,0-5.777,6.02,5.559,5.559,0,0,0,3.544,5.308v11.085c0,1.537.825,2.719,2.363,2.719s2.363-1.181,2.363-2.719V866.028A5.465,5.465,0,0,0,942.168,860.72Z" transform="translate(-559.436 -716.389)" fill="#ffbe55"/>
    <path id="Path_1022" data-name="Path 1022" d="M942.168,860.72a5.94,5.94,0,0,0-5.891-6.02,5.847,5.847,0,0,0-5.777,6.02,5.559,5.559,0,0,0,3.544,5.308v11.085c0,1.537.825,2.719,2.363,2.719s2.363-1.181,2.363-2.719V866.028A5.465,5.465,0,0,0,942.168,860.72Z" transform="translate(-559.436 -716.389)" fill="#fff"/>
    <path id="Path_1023" data-name="Path 1023" d="M756.417,927.3l9.483-2.46s1.149-4.515,3.318-6.23,4.758-3.01,5.923-2.864c1.149.146-1.295,3.318-2.46,4.758s.583,1.877,5.195-1.295,8.512-4.191,9.661,2.3c1.149,6.505-5.486,9.532-13.561,9.532a27.4,27.4,0,0,0-14.419,4.547S747.517,934.514,756.417,927.3Z" transform="translate(-410.777 -767.544)" fill="#ffe3ca"/>
    <path id="Path_1024" data-name="Path 1024" d="M487.109,849.5s-3.544.194-6.748,6.6.89,37.075,56.77,24.954l-3.674-11.619C533.441,869.437,490.3,856.394,487.109,849.5Z" transform="translate(-181.473 -712.031)" fill="#2a94f4"/>
    <path id="Path_1025" data-name="Path 1025" d="M1001.047,927.3l-9.483-2.46s-1.149-4.515-3.318-6.23-4.758-3.01-5.923-2.864c-1.149.146,1.295,3.318,2.46,4.758s-.583,1.877-5.195-1.295-8.512-4.191-9.661,2.3c-1.149,6.505,5.486,9.532,13.561,9.532a27.4,27.4,0,0,1,14.419,4.547S1009.948,934.514,1001.047,927.3Z" transform="translate(-592.374 -767.544)" fill="#ffe3ca"/>
    <path id="Path_1026" data-name="Path 1026" d="M1150.521,849.5s3.544.194,6.748,6.6-.89,37.075-56.77,24.954l3.673-11.619C1104.19,869.437,1147.317,856.394,1150.521,849.5Z" transform="translate(-701.925 -712.031)" fill="#2a94f4"/>
  </g>
</svg>
